<svg id="svg" version="1.1" xmlns="http://www.w3.org/2000/svg" xmlns:xlink="http://www.w3.org/1999/xlink" width="400" height="400" viewBox="0, 0, 400,400"><g id="svgg"><path id="path0" d="M338.138 21.003 C 337.224 21.960,336.579 22.846,336.705 22.971 C 336.830 23.097,336.715 23.200,336.448 23.200 C 336.180 23.200,335.148 24.055,334.153 25.100 C 333.159 26.145,332.177 26.955,331.972 26.900 C 331.768 26.845,331.645 26.935,331.700 27.100 C 331.755 27.265,331.706 27.400,331.590 27.400 C 331.205 27.400,330.082 28.597,330.233 28.847 C 330.314 28.982,330.025 29.415,329.591 29.809 C 329.156 30.202,328.800 30.393,328.800 30.233 C 328.800 29.838,327.603 31.059,327.587 31.471 C 327.580 31.652,326.860 32.515,325.987 33.389 C 325.114 34.263,324.400 35.118,324.400 35.289 C 324.400 35.460,324.213 35.600,323.984 35.600 C 323.755 35.600,321.235 37.940,318.384 40.801 C 315.533 43.661,313.200 45.904,313.200 45.785 C 313.200 45.666,312.947 45.801,312.638 46.084 C 312.329 46.368,312.104 46.700,312.138 46.821 C 312.216 47.100,297.074 62.222,296.801 62.138 C 296.690 62.104,296.368 62.329,296.084 62.638 C 295.801 62.947,295.667 63.200,295.788 63.200 C 295.909 63.200,292.721 66.481,288.704 70.491 C 284.687 74.500,281.265 77.740,281.100 77.691 C 280.935 77.641,280.845 77.735,280.900 77.900 C 280.955 78.065,280.842 78.234,280.649 78.275 C 280.457 78.316,280.082 78.766,279.817 79.275 C 279.552 79.784,279.124 80.155,278.867 80.100 C 278.610 80.045,278.445 80.138,278.500 80.308 C 278.646 80.756,264.083 95.150,263.785 94.851 C 263.647 94.713,263.570 94.780,263.614 95.000 C 263.658 95.220,263.673 95.754,263.647 96.188 C 263.619 96.654,257.489 103.104,248.630 111.988 C 230.221 130.449,231.199 128.890,229.800 142.000 C 229.460 145.190,229.001 149.330,228.781 151.200 C 227.632 160.961,227.631 160.974,228.473 164.818 C 228.584 165.325,220.427 165.426,165.200 165.600 C 101.875 165.800,101.798 165.801,100.200 166.635 C 95.976 168.841,95.692 175.214,99.691 178.066 C 100.973 178.980,101.243 179.004,112.600 179.200 L 124.200 179.400 124.400 273.600 C 124.592 364.259,124.628 367.846,125.338 369.018 C 127.853 373.170,133.964 373.278,136.699 369.219 L 137.600 367.882 137.600 319.017 C 137.600 280.555,137.706 270.008,138.100 269.473 C 138.565 268.840,141.206 268.800,176.200 268.897 L 213.800 269.000 213.903 296.500 C 213.959 311.625,213.959 324.040,213.903 324.090 C 213.846 324.139,202.338 324.274,188.329 324.390 C 163.269 324.597,162.840 324.614,161.729 325.438 C 158.021 328.188,157.903 333.413,161.481 336.362 L 162.982 337.600 234.858 337.600 C 306.668 337.600,306.735 337.599,308.666 336.772 C 312.515 335.122,315.334 331.928,316.585 327.800 C 317.669 324.225,317.491 220.210,316.397 217.883 C 314.399 213.633,308.642 212.712,305.442 216.131 C 303.754 217.934,303.809 217.326,303.600 236.561 L 303.400 255.000 220.824 255.101 C 155.027 255.181,138.184 255.100,137.930 254.701 C 137.376 253.828,137.523 180.237,138.080 179.680 C 138.448 179.312,150.412 179.200,189.493 179.200 C 244.018 179.200,241.932 179.272,244.088 177.320 C 245.122 176.385,246.000 174.459,246.000 173.129 C 246.000 171.648,246.555 171.454,252.600 170.830 C 260.067 170.058,266.074 169.254,267.507 168.834 C 272.273 167.439,271.649 168.011,308.301 131.443 C 327.497 112.291,343.671 96.375,344.245 96.075 C 344.818 95.775,346.253 94.600,347.434 93.464 C 350.183 90.820,357.845 83.119,359.967 80.867 C 360.865 79.914,361.604 79.374,361.609 79.667 C 361.614 79.960,361.905 79.618,362.256 78.906 C 362.607 78.194,363.053 77.709,363.247 77.829 C 363.441 77.949,363.600 77.844,363.600 77.595 C 363.600 76.976,364.625 76.000,365.276 76.000 C 365.570 76.000,366.168 75.523,366.605 74.940 C 367.877 73.243,371.365 69.791,371.697 69.900 C 371.863 69.955,371.955 69.775,371.900 69.500 C 371.845 69.225,372.038 69.049,372.330 69.110 C 372.621 69.170,372.758 69.056,372.634 68.856 C 372.511 68.655,373.328 67.616,374.450 66.546 C 377.394 63.739,378.400 62.652,378.400 62.280 C 378.400 62.100,378.553 62.047,378.740 62.163 C 378.927 62.278,379.317 61.929,379.607 61.386 C 379.898 60.844,380.285 60.400,380.468 60.400 C 381.878 60.400,341.918 19.563,340.281 19.332 C 340.017 19.295,339.052 20.047,338.138 21.003 M303.400 296.600 L 303.400 324.200 265.600 324.200 L 227.800 324.200 227.697 296.498 L 227.595 268.796 265.497 268.898 L 303.400 269.000 303.400 296.600 " stroke="none" fill="#f1e8bf" fill-rule="evenodd"></path><path id="path1" d="M39.173 0.160 C 39.065 0.269,38.217 0.402,37.288 0.457 C 36.360 0.512,35.600 0.701,35.600 0.878 C 35.600 1.055,35.161 1.200,34.624 1.200 C 34.087 1.200,33.536 1.380,33.400 1.600 C 33.264 1.820,32.713 2.000,32.176 2.000 C 31.639 2.000,31.200 2.141,31.200 2.313 C 31.200 2.485,30.352 2.876,29.315 3.182 C 27.753 3.643,23.951 5.643,23.200 6.399 C 22.797 6.804,21.199 7.600,20.787 7.600 C 20.554 7.600,19.914 8.050,19.364 8.600 C 18.814 9.150,18.210 9.600,18.022 9.600 C 17.834 9.600,17.024 10.256,16.222 11.058 C 15.420 11.860,14.117 13.030,13.327 13.658 C 12.537 14.286,12.003 14.800,12.141 14.800 C 12.389 14.800,11.564 15.919,10.400 17.160 C 10.070 17.512,9.260 18.655,8.600 19.699 C 7.940 20.744,7.265 21.599,7.100 21.599 C 6.935 21.600,6.800 21.960,6.800 22.400 C 6.800 22.840,6.620 23.200,6.400 23.200 C 6.180 23.200,6.000 23.481,6.000 23.824 C 6.000 24.167,5.820 24.336,5.600 24.200 C 5.380 24.064,5.196 24.188,5.191 24.476 C 5.186 24.764,4.650 26.080,4.000 27.400 C 3.350 28.720,2.814 30.115,2.809 30.500 C 2.804 30.885,2.620 31.200,2.400 31.200 C 2.180 31.200,2.000 31.639,2.000 32.176 C 2.000 32.713,1.820 33.264,1.600 33.400 C 1.380 33.536,1.200 34.087,1.200 34.624 C 1.200 35.161,1.050 35.600,0.867 35.600 C 0.683 35.600,0.475 35.825,0.404 36.100 C 0.051 37.467,0.044 345.343,0.398 344.800 C 0.612 344.470,0.791 343.623,0.794 342.919 C 0.797 342.214,0.955 341.224,1.144 340.719 C 1.333 340.213,1.913 338.450,2.432 336.800 C 6.963 322.401,18.409 310.941,33.400 305.792 C 38.833 303.926,45.186 303.207,56.289 303.203 C 67.896 303.199,71.700 301.583,74.457 295.486 L 75.400 293.400 75.600 194.833 C 75.759 116.478,75.903 96.232,76.300 96.100 C 76.887 95.904,77.050 13.200,76.463 13.200 C 76.278 13.200,76.095 12.304,76.056 11.208 C 75.953 8.283,72.754 2.820,70.778 2.193 C 70.344 2.055,70.094 1.771,70.224 1.561 C 70.353 1.352,70.311 1.206,70.130 1.237 C 69.372 1.369,68.767 1.177,68.959 0.867 C 69.305 0.307,39.728 -0.395,39.173 0.160 M101.941 179.701 C 102.143 179.903,102.733 180.001,103.254 179.919 C 104.055 179.793,103.998 179.737,102.887 179.552 C 102.093 179.421,101.719 179.479,101.941 179.701 M309.700 213.476 C 310.085 213.576,310.715 213.576,311.100 213.476 C 311.485 213.375,311.170 213.293,310.400 213.293 C 309.630 213.293,309.315 213.375,309.700 213.476 M302.896 236.699 L 302.800 254.398 220.700 254.500 L 138.600 254.602 220.713 254.701 C 286.107 254.780,302.864 254.698,303.017 254.300 C 303.122 254.025,303.160 245.970,303.100 236.400 L 302.991 219.000 302.896 236.699 M157.070 269.500 C 167.228 269.559,183.968 269.559,194.270 269.500 C 204.571 269.441,196.260 269.392,175.800 269.392 C 155.340 269.392,146.911 269.440,157.070 269.500 M228.184 269.700 C 228.079 269.975,228.039 282.260,228.096 297.000 L 228.200 323.800 265.600 323.803 L 303.000 323.806 265.700 323.701 L 228.400 323.596 228.400 296.600 L 228.400 269.604 265.700 269.500 L 303.000 269.396 265.687 269.298 C 236.133 269.220,228.335 269.304,228.184 269.700 M302.989 296.600 C 302.989 311.340,303.039 317.312,303.100 309.871 C 303.161 302.430,303.161 290.370,303.100 283.071 C 303.039 275.772,302.989 281.860,302.989 296.600 M177.700 323.900 C 184.245 323.961,194.955 323.961,201.500 323.900 C 208.045 323.838,202.690 323.788,189.600 323.788 C 176.510 323.788,171.155 323.838,177.700 323.900 " stroke="none" fill="#3c94d4" fill-rule="evenodd"></path><path id="path2" d="M72.814 3.871 C 72.822 4.052,73.288 4.740,73.850 5.400 C 74.731 6.436,74.803 6.464,74.372 5.608 C 73.817 4.504,72.792 3.361,72.814 3.871 M10.653 16.500 L 9.933 17.800 10.758 16.800 C 11.489 15.913,11.814 15.200,11.486 15.200 C 11.424 15.200,11.049 15.785,10.653 16.500 M76.400 95.992 C 75.870 96.326,75.777 107.898,75.600 194.885 L 75.400 293.400 74.457 295.486 C 71.700 301.583,67.896 303.199,56.289 303.203 C 45.186 303.207,38.833 303.926,33.400 305.792 C 20.378 310.265,10.205 319.262,4.671 331.200 C 2.462 335.964,1.860 337.749,0.687 343.000 C 0.043 345.886,0.061 363.287,0.709 363.503 C 0.979 363.593,1.200 364.192,1.200 364.833 C 1.200 365.475,1.380 366.000,1.600 366.000 C 1.820 366.000,2.000 366.540,2.000 367.200 C 2.000 367.860,2.180 368.400,2.400 368.400 C 2.620 368.400,2.800 368.850,2.800 369.400 C 2.800 369.950,2.980 370.400,3.200 370.400 C 3.420 370.400,3.600 370.850,3.600 371.400 C 3.600 371.950,3.746 372.400,3.925 372.400 C 4.104 372.400,4.498 373.030,4.800 373.800 C 5.102 374.570,5.474 375.200,5.626 375.200 C 5.778 375.200,6.127 375.740,6.400 376.400 C 6.673 377.060,7.055 377.600,7.249 377.600 C 7.442 377.600,7.600 377.878,7.600 378.217 C 7.600 378.854,8.090 379.575,9.300 380.717 C 9.685 381.080,10.000 381.581,10.000 381.830 C 10.000 382.438,17.539 390.000,18.145 390.000 C 18.407 390.000,18.920 390.315,19.283 390.700 C 20.425 391.910,21.146 392.400,21.783 392.400 C 22.122 392.400,22.400 392.580,22.400 392.800 C 22.400 393.020,22.694 393.200,23.053 393.200 C 23.412 393.200,23.997 393.524,24.353 393.920 C 24.709 394.317,25.720 394.966,26.600 395.364 C 27.480 395.762,28.723 396.338,29.361 396.644 C 30.000 396.950,30.765 397.200,31.061 397.200 C 31.358 397.200,31.600 397.380,31.600 397.600 C 31.600 397.820,32.140 398.000,32.800 398.000 C 33.460 398.000,34.000 398.180,34.000 398.400 C 34.000 398.620,34.594 398.800,35.320 398.800 C 36.046 398.800,36.865 399.025,37.140 399.300 C 37.538 399.698,73.671 399.800,215.129 399.800 L 392.619 399.800 393.585 398.900 C 394.116 398.405,394.703 398.000,394.889 398.000 C 395.329 398.000,398.000 395.329,398.000 394.889 C 398.000 394.703,398.405 394.116,398.900 393.585 L 399.800 392.619 399.800 248.243 C 399.800 133.097,399.699 103.833,399.300 103.700 C 399.025 103.608,398.800 103.274,398.800 102.958 C 398.800 101.425,392.352 96.400,390.386 96.400 C 389.980 96.400,389.536 96.220,389.400 96.000 C 389.240 95.741,381.392 95.600,367.166 95.600 L 345.179 95.600 343.889 96.778 C 343.180 97.426,327.210 113.317,308.400 132.090 C 286.129 154.318,273.555 166.584,272.352 167.255 C 268.245 169.545,267.381 169.730,253.800 171.219 C 246.836 171.982,246.614 172.049,246.486 173.400 C 246.326 175.077,245.617 176.408,244.168 177.750 C 241.639 180.092,244.209 179.987,189.100 179.994 L 138.400 180.000 138.400 217.200 L 138.400 254.400 220.600 254.400 L 302.800 254.400 302.800 236.824 C 302.800 225.537,302.943 219.159,303.200 219.000 C 303.420 218.864,303.600 218.403,303.600 217.976 C 303.600 217.549,304.279 216.525,305.108 215.700 C 308.761 212.066,314.029 212.746,316.744 217.200 L 317.597 218.600 317.599 272.881 C 317.600 312.610,317.478 327.462,317.144 328.281 C 315.882 331.375,315.411 332.207,314.095 333.663 C 312.397 335.544,310.061 336.977,307.366 337.795 C 304.475 338.672,164.831 338.708,162.749 337.833 C 158.075 335.867,156.877 329.847,160.375 325.900 C 160.911 325.295,161.571 324.800,161.842 324.800 C 162.112 324.800,162.408 324.575,162.500 324.300 C 162.630 323.909,168.164 323.773,187.933 323.676 L 213.200 323.551 213.200 296.576 L 213.200 269.600 175.800 269.600 L 138.400 269.600 138.400 318.213 C 138.400 361.186,138.328 366.998,137.781 368.307 C 135.476 373.824,128.206 374.428,124.896 369.379 L 124.000 368.011 124.000 274.006 L 124.000 180.000 113.024 180.000 C 106.137 180.000,101.955 179.851,101.800 179.600 C 101.664 179.380,101.265 179.200,100.914 179.200 C 95.684 179.200,94.648 169.455,99.547 166.348 L 101.357 165.200 164.678 165.200 C 227.092 165.200,228.000 165.189,228.000 164.424 C 228.000 163.997,227.799 163.523,227.553 163.371 C 227.094 163.087,227.223 160.119,227.985 153.400 C 228.184 151.640,228.540 148.490,228.775 146.400 C 230.881 127.684,229.096 130.888,248.078 111.764 C 256.395 103.384,263.200 96.319,263.200 96.064 C 263.200 95.471,77.338 95.399,76.400 95.992 M228.400 296.600 L 228.400 323.600 265.600 323.600 L 302.800 323.600 302.800 296.600 L 302.800 269.600 265.600 269.600 L 228.400 269.600 228.400 296.600 " stroke="none" fill="#2c84bc" fill-rule="evenodd"></path><path id="path3" d="M359.200 0.687 C 358.430 1.076,356.135 3.016,354.099 4.997 C 349.140 9.825,342.427 16.528,341.233 17.843 L 340.265 18.908 360.735 39.268 C 378.404 56.842,381.290 59.557,381.829 59.114 C 382.572 58.502,389.944 51.102,395.000 45.892 C 399.871 40.872,399.800 41.049,399.800 34.000 C 399.800 29.553,399.654 27.841,399.200 26.969 C 398.107 24.871,375.767 2.423,373.160 0.804 C 371.609 -0.160,361.051 -0.248,359.200 0.687 M309.260 49.442 C 308.962 49.778,308.799 50.132,308.895 50.229 C 308.992 50.326,309.398 50.044,309.798 49.602 C 310.197 49.161,310.361 48.807,310.162 48.815 C 309.963 48.824,309.557 49.105,309.260 49.442 M278.088 80.648 C 277.366 81.392,276.925 82.000,277.109 82.000 C 277.293 82.000,278.054 81.370,278.800 80.600 C 279.546 79.830,279.987 79.222,279.778 79.248 C 279.570 79.274,278.809 79.904,278.088 80.648 M359.785 80.924 C 358.291 82.529,358.260 83.019,359.740 81.622 C 360.543 80.863,361.200 80.188,361.200 80.122 C 361.200 79.759,360.499 80.157,359.785 80.924 M354.800 86.200 C 353.161 87.850,351.910 89.200,352.020 89.200 C 352.130 89.200,353.561 87.850,355.200 86.200 C 356.839 84.550,358.090 83.200,357.980 83.200 C 357.870 83.200,356.439 84.550,354.800 86.200 M347.580 93.220 C 346.439 94.331,345.583 95.316,345.677 95.410 C 345.770 95.504,346.820 94.595,348.010 93.390 C 350.728 90.637,350.375 90.497,347.580 93.220 " stroke="none" fill="#fb5464" fill-rule="evenodd"></path><path id="path4" d="M380.600 60.146 C 379.419 61.518,379.196 62.061,380.203 61.112 C 380.838 60.514,381.277 59.947,381.179 59.852 C 381.080 59.758,380.820 59.890,380.600 60.146 M375.200 65.756 C 373.093 67.765,370.613 70.400,370.829 70.400 C 370.934 70.400,372.361 69.050,374.000 67.400 C 376.996 64.384,377.811 63.267,375.200 65.756 M364.100 76.598 C 363.531 77.245,363.461 77.600,363.904 77.600 C 364.071 77.600,364.432 77.240,364.707 76.800 C 365.278 75.887,364.851 75.745,364.100 76.598 M362.477 78.426 C 361.909 79.335,362.212 79.445,363.032 78.626 C 363.348 78.310,363.461 77.961,363.283 77.851 C 363.105 77.742,362.743 78.000,362.477 78.426 M263.200 96.064 C 263.200 96.319,256.395 103.384,248.078 111.764 C 230.132 129.844,230.755 128.921,229.589 139.200 C 229.376 141.070,229.010 144.310,228.775 146.400 C 228.540 148.490,228.184 151.640,227.985 153.400 C 227.223 160.119,227.094 163.087,227.553 163.371 C 227.799 163.523,228.000 163.996,228.000 164.422 C 228.000 165.186,227.026 165.199,165.100 165.301 L 102.200 165.404 165.400 165.402 C 220.523 165.400,228.584 165.326,228.473 164.818 C 227.631 160.974,227.632 160.961,228.781 151.200 C 229.001 149.330,229.460 145.190,229.800 142.000 C 231.199 128.890,230.221 130.449,248.630 111.988 C 261.349 99.233,264.623 95.600,263.400 95.600 C 263.290 95.600,263.200 95.809,263.200 96.064 M343.669 96.349 C 343.376 96.534,327.446 112.341,308.269 131.475 C 271.652 168.009,272.272 167.439,267.507 168.834 C 266.074 169.254,260.067 170.058,252.600 170.830 C 246.555 171.454,246.000 171.648,246.000 173.129 C 246.000 174.459,245.122 176.385,244.088 177.320 C 241.932 179.272,244.018 179.200,189.493 179.200 C 150.412 179.200,138.448 179.312,138.080 179.680 C 137.523 180.237,137.376 253.828,137.930 254.701 C 138.184 255.100,155.027 255.181,220.824 255.101 L 303.400 255.000 303.600 236.561 C 303.809 217.326,303.754 217.934,305.442 216.131 C 305.685 215.871,306.495 215.286,307.242 214.831 C 307.989 214.376,308.347 214.002,308.038 214.001 C 307.258 213.999,304.926 215.836,304.092 217.108 C 303.470 218.057,303.380 219.997,303.200 236.382 L 303.000 254.600 220.800 254.600 L 138.600 254.600 138.498 217.300 L 138.396 180.000 188.178 180.000 C 240.143 180.000,240.922 179.976,243.479 178.268 C 245.039 177.226,246.400 174.909,246.400 173.296 C 246.400 171.930,246.464 171.917,259.600 170.621 C 265.529 170.036,268.986 169.118,272.400 167.224 C 273.549 166.586,286.503 153.942,308.200 132.280 C 326.900 113.610,342.791 97.809,343.514 97.167 C 344.752 96.067,344.839 95.607,343.669 96.349 M98.681 167.300 C 95.419 170.568,95.393 174.206,98.610 177.428 C 100.874 179.696,102.750 180.000,114.467 180.000 L 124.000 180.000 124.000 273.820 C 124.000 376.085,123.827 368.666,126.260 370.800 C 128.603 372.855,131.071 373.314,133.754 372.193 C 135.399 371.506,137.600 369.382,137.600 368.482 C 137.600 368.152,137.194 368.484,136.699 369.219 C 133.964 373.278,127.853 373.170,125.338 369.018 C 124.628 367.846,124.592 364.259,124.400 273.600 L 124.200 179.400 112.600 179.200 C 101.243 179.004,100.973 178.980,99.691 178.066 C 95.587 175.139,95.977 168.797,100.400 166.541 C 101.780 165.837,101.988 165.620,101.289 165.611 C 100.741 165.604,99.704 166.276,98.681 167.300 M309.500 213.882 C 309.995 213.978,310.805 213.978,311.300 213.882 C 311.795 213.787,311.390 213.709,310.400 213.709 C 309.410 213.709,309.005 213.787,309.500 213.882 M313.917 215.087 C 317.484 217.400,317.201 212.422,317.196 272.696 C 317.191 331.034,317.331 327.657,314.758 331.665 C 313.230 334.046,311.605 335.450,309.000 336.640 C 307.900 337.143,307.227 337.564,307.504 337.577 C 309.782 337.681,314.540 333.623,316.269 330.104 L 317.400 327.800 317.515 274.000 C 317.601 233.888,317.512 219.767,317.163 218.499 C 316.662 216.678,314.137 214.000,312.919 214.000 C 312.525 214.000,312.944 214.457,313.917 215.087 M138.015 269.572 C 137.529 270.479,137.415 367.919,137.900 367.433 C 138.065 367.268,138.290 345.143,138.400 318.267 L 138.600 269.400 175.800 269.400 L 213.000 269.400 213.103 296.700 L 213.206 324.000 188.165 324.000 L 163.123 324.000 161.862 324.884 C 158.781 327.041,157.544 330.776,158.882 333.881 C 159.417 335.124,161.854 337.600,162.541 337.600 C 162.784 337.600,162.307 337.043,161.481 336.362 C 157.903 333.413,158.021 328.188,161.729 325.438 C 162.840 324.614,163.269 324.597,188.329 324.390 C 202.338 324.274,213.846 324.139,213.903 324.090 C 213.959 324.040,213.959 311.625,213.903 296.500 L 213.800 269.000 176.115 268.898 C 139.178 268.798,138.422 268.811,138.015 269.572 M227.697 296.498 L 227.800 324.200 265.600 324.200 L 303.400 324.200 303.400 296.600 L 303.400 269.000 265.497 268.898 L 227.595 268.796 227.697 296.498 M302.957 269.833 C 303.323 270.785,303.237 322.922,302.869 323.502 C 302.616 323.900,294.851 323.983,265.375 323.902 L 228.200 323.800 228.096 297.000 C 228.039 282.260,228.079 269.975,228.184 269.700 C 228.509 268.849,302.630 268.981,302.957 269.833 M163.600 338.000 C 163.982 338.247,189.900 338.388,234.800 338.388 C 279.700 338.388,305.618 338.247,306.000 338.000 C 306.389 337.749,281.300 337.612,234.800 337.612 C 188.300 337.612,163.211 337.749,163.600 338.000 " stroke="none" fill="#6aa5c2" fill-rule="evenodd"></path></g></svg>