<svg id="svg" version="1.1" xmlns="http://www.w3.org/2000/svg" xmlns:xlink="http://www.w3.org/1999/xlink" width="400" height="400" viewBox="0, 0, 400,400"><g id="svgg"><path id="path0" d="M195.800 71.690 C 194.260 71.893,192.687 72.226,192.305 72.429 C 191.923 72.633,191.156 72.800,190.600 72.800 C 190.044 72.800,189.277 72.957,188.895 73.150 C 186.122 74.547,184.671 75.200,184.340 75.200 C 184.129 75.200,182.863 75.965,181.527 76.900 C 180.191 77.835,178.808 78.780,178.455 79.000 C 169.602 84.507,163.542 100.336,165.790 112.083 C 166.783 117.270,169.710 124.418,171.758 126.656 C 172.001 126.922,172.920 128.028,173.800 129.113 C 177.403 133.559,187.098 139.600,190.630 139.600 C 191.137 139.600,191.648 139.754,191.765 139.943 C 192.101 140.486,196.247 140.951,200.600 140.932 C 206.275 140.907,208.888 140.347,214.096 138.040 C 215.138 137.578,216.091 137.200,216.214 137.200 C 217.353 137.200,227.198 129.083,227.201 128.141 C 227.201 127.954,227.741 127.170,228.400 126.400 C 229.059 125.630,229.599 124.775,229.599 124.500 C 229.600 124.225,229.736 124.000,229.902 124.000 C 230.069 124.000,230.421 123.505,230.686 122.900 C 230.951 122.295,231.564 120.900,232.048 119.800 C 232.532 118.700,233.087 117.170,233.282 116.400 C 235.345 108.253,235.344 104.066,233.278 96.000 C 232.139 91.552,228.121 84.966,224.467 81.557 C 221.594 78.876,218.971 76.800,218.457 76.800 C 218.242 76.800,218.007 76.664,217.933 76.498 C 217.778 76.147,213.160 73.873,211.400 73.280 C 209.311 72.577,206.698 72.026,203.471 71.606 C 200.018 71.158,199.816 71.160,195.800 71.690 M153.200 176.600 L 153.200 188.000 154.443 188.000 C 158.061 188.000,162.852 191.829,164.430 195.982 C 165.502 198.804,165.631 270.913,164.569 274.000 C 163.009 278.537,158.197 282.400,154.106 282.400 L 153.200 282.400 153.200 293.800 L 153.200 305.200 200.000 305.200 L 246.800 305.200 246.800 293.800 L 246.800 282.400 245.819 282.400 C 241.581 282.400,236.845 278.301,235.233 273.240 C 234.931 272.293,234.800 255.705,234.800 218.540 L 234.800 165.200 194.000 165.200 L 153.200 165.200 153.200 176.600 " stroke="none" fill="#e3ecfc" fill-rule="evenodd"></path><path id="path1" d="M200.000 35.336 L 200.000 70.800 202.100 70.800 C 206.414 70.800,216.471 73.810,217.133 75.300 C 217.207 75.465,217.444 75.600,217.661 75.600 C 219.157 75.600,227.116 82.869,229.485 86.400 C 231.795 89.843,233.341 93.420,234.639 98.320 C 235.277 100.730,235.422 111.562,234.841 113.440 C 234.644 114.078,234.168 115.680,233.784 117.000 C 231.615 124.446,227.355 130.016,219.000 136.327 C 217.935 137.131,211.579 140.000,210.863 140.000 C 210.414 140.000,209.936 140.180,209.800 140.400 C 209.664 140.620,208.944 140.800,208.200 140.800 C 207.456 140.800,206.736 140.980,206.600 141.200 C 206.464 141.420,204.923 141.600,203.176 141.600 L 200.000 141.600 200.000 153.200 L 200.000 164.800 217.600 164.800 L 235.200 164.800 235.200 217.180 C 235.200 269.878,235.252 272.009,236.617 275.033 C 238.015 278.129,241.525 280.832,244.860 281.381 C 247.247 281.774,247.223 281.636,247.106 294.049 L 247.000 305.400 223.500 305.503 L 200.000 305.606 200.000 352.867 L 200.000 400.127 212.494 399.881 C 220.599 399.721,225.037 399.488,225.128 399.217 C 225.206 398.981,226.468 398.800,228.033 398.800 C 229.611 398.800,230.800 398.628,230.800 398.400 C 230.800 398.178,231.867 398.000,233.200 398.000 C 234.533 398.000,235.600 397.822,235.600 397.600 C 235.600 397.380,236.219 397.200,236.976 397.200 C 237.733 397.200,238.444 397.053,238.555 396.872 C 238.667 396.692,239.712 396.502,240.879 396.450 C 242.045 396.398,243.060 396.186,243.133 395.978 C 243.207 395.770,243.972 395.600,244.833 395.600 C 245.695 395.600,246.400 395.420,246.400 395.200 C 246.400 394.980,247.109 394.800,247.976 394.800 C 248.843 394.800,249.664 394.620,249.800 394.400 C 249.936 394.180,250.487 394.000,251.024 394.000 C 251.561 394.000,252.000 393.820,252.000 393.600 C 252.000 393.380,252.799 393.200,253.776 393.200 C 254.753 393.200,255.664 393.020,255.800 392.800 C 255.936 392.580,256.476 392.400,257.000 392.400 C 257.524 392.400,258.056 392.233,258.183 392.028 C 258.309 391.823,259.400 391.533,260.606 391.382 C 261.813 391.231,262.800 390.949,262.800 390.754 C 262.800 390.559,263.214 390.400,263.720 390.400 C 264.226 390.400,264.811 390.236,265.020 390.035 C 265.229 389.834,265.850 389.609,266.400 389.535 C 266.950 389.461,267.490 389.310,267.600 389.200 C 268.104 388.696,269.654 387.988,269.418 388.370 C 269.272 388.607,269.343 388.800,269.576 388.800 C 269.809 388.800,270.000 388.620,270.000 388.400 C 270.000 388.180,270.343 388.000,270.762 388.000 C 271.421 388.000,272.589 387.514,275.695 385.950 C 276.077 385.757,276.662 385.600,276.995 385.600 C 277.328 385.600,277.600 385.420,277.600 385.200 C 277.600 384.980,277.960 384.800,278.400 384.800 C 278.840 384.800,279.200 384.620,279.200 384.400 C 279.200 384.180,279.560 384.000,280.000 384.000 C 280.440 384.000,280.801 383.865,280.803 383.700 C 280.805 383.535,281.255 383.192,281.804 382.937 C 282.558 382.587,282.738 382.587,282.542 382.937 C 282.379 383.227,282.484 383.213,282.821 382.900 C 283.118 382.625,283.684 382.400,284.080 382.400 C 284.476 382.400,284.800 382.220,284.800 382.000 C 284.800 381.780,285.160 381.600,285.600 381.600 C 286.040 381.600,286.400 381.420,286.400 381.200 C 286.400 380.980,286.760 380.800,287.200 380.800 C 287.640 380.800,288.001 380.665,288.003 380.500 C 288.007 380.149,289.937 379.200,290.646 379.200 C 290.914 379.200,291.193 379.058,291.267 378.886 C 291.544 378.231,293.959 376.800,294.785 376.800 C 295.259 376.800,295.536 376.620,295.400 376.400 C 295.262 376.177,295.566 376.000,296.088 376.000 C 296.603 376.000,297.276 375.650,297.585 375.221 C 297.893 374.793,298.280 374.526,298.445 374.628 C 298.609 374.729,299.664 374.270,300.789 373.606 C 301.915 372.943,303.007 372.400,303.218 372.400 C 303.428 372.400,303.600 372.220,303.600 372.000 C 303.600 371.780,303.894 371.600,304.253 371.600 C 304.612 371.600,305.197 371.284,305.553 370.897 C 305.909 370.511,306.692 369.942,307.293 369.633 C 307.895 369.325,308.742 368.741,309.177 368.336 C 309.611 367.931,310.167 367.600,310.412 367.600 C 311.017 367.600,312.022 366.556,311.714 366.248 C 311.578 366.111,311.767 366.000,312.133 366.000 C 312.500 366.000,312.800 365.809,312.800 365.576 C 312.800 365.343,312.968 365.257,313.174 365.384 C 313.380 365.511,314.002 365.162,314.556 364.608 C 315.110 364.053,315.802 363.600,316.094 363.600 C 316.385 363.600,316.883 363.240,317.200 362.800 C 317.517 362.360,318.007 362.000,318.288 362.000 C 318.569 362.000,319.541 361.280,320.448 360.400 C 321.355 359.520,322.248 358.800,322.434 358.800 C 322.620 358.800,323.408 358.241,324.186 357.559 C 324.964 356.876,325.600 356.419,325.600 356.543 C 325.600 356.667,326.306 356.056,327.169 355.184 C 328.031 354.313,328.903 353.600,329.105 353.600 C 329.307 353.600,330.948 352.160,332.751 350.400 C 334.554 348.640,336.203 347.200,336.415 347.200 C 336.627 347.200,336.800 347.050,336.800 346.868 C 336.800 346.685,337.253 346.293,337.808 345.996 C 338.540 345.604,338.676 345.369,338.308 345.134 C 337.972 344.921,338.138 344.808,338.800 344.800 C 339.593 344.790,339.676 344.708,339.200 344.400 C 338.687 344.069,338.702 344.011,339.300 344.006 C 339.685 344.003,340.000 343.711,340.000 343.357 C 340.000 342.960,340.222 342.799,340.580 342.937 C 340.927 343.070,341.255 342.856,341.400 342.400 C 341.533 341.983,341.992 341.530,342.420 341.394 C 342.849 341.257,343.200 340.858,343.200 340.506 C 343.200 340.155,343.311 339.978,343.448 340.114 C 343.824 340.491,344.799 339.353,344.806 338.529 C 344.811 337.912,344.872 337.892,345.200 338.400 C 345.531 338.913,345.589 338.898,345.594 338.300 C 345.597 337.915,345.780 337.600,346.000 337.600 C 346.220 337.600,346.400 337.411,346.400 337.181 C 346.400 336.950,347.660 335.519,349.200 334.000 C 350.740 332.481,352.000 331.050,352.000 330.819 C 352.000 330.589,352.180 330.400,352.400 330.400 C 352.620 330.400,352.800 330.211,352.800 329.981 C 352.800 329.750,353.681 328.681,354.757 327.605 C 355.834 326.528,356.644 325.578,356.559 325.492 C 356.473 325.406,356.852 324.914,357.402 324.399 C 357.951 323.883,358.400 323.259,358.400 323.014 C 358.400 322.768,359.030 321.899,359.800 321.082 C 360.571 320.265,361.246 319.374,361.300 319.102 C 361.355 318.830,361.895 318.129,362.500 317.543 C 363.105 316.958,363.600 316.263,363.600 316.000 C 363.600 315.737,364.140 315.017,364.800 314.400 C 365.460 313.783,366.000 313.031,366.000 312.728 C 366.000 312.425,366.360 311.917,366.800 311.600 C 367.240 311.283,367.600 310.786,367.600 310.495 C 367.600 310.204,367.960 309.580,368.400 309.108 C 368.840 308.636,369.200 307.912,369.200 307.501 C 369.200 307.089,369.380 306.864,369.600 307.000 C 369.820 307.136,370.000 306.967,370.000 306.624 C 370.000 306.281,370.180 306.000,370.400 306.000 C 370.620 306.000,370.800 305.680,370.800 305.288 C 370.800 304.897,371.160 304.317,371.600 304.000 C 372.040 303.683,372.400 303.291,372.400 303.129 C 372.400 302.968,372.943 301.915,373.606 300.789 C 374.270 299.664,374.709 298.576,374.583 298.372 C 374.456 298.167,374.543 298.000,374.776 298.000 C 375.009 298.000,375.200 297.730,375.200 297.400 C 375.200 297.070,375.380 296.800,375.600 296.800 C 375.820 296.800,376.000 296.390,376.000 295.888 C 376.000 295.387,376.360 294.717,376.800 294.400 C 377.240 294.083,377.600 293.503,377.600 293.112 C 377.600 292.720,377.780 292.400,378.000 292.400 C 378.220 292.400,378.400 292.130,378.400 291.800 C 378.400 291.470,378.580 291.200,378.800 291.200 C 379.020 291.200,379.200 290.966,379.200 290.680 C 379.200 289.944,380.141 288.007,380.500 288.003 C 380.665 288.001,380.800 287.539,380.800 286.976 C 380.800 286.396,380.973 286.060,381.200 286.200 C 381.420 286.336,381.600 286.202,381.600 285.903 C 381.600 285.149,382.535 283.207,382.900 283.203 C 383.065 283.201,383.200 282.851,383.200 282.424 C 383.200 281.997,383.380 281.536,383.600 281.400 C 383.820 281.264,384.000 280.713,384.000 280.176 C 384.000 279.639,384.180 279.200,384.400 279.200 C 384.620 279.200,384.800 278.742,384.800 278.183 C 384.800 277.624,385.160 276.780,385.600 276.308 C 386.040 275.836,386.400 275.134,386.400 274.748 C 386.400 274.363,386.580 273.936,386.800 273.800 C 387.020 273.664,387.200 273.203,387.200 272.776 C 387.200 272.349,387.342 272.000,387.515 272.000 C 387.688 272.000,387.859 271.611,387.895 271.136 C 387.931 270.661,388.113 270.166,388.299 270.036 C 388.486 269.906,388.666 269.366,388.699 268.836 C 388.733 268.306,388.905 267.766,389.081 267.636 C 389.258 267.506,389.464 266.860,389.539 266.200 C 389.614 265.540,389.839 264.940,390.038 264.867 C 390.237 264.793,390.400 264.298,390.400 263.767 C 390.400 263.235,390.559 262.800,390.754 262.800 C 391.069 262.800,391.844 258.654,391.669 257.900 C 391.631 257.735,391.780 257.600,392.000 257.600 C 392.220 257.600,392.400 257.251,392.400 256.824 C 392.400 256.397,392.580 255.936,392.800 255.800 C 393.020 255.664,393.200 254.933,393.200 254.176 C 393.200 253.419,393.361 252.800,393.558 252.800 C 393.755 252.800,394.018 252.125,394.143 251.300 C 394.704 247.584,394.925 246.586,395.229 246.391 C 395.407 246.276,395.598 245.331,395.652 244.291 C 395.705 243.251,395.896 242.400,396.075 242.400 C 396.254 242.400,396.400 241.770,396.400 241.000 C 396.400 240.230,396.580 239.600,396.800 239.600 C 397.020 239.600,397.200 238.700,397.200 237.600 C 397.200 236.500,397.352 235.600,397.538 235.600 C 397.724 235.600,397.910 234.572,397.951 233.316 C 397.992 232.059,398.184 230.934,398.376 230.815 C 398.569 230.696,398.825 229.339,398.945 227.799 C 399.066 226.260,399.364 222.570,399.607 219.600 C 400.209 212.259,399.925 175.108,399.266 174.889 C 398.971 174.790,398.800 173.716,398.800 171.967 C 398.800 170.389,398.628 169.200,398.400 169.200 C 398.177 169.200,398.000 168.125,398.000 166.776 C 398.000 165.263,397.850 164.446,397.600 164.600 C 397.352 164.753,397.189 163.964,397.172 162.524 C 397.152 160.856,397.047 160.426,396.800 161.000 C 396.548 161.588,396.449 161.242,396.428 159.700 C 396.413 158.545,396.220 157.600,396.000 157.600 C 395.780 157.600,395.600 156.689,395.600 155.576 C 395.600 154.329,395.447 153.648,395.200 153.800 C 394.954 153.952,394.800 153.282,394.800 152.057 C 394.800 150.962,394.626 150.007,394.413 149.933 C 394.200 149.860,393.981 149.215,393.928 148.500 C 393.874 147.785,393.688 147.200,393.515 147.200 C 393.342 147.200,393.200 146.581,393.200 145.824 C 393.200 145.067,393.020 144.336,392.800 144.200 C 392.580 144.064,392.400 143.513,392.400 142.976 C 392.400 142.439,392.238 142.000,392.039 142.000 C 391.841 142.000,391.553 140.920,391.400 139.600 C 391.247 138.280,390.959 137.200,390.761 137.200 C 390.562 137.200,390.400 136.851,390.400 136.424 C 390.400 135.997,390.220 135.536,390.000 135.400 C 389.780 135.264,389.600 134.634,389.600 134.000 C 389.600 133.366,389.420 132.736,389.200 132.600 C 388.980 132.464,388.800 131.823,388.800 131.176 C 388.800 130.529,388.620 130.000,388.400 130.000 C 388.180 130.000,388.000 129.657,388.000 129.238 C 388.000 128.819,387.654 127.784,387.230 126.938 C 386.807 126.092,386.229 124.828,385.945 124.129 C 385.662 123.430,385.288 122.945,385.115 123.052 C 384.942 123.160,384.800 122.697,384.800 122.024 C 384.800 121.351,384.620 120.800,384.400 120.800 C 384.180 120.800,384.000 120.429,384.000 119.976 C 384.000 119.449,383.831 119.257,383.532 119.442 C 383.224 119.633,383.146 119.518,383.304 119.107 C 383.435 118.763,383.206 117.854,382.794 117.085 C 382.383 116.317,382.155 115.578,382.289 115.444 C 382.424 115.310,382.323 115.200,382.067 115.200 C 381.810 115.200,381.600 114.930,381.600 114.600 C 381.600 114.270,381.420 114.000,381.200 114.000 C 380.980 114.000,380.800 113.550,380.800 113.000 C 380.800 112.450,380.620 112.000,380.400 112.000 C 380.180 112.000,380.000 111.640,380.000 111.200 C 380.000 110.760,379.854 110.400,379.675 110.400 C 379.496 110.400,379.102 109.770,378.800 109.000 C 378.498 108.230,378.104 107.600,377.925 107.600 C 377.746 107.600,377.600 107.280,377.600 106.888 C 377.600 106.497,377.244 105.920,376.809 105.606 C 376.227 105.187,376.148 104.954,376.509 104.724 C 376.894 104.479,376.892 104.411,376.500 104.406 C 376.225 104.403,376.000 104.040,376.000 103.600 C 376.000 103.160,375.823 102.800,375.608 102.800 C 375.392 102.800,375.093 102.305,374.944 101.700 C 374.794 101.095,374.329 100.299,373.910 99.930 C 373.490 99.562,373.172 99.151,373.202 99.018 C 373.299 98.585,372.214 96.400,371.902 96.400 C 371.736 96.400,371.600 96.080,371.600 95.688 C 371.600 95.297,371.240 94.717,370.800 94.400 C 370.360 94.083,370.000 93.583,370.000 93.288 C 370.000 92.994,369.820 92.864,369.600 93.000 C 369.380 93.136,369.200 92.911,369.200 92.499 C 369.200 92.088,368.840 91.364,368.400 90.892 C 367.960 90.420,367.600 89.796,367.600 89.505 C 367.600 89.214,367.240 88.717,366.800 88.400 C 366.360 88.083,365.998 87.548,365.996 87.212 C 365.994 86.875,365.454 86.175,364.796 85.655 C 364.138 85.135,363.600 84.442,363.600 84.115 C 363.600 83.788,363.105 83.042,362.500 82.457 C 361.895 81.871,361.346 81.143,361.281 80.839 C 361.215 80.534,360.630 79.789,359.981 79.182 C 359.331 78.575,358.800 77.831,358.800 77.528 C 358.800 76.910,357.418 75.600,356.766 75.600 C 356.532 75.600,356.405 75.285,356.482 74.900 C 356.568 74.473,355.878 73.470,354.712 72.326 C 353.660 71.295,352.800 70.257,352.800 70.019 C 352.800 69.780,351.630 68.415,350.200 66.985 C 348.770 65.555,347.600 64.209,347.600 63.993 C 347.600 63.777,347.330 63.600,347.000 63.600 C 346.670 63.600,346.400 63.319,346.400 62.976 C 346.400 62.633,346.220 62.464,346.000 62.600 C 345.780 62.736,345.600 62.497,345.600 62.068 C 345.600 61.583,345.346 61.310,344.928 61.344 C 344.527 61.378,344.139 60.995,343.968 60.400 C 343.809 59.850,343.662 59.638,343.640 59.929 C 343.591 60.576,342.400 59.520,342.400 58.829 C 342.400 58.593,342.130 58.400,341.800 58.400 C 341.470 58.400,341.221 58.265,341.247 58.100 C 341.363 57.366,341.173 56.769,340.881 56.950 C 340.705 57.058,340.300 56.982,339.981 56.780 C 339.558 56.512,339.541 56.411,339.916 56.406 C 340.337 56.401,340.337 56.298,339.916 55.844 C 339.542 55.442,339.319 55.414,339.106 55.744 C 338.894 56.072,338.811 56.060,338.806 55.700 C 338.795 54.802,338.656 54.615,337.018 53.312 C 336.128 52.604,334.639 51.299,333.709 50.412 C 332.779 49.525,331.699 48.786,331.309 48.768 C 330.911 48.751,330.814 48.650,331.088 48.539 C 331.473 48.383,331.473 48.229,331.088 47.815 C 330.732 47.430,330.521 47.411,330.306 47.744 C 330.119 48.035,330.010 47.946,330.006 47.500 C 330.003 47.115,329.825 46.800,329.611 46.800 C 329.396 46.800,328.424 46.003,327.449 45.028 C 326.475 44.054,325.569 43.365,325.436 43.497 C 325.303 43.630,324.701 43.193,324.097 42.527 C 323.494 41.861,322.750 41.403,322.444 41.510 C 322.104 41.629,321.997 41.528,322.170 41.249 C 322.328 40.993,322.135 40.673,321.726 40.516 C 321.328 40.364,320.588 39.825,320.083 39.319 C 319.577 38.814,319.014 38.400,318.832 38.400 C 318.650 38.400,317.813 37.770,316.972 37.000 C 316.131 36.230,315.209 35.600,314.922 35.600 C 314.635 35.600,314.400 35.420,314.400 35.200 C 314.400 34.980,314.119 34.800,313.776 34.800 C 313.433 34.800,313.264 34.620,313.400 34.400 C 313.536 34.180,313.277 34.000,312.824 34.000 C 312.371 34.000,312.000 33.820,312.000 33.600 C 312.000 33.380,311.629 33.200,311.176 33.200 C 310.723 33.200,310.464 33.020,310.600 32.800 C 310.736 32.580,310.567 32.400,310.224 32.400 C 309.881 32.400,309.600 32.242,309.600 32.049 C 309.600 31.855,309.060 31.473,308.400 31.200 C 307.740 30.927,307.200 30.545,307.200 30.351 C 307.200 30.158,307.040 30.045,306.844 30.100 C 306.647 30.155,306.107 29.767,305.644 29.239 C 305.180 28.710,304.800 28.487,304.800 28.742 C 304.800 28.998,304.222 28.654,303.515 27.979 C 302.733 27.232,301.950 26.824,301.515 26.938 C 301.121 27.041,300.887 26.983,300.994 26.809 C 301.102 26.635,300.652 26.270,299.995 25.998 C 299.338 25.726,298.800 25.345,298.800 25.151 C 298.800 24.958,298.440 24.800,298.000 24.800 C 297.560 24.800,297.200 24.620,297.200 24.400 C 297.200 24.180,296.840 24.000,296.400 24.000 C 295.960 24.000,295.600 23.820,295.600 23.600 C 295.600 23.380,295.240 23.200,294.800 23.200 C 294.360 23.200,294.000 23.020,294.000 22.800 C 294.000 22.580,293.640 22.400,293.200 22.400 C 292.760 22.400,292.400 22.220,292.400 22.000 C 292.400 21.780,292.130 21.600,291.800 21.600 C 291.470 21.600,291.200 21.420,291.200 21.200 C 291.200 20.980,290.840 20.800,290.400 20.800 C 289.960 20.800,289.600 20.620,289.600 20.400 C 289.600 20.180,289.139 20.000,288.576 20.000 C 287.996 20.000,287.660 19.827,287.800 19.600 C 287.936 19.380,287.677 19.200,287.224 19.200 C 286.771 19.200,286.400 19.020,286.400 18.800 C 286.400 18.580,286.040 18.400,285.600 18.400 C 285.160 18.400,284.800 18.209,284.800 17.976 C 284.800 17.743,284.635 17.655,284.432 17.780 C 284.230 17.905,283.793 17.736,283.461 17.404 C 283.129 17.072,282.394 16.800,281.829 16.800 C 281.263 16.800,280.800 16.620,280.800 16.400 C 280.800 16.180,280.440 16.000,280.000 16.000 C 279.560 16.000,279.200 15.820,279.200 15.600 C 279.200 15.380,278.840 15.200,278.400 15.200 C 277.960 15.200,277.600 15.020,277.600 14.800 C 277.600 14.580,277.139 14.400,276.576 14.400 C 275.996 14.400,275.660 14.227,275.800 14.000 C 275.937 13.778,275.637 13.599,275.124 13.598 C 274.616 13.596,273.686 13.327,273.058 13.000 C 272.430 12.672,271.728 12.521,271.497 12.664 C 271.251 12.816,271.195 12.732,271.362 12.462 C 271.541 12.172,271.350 12.000,270.847 12.000 C 270.407 12.000,269.936 11.820,269.800 11.600 C 269.664 11.380,269.124 11.200,268.600 11.200 C 268.076 11.200,267.536 11.020,267.400 10.800 C 267.264 10.580,266.623 10.400,265.976 10.400 C 265.329 10.400,264.800 10.240,264.800 10.045 C 264.800 9.746,262.824 9.139,261.400 9.001 C 260.555 8.919,256.181 7.458,255.820 7.137 C 255.611 6.952,254.846 6.800,254.120 6.800 C 253.394 6.800,252.800 6.659,252.800 6.487 C 252.800 6.315,252.313 6.134,251.718 6.085 C 251.122 6.036,250.456 5.816,250.238 5.598 C 250.019 5.379,249.246 5.200,248.520 5.200 C 247.794 5.200,247.200 5.020,247.200 4.800 C 247.200 4.580,246.300 4.400,245.200 4.400 C 244.100 4.400,243.200 4.220,243.200 4.000 C 243.200 3.780,242.289 3.600,241.176 3.600 C 239.929 3.600,239.248 3.447,239.400 3.200 C 239.552 2.953,238.871 2.800,237.624 2.800 C 236.511 2.800,235.600 2.620,235.600 2.400 C 235.600 2.171,234.363 1.997,232.700 1.994 C 230.680 1.990,229.982 1.870,230.400 1.600 C 230.818 1.330,230.132 1.210,228.133 1.206 C 226.504 1.203,225.207 1.020,225.128 0.783 C 225.037 0.512,220.599 0.279,212.494 0.119 L 200.000 -0.127 200.000 35.336 M61.200 55.000 C 60.683 55.550,60.390 56.000,60.548 56.000 C 60.707 56.000,61.286 55.550,61.836 55.000 C 62.386 54.450,62.680 54.000,62.488 54.000 C 62.296 54.000,61.717 54.450,61.200 55.000 " stroke="none" fill="#04acfc" fill-rule="evenodd"></path><path id="path2" d="M178.613 0.299 C 176.640 0.373,174.927 0.595,174.804 0.793 C 174.682 0.990,173.371 1.191,171.891 1.239 C 170.411 1.287,169.200 1.478,169.200 1.663 C 169.200 1.848,168.109 2.000,166.776 2.000 C 165.435 2.000,164.453 2.161,164.576 2.361 C 164.699 2.560,163.945 2.825,162.900 2.951 C 158.175 3.517,157.200 3.704,157.200 4.040 C 157.200 4.238,156.311 4.400,155.224 4.400 C 154.137 4.400,153.136 4.580,153.000 4.800 C 152.864 5.020,152.144 5.200,151.400 5.200 C 150.656 5.200,149.936 5.380,149.800 5.600 C 149.664 5.820,149.124 6.000,148.600 6.000 C 148.076 6.000,147.548 6.160,147.427 6.356 C 147.306 6.551,146.621 6.813,145.904 6.937 C 142.890 7.457,142.000 7.710,142.000 8.045 C 142.000 8.240,141.471 8.400,140.824 8.400 C 140.177 8.400,139.526 8.596,139.378 8.835 C 139.231 9.074,138.797 9.188,138.416 9.088 C 138.034 8.988,137.298 9.133,136.781 9.410 C 136.264 9.687,135.606 9.824,135.320 9.714 C 135.034 9.604,134.800 9.714,134.800 9.957 C 134.800 10.201,134.260 10.400,133.600 10.400 C 132.940 10.400,132.400 10.552,132.400 10.737 C 132.400 10.922,131.635 11.290,130.700 11.555 C 129.765 11.820,128.640 12.185,128.200 12.365 C 125.971 13.279,124.937 13.725,124.305 14.047 C 123.923 14.241,123.338 14.400,123.005 14.400 C 122.672 14.400,122.399 14.535,122.397 14.700 C 122.393 15.111,120.409 16.000,119.497 16.000 C 119.088 16.000,118.864 16.180,119.000 16.400 C 119.136 16.620,118.887 16.800,118.447 16.800 C 118.007 16.800,117.536 16.980,117.400 17.200 C 117.264 17.420,116.713 17.600,116.176 17.600 C 115.639 17.600,115.200 17.780,115.200 18.000 C 115.200 18.220,114.840 18.400,114.400 18.400 C 113.960 18.400,113.599 18.535,113.597 18.700 C 113.593 19.065,111.651 20.000,110.897 20.000 C 110.598 20.000,110.464 20.180,110.600 20.400 C 110.736 20.620,110.602 20.800,110.303 20.800 C 109.549 20.800,107.607 21.735,107.603 22.100 C 107.601 22.265,107.240 22.400,106.800 22.400 C 106.360 22.400,106.000 22.580,106.000 22.800 C 106.000 23.020,105.640 23.200,105.200 23.200 C 104.760 23.200,104.400 23.380,104.400 23.600 C 104.400 23.820,104.130 24.000,103.800 24.000 C 103.470 24.000,103.200 24.138,103.200 24.306 C 103.200 24.577,100.327 26.000,99.781 26.000 C 99.663 26.000,99.180 26.360,98.708 26.800 C 98.236 27.240,97.613 27.600,97.325 27.600 C 97.036 27.600,96.440 27.960,96.000 28.400 C 95.560 28.840,94.930 29.200,94.600 29.200 C 94.270 29.200,94.000 29.358,94.000 29.551 C 94.000 29.745,93.462 30.126,92.805 30.398 C 92.148 30.670,91.709 31.052,91.829 31.246 C 91.949 31.441,91.677 31.600,91.224 31.600 C 90.771 31.600,90.400 31.780,90.400 32.000 C 90.400 32.220,90.029 32.400,89.576 32.400 C 89.123 32.400,88.864 32.580,89.000 32.800 C 89.136 33.020,88.967 33.200,88.624 33.200 C 88.281 33.200,88.000 33.380,88.000 33.600 C 88.000 33.820,87.728 34.000,87.396 34.000 C 87.064 34.000,86.228 34.540,85.537 35.200 C 84.846 35.860,84.027 36.400,83.717 36.400 C 83.407 36.400,83.264 36.580,83.400 36.800 C 83.536 37.020,83.367 37.200,83.024 37.200 C 82.681 37.200,82.395 37.335,82.389 37.500 C 82.383 37.665,81.663 38.241,80.789 38.780 C 79.915 39.320,79.200 39.905,79.200 40.080 C 79.200 40.256,78.930 40.400,78.600 40.400 C 78.270 40.400,78.000 40.580,78.000 40.800 C 78.000 41.020,77.823 41.200,77.607 41.200 C 77.237 41.200,75.995 42.209,73.769 44.318 C 73.236 44.823,72.800 45.130,72.800 45.000 C 72.800 44.870,72.369 45.177,71.841 45.682 C 71.314 46.187,70.118 47.230,69.183 48.000 C 68.248 48.770,66.997 49.850,66.403 50.400 C 65.809 50.950,64.636 51.985,63.797 52.700 C 62.958 53.415,62.398 54.000,62.554 54.000 C 62.709 54.000,62.386 54.450,61.836 55.000 C 61.286 55.550,60.707 56.000,60.550 56.000 C 60.167 56.000,56.000 60.421,56.000 60.827 C 56.000 61.003,55.640 61.260,55.200 61.400 C 54.760 61.540,54.400 61.922,54.400 62.251 C 54.400 62.579,54.255 62.757,54.077 62.648 C 53.899 62.538,53.404 62.915,52.977 63.486 C 52.550 64.057,51.750 65.009,51.200 65.601 C 50.650 66.194,49.346 67.651,48.303 68.839 C 47.260 70.028,46.038 71.405,45.589 71.900 C 45.140 72.395,44.865 72.800,44.979 72.800 C 45.094 72.800,44.744 73.295,44.202 73.900 C 43.660 74.505,42.583 75.710,41.808 76.578 C 41.034 77.446,40.400 78.391,40.400 78.678 C 40.400 78.965,40.256 79.200,40.080 79.200 C 39.905 79.200,39.320 79.915,38.780 80.789 C 38.241 81.663,37.665 82.383,37.500 82.389 C 37.335 82.395,37.200 82.681,37.200 83.024 C 37.200 83.367,37.020 83.536,36.800 83.400 C 36.580 83.264,36.400 83.407,36.400 83.717 C 36.400 84.027,35.860 84.846,35.200 85.537 C 34.540 86.228,34.000 87.064,34.000 87.396 C 34.000 87.728,33.820 88.000,33.600 88.000 C 33.380 88.000,33.197 88.405,33.194 88.900 C 33.189 89.628,33.114 89.685,32.800 89.200 C 32.463 88.679,32.411 88.686,32.406 89.254 C 32.398 90.074,31.391 92.058,31.120 91.787 C 31.010 91.676,30.342 92.669,29.636 93.993 C 28.930 95.317,28.221 96.400,28.060 96.400 C 27.699 96.400,25.467 100.750,25.467 101.454 C 25.467 101.735,25.317 101.872,25.133 101.759 C 24.950 101.645,24.800 101.833,24.800 102.176 C 24.800 102.519,24.609 102.800,24.376 102.800 C 24.143 102.800,24.055 102.965,24.180 103.168 C 24.305 103.370,24.136 103.807,23.804 104.139 C 23.472 104.471,23.200 105.026,23.200 105.371 C 23.200 105.717,23.020 106.000,22.800 106.000 C 22.580 106.000,22.400 106.360,22.400 106.800 C 22.400 107.240,22.265 107.601,22.100 107.601 C 21.935 107.602,21.350 108.592,20.800 109.800 C 20.250 111.008,19.665 111.998,19.500 111.999 C 19.335 111.999,19.200 112.360,19.200 112.800 C 19.200 113.240,19.009 113.600,18.776 113.600 C 18.543 113.600,18.455 113.765,18.580 113.968 C 18.705 114.170,18.536 114.607,18.204 114.939 C 17.872 115.271,17.600 115.826,17.600 116.171 C 17.600 116.517,17.420 116.800,17.200 116.800 C 16.980 116.800,16.800 117.239,16.800 117.776 C 16.800 118.313,16.620 118.864,16.400 119.000 C 16.180 119.136,16.000 119.597,16.000 120.024 C 16.000 120.451,15.820 120.800,15.600 120.800 C 15.380 120.800,15.200 121.053,15.200 121.362 C 15.200 121.847,14.648 123.120,13.150 126.095 C 12.957 126.477,12.800 127.071,12.800 127.414 C 12.800 127.758,12.495 128.616,12.122 129.320 C 11.749 130.024,11.385 130.952,11.312 131.383 C 11.239 131.813,10.978 132.290,10.732 132.442 C 10.485 132.595,10.392 133.002,10.525 133.348 C 10.657 133.694,10.482 134.261,10.135 134.607 C 9.789 134.954,9.609 135.342,9.736 135.470 C 9.864 135.597,9.707 136.207,9.387 136.825 C 9.067 137.444,8.907 138.213,9.030 138.534 C 9.154 138.856,9.062 139.238,8.827 139.383 C 8.592 139.528,8.400 140.177,8.400 140.824 C 8.400 141.471,8.240 142.000,8.045 142.000 C 7.710 142.000,7.457 142.890,6.937 145.904 C 6.813 146.621,6.551 147.306,6.356 147.427 C 6.160 147.548,6.000 148.076,6.000 148.600 C 6.000 149.124,5.820 149.664,5.600 149.800 C 5.380 149.936,5.200 150.656,5.200 151.400 C 5.200 152.144,5.020 152.864,4.800 153.000 C 4.580 153.136,4.400 154.137,4.400 155.224 C 4.400 156.311,4.220 157.200,4.000 157.200 C 3.780 157.200,3.600 158.021,3.600 159.024 C 3.600 160.137,3.444 160.751,3.200 160.600 C 2.951 160.446,2.800 161.204,2.800 162.600 C 2.800 163.996,2.649 164.754,2.400 164.600 C 2.150 164.446,2.000 165.263,2.000 166.776 C 2.000 168.109,1.847 169.200,1.661 169.200 C 1.474 169.200,1.283 170.501,1.237 172.091 C 1.187 173.802,0.959 175.102,0.678 175.275 C 0.323 175.495,0.204 180.794,0.202 196.484 C 0.200 219.219,0.324 224.494,0.854 224.167 C 1.044 224.049,1.200 225.324,1.200 227.000 C 1.200 228.930,1.347 229.957,1.600 229.800 C 1.848 229.647,2.000 230.396,2.000 231.776 C 2.000 232.999,2.180 234.000,2.400 234.000 C 2.620 234.000,2.800 234.975,2.800 236.167 C 2.800 237.358,2.970 238.393,3.179 238.467 C 3.387 238.540,3.600 239.445,3.652 240.478 C 3.704 241.511,3.894 242.265,4.074 242.155 C 4.253 242.044,4.400 242.758,4.400 243.743 C 4.400 244.728,4.572 245.593,4.782 245.667 C 4.993 245.740,5.209 246.463,5.263 247.274 C 5.316 248.085,5.504 248.659,5.680 248.551 C 5.856 248.442,6.000 249.083,6.000 249.976 C 6.000 250.869,6.180 251.600,6.400 251.600 C 6.620 251.600,6.800 252.241,6.800 253.024 C 6.800 253.871,6.962 254.347,7.200 254.200 C 7.438 254.053,7.600 254.529,7.600 255.376 C 7.600 256.159,7.780 256.800,8.000 256.800 C 8.220 256.800,8.400 257.430,8.400 258.200 C 8.400 258.970,8.563 259.600,8.763 259.600 C 8.962 259.600,9.037 259.935,8.930 260.345 C 8.815 260.785,8.986 261.186,9.349 261.325 C 9.729 261.471,9.897 261.898,9.790 262.450 C 9.696 262.940,9.777 263.534,9.971 263.770 C 10.165 264.007,10.386 264.560,10.462 265.000 C 10.538 265.440,10.744 265.906,10.920 266.036 C 11.096 266.166,11.269 266.661,11.305 267.136 C 11.341 267.611,11.512 268.000,11.685 268.000 C 11.858 268.000,12.000 268.356,12.000 268.790 C 12.000 269.225,12.359 270.170,12.799 270.890 C 13.238 271.611,13.598 272.706,13.599 273.324 C 13.599 273.971,13.770 274.342,14.000 274.200 C 14.220 274.064,14.400 274.236,14.400 274.582 C 14.400 274.928,14.580 275.568,14.800 276.005 C 15.020 276.442,15.380 277.158,15.600 277.595 C 15.820 278.032,16.000 278.752,16.000 279.195 C 16.000 279.638,16.180 280.000,16.400 280.000 C 16.620 280.000,16.800 280.360,16.800 280.800 C 16.800 281.240,16.935 281.601,17.100 281.603 C 17.451 281.607,18.400 283.537,18.400 284.246 C 18.400 284.514,18.535 284.793,18.700 284.867 C 19.132 285.059,21.600 290.005,21.600 290.680 C 21.600 290.992,21.780 291.136,22.000 291.000 C 22.220 290.864,22.400 291.123,22.400 291.576 C 22.400 292.029,22.580 292.400,22.800 292.400 C 23.020 292.400,23.200 292.745,23.200 293.167 C 23.200 293.588,23.335 293.993,23.500 294.067 C 23.665 294.140,24.402 295.415,25.138 296.900 C 25.874 298.385,26.659 299.600,26.881 299.600 C 27.104 299.600,27.188 299.853,27.070 300.162 C 26.951 300.472,27.198 301.036,27.618 301.416 C 28.038 301.796,28.285 302.263,28.167 302.453 C 28.049 302.644,28.154 302.800,28.400 302.800 C 28.646 302.800,28.736 302.980,28.600 303.200 C 28.464 303.420,28.543 303.600,28.776 303.600 C 29.009 303.600,29.200 303.960,29.200 304.400 C 29.200 304.840,29.045 305.200,28.855 305.200 C 28.665 305.200,28.507 305.605,28.503 306.100 C 28.486 308.412,28.387 308.839,27.932 308.558 C 27.617 308.363,27.548 308.487,27.721 308.938 C 27.862 309.306,27.778 310.100,27.534 310.703 C 27.290 311.307,27.017 312.422,26.926 313.183 C 26.835 313.943,26.564 314.803,26.323 315.092 C 26.083 315.382,25.990 315.723,26.117 315.851 C 26.245 315.978,26.167 316.559,25.944 317.141 C 25.538 318.205,25.352 319.146,24.925 322.309 C 24.798 323.249,24.538 324.115,24.347 324.233 C 24.156 324.351,24.000 324.966,24.000 325.600 C 24.000 326.234,23.820 326.864,23.600 327.000 C 23.380 327.136,23.200 327.856,23.200 328.600 C 23.200 329.344,23.020 330.064,22.800 330.200 C 22.580 330.336,22.400 331.056,22.400 331.800 C 22.400 332.544,22.220 333.264,22.000 333.400 C 21.780 333.536,21.600 334.357,21.600 335.224 C 21.600 336.091,21.420 336.800,21.200 336.800 C 20.980 336.800,20.800 337.430,20.800 338.200 C 20.800 338.970,20.620 339.600,20.400 339.600 C 20.180 339.600,20.000 340.309,20.000 341.176 C 20.000 342.043,19.820 342.864,19.600 343.000 C 19.380 343.136,19.200 343.877,19.200 344.647 C 19.200 345.479,19.038 345.947,18.800 345.800 C 18.556 345.649,18.400 346.263,18.400 347.376 C 18.400 348.379,18.239 349.200,18.042 349.200 C 17.845 349.200,17.582 349.875,17.457 350.700 C 16.936 354.151,16.697 355.200,16.434 355.200 C 16.282 355.200,16.112 355.965,16.057 356.900 C 16.002 357.835,15.787 358.771,15.579 358.980 C 15.370 359.189,15.200 359.853,15.200 360.456 C 15.200 361.059,15.020 361.664,14.800 361.800 C 14.580 361.936,14.400 362.577,14.400 363.224 C 14.400 363.871,14.257 364.400,14.082 364.400 C 13.907 364.400,13.718 365.070,13.663 365.888 C 13.608 366.706,13.433 367.471,13.273 367.588 C 13.113 367.705,12.924 368.430,12.851 369.200 C 12.779 369.970,12.603 370.690,12.460 370.800 C 12.317 370.910,12.163 371.614,12.118 372.365 C 12.073 373.116,11.885 373.836,11.701 373.965 C 11.517 374.094,11.328 374.732,11.281 375.382 C 11.234 376.033,11.016 376.744,10.798 376.962 C 10.579 377.181,10.400 377.943,10.400 378.656 C 10.400 379.369,10.217 380.066,9.993 380.204 C 9.770 380.342,9.682 380.610,9.799 380.798 C 9.915 380.987,9.742 381.931,9.414 382.897 C 9.086 383.864,8.893 385.047,8.986 385.527 C 9.078 386.007,8.984 386.400,8.777 386.400 C 8.570 386.400,8.400 387.120,8.400 388.000 C 8.400 388.880,8.220 389.600,8.000 389.600 C 7.780 389.600,7.600 390.230,7.600 391.000 C 7.600 392.333,7.667 392.400,9.000 392.400 C 9.770 392.400,10.400 392.243,10.400 392.052 C 10.400 391.860,11.525 391.560,12.900 391.386 C 14.275 391.211,15.490 391.041,15.600 391.008 C 18.180 390.234,18.983 390.066,19.262 390.239 C 19.448 390.353,19.600 390.257,19.600 390.024 C 19.600 389.791,20.219 389.600,20.976 389.600 C 21.733 389.600,22.464 389.420,22.600 389.200 C 22.736 388.980,23.542 388.800,24.390 388.800 C 25.239 388.800,25.993 388.623,26.067 388.407 C 26.140 388.191,26.857 387.966,27.661 387.907 C 28.465 387.848,29.039 387.665,28.937 387.500 C 28.779 387.243,31.150 386.992,32.130 387.163 C 32.311 387.194,32.358 387.055,32.233 386.853 C 32.019 386.508,32.546 386.378,36.700 385.752 C 37.635 385.611,38.400 385.339,38.400 385.148 C 38.400 384.957,39.019 384.800,39.776 384.800 C 40.533 384.800,41.264 384.620,41.400 384.400 C 41.536 384.180,42.256 384.000,43.000 384.000 C 43.744 384.000,44.464 383.820,44.600 383.600 C 44.736 383.380,45.567 383.200,46.447 383.200 C 47.412 383.200,47.949 383.041,47.800 382.800 C 47.651 382.559,48.188 382.400,49.153 382.400 C 50.033 382.400,50.864 382.220,51.000 382.000 C 51.136 381.780,51.867 381.600,52.624 381.600 C 53.381 381.600,54.000 381.420,54.000 381.200 C 54.000 380.980,54.709 380.800,55.576 380.800 C 56.443 380.800,57.264 380.620,57.400 380.400 C 57.536 380.180,58.267 380.000,59.024 380.000 C 59.781 380.000,60.400 379.820,60.400 379.600 C 60.400 379.380,61.019 379.200,61.776 379.200 C 62.533 379.200,63.264 379.020,63.400 378.800 C 63.536 378.580,64.256 378.400,65.000 378.400 C 65.744 378.400,66.452 378.240,66.573 378.044 C 66.791 377.691,68.240 377.367,71.499 376.941 C 72.433 376.819,73.097 376.558,72.975 376.360 C 72.853 376.162,73.483 376.000,74.376 376.000 C 75.269 376.000,76.000 375.846,76.000 375.657 C 76.000 375.468,77.035 375.197,78.300 375.055 C 81.411 374.705,81.931 374.603,82.255 374.278 C 82.408 374.125,83.007 374.000,83.587 374.000 C 84.166 374.000,84.819 373.821,85.038 373.602 C 85.257 373.383,85.968 373.144,86.618 373.070 C 87.268 372.997,88.070 372.831,88.400 372.701 C 89.298 372.348,91.191 371.954,93.100 371.724 C 94.035 371.612,94.800 371.358,94.800 371.160 C 94.800 370.654,96.303 370.709,96.474 371.222 C 96.551 371.454,96.908 371.687,97.267 371.739 C 97.626 371.792,98.163 372.037,98.461 372.285 C 98.759 372.532,99.272 372.794,99.601 372.867 C 99.931 372.940,100.290 373.094,100.400 373.209 C 100.702 373.525,102.971 374.976,103.200 375.000 C 103.796 375.061,106.000 376.240,106.000 376.498 C 106.000 376.664,106.360 376.800,106.800 376.800 C 107.240 376.800,107.601 376.935,107.603 377.100 C 107.607 377.459,109.544 378.400,110.280 378.400 C 110.566 378.400,110.801 378.535,110.801 378.700 C 110.802 378.865,111.792 379.450,113.000 380.000 C 114.208 380.550,115.198 381.135,115.199 381.300 C 115.199 381.465,115.465 381.600,115.788 381.600 C 116.287 381.600,119.700 383.128,122.095 384.424 C 122.477 384.631,123.062 384.800,123.395 384.800 C 123.728 384.800,124.000 384.947,124.000 385.128 C 124.000 385.308,124.900 385.700,126.000 386.000 C 127.100 386.300,128.000 386.692,128.000 386.872 C 128.000 387.053,128.324 387.200,128.720 387.200 C 129.614 387.200,131.593 388.094,131.597 388.500 C 131.599 388.665,132.140 388.800,132.800 388.800 C 133.460 388.800,134.000 388.999,134.000 389.243 C 134.000 389.486,134.249 389.590,134.554 389.473 C 134.859 389.356,135.465 389.510,135.902 389.816 C 136.338 390.122,136.797 390.270,136.921 390.146 C 137.045 390.022,137.384 390.068,137.673 390.249 C 138.210 390.584,139.004 390.813,139.900 390.890 C 140.175 390.914,140.400 391.083,140.400 391.267 C 140.400 391.450,141.030 391.600,141.800 391.600 C 142.570 391.600,143.200 391.780,143.200 392.000 C 143.200 392.220,143.740 392.400,144.400 392.400 C 145.060 392.400,145.600 392.561,145.600 392.758 C 145.600 392.955,146.275 393.218,147.100 393.343 C 150.609 393.873,151.620 394.108,151.827 394.444 C 151.948 394.640,152.677 394.800,153.447 394.800 C 154.217 394.800,154.758 394.944,154.649 395.120 C 154.541 395.296,155.110 395.484,155.914 395.538 C 156.718 395.593,157.471 395.784,157.588 395.963 C 157.705 396.142,158.790 396.415,160.000 396.569 C 164.394 397.130,165.209 397.291,165.426 397.642 C 165.548 397.839,166.727 398.000,168.047 398.000 C 169.367 398.000,170.352 398.154,170.236 398.342 C 170.120 398.530,171.410 398.721,173.103 398.765 C 174.796 398.810,176.293 399.027,176.429 399.248 C 176.580 399.492,181.244 399.742,188.339 399.887 L 200.000 400.126 200.000 352.866 L 200.000 305.606 176.500 305.503 L 153.000 305.400 152.894 294.049 C 152.775 281.423,152.697 281.799,155.520 281.410 C 159.309 280.888,163.377 276.739,164.283 272.473 C 164.923 269.455,165.009 201.485,164.376 198.320 C 163.336 193.116,160.602 190.320,155.000 188.728 L 153.000 188.160 153.000 176.580 L 153.000 165.000 176.500 164.897 L 200.000 164.794 200.000 153.197 L 200.000 141.600 197.460 141.600 C 196.063 141.600,194.398 141.441,193.760 141.247 C 193.122 141.052,191.790 140.671,190.800 140.400 C 162.535 132.658,155.196 94.507,178.800 78.017 C 179.570 77.479,180.290 76.940,180.400 76.819 C 182.521 74.494,193.457 70.800,198.220 70.800 L 200.000 70.800 200.000 35.400 L 200.000 0.000 191.100 0.082 C 186.205 0.127,180.586 0.225,178.613 0.299 " stroke="none" fill="#04d4fc" fill-rule="evenodd"></path><path id="path3" d="M193.400 71.409 C 189.525 72.264,184.400 74.105,184.400 74.642 C 184.400 74.755,184.535 74.783,184.700 74.705 C 189.616 72.370,194.865 71.200,200.420 71.200 C 205.359 71.200,210.680 72.386,214.975 74.445 C 217.216 75.519,217.765 75.381,215.600 74.288 C 209.405 71.159,200.043 69.945,193.400 71.409 M182.400 75.636 C 181.736 76.179,181.669 76.315,182.200 76.040 C 183.505 75.366,184.228 74.812,183.800 74.815 C 183.580 74.817,182.950 75.186,182.400 75.636 M219.464 76.983 C 223.567 79.746,230.383 87.052,230.396 88.700 C 230.398 88.975,230.591 89.200,230.824 89.200 C 231.292 89.200,231.198 89.005,229.470 86.400 C 227.220 83.005,219.172 75.600,217.733 75.600 C 217.556 75.600,218.335 76.222,219.464 76.983 M178.505 78.125 C 177.793 78.606,177.208 79.144,177.205 79.320 C 177.202 79.497,177.830 79.160,178.600 78.573 C 179.370 77.986,180.000 77.436,180.000 77.353 C 180.000 77.127,179.919 77.169,178.505 78.125 M174.150 82.100 C 172.498 83.837,170.081 87.087,169.241 88.700 C 168.343 90.422,169.099 89.583,170.765 87.008 C 171.687 85.582,172.657 84.177,172.921 83.884 C 173.184 83.592,174.020 82.688,174.778 81.876 C 175.537 81.064,176.069 80.400,175.962 80.400 C 175.854 80.400,175.039 81.165,174.150 82.100 M231.218 89.839 C 231.193 90.457,232.444 92.889,232.671 92.663 C 232.774 92.560,232.493 91.784,232.047 90.938 C 231.600 90.092,231.227 89.597,231.218 89.839 M167.872 91.419 C 166.932 93.389,167.064 93.724,168.047 91.862 C 168.493 91.016,168.787 90.254,168.701 90.167 C 168.614 90.081,168.241 90.644,167.872 91.419 M233.612 96.000 C 233.612 96.330,233.787 96.870,234.000 97.200 C 234.345 97.733,234.388 97.733,234.388 97.200 C 234.388 96.870,234.213 96.330,234.000 96.000 C 233.655 95.467,233.612 95.467,233.612 96.000 M165.800 96.800 C 165.650 97.273,165.617 97.750,165.727 97.860 C 165.837 97.970,166.050 97.673,166.200 97.200 C 166.350 96.727,166.383 96.250,166.273 96.140 C 166.163 96.030,165.950 96.327,165.800 96.800 M234.468 99.000 C 234.474 99.440,234.624 100.250,234.800 100.800 L 235.120 101.800 235.132 100.800 C 235.138 100.250,234.989 99.440,234.800 99.000 L 234.456 98.200 234.468 99.000 M164.982 100.582 C 164.829 101.602,164.794 102.527,164.904 102.637 C 165.014 102.747,165.229 102.002,165.382 100.982 C 165.535 99.961,165.570 99.037,165.460 98.927 C 165.350 98.817,165.135 99.561,164.982 100.582 M164.868 111.000 C 164.862 111.660,165.011 112.560,165.200 113.000 C 165.670 114.094,165.670 112.267,165.200 110.800 C 164.888 109.825,164.879 109.830,164.868 111.000 M234.622 112.222 C 234.472 113.025,234.438 113.772,234.548 113.882 C 234.658 113.992,234.872 113.425,235.022 112.622 C 235.173 111.819,235.206 111.073,235.096 110.963 C 234.986 110.853,234.773 111.419,234.622 112.222 M165.634 114.800 C 165.646 115.130,165.811 115.760,166.000 116.200 L 166.344 117.000 166.366 116.200 C 166.378 115.760,166.213 115.130,166.000 114.800 C 165.655 114.267,165.615 114.267,165.634 114.800 M233.800 115.600 C 233.650 116.073,233.617 116.550,233.727 116.660 C 233.837 116.770,234.050 116.473,234.200 116.000 C 234.350 115.527,234.383 115.050,234.273 114.940 C 234.163 114.830,233.950 115.127,233.800 115.600 M168.000 121.465 C 168.000 121.843,169.996 125.200,170.221 125.200 C 170.324 125.200,169.937 124.300,169.362 123.200 C 168.382 121.325,168.000 120.839,168.000 121.465 M229.560 125.300 C 228.833 126.455,226.699 129.012,224.819 130.982 C 222.938 132.953,222.120 133.963,223.000 133.229 C 226.066 130.668,232.072 123.200,231.065 123.200 C 230.965 123.200,230.288 124.145,229.560 125.300 M170.404 125.695 C 170.380 127.341,182.551 138.382,183.426 137.507 C 183.523 137.411,182.191 136.403,180.467 135.269 C 177.506 133.320,173.908 129.926,171.491 126.800 C 170.896 126.030,170.407 125.533,170.404 125.695 M185.110 138.401 C 185.830 138.841,186.640 139.192,186.910 139.183 C 187.461 139.164,184.825 137.642,184.200 137.618 C 183.980 137.610,184.389 137.962,185.110 138.401 M212.200 139.218 C 211.100 139.630,210.493 139.974,210.851 139.983 C 211.579 140.002,214.400 138.898,214.400 138.595 C 214.400 138.488,214.355 138.416,214.300 138.435 C 214.245 138.454,213.300 138.806,212.200 139.218 M208.200 140.400 L 207.000 140.705 208.276 140.753 C 208.978 140.779,209.664 140.620,209.800 140.400 C 210.074 139.957,209.940 139.957,208.200 140.400 M193.800 141.189 C 194.553 141.523,199.125 141.767,198.767 141.455 C 198.675 141.375,197.340 141.202,195.800 141.072 C 194.034 140.922,193.295 140.965,193.800 141.189 M203.000 141.200 L 199.800 141.453 203.076 141.527 C 204.913 141.568,206.461 141.424,206.600 141.200 C 206.736 140.980,206.702 140.833,206.524 140.873 C 206.346 140.914,204.760 141.061,203.000 141.200 M152.884 176.476 C 152.838 182.788,152.935 188.036,153.100 188.139 C 153.265 188.241,153.354 184.877,153.298 180.662 C 153.107 166.363,152.969 164.966,152.884 176.476 M155.000 188.800 C 156.196 189.314,157.195 189.314,156.400 188.800 C 156.070 188.587,155.440 188.422,155.000 188.434 L 154.200 188.456 155.000 188.800 M159.200 190.320 C 159.200 190.510,159.661 190.912,160.225 191.214 C 160.789 191.515,161.548 192.266,161.912 192.881 C 162.275 193.497,162.719 194.000,162.898 194.000 C 163.077 194.000,162.839 193.479,162.369 192.843 C 161.412 191.549,159.200 189.788,159.200 190.320 M164.262 197.800 C 164.396 198.680,164.572 199.475,164.653 199.567 C 164.956 199.910,164.729 197.768,164.381 197.000 C 164.129 196.442,164.093 196.685,164.262 197.800 M235.228 271.233 C 235.244 271.765,235.419 272.560,235.619 273.000 C 235.871 273.558,235.907 273.315,235.738 272.200 C 235.455 270.343,235.187 269.836,235.228 271.233 M164.449 271.400 C 164.416 271.840,164.296 272.650,164.183 273.200 L 163.977 274.200 164.406 273.219 C 164.642 272.679,164.761 271.869,164.672 271.419 C 164.513 270.621,164.507 270.621,164.449 271.400 M162.526 276.542 C 161.850 277.501,160.601 278.796,159.749 279.420 C 157.502 281.068,157.234 281.375,158.681 280.645 C 160.203 279.878,162.651 277.442,163.450 275.900 C 164.275 274.308,163.932 274.547,162.526 276.542 M238.625 278.434 C 239.271 279.113,240.148 279.857,240.572 280.087 C 240.997 280.317,240.563 279.762,239.607 278.853 C 237.577 276.922,236.918 276.641,238.625 278.434 M154.600 281.600 C 153.511 281.877,153.493 281.907,154.400 281.925 C 154.950 281.935,155.760 281.789,156.200 281.600 C 157.186 281.176,156.266 281.176,154.600 281.600 M244.200 281.600 C 244.640 281.789,245.360 281.944,245.800 281.944 L 246.600 281.944 245.800 281.600 C 245.360 281.411,244.640 281.256,244.200 281.256 L 243.400 281.256 244.200 281.600 M152.884 293.676 C 152.838 299.988,152.935 305.236,153.100 305.339 C 153.265 305.441,153.354 302.077,153.298 297.862 C 153.107 283.563,152.969 282.166,152.884 293.676 M246.800 293.880 C 246.690 300.305,246.738 305.423,246.906 305.254 C 247.075 305.085,247.165 299.829,247.106 293.574 L 246.999 282.200 246.800 293.880 " stroke="none" fill="#63d9fc" fill-rule="evenodd"></path><path id="path4" d="M194.600 71.600 C 192.834 72.049,194.845 72.069,197.000 71.623 L 198.600 71.292 197.200 71.293 C 196.430 71.294,195.260 71.432,194.600 71.600 M201.633 71.344 C 201.725 71.424,202.880 71.595,204.200 71.724 C 205.724 71.874,206.308 71.831,205.800 71.608 C 205.043 71.275,201.279 71.037,201.633 71.344 M191.000 72.400 C 190.229 72.731,190.231 72.745,191.076 72.772 C 191.558 72.787,192.064 72.620,192.200 72.400 C 192.492 71.927,192.101 71.927,191.000 72.400 M208.200 72.400 C 209.396 72.914,210.395 72.914,209.600 72.400 C 209.270 72.187,208.640 72.022,208.200 72.034 L 207.400 72.056 208.200 72.400 M180.075 77.461 C 178.927 78.264,178.063 78.997,178.155 79.088 C 178.283 79.217,181.450 77.012,182.367 76.156 C 182.995 75.569,181.831 76.232,180.075 77.461 M219.340 77.103 C 219.496 77.356,220.191 77.967,220.884 78.460 C 221.577 78.954,222.017 79.150,221.860 78.897 C 221.704 78.644,221.009 78.033,220.316 77.540 C 219.623 77.046,219.183 76.850,219.340 77.103 M222.400 79.429 C 222.400 79.554,222.637 79.869,222.927 80.129 C 223.216 80.388,224.341 81.409,225.427 82.398 C 227.137 83.957,227.082 83.863,225.013 81.698 C 222.620 79.195,222.400 79.004,222.400 79.429 M174.800 81.800 C 174.054 82.570,173.550 83.200,173.682 83.200 C 173.813 83.200,174.550 82.570,175.320 81.800 C 176.090 81.030,176.593 80.400,176.438 80.400 C 176.284 80.400,175.546 81.030,174.800 81.800 M172.493 84.400 C 172.218 84.840,172.131 85.200,172.300 85.200 C 172.469 85.200,172.832 84.840,173.107 84.400 C 173.382 83.960,173.469 83.600,173.300 83.600 C 173.131 83.600,172.768 83.960,172.493 84.400 M228.656 86.552 C 229.480 87.776,230.228 88.706,230.316 88.617 C 230.515 88.419,228.148 84.939,227.573 84.583 C 227.344 84.442,227.831 85.328,228.656 86.552 M169.414 89.035 C 169.041 89.604,168.805 90.138,168.889 90.222 C 168.973 90.307,169.358 89.841,169.744 89.188 C 170.606 87.728,170.348 87.609,169.414 89.035 M167.872 92.219 C 166.932 94.189,167.064 94.524,168.047 92.662 C 168.493 91.816,168.787 91.054,168.701 90.967 C 168.614 90.881,168.241 91.444,167.872 92.219 M166.649 95.015 C 166.512 95.373,166.415 95.966,166.434 96.333 C 166.453 96.700,166.627 96.469,166.821 95.820 C 167.198 94.558,167.065 93.933,166.649 95.015 M233.261 95.903 C 235.350 104.228,235.354 108.219,233.282 116.400 C 233.087 117.170,232.537 118.683,232.059 119.762 C 231.581 120.841,231.267 121.800,231.361 121.894 C 231.640 122.173,232.979 118.979,233.664 116.400 C 235.371 109.982,235.661 104.632,234.565 99.800 C 234.215 98.260,233.834 96.503,233.718 95.895 C 233.603 95.287,233.368 94.704,233.197 94.598 C 233.026 94.492,233.055 95.079,233.261 95.903 M165.849 97.815 C 165.712 98.173,165.621 98.946,165.646 99.533 C 165.680 100.332,165.770 100.198,166.004 99.000 C 166.335 97.300,166.262 96.740,165.849 97.815 M165.057 102.300 C 164.744 104.194,164.796 109.504,165.140 110.720 C 165.283 111.226,165.400 109.201,165.400 106.220 C 165.400 100.180,165.402 100.208,165.057 102.300 M165.606 113.033 C 165.609 113.675,165.784 114.470,165.995 114.800 C 166.255 115.209,166.299 114.890,166.132 113.800 C 165.829 111.823,165.598 111.486,165.606 113.033 M166.406 116.233 C 166.409 116.655,166.595 117.270,166.818 117.600 C 167.115 118.038,167.152 117.876,166.956 117.000 C 166.627 115.529,166.398 115.210,166.406 116.233 M170.200 124.800 C 170.541 125.460,170.911 126.000,171.021 126.000 C 171.131 126.000,170.941 125.460,170.600 124.800 C 170.259 124.140,169.889 123.600,169.779 123.600 C 169.669 123.600,169.859 124.140,170.200 124.800 M227.669 127.239 C 226.910 128.454,227.366 128.616,228.155 127.412 C 228.520 126.856,228.678 126.400,228.505 126.400 C 228.333 126.400,227.957 126.778,227.669 127.239 M172.800 128.525 C 172.800 128.594,173.385 129.179,174.100 129.825 L 175.400 131.000 174.225 129.700 C 173.130 128.488,172.800 128.216,172.800 128.525 M176.200 131.966 C 176.978 132.861,179.200 134.598,179.200 134.312 C 179.200 134.234,178.345 133.467,177.300 132.608 C 176.255 131.749,175.760 131.460,176.200 131.966 M222.995 132.405 C 222.361 133.067,220.707 134.348,219.321 135.252 C 217.934 136.155,216.800 136.973,216.800 137.071 C 216.800 137.548,222.023 133.871,223.375 132.442 C 224.021 131.759,224.460 131.200,224.350 131.200 C 224.240 131.200,223.630 131.742,222.995 132.405 M182.800 136.764 C 183.691 137.471,185.200 138.124,185.200 137.803 C 185.200 137.736,184.435 137.296,183.500 136.825 C 181.933 136.037,181.878 136.032,182.800 136.764 M214.453 137.853 C 213.713 138.176,213.201 138.534,213.316 138.649 C 213.431 138.764,214.216 138.493,215.062 138.047 C 216.835 137.111,216.441 136.986,214.453 137.853 M186.400 138.566 C 186.950 138.860,187.850 139.212,188.400 139.349 C 188.950 139.486,188.680 139.252,187.800 138.829 C 185.990 137.958,184.868 137.748,186.400 138.566 M189.633 139.744 C 190.105 140.150,192.043 140.393,191.810 140.016 C 191.668 139.787,191.083 139.600,190.510 139.600 C 189.936 139.600,189.542 139.665,189.633 139.744 M192.433 140.546 C 192.525 140.626,193.590 140.794,194.800 140.919 C 196.220 141.066,196.646 141.029,196.000 140.813 C 195.009 140.483,192.113 140.265,192.433 140.546 M204.800 140.800 C 204.013 141.309,205.416 141.309,206.600 140.800 C 207.333 140.485,207.316 140.454,206.400 140.434 C 205.850 140.422,205.130 140.587,204.800 140.800 M194.000 165.099 L 234.800 165.204 234.800 218.542 C 234.800 255.705,234.931 272.293,235.233 273.240 C 235.858 275.204,236.502 276.491,237.300 277.375 C 237.685 277.802,238.000 278.276,238.000 278.429 C 238.000 278.583,238.495 279.023,239.100 279.407 C 240.195 280.103,240.194 280.100,238.963 278.753 C 237.408 277.051,236.224 275.290,235.768 274.000 C 235.574 273.450,235.321 248.700,235.207 219.000 L 235.000 165.000 194.100 164.997 L 153.200 164.994 194.000 165.099 M154.800 188.374 C 159.023 189.226,162.595 192.136,163.989 195.861 C 164.801 198.033,164.811 198.552,164.706 235.793 C 164.648 256.545,164.732 273.316,164.894 273.062 C 165.674 271.836,165.230 198.088,164.430 195.982 C 162.862 191.854,157.946 187.909,154.543 188.046 C 153.480 188.089,153.498 188.112,154.800 188.374 M163.696 275.286 C 163.044 277.088,160.261 279.920,158.241 280.837 C 157.338 281.247,156.884 281.586,157.231 281.591 C 159.309 281.620,164.852 275.955,164.317 274.350 C 164.242 274.126,163.963 274.547,163.696 275.286 M240.400 280.331 C 240.400 280.538,240.715 280.811,241.100 280.939 C 241.485 281.067,242.520 281.445,243.400 281.780 C 244.280 282.114,245.450 282.379,246.000 282.368 C 246.558 282.356,246.027 282.095,244.800 281.776 C 243.590 281.462,242.105 280.923,241.500 280.580 C 240.895 280.236,240.400 280.124,240.400 280.331 M154.400 282.000 C 153.016 282.291,153.014 282.295,154.200 282.341 C 154.860 282.367,155.670 282.213,156.000 282.000 C 156.666 281.570,156.445 281.570,154.400 282.000 M176.700 305.500 C 189.515 305.559,210.485 305.559,223.300 305.500 C 236.115 305.441,225.630 305.393,200.000 305.393 C 174.370 305.393,163.885 305.441,176.700 305.500 " stroke="none" fill="#95e8fc" fill-rule="evenodd"></path></g></svg>