<svg id="svg" version="1.1" xmlns="http://www.w3.org/2000/svg" xmlns:xlink="http://www.w3.org/1999/xlink" width="400" height="400" viewBox="0, 0, 400,400"><g id="svgg"><path id="path0" d="M242.157 152.321 C 240.467 153.799,228.377 164.503,227.836 165.002 C 227.596 165.223,225.870 166.753,224.000 168.402 C 222.130 170.051,220.510 171.492,220.400 171.604 C 220.290 171.716,216.960 174.683,213.000 178.196 C 209.040 181.710,205.170 185.147,204.400 185.834 C 199.759 189.974,192.558 196.368,187.995 200.400 C 186.128 202.050,184.510 203.498,184.400 203.619 C 184.290 203.739,172.860 213.906,159.000 226.213 C 145.140 238.519,133.170 249.149,132.400 249.836 C 131.630 250.522,127.535 254.178,123.300 257.960 L 115.600 264.837 115.600 275.755 C 115.600 284.279,115.469 287.103,115.004 288.636 C 114.206 291.268,114.087 375.127,114.880 375.920 C 115.237 376.277,119.340 376.400,130.870 376.400 L 146.379 376.400 146.490 325.500 L 146.600 274.600 147.669 272.575 C 148.805 270.422,151.097 268.112,153.276 266.923 C 154.516 266.246,156.319 266.200,181.615 266.200 L 208.631 266.200 210.958 267.600 C 213.194 268.945,215.011 271.020,216.098 273.470 C 216.488 274.349,216.644 285.898,216.800 325.400 L 217.000 376.200 294.071 376.301 C 343.570 376.366,371.511 376.262,372.171 376.011 L 373.200 375.620 373.200 321.146 L 373.200 266.673 370.500 264.026 C 368.133 261.705,365.919 259.699,359.438 254.000 C 358.562 253.230,356.845 251.694,355.623 250.587 C 354.400 249.480,352.590 247.871,351.600 247.013 C 350.610 246.154,348.450 244.243,346.800 242.767 C 341.967 238.442,332.532 230.058,328.620 226.612 C 324.652 223.118,322.864 221.529,319.815 218.788 C 318.707 217.791,316.990 216.276,316.000 215.422 C 315.010 214.568,313.103 212.863,311.763 211.634 C 309.402 209.470,305.130 205.674,301.821 202.800 C 300.935 202.030,299.417 200.680,298.450 199.800 C 295.742 197.338,290.324 192.534,288.039 190.570 C 287.290 189.927,286.297 189.040,285.831 188.600 C 285.033 187.845,279.849 183.231,276.845 180.600 C 276.091 179.940,274.557 178.573,273.437 177.563 C 270.647 175.047,256.430 162.392,252.806 159.200 C 251.182 157.770,248.876 155.700,247.681 154.600 C 243.981 151.195,243.617 151.045,242.157 152.321 M328.478 266.179 C 332.931 267.530,335.409 269.941,336.980 274.452 C 338.033 277.477,337.891 335.016,336.823 337.938 C 335.453 341.685,332.405 344.737,329.160 345.611 C 328.173 345.877,316.785 345.981,296.522 345.910 L 265.400 345.800 263.567 344.722 C 261.384 343.439,259.089 340.995,258.109 338.909 C 257.449 337.505,257.400 335.224,257.400 306.000 L 257.400 274.600 258.305 272.783 C 259.940 269.500,262.505 267.351,266.166 266.195 C 268.696 265.396,325.851 265.381,328.478 266.179 M281.067 289.867 C 280.417 290.516,280.773 322.304,281.433 322.557 C 282.255 322.873,311.920 322.864,313.100 322.548 L 314.000 322.307 314.000 305.953 L 314.000 289.600 297.667 289.600 C 288.683 289.600,281.213 289.720,281.067 289.867 " stroke="none" fill="#faebd0" fill-rule="evenodd"></path><path id="path1" d="M188.000 84.665 C 183.808 85.317,178.400 88.871,178.400 90.974 C 178.400 91.318,178.240 91.600,178.044 91.600 C 177.275 91.600,177.085 95.285,176.934 113.100 C 176.836 124.602,176.631 131.600,176.391 131.600 C 176.179 131.600,174.059 129.665,171.680 127.300 C 166.388 122.038,164.699 121.081,160.650 121.045 C 154.050 120.987,149.600 125.455,149.600 132.140 C 149.600 137.024,149.867 137.384,164.171 151.849 L 176.780 164.600 176.790 172.129 C 176.797 177.644,176.666 179.783,176.300 180.129 C 176.025 180.388,174.180 182.040,172.200 183.800 C 170.220 185.560,168.510 187.095,168.400 187.210 C 168.290 187.326,167.033 188.406,165.606 189.610 C 164.179 190.815,162.559 192.250,162.006 192.800 C 161.453 193.350,159.650 194.970,158.000 196.400 C 156.350 197.829,154.190 199.741,153.200 200.647 C 152.210 201.553,150.680 202.902,149.800 203.644 C 148.920 204.386,147.930 205.270,147.600 205.608 C 147.270 205.946,145.839 207.208,144.419 208.411 C 143.000 209.615,141.092 211.320,140.178 212.200 C 138.237 214.071,134.543 217.320,130.600 220.625 C 129.060 221.916,127.530 223.249,127.200 223.586 C 126.870 223.924,125.790 224.905,124.800 225.767 C 123.810 226.629,121.470 228.717,119.600 230.407 C 117.730 232.097,115.480 234.090,114.600 234.836 C 113.720 235.583,112.730 236.467,112.400 236.802 C 112.070 237.136,110.630 238.395,109.200 239.600 C 107.770 240.805,106.330 242.069,106.000 242.409 C 105.670 242.749,102.790 245.341,99.600 248.170 C 96.410 250.998,93.165 253.894,92.389 254.605 C 86.589 259.922,88.188 269.768,95.401 273.159 C 98.524 274.626,105.041 273.977,106.800 272.022 C 106.910 271.900,108.530 270.450,110.399 268.800 C 112.269 267.150,114.879 264.745,116.199 263.455 C 117.520 262.165,119.230 260.635,120.000 260.055 C 120.770 259.475,122.210 258.187,123.200 257.194 C 124.190 256.200,125.535 254.973,126.188 254.467 C 126.841 253.961,128.869 252.188,130.694 250.526 C 132.518 248.865,134.501 247.122,135.100 246.653 C 135.699 246.184,137.001 245.016,137.994 244.057 C 138.987 243.098,140.426 241.838,141.192 241.257 C 141.957 240.676,143.503 239.300,144.626 238.200 C 145.750 237.100,147.798 235.210,149.179 234.000 C 150.559 232.790,152.164 231.375,152.744 230.856 C 153.325 230.337,154.605 229.257,155.589 228.456 C 156.574 227.655,158.119 226.280,159.024 225.400 C 159.929 224.520,161.284 223.275,162.035 222.634 C 162.786 221.993,164.214 220.733,165.208 219.834 C 166.202 218.935,168.248 217.120,169.755 215.800 C 171.261 214.480,172.878 213.040,173.348 212.600 C 173.818 212.160,175.152 211.014,176.313 210.053 C 177.474 209.092,179.204 207.562,180.158 206.653 C 182.947 203.994,188.174 199.358,191.755 196.365 C 192.391 195.834,193.774 194.590,194.828 193.600 C 195.883 192.610,197.343 191.277,198.073 190.637 C 198.803 189.998,200.212 188.738,201.204 187.837 C 202.196 186.937,204.246 185.120,205.761 183.800 C 207.276 182.480,209.006 180.950,209.607 180.400 C 210.207 179.850,211.771 178.465,213.083 177.322 C 214.394 176.180,216.019 174.740,216.692 174.122 C 219.122 171.895,223.833 167.694,225.396 166.361 C 226.274 165.613,227.354 164.668,227.796 164.262 C 228.238 163.856,229.663 162.596,230.963 161.462 C 232.263 160.328,233.883 158.860,234.564 158.200 C 235.244 157.540,236.968 156.010,238.395 154.800 C 239.821 153.590,241.487 152.084,242.098 151.454 C 243.064 150.456,243.297 150.377,243.904 150.844 C 244.813 151.545,255.221 160.798,256.000 161.599 C 256.330 161.939,257.230 162.727,258.000 163.352 C 258.770 163.977,260.211 165.233,261.203 166.144 C 262.195 167.055,264.445 169.058,266.203 170.596 C 267.961 172.135,269.490 173.485,269.600 173.596 C 269.917 173.919,273.561 177.175,276.609 179.857 C 285.235 187.451,288.024 189.929,296.383 197.430 C 297.383 198.326,298.911 199.676,299.779 200.430 C 300.647 201.183,302.456 202.790,303.799 204.000 C 305.141 205.210,308.386 208.090,311.009 210.400 C 313.633 212.710,316.774 215.506,317.990 216.613 C 319.205 217.720,321.010 219.325,322.000 220.179 C 322.990 221.033,324.808 222.647,326.040 223.766 C 328.453 225.957,333.171 230.138,335.783 232.400 C 336.672 233.170,338.300 234.627,339.400 235.637 C 341.190 237.281,346.665 242.121,349.761 244.797 C 350.400 245.348,351.303 246.160,351.769 246.600 C 352.234 247.040,354.142 248.750,356.007 250.400 C 357.873 252.050,359.490 253.492,359.600 253.604 C 359.710 253.715,361.239 255.065,362.997 256.604 C 364.755 258.142,367.005 260.141,367.997 261.047 C 368.989 261.953,370.462 263.266,371.272 263.964 C 372.081 264.662,372.854 265.721,372.988 266.317 C 373.122 266.913,373.870 267.940,374.651 268.600 C 375.432 269.260,376.910 270.583,377.935 271.539 C 381.241 274.623,382.318 275.000,387.829 275.000 C 391.894 275.000,392.768 274.889,393.357 274.300 C 393.742 273.915,394.210 273.600,394.396 273.600 C 395.012 273.600,398.000 270.475,398.000 269.831 C 398.000 269.484,398.180 269.200,398.400 269.200 C 398.620 269.200,398.800 268.840,398.800 268.400 C 398.800 267.960,398.980 267.600,399.200 267.600 C 399.443 267.600,399.600 265.800,399.600 263.000 C 399.600 260.200,399.443 258.400,399.200 258.400 C 398.980 258.400,398.800 258.040,398.800 257.600 C 398.800 257.160,398.620 256.800,398.400 256.800 C 398.180 256.800,397.990 256.485,397.978 256.100 C 397.966 255.715,396.607 254.140,394.957 252.600 C 393.308 251.060,390.843 248.718,389.479 247.396 C 388.116 246.074,386.370 244.549,385.600 244.007 C 383.524 242.546,383.370 242.413,380.583 239.700 C 379.170 238.325,377.786 237.195,377.507 237.188 C 377.228 237.181,376.550 236.630,376.000 235.964 C 374.741 234.438,372.298 232.084,371.109 231.252 C 370.609 230.902,369.284 229.712,368.164 228.608 C 365.453 225.935,364.084 224.800,363.568 224.800 C 361.993 224.800,362.000 224.948,362.000 192.652 C 362.000 172.414,361.861 161.561,361.600 161.400 C 361.380 161.264,361.200 160.533,361.200 159.776 C 361.200 159.019,361.020 158.400,360.800 158.400 C 360.580 158.400,360.400 158.040,360.400 157.600 C 360.400 157.160,360.220 156.800,360.000 156.800 C 359.780 156.800,359.600 156.522,359.600 156.183 C 359.600 155.377,358.874 154.498,356.640 152.600 C 355.703 151.804,354.394 151.200,353.605 151.200 C 353.162 151.200,352.800 151.020,352.800 150.800 C 352.800 150.290,346.636 150.267,345.695 150.774 C 345.313 150.979,344.415 151.383,343.700 151.671 C 342.985 151.960,342.400 152.331,342.400 152.498 C 342.400 152.664,342.214 152.800,341.987 152.800 C 341.342 152.800,338.800 155.501,338.800 156.187 C 338.800 156.524,338.620 156.800,338.400 156.800 C 338.180 156.800,338.000 157.160,338.000 157.600 C 338.000 158.040,337.820 158.400,337.600 158.400 C 337.338 158.400,337.200 165.667,337.200 179.400 C 337.200 197.800,337.126 200.400,336.600 200.400 C 336.270 200.400,336.000 200.220,336.000 200.000 C 336.000 199.780,335.824 199.600,335.610 199.600 C 335.395 199.600,333.843 198.250,332.161 196.600 C 330.478 194.950,328.972 193.600,328.812 193.600 C 328.414 193.600,325.587 191.158,324.560 189.928 C 323.937 189.181,321.647 187.200,321.406 187.200 C 321.296 187.200,319.752 185.760,317.976 184.000 C 316.199 182.240,314.574 180.800,314.365 180.800 C 314.156 180.800,312.830 179.675,311.417 178.300 C 308.575 175.533,307.738 174.800,307.420 174.800 C 307.302 174.800,305.752 173.360,303.976 171.600 C 302.199 169.840,300.575 168.400,300.366 168.400 C 300.158 168.400,298.637 167.050,296.987 165.400 C 295.337 163.750,293.841 162.400,293.662 162.400 C 293.483 162.400,291.857 160.960,290.049 159.200 C 288.241 157.440,286.592 156.000,286.384 156.000 C 286.176 156.000,284.552 154.560,282.776 152.800 C 280.999 151.040,279.354 149.600,279.120 149.600 C 278.885 149.600,278.363 149.219,277.959 148.753 C 277.555 148.287,276.962 148.006,276.641 148.129 C 276.321 148.252,275.820 148.064,275.529 147.712 C 275.238 147.360,273.560 145.808,271.800 144.264 C 268.073 140.994,262.697 136.189,259.817 133.554 C 248.481 123.180,245.412 121.865,239.505 124.849 C 239.123 125.042,238.627 125.200,238.402 125.200 C 238.053 125.200,237.138 125.909,235.044 127.802 C 234.800 128.023,233.076 129.553,231.214 131.202 C 229.351 132.851,227.461 134.532,227.014 134.938 C 226.566 135.344,225.142 136.604,223.849 137.738 C 222.556 138.872,220.951 140.305,220.283 140.922 C 219.614 141.540,217.994 142.980,216.683 144.122 C 215.371 145.265,213.805 146.650,213.201 147.200 C 212.598 147.750,211.495 148.740,210.750 149.400 C 204.309 155.106,202.505 156.721,201.689 157.508 C 200.004 159.133,200.000 159.050,200.000 125.771 C 200.000 107.058,199.847 93.298,199.634 92.895 C 199.432 92.513,198.993 91.570,198.657 90.800 C 197.854 88.957,195.599 86.614,193.934 85.891 C 190.255 84.295,190.306 84.306,188.000 84.665 M153.200 267.840 C 151.136 268.965,149.246 270.860,148.453 272.600 C 148.153 273.260,147.748 274.113,147.553 274.495 C 147.354 274.886,147.200 297.220,147.200 325.595 L 147.200 376.000 169.900 375.999 C 182.385 375.999,197.865 375.880,204.300 375.735 L 216.000 375.471 216.000 325.347 L 216.000 275.223 215.064 273.111 C 214.549 271.950,213.383 270.329,212.473 269.509 C 209.318 266.667,210.823 266.797,181.451 266.830 L 155.000 266.859 153.200 267.840 M263.800 267.959 C 261.601 269.225,260.092 270.766,259.253 272.603 C 258.953 273.261,258.548 274.113,258.353 274.495 C 257.847 275.490,257.893 337.086,258.400 337.400 C 258.620 337.536,258.800 338.087,258.800 338.624 C 258.800 339.161,258.938 339.600,259.106 339.600 C 259.274 339.600,259.859 340.325,260.406 341.210 C 260.953 342.096,261.895 343.040,262.500 343.308 C 263.105 343.576,263.600 343.903,263.600 344.034 C 263.600 345.447,327.865 346.295,329.260 344.900 C 329.535 344.625,330.084 344.400,330.480 344.400 C 330.876 344.400,331.200 344.220,331.200 344.000 C 331.200 343.780,331.386 343.600,331.613 343.600 C 332.383 343.600,334.764 340.869,335.684 338.929 L 336.600 337.000 336.600 305.720 C 336.600 281.229,336.491 274.331,336.100 273.940 C 335.825 273.665,335.595 273.161,335.588 272.820 C 335.569 271.818,332.756 268.958,330.686 267.837 L 328.772 266.800 297.286 266.804 L 265.800 266.808 263.800 267.959 M314.304 305.900 L 314.409 322.800 297.404 322.800 L 280.400 322.800 280.400 305.796 L 280.400 288.791 297.300 288.896 L 314.200 289.000 314.304 305.900 M75.380 326.363 C 75.019 326.708,73.506 326.940,68.297 327.447 L 65.994 327.671 66.097 351.736 L 66.200 375.800 71.000 375.920 C 73.640 375.985,76.385 375.932,77.100 375.801 L 78.400 375.564 78.400 350.782 L 78.400 326.000 77.080 326.000 C 76.354 326.000,75.589 326.163,75.380 326.363 " stroke="none" fill="#c23d48" fill-rule="evenodd"></path><path id="path2" d="M189.100 0.216 C 188.935 0.390,188.800 19.300,188.800 42.237 C 188.800 81.619,188.761 83.952,188.100 84.124 C 187.715 84.225,188.120 84.331,189.000 84.360 C 193.585 84.510,197.900 87.808,199.494 92.382 C 199.870 93.461,199.989 101.425,199.994 125.700 C 199.997 143.245,200.144 157.600,200.321 157.600 C 200.612 157.600,204.751 154.020,212.800 146.804 C 215.927 144.001,222.070 138.549,227.188 134.036 C 230.734 130.908,233.283 128.627,235.200 126.867 C 240.011 122.447,247.530 122.072,251.643 126.046 C 252.186 126.571,253.794 127.990,255.215 129.199 C 256.637 130.409,258.180 131.759,258.645 132.199 C 259.109 132.640,262.146 135.340,265.392 138.200 C 268.639 141.060,272.308 144.345,273.547 145.500 C 274.786 146.655,276.024 147.600,276.299 147.600 C 276.696 147.600,276.800 140.392,276.800 112.800 C 276.800 89.867,276.664 78.000,276.400 78.000 C 276.171 78.000,276.000 76.800,276.000 75.200 C 276.000 73.600,275.829 72.400,275.600 72.400 C 275.380 72.400,275.192 71.635,275.183 70.700 C 275.173 69.765,274.980 68.190,274.754 67.200 C 274.527 66.210,274.245 64.813,274.127 64.096 C 274.008 63.379,273.751 62.694,273.556 62.573 C 273.360 62.452,273.200 61.823,273.200 61.176 C 273.200 60.529,273.020 60.000,272.800 60.000 C 272.580 60.000,272.400 59.561,272.400 59.024 C 272.400 58.487,272.256 57.958,272.079 57.849 C 271.903 57.740,271.510 56.739,271.207 55.625 C 270.904 54.511,270.508 53.600,270.328 53.600 C 270.147 53.600,270.000 53.240,270.000 52.800 C 270.000 52.360,269.820 52.000,269.600 52.000 C 269.380 52.000,269.200 51.657,269.200 51.238 C 269.200 50.534,267.700 47.259,267.168 46.800 C 267.040 46.690,266.681 46.015,266.370 45.300 C 266.059 44.585,265.669 44.000,265.502 44.000 C 265.336 44.000,265.200 43.640,265.200 43.200 C 265.200 42.760,265.020 42.400,264.800 42.400 C 264.580 42.400,264.400 42.170,264.400 41.888 C 264.400 41.607,264.040 41.117,263.600 40.800 C 263.160 40.483,262.800 39.893,262.800 39.488 C 262.800 39.084,262.620 38.864,262.400 39.000 C 262.180 39.136,262.000 38.967,262.000 38.624 C 262.000 38.281,261.820 38.000,261.600 38.000 C 261.380 38.000,261.200 37.680,261.200 37.288 C 261.200 36.897,260.840 36.317,260.400 36.000 C 259.960 35.683,259.600 35.181,259.600 34.885 C 259.600 34.589,258.972 33.684,258.203 32.873 C 257.435 32.063,256.805 31.268,256.803 31.107 C 256.800 30.820,253.513 27.125,252.478 26.244 C 252.191 26.000,251.342 25.215,250.592 24.500 C 249.841 23.785,249.011 23.200,248.747 23.200 C 248.483 23.200,248.382 23.085,248.523 22.944 C 248.803 22.663,246.060 20.000,245.490 20.000 C 245.296 20.000,244.446 19.280,243.600 18.400 C 242.754 17.520,241.903 16.800,241.707 16.800 C 241.511 16.800,241.002 16.476,240.575 16.081 C 239.428 15.016,234.905 12.000,234.455 12.000 C 234.242 12.000,234.007 11.842,233.933 11.649 C 233.754 11.177,228.179 8.400,227.410 8.400 C 227.074 8.400,226.800 8.220,226.800 8.000 C 226.800 7.780,226.535 7.600,226.212 7.600 C 225.889 7.600,224.983 7.240,224.200 6.800 C 223.417 6.360,222.511 6.000,222.188 6.000 C 221.865 6.000,221.600 5.820,221.600 5.600 C 221.600 5.380,221.060 5.200,220.400 5.200 C 219.740 5.200,219.200 5.020,219.200 4.800 C 219.200 4.580,218.660 4.400,218.000 4.400 C 217.340 4.400,216.800 4.220,216.800 4.000 C 216.800 3.780,216.260 3.600,215.600 3.600 C 214.940 3.600,214.400 3.420,214.400 3.200 C 214.400 2.980,213.860 2.800,213.200 2.800 C 212.540 2.800,212.000 2.620,212.000 2.400 C 212.000 2.180,211.280 2.000,210.400 2.000 C 209.520 2.000,208.800 1.820,208.800 1.600 C 208.800 1.380,207.915 1.200,206.833 1.200 C 205.752 1.200,204.806 1.017,204.731 0.794 C 204.568 0.304,189.541 -0.252,189.100 0.216 M66.000 195.607 C 66.000 267.287,65.880 326.248,65.733 326.631 C 65.397 327.507,70.749 327.250,74.823 326.194 C 76.206 325.836,77.666 325.629,78.068 325.734 C 78.470 325.839,78.885 325.786,78.990 325.616 C 79.095 325.447,79.770 325.212,80.490 325.095 C 82.102 324.833,85.682 323.216,87.718 321.832 C 88.553 321.264,89.408 320.800,89.618 320.800 C 89.828 320.800,90.000 320.650,90.000 320.468 C 90.000 320.285,90.490 319.880,91.089 319.568 C 91.689 319.255,92.880 318.325,93.738 317.500 C 94.595 316.675,95.459 316.000,95.659 316.000 C 96.202 316.000,99.581 312.514,99.305 312.239 C 99.174 312.107,99.285 312.000,99.552 312.000 C 100.102 312.000,102.000 310.214,102.000 309.697 C 102.000 309.510,102.613 308.763,103.363 308.036 C 104.112 307.310,105.415 305.700,106.257 304.458 C 107.100 303.216,107.931 302.097,108.104 301.971 C 108.277 301.844,108.498 301.332,108.594 300.831 C 108.691 300.330,109.136 299.602,109.585 299.213 C 110.033 298.824,110.400 298.212,110.400 297.853 C 110.400 297.494,110.580 297.200,110.800 297.200 C 111.020 297.200,111.200 296.880,111.200 296.488 C 111.200 296.097,111.560 295.517,112.000 295.200 C 112.440 294.883,112.800 294.203,112.800 293.688 C 112.800 293.166,112.977 292.862,113.200 293.000 C 113.420 293.136,113.600 292.877,113.600 292.424 C 113.600 291.971,113.756 291.600,113.948 291.600 C 114.987 291.600,115.832 266.838,114.813 266.208 C 114.601 266.077,113.375 266.921,112.089 268.085 C 110.804 269.248,109.108 270.771,108.321 271.469 C 100.256 278.620,88.157 273.225,88.239 262.515 C 88.278 257.351,90.490 255.069,123.239 226.400 C 124.621 225.190,126.643 223.390,127.732 222.400 C 128.820 221.410,130.046 220.309,130.456 219.953 C 131.917 218.683,131.422 202.308,129.550 190.000 C 127.392 175.808,121.511 155.848,115.557 142.504 C 115.141 141.572,114.800 140.721,114.800 140.614 C 114.800 140.507,114.240 139.201,113.556 137.710 C 112.872 136.220,111.512 133.220,110.532 131.044 C 109.553 128.868,107.053 123.754,104.976 119.680 C 102.899 115.606,101.200 111.887,101.200 111.416 C 101.200 110.413,100.335 108.408,99.900 108.403 C 99.735 108.401,99.600 108.040,99.600 107.600 C 99.600 107.160,99.450 106.800,99.268 106.800 C 99.085 106.800,98.680 106.305,98.368 105.700 C 98.055 105.095,97.485 104.251,97.100 103.825 C 96.715 103.398,96.400 102.716,96.400 102.308 C 96.400 101.900,96.040 101.180,95.600 100.708 C 95.160 100.236,94.800 99.613,94.800 99.325 C 94.800 99.036,94.620 98.800,94.400 98.800 C 94.180 98.800,94.000 98.440,94.000 98.000 C 94.000 97.560,93.820 97.200,93.600 97.200 C 93.380 97.200,93.200 96.930,93.200 96.600 C 93.200 96.270,93.020 96.000,92.800 96.000 C 92.580 96.000,92.400 95.730,92.400 95.400 C 92.400 95.070,92.265 94.799,92.100 94.799 C 91.935 94.798,91.467 93.988,91.060 92.999 C 90.654 92.009,90.159 91.200,89.960 91.200 C 89.762 91.200,89.600 90.964,89.600 90.675 C 89.600 90.387,89.240 89.764,88.800 89.292 C 88.360 88.820,88.000 88.238,88.000 88.000 C 88.000 87.762,87.640 87.180,87.200 86.708 C 86.760 86.236,86.400 85.613,86.400 85.325 C 86.400 85.036,86.220 84.800,86.000 84.800 C 85.780 84.800,85.600 84.564,85.600 84.275 C 85.600 83.987,85.285 83.402,84.900 82.975 C 84.515 82.549,83.945 81.705,83.632 81.100 C 83.320 80.495,82.915 80.000,82.732 80.000 C 82.550 80.000,82.400 79.764,82.400 79.475 C 82.400 79.187,82.040 78.564,81.600 78.092 C 81.160 77.620,80.797 77.001,80.794 76.717 C 80.790 76.350,80.675 76.374,80.400 76.800 C 80.086 77.285,80.011 77.228,80.006 76.500 C 80.003 76.005,79.820 75.600,79.600 75.600 C 79.380 75.600,79.200 75.312,79.200 74.960 C 79.200 74.609,78.660 73.817,78.000 73.200 C 77.340 72.583,76.800 71.873,76.800 71.621 C 76.800 71.370,76.395 70.730,75.900 70.201 C 75.405 69.672,74.797 69.005,74.549 68.719 C 73.371 67.363,71.106 66.000,70.029 66.000 C 69.599 66.000,69.147 65.838,69.025 65.640 C 68.902 65.442,68.172 65.280,67.401 65.280 L 66.000 65.280 66.000 195.607 M176.585 112.000 C 176.585 122.230,176.636 126.415,176.700 121.300 C 176.763 116.185,176.763 107.815,176.700 102.700 C 176.636 97.585,176.585 101.770,176.585 112.000 M152.715 123.300 C 151.746 124.235,151.504 124.532,152.177 123.960 C 152.849 123.389,153.845 122.624,154.389 122.260 C 154.933 121.897,155.175 121.600,154.928 121.600 C 154.680 121.600,153.684 122.365,152.715 123.300 M148.487 132.000 C 148.483 132.550,148.624 133.450,148.800 134.000 C 149.231 135.344,149.231 133.892,148.800 132.200 C 148.526 131.122,148.494 131.102,148.487 132.000 M160.000 148.600 C 164.726 153.330,168.683 157.200,168.793 157.200 C 168.903 157.200,165.126 153.330,160.400 148.600 C 155.674 143.870,151.717 140.000,151.607 140.000 C 151.497 140.000,155.274 143.870,160.000 148.600 M176.562 171.800 C 176.562 175.320,176.624 176.706,176.698 174.881 C 176.772 173.056,176.772 170.176,176.697 168.481 C 176.622 166.786,176.561 168.280,176.562 171.800 M381.422 375.509 C 374.685 375.601,373.331 375.720,372.717 376.275 C 372.046 376.882,363.451 376.920,259.695 376.766 C 197.933 376.675,159.235 376.646,173.700 376.703 L 200.000 376.806 200.000 388.406 L 200.000 400.006 296.867 399.903 C 373.931 399.821,393.767 399.698,393.900 399.300 C 393.992 399.025,394.326 398.800,394.644 398.800 C 395.376 398.800,398.408 395.760,399.200 394.233 C 400.202 392.300,400.052 382.507,399.000 381.223 C 397.019 378.804,394.671 376.800,393.819 376.800 C 393.505 376.800,393.136 376.620,393.000 376.400 C 392.864 376.180,392.302 376.000,391.750 376.000 C 391.199 376.000,390.444 375.865,390.074 375.700 C 389.703 375.535,385.810 375.449,381.422 375.509 M68.500 376.697 C 70.205 376.772,72.995 376.772,74.700 376.697 C 76.405 376.622,75.010 376.561,71.600 376.561 C 68.190 376.561,66.795 376.622,68.500 376.697 " stroke="none" fill="#9cbb2c" fill-rule="evenodd"></path><path id="path3" d="M178.358 0.176 C 178.261 0.272,177.061 0.392,175.691 0.441 C 174.321 0.491,173.200 0.682,173.200 0.866 C 173.200 1.050,172.300 1.200,171.200 1.200 C 170.100 1.200,169.200 1.380,169.200 1.600 C 169.200 1.820,168.581 2.000,167.824 2.000 C 167.067 2.000,166.336 2.180,166.200 2.400 C 166.064 2.620,165.344 2.800,164.600 2.800 C 163.856 2.800,163.136 2.980,163.000 3.200 C 162.864 3.420,162.324 3.600,161.800 3.600 C 161.276 3.600,160.736 3.780,160.600 4.000 C 160.464 4.220,159.913 4.400,159.376 4.400 C 158.839 4.400,158.400 4.580,158.400 4.800 C 158.400 5.020,158.040 5.200,157.600 5.200 C 157.160 5.200,156.800 5.380,156.800 5.600 C 156.800 5.820,156.361 6.000,155.824 6.000 C 155.287 6.000,154.736 6.180,154.600 6.400 C 154.464 6.620,154.003 6.800,153.576 6.800 C 153.149 6.800,152.800 6.980,152.800 7.200 C 152.800 7.420,152.440 7.600,152.000 7.600 C 151.560 7.600,151.200 7.780,151.200 8.000 C 151.200 8.220,150.876 8.400,150.480 8.400 C 150.084 8.400,149.544 8.616,149.280 8.880 C 149.016 9.144,148.800 9.222,148.800 9.053 C 148.800 8.884,148.292 9.107,147.672 9.549 C 147.051 9.991,146.286 10.408,145.972 10.476 C 145.657 10.544,145.310 10.699,145.200 10.819 C 145.090 10.940,144.190 11.508,143.200 12.081 C 142.210 12.654,140.972 13.497,140.448 13.953 C 139.925 14.410,139.373 14.707,139.221 14.613 C 139.070 14.519,138.693 14.793,138.385 15.221 C 138.076 15.650,137.575 16.000,137.272 16.000 C 136.969 16.000,136.217 16.540,135.600 17.200 C 134.983 17.860,134.308 18.400,134.100 18.400 C 133.891 18.400,132.287 19.795,130.535 21.500 C 128.782 23.205,126.966 24.857,126.498 25.171 C 126.030 25.485,125.682 25.852,125.724 25.985 C 125.766 26.119,124.495 27.568,122.900 29.206 C 121.305 30.845,120.000 32.413,120.000 32.692 C 120.000 32.972,119.865 33.201,119.700 33.203 C 119.535 33.204,118.950 33.879,118.401 34.703 C 117.851 35.526,116.907 36.740,116.302 37.400 C 115.698 38.060,115.203 38.915,115.202 39.300 C 115.201 39.685,115.020 40.000,114.800 40.000 C 114.580 40.000,114.400 40.248,114.400 40.551 C 114.400 40.854,114.147 41.312,113.837 41.569 C 113.527 41.826,112.979 42.659,112.618 43.418 C 112.257 44.178,111.791 44.800,111.581 44.800 C 111.372 44.800,111.200 45.160,111.200 45.600 C 111.200 46.040,110.990 46.400,110.733 46.400 C 110.477 46.400,110.387 46.520,110.534 46.668 C 110.681 46.815,110.544 47.220,110.229 47.568 C 109.915 47.915,109.654 48.290,109.650 48.400 C 109.646 48.510,109.363 49.269,109.021 50.087 C 108.680 50.905,108.400 51.850,108.400 52.187 C 108.400 52.524,108.220 52.800,108.000 52.800 C 107.780 52.800,107.600 53.261,107.600 53.824 C 107.600 54.387,107.458 54.760,107.285 54.652 C 107.112 54.545,106.930 54.940,106.881 55.529 C 106.833 56.118,106.615 56.660,106.397 56.733 C 106.178 56.807,106.000 57.291,106.000 57.810 C 106.000 58.328,105.820 58.864,105.600 59.000 C 105.380 59.136,105.200 59.787,105.200 60.447 C 105.200 61.107,105.040 61.548,104.843 61.427 C 104.507 61.219,104.393 61.629,103.768 65.300 C 103.627 66.125,103.386 66.800,103.231 66.800 C 103.076 66.800,102.906 67.655,102.852 68.700 C 102.799 69.745,102.585 70.771,102.378 70.980 C 102.170 71.189,102.000 72.393,102.000 73.656 C 102.000 74.919,101.820 76.064,101.600 76.200 C 101.367 76.344,101.200 78.596,101.200 81.600 C 101.200 84.935,101.044 86.849,100.757 87.026 C 100.449 87.217,100.479 87.404,100.857 87.644 C 101.257 87.897,101.268 87.989,100.900 87.994 C 100.263 88.002,100.165 109.407,100.800 109.800 C 101.020 109.936,101.200 110.548,101.200 111.160 C 101.200 111.775,102.889 115.585,104.976 119.680 C 107.053 123.754,109.553 128.868,110.532 131.044 C 111.512 133.220,112.872 136.220,113.556 137.710 C 114.240 139.201,114.800 140.507,114.800 140.614 C 114.800 140.721,115.141 141.572,115.557 142.504 C 121.527 155.883,127.433 175.948,129.538 190.000 C 130.862 198.840,130.908 199.403,131.159 209.505 L 131.400 219.210 132.600 218.131 C 136.211 214.884,137.702 213.555,140.412 211.168 C 143.536 208.417,157.978 195.608,160.400 193.441 C 161.170 192.752,163.513 190.661,165.606 188.794 C 167.699 186.927,170.823 184.140,172.547 182.600 C 174.272 181.060,175.844 179.740,176.042 179.667 C 176.796 179.386,176.474 164.902,175.700 164.305 C 173.234 162.401,150.762 139.133,150.101 137.800 C 146.043 129.607,150.899 120.990,159.859 120.487 C 164.637 120.219,166.398 121.132,172.010 126.792 L 176.400 131.220 176.400 112.629 C 176.400 99.628,176.537 93.701,176.856 92.919 C 178.088 89.898,178.461 89.272,179.876 87.851 C 181.582 86.137,184.699 84.403,186.087 84.395 C 186.589 84.392,187.403 84.281,187.896 84.149 L 188.793 83.909 188.896 41.954 L 189.000 -0.000 183.767 -0.000 C 180.888 -0.000,178.454 0.079,178.358 0.176 M336.900 0.271 C 335.745 0.365,334.800 0.612,334.800 0.821 C 334.800 1.029,334.419 1.200,333.953 1.200 C 332.903 1.200,327.849 2.888,327.667 3.299 C 327.593 3.465,327.098 3.600,326.567 3.600 C 326.035 3.600,325.600 3.780,325.600 4.000 C 325.600 4.220,325.255 4.400,324.833 4.400 C 324.412 4.400,324.007 4.535,323.933 4.700 C 323.860 4.865,322.945 5.433,321.900 5.963 C 320.855 6.492,320.000 7.077,320.000 7.263 C 320.000 7.448,319.775 7.600,319.500 7.600 C 319.225 7.601,318.477 8.051,317.838 8.600 C 317.199 9.150,316.434 9.600,316.138 9.600 C 315.842 9.600,315.600 9.780,315.600 10.000 C 315.600 10.220,315.411 10.400,315.181 10.400 C 314.440 10.400,306.000 19.342,306.000 20.127 C 306.000 20.400,305.640 20.883,305.200 21.200 C 304.760 21.517,304.400 22.057,304.400 22.400 C 304.400 22.743,304.040 23.283,303.600 23.600 C 303.160 23.917,302.800 24.497,302.800 24.888 C 302.800 25.280,302.620 25.600,302.400 25.600 C 302.180 25.600,302.000 25.971,302.000 26.424 C 302.000 26.877,301.820 27.136,301.600 27.000 C 301.380 26.864,301.200 27.123,301.200 27.576 C 301.200 28.029,301.020 28.400,300.800 28.400 C 300.580 28.400,300.400 28.850,300.400 29.400 C 300.400 29.950,300.220 30.400,300.000 30.400 C 299.780 30.400,299.600 30.850,299.600 31.400 C 299.600 31.950,299.420 32.400,299.200 32.400 C 298.980 32.400,298.800 32.839,298.800 33.376 C 298.800 33.913,298.620 34.464,298.400 34.600 C 298.180 34.736,298.000 35.377,298.000 36.024 C 298.000 36.671,297.820 37.200,297.600 37.200 C 297.380 37.200,297.200 38.100,297.200 39.200 C 297.200 40.300,297.020 41.200,296.800 41.200 C 296.579 41.200,296.400 42.240,296.400 43.520 C 296.400 44.796,296.205 46.035,295.966 46.274 C 295.277 46.963,296.063 61.381,296.834 62.180 C 297.035 62.389,297.200 63.244,297.200 64.080 C 297.200 64.916,297.380 65.600,297.600 65.600 C 297.820 65.600,298.000 66.230,298.000 67.000 C 298.000 67.770,298.180 68.400,298.400 68.400 C 298.620 68.400,298.800 68.839,298.800 69.376 C 298.800 69.913,298.980 70.464,299.200 70.600 C 299.420 70.736,299.600 71.197,299.600 71.624 C 299.600 72.051,299.780 72.400,300.000 72.400 C 300.220 72.400,300.400 72.749,300.400 73.176 C 300.400 73.603,300.580 74.064,300.800 74.200 C 301.020 74.336,301.200 74.714,301.200 75.040 C 301.200 75.367,301.560 76.020,302.000 76.492 C 302.440 76.964,302.800 77.587,302.800 77.875 C 302.800 78.164,302.980 78.400,303.200 78.400 C 303.420 78.400,303.600 78.720,303.600 79.112 C 303.600 79.503,303.960 80.083,304.400 80.400 C 304.840 80.717,305.200 81.257,305.200 81.600 C 305.200 81.943,305.560 82.483,306.000 82.800 C 306.440 83.117,306.800 83.607,306.800 83.888 C 306.800 84.170,306.980 84.400,307.200 84.400 C 307.420 84.400,307.602 84.625,307.605 84.900 C 307.611 85.473,314.466 92.400,315.028 92.401 C 315.233 92.401,316.030 92.941,316.800 93.600 C 317.570 94.259,318.385 94.799,318.612 94.799 C 318.838 94.800,319.283 95.160,319.600 95.600 C 319.917 96.040,320.497 96.400,320.888 96.400 C 321.280 96.400,321.600 96.580,321.600 96.800 C 321.600 97.020,321.960 97.200,322.400 97.200 C 322.840 97.200,323.200 97.380,323.200 97.600 C 323.200 97.820,323.560 98.000,324.000 98.000 C 324.440 98.000,324.800 98.180,324.800 98.400 C 324.800 98.620,325.171 98.800,325.624 98.800 C 326.077 98.800,326.336 98.980,326.200 99.200 C 326.060 99.427,326.396 99.600,326.976 99.600 C 327.539 99.600,328.000 99.780,328.000 100.000 C 328.000 100.220,328.272 100.400,328.605 100.400 C 328.938 100.400,329.568 100.580,330.005 100.800 C 330.442 101.020,331.158 101.380,331.595 101.600 C 332.032 101.820,332.921 102.000,333.571 102.000 C 334.221 102.000,334.852 102.161,334.974 102.358 C 335.236 102.781,337.225 103.114,342.400 103.600 C 344.490 103.796,346.944 104.073,347.853 104.216 C 348.889 104.378,349.607 104.312,349.777 104.038 C 349.941 103.771,351.515 103.600,353.800 103.600 C 355.870 103.600,357.664 103.421,357.800 103.200 C 357.936 102.980,358.757 102.800,359.624 102.800 C 360.491 102.800,361.200 102.620,361.200 102.400 C 361.200 102.180,361.920 102.000,362.800 102.000 C 363.680 102.000,364.400 101.820,364.400 101.600 C 364.400 101.380,364.940 101.200,365.600 101.200 C 366.260 101.200,366.800 101.020,366.800 100.800 C 366.800 100.580,367.160 100.400,367.600 100.400 C 368.040 100.400,368.400 100.220,368.400 100.000 C 368.400 99.780,368.743 99.600,369.162 99.600 C 369.978 99.600,373.312 97.999,373.533 97.500 C 373.607 97.335,373.888 97.200,374.158 97.200 C 374.428 97.200,374.998 96.885,375.425 96.500 C 375.851 96.115,376.695 95.545,377.300 95.232 C 377.905 94.920,378.400 94.515,378.400 94.332 C 378.400 94.150,378.631 94.000,378.914 94.000 C 380.184 94.000,389.431 84.887,390.466 82.615 C 390.720 82.057,391.080 81.600,391.264 81.600 C 391.449 81.600,391.600 81.280,391.600 80.888 C 391.600 80.497,391.960 79.917,392.400 79.600 C 392.840 79.283,393.200 78.703,393.200 78.312 C 393.200 77.920,393.380 77.600,393.600 77.600 C 393.820 77.600,394.000 77.240,394.000 76.800 C 394.000 76.360,394.180 76.000,394.400 76.000 C 394.620 76.000,394.800 75.730,394.800 75.400 C 394.800 75.070,394.980 74.800,395.200 74.800 C 395.420 74.800,395.600 74.339,395.600 73.776 C 395.600 73.196,395.773 72.860,396.000 73.000 C 396.226 73.140,396.400 72.812,396.400 72.247 C 396.400 71.697,396.580 71.136,396.800 71.000 C 397.020 70.864,397.200 70.303,397.200 69.753 C 397.200 69.188,397.374 68.860,397.600 69.000 C 397.842 69.149,398.000 68.604,398.000 67.624 C 398.000 66.731,398.180 66.000,398.400 66.000 C 398.620 66.000,398.800 65.295,398.800 64.433 C 398.800 63.536,399.013 62.796,399.300 62.700 C 399.684 62.572,399.800 59.991,399.800 51.600 C 399.800 43.209,399.684 40.628,399.300 40.500 C 399.013 40.404,398.800 39.664,398.800 38.767 C 398.800 37.905,398.620 37.200,398.400 37.200 C 398.180 37.200,398.000 36.671,398.000 36.024 C 398.000 35.377,397.820 34.736,397.600 34.600 C 397.380 34.464,397.200 33.913,397.200 33.376 C 397.200 32.839,397.020 32.400,396.800 32.400 C 396.580 32.400,396.400 32.051,396.400 31.624 C 396.400 31.197,396.220 30.736,396.000 30.600 C 395.780 30.464,395.600 29.913,395.600 29.376 C 395.600 28.839,395.420 28.400,395.200 28.400 C 394.980 28.400,394.800 28.029,394.800 27.576 C 394.800 27.123,394.620 26.864,394.400 27.000 C 394.180 27.136,394.000 26.959,394.000 26.607 C 394.000 26.255,393.640 25.580,393.200 25.108 C 392.760 24.636,392.400 24.013,392.400 23.725 C 392.400 23.436,392.240 23.200,392.043 23.200 C 391.847 23.200,391.570 22.734,391.427 22.166 C 391.284 21.597,390.725 20.688,390.184 20.147 C 389.643 19.606,389.200 19.003,389.200 18.807 C 389.200 18.269,381.758 10.939,380.393 10.132 C 379.737 9.745,379.200 9.276,379.200 9.090 C 379.200 8.905,379.020 8.864,378.800 9.000 C 378.580 9.136,378.400 9.057,378.400 8.824 C 378.400 8.591,378.080 8.400,377.688 8.400 C 377.297 8.400,376.717 8.040,376.400 7.600 C 376.083 7.160,375.593 6.800,375.312 6.800 C 375.030 6.800,374.800 6.620,374.800 6.400 C 374.800 6.180,374.440 6.000,374.000 6.000 C 373.560 6.000,373.200 5.820,373.200 5.600 C 373.200 5.380,372.840 5.200,372.400 5.200 C 371.960 5.200,371.600 5.020,371.600 4.800 C 371.600 4.580,371.240 4.400,370.800 4.400 C 370.360 4.400,370.000 4.220,370.000 4.000 C 370.000 3.780,369.640 3.600,369.200 3.600 C 368.760 3.600,368.400 3.420,368.400 3.200 C 368.400 2.980,368.038 2.800,367.595 2.800 C 366.817 2.800,366.431 2.658,364.505 1.662 C 364.013 1.408,363.083 1.200,362.439 1.200 C 361.794 1.200,361.194 0.983,361.106 0.719 C 360.944 0.233,341.737 -0.122,336.900 0.271 M63.854 65.513 C 63.748 65.685,63.062 65.870,62.330 65.925 C 61.599 65.980,60.940 66.200,60.867 66.413 C 60.793 66.626,60.428 66.800,60.055 66.800 C 59.682 66.800,59.117 67.160,58.800 67.600 C 58.483 68.040,57.987 68.400,57.699 68.400 C 57.411 68.400,57.058 68.715,56.915 69.100 C 56.772 69.485,56.328 70.091,55.928 70.447 C 55.527 70.803,55.200 71.298,55.200 71.546 C 55.200 71.795,54.516 72.703,53.681 73.564 C 52.846 74.425,51.740 75.950,51.224 76.953 C 50.708 77.956,50.132 78.681,49.943 78.565 C 49.754 78.448,49.600 78.684,49.600 79.088 C 49.600 79.493,49.240 80.083,48.800 80.400 C 48.360 80.717,48.000 81.173,48.000 81.413 C 48.000 81.653,47.675 82.198,47.278 82.625 C 46.880 83.051,46.302 83.972,45.993 84.671 C 45.683 85.370,45.288 85.855,45.115 85.748 C 44.942 85.640,44.800 85.923,44.800 86.376 C 44.800 86.829,44.609 87.200,44.376 87.200 C 44.143 87.200,44.050 87.357,44.169 87.550 C 44.288 87.742,43.935 88.384,43.386 88.977 C 42.837 89.570,42.508 90.251,42.655 90.489 C 42.815 90.749,42.737 90.809,42.462 90.638 C 42.170 90.458,42.000 90.656,42.000 91.176 C 42.000 91.629,41.854 92.000,41.675 92.000 C 41.496 92.000,41.102 92.630,40.800 93.400 C 40.498 94.170,40.133 94.800,39.988 94.800 C 39.844 94.800,39.309 95.610,38.800 96.600 C 38.291 97.590,37.723 98.400,37.537 98.400 C 37.352 98.400,37.200 98.771,37.200 99.224 C 37.200 99.677,37.020 99.936,36.800 99.800 C 36.580 99.664,36.400 99.923,36.400 100.376 C 36.400 100.829,36.254 101.200,36.075 101.200 C 35.896 101.200,35.505 101.822,35.207 102.582 C 34.909 103.342,34.515 103.871,34.332 103.758 C 34.150 103.645,34.000 103.816,34.000 104.139 C 34.000 104.890,32.410 107.967,31.500 108.975 C 31.115 109.402,30.800 109.987,30.800 110.275 C 30.800 110.564,30.609 110.800,30.376 110.800 C 30.143 110.800,30.056 110.968,30.183 111.172 C 30.309 111.377,30.245 111.649,30.039 111.776 C 29.833 111.903,29.155 113.086,28.533 114.404 C 27.910 115.722,27.266 116.800,27.101 116.800 C 26.935 116.800,26.800 117.036,26.800 117.325 C 26.800 117.614,26.452 118.571,26.026 119.452 C 25.600 120.333,25.131 121.537,24.983 122.127 C 24.834 122.717,24.553 123.200,24.357 123.200 C 24.160 123.200,24.000 123.560,24.000 124.000 C 24.000 124.440,23.820 124.800,23.600 124.800 C 23.380 124.800,23.200 125.070,23.200 125.400 C 23.200 125.730,23.020 126.000,22.800 126.000 C 22.580 126.000,22.400 126.461,22.400 127.024 C 22.400 127.604,22.227 127.940,22.000 127.800 C 21.773 127.660,21.600 127.996,21.600 128.576 C 21.600 129.139,21.420 129.600,21.200 129.600 C 20.980 129.600,20.800 129.971,20.800 130.424 C 20.800 130.944,20.630 131.142,20.338 130.962 C 20.082 130.804,19.984 130.850,20.118 131.067 C 20.250 131.282,20.098 131.960,19.780 132.574 C 19.461 133.189,19.200 133.941,19.200 134.246 C 19.200 134.551,19.020 134.800,18.800 134.800 C 18.580 134.800,18.400 135.072,18.400 135.405 C 18.400 136.103,17.588 137.662,17.000 138.094 C 16.780 138.256,16.756 138.391,16.946 138.394 C 17.136 138.397,17.001 138.844,16.646 139.386 C 16.291 139.928,16.000 140.738,16.000 141.186 C 16.000 141.634,15.820 142.000,15.600 142.000 C 15.380 142.000,15.200 142.461,15.200 143.024 C 15.200 143.621,15.029 143.942,14.790 143.794 C 14.565 143.655,14.406 143.689,14.437 143.870 C 14.609 144.857,14.347 146.014,14.000 145.800 C 13.780 145.664,13.600 145.893,13.600 146.310 C 13.600 146.726,13.465 147.202,13.300 147.367 C 12.983 147.684,12.930 147.901,12.850 149.224 C 12.822 149.677,12.620 149.936,12.400 149.800 C 12.167 149.656,12.000 150.063,12.000 150.776 C 12.000 151.449,11.850 152.000,11.667 152.000 C 11.483 152.000,11.314 152.225,11.290 152.500 C 11.214 153.385,10.973 154.169,10.341 155.600 C 9.356 157.826,8.396 160.924,8.398 161.867 C 8.399 162.343,8.228 162.793,8.018 162.867 C 7.807 162.940,7.590 163.675,7.536 164.500 C 7.481 165.325,7.293 166.000,7.118 166.000 C 6.943 166.000,6.800 166.540,6.800 167.200 C 6.800 167.860,6.620 168.400,6.400 168.400 C 6.180 168.400,6.000 169.120,6.000 170.000 C 6.000 170.880,5.840 171.600,5.644 171.600 C 5.309 171.600,5.084 172.519,4.543 176.098 C 4.418 176.922,4.155 177.496,3.958 177.374 C 3.761 177.252,3.600 178.074,3.600 179.200 C 3.600 180.463,3.447 181.153,3.200 181.000 C 2.954 180.848,2.800 181.521,2.800 182.753 C 2.800 183.853,2.620 184.864,2.400 185.000 C 2.180 185.136,2.000 186.227,2.000 187.424 C 2.000 188.621,1.820 189.600,1.600 189.600 C 1.369 189.600,1.200 190.875,1.200 192.624 C 1.200 194.328,1.042 195.550,0.838 195.423 C 0.398 195.152,0.223 203.622,0.375 217.800 C 0.436 223.520,0.647 228.260,0.843 228.333 C 1.039 228.407,1.200 230.147,1.200 232.200 C 1.200 234.253,1.370 235.993,1.578 236.067 C 1.786 236.140,1.994 237.415,2.041 238.900 C 2.088 240.385,2.278 241.600,2.463 241.600 C 2.648 241.600,2.800 242.579,2.800 243.776 C 2.800 244.973,2.980 246.064,3.200 246.200 C 3.420 246.336,3.600 247.416,3.600 248.600 C 3.600 249.784,3.761 250.852,3.958 250.974 C 4.155 251.095,4.425 251.916,4.558 252.797 C 4.691 253.679,4.909 255.121,5.042 256.003 C 5.175 256.884,5.445 257.705,5.642 257.826 C 5.839 257.948,6.000 258.767,6.000 259.647 C 6.000 260.612,6.159 261.149,6.400 261.000 C 6.641 260.851,6.800 261.388,6.800 262.353 C 6.800 263.233,6.980 264.064,7.200 264.200 C 7.420 264.336,7.600 264.876,7.600 265.400 C 7.600 265.924,7.780 266.464,8.000 266.600 C 8.220 266.736,8.400 267.276,8.400 267.800 C 8.400 268.324,8.581 268.864,8.801 269.001 C 9.022 269.137,9.093 269.688,8.958 270.225 C 8.809 270.819,8.886 271.200,9.157 271.200 C 9.400 271.200,9.600 271.729,9.600 272.376 C 9.600 273.023,9.780 273.664,10.000 273.800 C 10.220 273.936,10.400 274.472,10.400 274.990 C 10.400 275.509,10.588 275.996,10.818 276.073 C 11.048 276.149,11.266 276.614,11.303 277.106 C 11.340 277.598,11.512 278.000,11.685 278.000 C 11.858 278.000,12.000 278.450,12.000 279.000 C 12.000 279.550,12.180 280.000,12.400 280.000 C 12.620 280.000,12.804 280.405,12.809 280.900 C 12.814 281.395,13.170 282.250,13.600 282.800 C 14.030 283.350,14.386 283.985,14.391 284.210 C 14.396 284.436,14.934 285.696,15.587 287.010 C 16.241 288.325,16.781 289.625,16.787 289.900 C 16.794 290.175,16.946 290.400,17.125 290.400 C 17.304 290.400,17.698 291.030,18.000 291.800 C 18.302 292.570,18.696 293.200,18.875 293.200 C 19.054 293.200,19.200 293.560,19.200 294.000 C 19.200 294.440,19.338 294.800,19.506 294.800 C 19.674 294.800,20.117 295.505,20.490 296.366 C 20.863 297.227,21.625 298.389,22.184 298.948 C 22.743 299.506,23.200 300.242,23.200 300.582 C 23.200 300.922,23.380 301.200,23.600 301.200 C 23.820 301.200,24.000 301.470,24.000 301.800 C 24.000 302.130,24.315 302.747,24.700 303.171 C 25.965 304.565,26.400 305.162,26.400 305.502 C 26.400 305.687,27.113 306.533,27.983 307.384 C 28.854 308.234,29.474 309.081,29.360 309.265 C 29.246 309.449,29.433 309.600,29.776 309.600 C 30.119 309.600,30.400 309.777,30.400 309.993 C 30.400 310.209,31.562 311.514,32.982 312.893 C 37.041 316.834,37.919 317.600,38.374 317.600 C 38.609 317.600,38.800 317.750,38.800 317.932 C 38.800 318.115,39.295 318.519,39.900 318.830 C 40.505 319.140,41.291 319.711,41.647 320.097 C 42.003 320.484,42.598 320.800,42.971 320.800 C 43.343 320.800,43.544 320.967,43.418 321.171 C 43.292 321.375,43.561 321.661,44.015 321.805 C 44.470 321.949,45.913 322.672,47.221 323.412 C 48.530 324.151,49.600 324.640,49.600 324.498 C 49.600 324.356,49.816 324.456,50.080 324.720 C 50.344 324.984,51.049 325.200,51.647 325.200 C 52.244 325.200,52.816 325.425,52.917 325.700 C 53.054 326.076,53.221 326.086,53.586 325.744 C 53.951 325.402,54.668 325.427,56.454 325.844 C 60.407 326.766,65.348 327.206,65.691 326.666 C 65.854 326.410,65.991 267.475,65.994 195.700 L 66.000 65.200 65.024 65.200 C 64.487 65.200,63.960 65.341,63.854 65.513 M115.294 265.400 C 115.033 266.528,115.046 288.633,115.307 287.623 C 115.475 286.971,115.562 281.614,115.500 275.719 C 115.437 269.823,115.345 265.180,115.294 265.400 M10.400 375.650 C 9.410 375.843,8.330 376.049,8.000 376.108 C 7.670 376.167,6.995 376.443,6.500 376.722 C 6.005 377.000,5.600 377.125,5.600 376.998 C 5.600 376.553,3.004 378.939,1.204 381.038 C 0.037 382.399,-0.482 389.924,0.372 393.096 C 0.824 394.776,3.530 397.924,5.618 399.200 C 6.483 399.728,18.170 399.812,103.300 399.903 L 200.000 400.006 200.000 388.468 L 200.000 376.930 157.714 376.650 C 121.461 376.409,115.337 376.286,114.783 375.785 C 113.823 374.916,78.400 374.905,78.400 375.773 C 78.400 376.796,76.862 376.893,65.314 376.594 C 56.232 376.359,53.894 376.189,53.725 375.750 C 53.479 375.109,13.655 375.017,10.400 375.650 M372.400 375.834 C 371.554 376.305,359.475 376.376,294.100 376.295 C 251.585 376.243,216.800 376.335,216.800 376.500 C 216.800 377.145,372.257 376.854,372.793 376.208 C 373.191 375.729,374.821 375.594,381.342 375.499 L 389.400 375.382 381.400 375.330 C 375.239 375.290,373.170 375.406,372.400 375.834 " stroke="none" fill="#e0db3f" fill-rule="evenodd"></path><path id="path4" d="M183.741 85.383 C 180.100 87.038,177.401 90.392,176.986 93.777 C 176.837 94.987,176.883 95.197,177.165 94.600 C 177.373 94.160,177.556 93.305,177.572 92.700 C 177.587 92.095,177.780 91.600,178.000 91.600 C 178.220 91.600,178.400 91.318,178.400 90.974 C 178.400 88.871,183.808 85.317,188.000 84.665 C 188.585 84.574,188.336 84.496,187.400 84.478 C 186.513 84.460,184.883 84.863,183.741 85.383 M157.861 120.747 C 157.454 120.907,158.714 121.048,160.661 121.060 C 162.755 121.073,163.873 120.954,163.400 120.769 C 162.393 120.375,158.842 120.361,157.861 120.747 M154.800 122.000 C 154.250 122.430,153.907 122.786,154.039 122.791 C 154.396 122.804,156.800 121.568,156.800 121.371 C 156.800 120.946,155.709 121.289,154.800 122.000 M164.400 121.381 C 164.400 121.481,165.052 121.872,165.848 122.250 C 166.645 122.628,169.256 124.886,171.651 127.268 C 176.045 131.639,176.805 132.176,176.794 130.900 C 176.790 130.412,176.693 130.348,176.476 130.690 C 176.264 131.025,174.965 129.963,172.382 127.344 C 168.322 123.226,164.400 120.297,164.400 121.381 M151.865 124.381 C 149.698 126.780,149.092 128.499,149.108 132.200 C 149.131 137.100,149.471 137.580,161.800 150.093 C 167.740 156.121,173.559 162.081,174.731 163.336 C 175.903 164.591,176.803 165.355,176.731 165.034 C 176.659 164.714,170.966 158.745,164.079 151.771 C 149.875 137.386,149.600 137.013,149.600 132.140 C 149.600 128.696,150.379 126.564,152.443 124.354 C 153.092 123.659,153.553 123.020,153.468 122.935 C 153.382 122.849,152.661 123.500,151.865 124.381 M239.877 123.989 C 238.146 124.665,236.234 125.892,234.724 127.294 C 233.651 128.291,230.124 131.446,227.188 134.036 C 222.697 137.996,216.172 143.783,212.800 146.795 C 205.008 153.755,202.113 156.297,201.087 157.083 C 200.474 157.552,200.148 158.044,200.361 158.176 C 200.574 158.307,201.172 158.007,201.689 157.508 C 202.505 156.721,204.309 155.106,210.750 149.400 C 211.495 148.740,212.598 147.750,213.201 147.200 C 213.805 146.650,215.371 145.265,216.683 144.122 C 217.994 142.980,219.614 141.540,220.283 140.922 C 220.951 140.305,222.556 138.872,223.849 137.738 C 225.142 136.604,226.566 135.344,227.014 134.938 C 227.461 134.532,229.351 132.851,231.214 131.202 C 233.076 129.553,234.800 128.023,235.044 127.802 C 237.242 125.815,238.076 125.200,238.573 125.200 C 238.892 125.200,239.251 125.041,239.371 124.846 C 239.623 124.439,241.183 124.077,244.600 123.634 L 247.000 123.322 244.400 123.280 C 242.716 123.252,241.122 123.502,239.877 123.989 M250.000 125.164 C 250.550 125.614,251.180 125.983,251.400 125.985 C 251.828 125.988,251.105 125.434,249.800 124.760 C 249.269 124.485,249.336 124.621,250.000 125.164 M254.800 128.925 C 254.800 128.994,255.385 129.579,256.100 130.225 L 257.400 131.400 256.225 130.100 C 255.130 128.888,254.800 128.616,254.800 128.925 M259.200 132.912 C 259.200 133.016,260.407 134.159,261.882 135.451 C 263.357 136.743,264.437 137.594,264.283 137.341 C 263.939 136.776,259.200 132.647,259.200 132.912 M268.289 141.168 C 270.218 142.911,271.865 144.269,271.948 144.185 C 272.032 144.101,271.493 143.532,270.750 142.919 C 270.008 142.307,268.483 140.950,267.361 139.903 C 266.240 138.856,265.201 138.000,265.052 138.000 C 264.904 138.000,266.360 139.426,268.289 141.168 M274.961 147.087 C 275.600 147.794,276.311 148.255,276.542 148.113 C 276.803 147.951,276.742 147.787,276.380 147.676 C 276.061 147.578,275.350 147.117,274.800 146.651 C 273.998 145.971,274.030 146.057,274.961 147.087 M241.997 151.516 C 241.446 152.112,239.826 153.590,238.398 154.800 C 236.970 156.010,235.244 157.540,234.564 158.200 C 233.883 158.860,232.263 160.328,230.963 161.462 C 229.663 162.596,228.238 163.856,227.796 164.262 C 227.354 164.668,226.274 165.613,225.396 166.361 C 223.833 167.694,219.122 171.895,216.692 174.122 C 216.019 174.740,214.394 176.180,213.083 177.322 C 211.771 178.465,210.207 179.850,209.607 180.400 C 209.006 180.950,207.276 182.480,205.761 183.800 C 204.246 185.120,202.196 186.937,201.204 187.837 C 200.212 188.738,198.803 189.998,198.073 190.637 C 197.343 191.277,195.883 192.610,194.828 193.600 C 193.774 194.590,192.391 195.834,191.755 196.365 C 188.174 199.358,182.947 203.994,180.158 206.653 C 179.204 207.562,177.474 209.092,176.313 210.053 C 175.152 211.014,173.818 212.160,173.348 212.600 C 172.878 213.040,171.261 214.480,169.755 215.800 C 168.248 217.120,166.202 218.935,165.208 219.834 C 164.214 220.733,162.786 221.993,162.035 222.634 C 161.284 223.275,159.929 224.520,159.024 225.400 C 158.119 226.280,156.574 227.655,155.589 228.456 C 154.605 229.257,153.325 230.337,152.744 230.856 C 152.164 231.375,150.559 232.790,149.179 234.000 C 147.798 235.210,145.750 237.100,144.626 238.200 C 143.503 239.300,141.957 240.676,141.192 241.257 C 140.426 241.838,138.987 243.098,137.994 244.057 C 137.001 245.016,135.699 246.184,135.100 246.653 C 134.501 247.122,132.518 248.865,130.694 250.526 C 128.869 252.188,126.841 253.961,126.188 254.467 C 125.535 254.973,124.190 256.200,123.200 257.194 C 122.210 258.187,120.770 259.475,120.000 260.055 C 119.230 260.635,117.520 262.165,116.199 263.455 C 114.879 264.745,112.269 267.150,110.399 268.800 C 108.530 270.450,106.910 271.900,106.800 272.022 C 105.041 273.977,98.524 274.626,95.401 273.159 C 88.188 269.768,86.589 259.922,92.389 254.605 C 93.165 253.894,96.410 250.998,99.600 248.170 C 102.790 245.341,105.670 242.749,106.000 242.409 C 106.330 242.069,107.770 240.805,109.200 239.600 C 110.630 238.395,112.070 237.136,112.400 236.802 C 112.730 236.467,113.720 235.583,114.600 234.836 C 115.480 234.090,117.730 232.097,119.600 230.407 C 121.470 228.717,123.810 226.629,124.800 225.767 C 125.790 224.905,126.870 223.924,127.200 223.586 C 127.530 223.249,129.060 221.916,130.600 220.625 C 134.543 217.320,138.237 214.071,140.178 212.200 C 141.092 211.320,143.000 209.615,144.419 208.411 C 145.839 207.208,147.270 205.946,147.600 205.608 C 147.930 205.270,148.920 204.386,149.800 203.644 C 150.680 202.902,152.210 201.553,153.200 200.647 C 154.190 199.741,156.350 197.829,158.000 196.400 C 159.650 194.970,161.453 193.350,162.006 192.800 C 162.559 192.250,164.179 190.815,165.606 189.610 C 167.033 188.406,168.290 187.326,168.400 187.210 C 168.510 187.095,170.220 185.560,172.200 183.800 C 174.180 182.040,176.025 180.388,176.300 180.129 C 176.575 179.869,176.779 179.239,176.754 178.729 C 176.713 177.907,176.684 177.892,176.507 178.600 C 176.397 179.040,176.169 179.490,176.000 179.600 C 175.830 179.710,174.279 181.060,172.552 182.600 C 164.748 189.558,161.701 192.277,160.400 193.441 C 157.978 195.608,143.536 208.417,140.412 211.168 C 138.768 212.616,136.608 214.535,135.612 215.434 C 134.615 216.333,133.189 217.593,132.441 218.234 C 131.694 218.875,130.184 220.210,129.086 221.200 C 127.988 222.190,126.783 223.270,126.408 223.600 C 126.034 223.930,124.602 225.190,123.227 226.400 C 89.307 256.241,88.279 257.303,88.239 262.515 C 88.157 273.227,100.242 278.614,108.325 271.469 C 109.114 270.771,111.735 268.400,114.149 266.200 C 116.562 264.000,121.341 259.701,124.768 256.646 C 128.196 253.591,131.630 250.528,132.400 249.839 C 133.170 249.151,145.140 238.519,159.000 226.213 C 172.860 213.906,184.290 203.739,184.400 203.619 C 184.510 203.498,186.128 202.050,187.995 200.400 C 192.558 196.368,199.759 189.974,204.400 185.834 C 205.170 185.147,209.040 181.710,213.000 178.196 C 216.960 174.683,220.290 171.716,220.400 171.604 C 220.510 171.492,222.130 170.051,224.000 168.402 C 225.870 166.753,227.596 165.223,227.836 165.002 C 228.377 164.503,240.467 153.799,242.157 152.321 C 243.789 150.895,243.627 150.786,253.963 160.289 C 255.570 161.766,257.324 162.837,255.929 161.489 C 253.713 159.349,243.489 150.403,243.273 150.416 C 243.123 150.424,242.549 150.919,241.997 151.516 M256.800 162.519 C 256.800 162.623,260.805 166.279,265.700 170.643 C 270.595 175.008,275.225 179.159,275.988 179.868 C 276.751 180.577,277.448 181.085,277.536 180.998 C 277.721 180.812,277.659 180.753,273.190 176.806 C 271.326 175.159,269.710 173.717,269.600 173.602 C 269.490 173.487,267.961 172.135,266.203 170.596 C 264.445 169.058,262.195 167.055,261.203 166.144 C 258.770 163.909,256.800 162.288,256.800 162.519 M278.023 181.430 C 278.036 181.634,279.161 182.745,280.523 183.899 C 281.885 185.054,283.832 186.764,284.850 187.699 C 285.867 188.635,287.307 189.927,288.050 190.570 C 290.694 192.862,295.928 197.507,298.450 199.800 C 299.417 200.680,300.935 202.030,301.821 202.800 C 305.130 205.674,309.402 209.470,311.763 211.634 C 313.103 212.863,315.010 214.568,316.000 215.422 C 316.990 216.276,318.707 217.791,319.815 218.788 C 322.864 221.529,324.652 223.118,328.620 226.612 C 332.615 230.131,342.131 238.587,346.800 242.768 C 357.587 252.427,359.607 254.160,359.577 253.733 C 359.564 253.550,358.439 252.455,357.077 251.301 C 355.715 250.146,353.768 248.436,352.750 247.501 C 351.733 246.565,350.383 245.348,349.750 244.797 C 345.180 240.810,341.100 237.199,339.400 235.637 C 338.300 234.627,336.672 233.170,335.783 232.400 C 333.171 230.138,328.453 225.957,326.040 223.766 C 324.808 222.647,322.990 221.033,322.000 220.179 C 321.010 219.325,319.205 217.720,317.990 216.613 C 316.774 215.506,313.633 212.710,311.009 210.400 C 308.386 208.090,305.141 205.210,303.799 204.000 C 302.456 202.790,300.647 201.183,299.779 200.430 C 298.911 199.676,297.383 198.326,296.383 197.430 C 291.248 192.822,287.412 189.400,283.800 186.203 C 281.600 184.256,279.395 182.302,278.900 181.862 C 278.405 181.421,278.010 181.227,278.023 181.430 M360.000 254.193 C 360.000 254.513,360.119 254.626,364.400 258.402 C 366.270 260.051,368.876 262.424,370.191 263.676 C 371.505 264.928,372.675 265.859,372.789 265.744 C 372.904 265.630,372.278 264.892,371.399 264.105 C 370.519 263.318,368.989 261.937,367.997 261.037 C 363.357 256.825,360.000 253.952,360.000 254.193 M266.166 266.195 C 262.505 267.351,259.940 269.500,258.305 272.783 L 257.400 274.600 257.400 306.000 C 257.400 335.224,257.449 337.505,258.109 338.909 C 259.089 340.995,261.384 343.439,263.567 344.722 L 265.400 345.800 296.522 345.910 C 316.785 345.981,328.173 345.877,329.160 345.611 C 332.405 344.737,335.453 341.685,336.823 337.938 C 337.891 335.016,338.033 277.477,336.980 274.452 C 335.409 269.941,332.931 267.530,328.478 266.179 C 325.851 265.381,268.696 265.396,266.166 266.195 M155.000 266.366 C 152.231 267.047,149.257 269.565,147.669 272.575 L 146.600 274.600 146.490 325.500 L 146.379 376.400 181.590 376.400 L 216.800 376.400 216.800 326.264 C 216.800 285.083,216.703 275.803,216.255 274.315 C 215.414 271.521,213.552 269.160,210.959 267.600 L 208.632 266.200 182.416 266.135 C 167.997 266.100,155.660 266.204,155.000 266.366 M209.360 267.409 C 211.596 268.343,214.027 270.774,215.064 273.111 L 216.000 275.223 216.000 325.347 L 216.000 375.471 204.300 375.735 C 197.865 375.880,182.385 375.999,169.900 375.999 L 147.200 376.000 147.200 325.595 C 147.200 297.220,147.354 274.886,147.553 274.495 C 147.748 274.113,148.153 273.260,148.453 272.600 C 149.246 270.860,151.136 268.965,153.200 267.840 L 155.000 266.859 181.451 266.830 C 204.280 266.804,208.102 266.883,209.360 267.409 M330.686 267.837 C 332.756 268.958,335.569 271.818,335.588 272.820 C 335.595 273.161,335.825 273.665,336.100 273.940 C 336.491 274.331,336.600 281.229,336.600 305.720 L 336.600 337.000 335.684 338.929 C 334.764 340.869,332.383 343.600,331.613 343.600 C 331.386 343.600,331.200 343.780,331.200 344.000 C 331.200 344.220,330.876 344.400,330.480 344.400 C 330.084 344.400,329.535 344.625,329.260 344.900 C 327.865 346.295,263.600 345.447,263.600 344.034 C 263.600 343.903,263.105 343.576,262.500 343.308 C 261.895 343.040,260.953 342.096,260.406 341.210 C 259.859 340.325,259.274 339.600,259.106 339.600 C 258.938 339.600,258.800 339.161,258.800 338.624 C 258.800 338.087,258.620 337.536,258.400 337.400 C 257.893 337.086,257.847 275.490,258.353 274.495 C 258.548 274.113,258.953 273.261,259.253 272.603 C 260.092 270.766,261.601 269.225,263.800 267.959 L 265.800 266.808 297.286 266.804 L 328.772 266.800 330.686 267.837 M280.400 305.796 C 280.400 321.726,280.444 322.800,281.100 322.794 C 281.605 322.789,281.659 322.698,281.295 322.467 C 280.900 322.216,280.813 318.647,280.895 305.974 L 281.000 289.800 297.500 289.696 L 314.000 289.591 314.000 305.966 C 314.000 321.225,313.952 322.354,313.300 322.524 C 312.776 322.661,312.827 322.719,313.504 322.754 L 314.409 322.800 314.304 305.900 L 314.200 289.000 297.300 288.896 L 280.400 288.791 280.400 305.796 M53.764 325.750 C 53.670 325.998,53.639 337.450,53.696 351.200 L 53.800 376.200 66.100 376.306 C 72.865 376.364,78.400 376.274,78.400 376.106 C 78.401 375.938,75.656 375.800,72.300 375.800 L 66.200 375.800 66.097 351.700 L 65.994 327.600 68.097 327.594 C 72.584 327.581,70.831 326.995,66.053 326.911 C 62.916 326.856,59.661 326.534,57.468 326.061 C 54.958 325.521,53.887 325.431,53.764 325.750 M74.000 326.400 L 73.000 326.720 74.076 326.760 C 74.668 326.782,75.264 326.620,75.400 326.400 C 75.681 325.945,75.420 325.945,74.000 326.400 " stroke="none" fill="#c9745b" fill-rule="evenodd"></path></g></svg>