<svg id="svg" version="1.1" xmlns="http://www.w3.org/2000/svg" xmlns:xlink="http://www.w3.org/1999/xlink" width="400" height="400" viewBox="0, 0, 400,400"><g id="svgg"><path id="path0" d="M60.400 216.400 C 60.400 216.620,59.590 216.800,58.600 216.800 C 57.610 216.800,56.800 216.980,56.800 217.200 C 56.800 217.420,56.260 217.600,55.600 217.600 C 54.940 217.600,54.400 217.780,54.400 218.000 C 54.400 218.220,54.040 218.400,53.600 218.400 C 53.160 218.400,52.800 218.580,52.800 218.800 C 52.800 219.020,52.440 219.200,52.000 219.200 C 51.560 219.200,51.200 219.380,51.200 219.600 C 51.200 219.820,50.840 220.000,50.400 220.000 C 49.960 220.000,49.600 220.180,49.600 220.400 C 49.600 220.620,49.280 220.800,48.888 220.800 C 48.497 220.800,47.917 221.160,47.600 221.600 C 47.283 222.040,46.781 222.400,46.485 222.400 C 45.790 222.400,38.800 229.399,38.800 230.095 C 38.800 230.386,38.440 230.883,38.000 231.200 C 37.560 231.517,37.200 232.097,37.200 232.488 C 37.200 232.880,37.020 233.200,36.800 233.200 C 36.580 233.200,36.400 233.560,36.400 234.000 C 36.400 234.440,36.220 234.800,36.000 234.800 C 35.780 234.800,35.600 235.160,35.600 235.600 C 35.600 236.040,35.420 236.400,35.200 236.400 C 34.980 236.400,34.800 236.940,34.800 237.600 C 34.800 238.260,34.620 238.800,34.400 238.800 C 34.180 238.800,34.000 239.340,34.000 240.000 C 34.000 240.660,33.820 241.200,33.600 241.200 C 33.380 241.200,33.200 242.190,33.200 243.400 C 33.200 244.610,33.020 245.600,32.800 245.600 C 32.558 245.600,32.400 247.333,32.400 250.000 C 32.400 252.667,32.558 254.400,32.800 254.400 C 33.020 254.400,33.200 255.390,33.200 256.600 C 33.200 257.810,33.380 258.800,33.600 258.800 C 33.820 258.800,34.000 259.340,34.000 260.000 C 34.000 260.660,34.180 261.200,34.400 261.200 C 34.620 261.200,34.800 261.740,34.800 262.400 C 34.800 263.060,34.980 263.600,35.200 263.600 C 35.420 263.600,35.600 263.960,35.600 264.400 C 35.600 264.840,35.780 265.200,36.000 265.200 C 36.220 265.200,36.400 265.560,36.400 266.000 C 36.400 266.440,36.580 266.800,36.800 266.800 C 37.020 266.800,37.200 267.120,37.200 267.512 C 37.200 267.903,37.560 268.483,38.000 268.800 C 38.440 269.117,38.800 269.596,38.800 269.865 C 38.800 270.549,45.789 277.600,46.467 277.600 C 46.773 277.600,47.283 277.960,47.600 278.400 C 47.917 278.840,48.497 279.200,48.888 279.200 C 49.280 279.200,49.600 279.380,49.600 279.600 C 49.600 279.820,49.960 280.000,50.400 280.000 C 50.840 280.000,51.200 280.180,51.200 280.400 C 51.200 280.620,51.560 280.800,52.000 280.800 C 52.440 280.800,52.800 280.980,52.800 281.200 C 52.800 281.420,53.160 281.600,53.600 281.600 C 54.040 281.600,54.400 281.780,54.400 282.000 C 54.400 282.220,54.940 282.400,55.600 282.400 C 56.260 282.400,56.800 282.580,56.800 282.800 C 56.800 283.020,57.610 283.200,58.600 283.200 C 59.590 283.200,60.400 283.380,60.400 283.600 C 60.400 283.849,62.733 284.000,66.600 284.000 C 70.467 284.000,72.800 283.849,72.800 283.600 C 72.800 283.380,73.520 283.200,74.400 283.200 C 75.280 283.200,76.000 283.020,76.000 282.800 C 76.000 282.580,76.540 282.400,77.200 282.400 C 77.860 282.400,78.400 282.220,78.400 282.000 C 78.400 281.780,78.940 281.600,79.600 281.600 C 80.260 281.600,80.800 281.420,80.800 281.200 C 80.800 280.980,81.160 280.800,81.600 280.800 C 82.040 280.800,82.400 280.620,82.400 280.400 C 82.400 280.180,82.760 280.000,83.200 280.000 C 83.640 280.000,84.000 279.820,84.000 279.600 C 84.000 279.380,84.270 279.200,84.600 279.200 C 84.930 279.200,85.200 279.020,85.200 278.800 C 85.200 278.580,85.430 278.400,85.712 278.400 C 85.993 278.400,86.483 278.040,86.800 277.600 C 87.117 277.160,87.595 276.800,87.863 276.800 C 88.451 276.800,93.200 272.276,93.200 271.715 C 93.200 271.497,93.740 270.754,94.400 270.063 C 95.060 269.372,95.600 268.536,95.600 268.204 C 95.600 267.872,95.780 267.600,96.000 267.600 C 96.220 267.600,96.400 267.240,96.400 266.800 C 96.400 266.360,96.580 266.000,96.800 266.000 C 97.020 266.000,97.200 265.640,97.200 265.200 C 97.200 264.760,97.380 264.400,97.600 264.400 C 97.820 264.400,98.000 264.040,98.000 263.600 C 98.000 263.160,98.180 262.800,98.400 262.800 C 98.620 262.800,98.800 262.260,98.800 261.600 C 98.800 260.940,98.980 260.400,99.200 260.400 C 99.420 260.400,99.600 259.781,99.600 259.024 C 99.600 258.267,99.780 257.536,100.000 257.400 C 100.243 257.250,100.400 254.337,100.400 250.000 C 100.400 245.663,100.243 242.750,100.000 242.600 C 99.780 242.464,99.600 241.733,99.600 240.976 C 99.600 240.219,99.420 239.600,99.200 239.600 C 98.980 239.600,98.800 239.060,98.800 238.400 C 98.800 237.740,98.620 237.200,98.400 237.200 C 98.180 237.200,98.000 236.840,98.000 236.400 C 98.000 235.960,97.820 235.600,97.600 235.600 C 97.380 235.600,97.200 235.240,97.200 234.800 C 97.200 234.360,97.020 234.000,96.800 234.000 C 96.580 234.000,96.400 233.640,96.400 233.200 C 96.400 232.760,96.220 232.400,96.000 232.400 C 95.780 232.400,95.600 232.128,95.600 231.796 C 95.600 231.464,95.060 230.628,94.400 229.937 C 93.740 229.246,93.200 228.519,93.200 228.321 C 93.200 227.756,88.486 223.200,87.901 223.200 C 87.612 223.200,87.117 222.840,86.800 222.400 C 86.483 221.960,85.993 221.600,85.712 221.600 C 85.430 221.600,85.200 221.420,85.200 221.200 C 85.200 220.980,84.930 220.800,84.600 220.800 C 84.270 220.800,84.000 220.620,84.000 220.400 C 84.000 220.180,83.640 220.000,83.200 220.000 C 82.760 220.000,82.400 219.820,82.400 219.600 C 82.400 219.380,82.040 219.200,81.600 219.200 C 81.160 219.200,80.800 219.020,80.800 218.800 C 80.800 218.580,80.260 218.400,79.600 218.400 C 78.940 218.400,78.400 218.220,78.400 218.000 C 78.400 217.780,77.860 217.600,77.200 217.600 C 76.540 217.600,76.000 217.420,76.000 217.200 C 76.000 216.980,75.280 216.800,74.400 216.800 C 73.520 216.800,72.800 216.620,72.800 216.400 C 72.800 216.151,70.467 216.000,66.600 216.000 C 62.733 216.000,60.400 216.151,60.400 216.400 M327.000 216.400 C 326.864 216.620,326.133 216.800,325.376 216.800 C 324.619 216.800,324.000 216.980,324.000 217.200 C 324.000 217.420,323.460 217.600,322.800 217.600 C 322.140 217.600,321.600 217.780,321.600 218.000 C 321.600 218.220,321.060 218.400,320.400 218.400 C 319.740 218.400,319.200 218.580,319.200 218.800 C 319.200 219.020,318.840 219.200,318.400 219.200 C 317.960 219.200,317.600 219.380,317.600 219.600 C 317.600 219.820,317.240 220.000,316.800 220.000 C 316.360 220.000,316.000 220.180,316.000 220.400 C 316.000 220.620,315.730 220.800,315.400 220.800 C 315.070 220.800,314.800 220.980,314.800 221.200 C 314.800 221.420,314.570 221.600,314.288 221.600 C 314.007 221.600,313.517 221.960,313.200 222.400 C 312.883 222.840,312.379 223.200,312.080 223.200 C 311.474 223.200,306.800 227.722,306.800 228.309 C 306.800 228.514,306.260 229.246,305.600 229.937 C 304.940 230.628,304.400 231.464,304.400 231.796 C 304.400 232.128,304.220 232.400,304.000 232.400 C 303.780 232.400,303.600 232.760,303.600 233.200 C 303.600 233.640,303.420 234.000,303.200 234.000 C 302.980 234.000,302.800 234.360,302.800 234.800 C 302.800 235.240,302.620 235.600,302.400 235.600 C 302.180 235.600,302.000 235.960,302.000 236.400 C 302.000 236.840,301.820 237.200,301.600 237.200 C 301.380 237.200,301.200 237.740,301.200 238.400 C 301.200 239.060,301.020 239.600,300.800 239.600 C 300.580 239.600,300.400 240.219,300.400 240.976 C 300.400 241.733,300.220 242.464,300.000 242.600 C 299.757 242.750,299.600 245.663,299.600 250.000 C 299.600 254.337,299.757 257.250,300.000 257.400 C 300.220 257.536,300.400 258.267,300.400 259.024 C 300.400 259.781,300.580 260.400,300.800 260.400 C 301.020 260.400,301.200 260.940,301.200 261.600 C 301.200 262.260,301.380 262.800,301.600 262.800 C 301.820 262.800,302.000 263.160,302.000 263.600 C 302.000 264.040,302.180 264.400,302.400 264.400 C 302.620 264.400,302.800 264.760,302.800 265.200 C 302.800 265.640,302.980 266.000,303.200 266.000 C 303.420 266.000,303.600 266.360,303.600 266.800 C 303.600 267.240,303.780 267.600,304.000 267.600 C 304.220 267.600,304.400 267.920,304.400 268.312 C 304.400 268.703,304.760 269.283,305.200 269.600 C 305.640 269.917,306.000 270.407,306.000 270.688 C 306.000 270.970,306.180 271.200,306.400 271.200 C 306.620 271.200,306.800 271.394,306.800 271.632 C 306.800 272.260,311.438 276.800,312.080 276.800 C 312.379 276.800,312.883 277.160,313.200 277.600 C 313.517 278.040,314.007 278.400,314.288 278.400 C 314.570 278.400,314.800 278.580,314.800 278.800 C 314.800 279.020,315.070 279.200,315.400 279.200 C 315.730 279.200,316.000 279.380,316.000 279.600 C 316.000 279.820,316.360 280.000,316.800 280.000 C 317.240 280.000,317.600 280.180,317.600 280.400 C 317.600 280.620,317.960 280.800,318.400 280.800 C 318.840 280.800,319.200 280.980,319.200 281.200 C 319.200 281.420,319.740 281.600,320.400 281.600 C 321.060 281.600,321.600 281.780,321.600 282.000 C 321.600 282.220,322.140 282.400,322.800 282.400 C 323.460 282.400,324.000 282.580,324.000 282.800 C 324.000 283.020,324.619 283.200,325.376 283.200 C 326.133 283.200,326.864 283.380,327.000 283.600 C 327.147 283.838,329.663 284.000,333.200 284.000 C 336.737 284.000,339.253 283.838,339.400 283.600 C 339.536 283.380,340.346 283.200,341.200 283.200 C 342.054 283.200,342.864 283.020,343.000 282.800 C 343.136 282.580,343.777 282.400,344.424 282.400 C 345.071 282.400,345.600 282.220,345.600 282.000 C 345.600 281.780,345.960 281.600,346.400 281.600 C 346.840 281.600,347.200 281.420,347.200 281.200 C 347.200 280.980,347.560 280.800,348.000 280.800 C 348.440 280.800,348.800 280.620,348.800 280.400 C 348.800 280.180,349.160 280.000,349.600 280.000 C 350.040 280.000,350.400 279.820,350.400 279.600 C 350.400 279.380,350.720 279.200,351.112 279.200 C 351.503 279.200,352.083 278.840,352.400 278.400 C 352.717 277.960,353.230 277.600,353.539 277.600 C 354.174 277.600,361.200 270.608,361.200 269.976 C 361.200 269.751,361.560 269.180,362.000 268.708 C 362.440 268.236,362.800 267.613,362.800 267.325 C 362.800 267.036,362.980 266.800,363.200 266.800 C 363.420 266.800,363.600 266.440,363.600 266.000 C 363.600 265.560,363.780 265.200,364.000 265.200 C 364.220 265.200,364.400 264.840,364.400 264.400 C 364.400 263.960,364.580 263.600,364.800 263.600 C 365.020 263.600,365.200 263.060,365.200 262.400 C 365.200 261.740,365.380 261.200,365.600 261.200 C 365.820 261.200,366.000 260.660,366.000 260.000 C 366.000 259.340,366.180 258.800,366.400 258.800 C 366.620 258.800,366.800 257.810,366.800 256.600 C 366.800 255.390,366.980 254.400,367.200 254.400 C 367.442 254.400,367.600 252.667,367.600 250.000 C 367.600 247.333,367.442 245.600,367.200 245.600 C 366.980 245.600,366.800 244.610,366.800 243.400 C 366.800 242.190,366.620 241.200,366.400 241.200 C 366.180 241.200,366.000 240.660,366.000 240.000 C 366.000 239.340,365.820 238.800,365.600 238.800 C 365.380 238.800,365.200 238.260,365.200 237.600 C 365.200 236.940,365.020 236.400,364.800 236.400 C 364.580 236.400,364.400 236.040,364.400 235.600 C 364.400 235.160,364.220 234.800,364.000 234.800 C 363.780 234.800,363.600 234.440,363.600 234.000 C 363.600 233.560,363.420 233.200,363.200 233.200 C 362.980 233.200,362.800 232.964,362.800 232.675 C 362.800 232.387,362.440 231.764,362.000 231.292 C 361.560 230.820,361.200 230.249,361.200 230.024 C 361.200 229.392,354.174 222.400,353.539 222.400 C 353.230 222.400,352.717 222.040,352.400 221.600 C 352.083 221.160,351.503 220.800,351.112 220.800 C 350.720 220.800,350.400 220.620,350.400 220.400 C 350.400 220.180,350.040 220.000,349.600 220.000 C 349.160 220.000,348.800 219.820,348.800 219.600 C 348.800 219.380,348.440 219.200,348.000 219.200 C 347.560 219.200,347.200 219.020,347.200 218.800 C 347.200 218.580,346.840 218.400,346.400 218.400 C 345.960 218.400,345.600 218.220,345.600 218.000 C 345.600 217.780,345.071 217.600,344.424 217.600 C 343.777 217.600,343.136 217.420,343.000 217.200 C 342.864 216.980,342.054 216.800,341.200 216.800 C 340.346 216.800,339.536 216.620,339.400 216.400 C 339.253 216.162,336.737 216.000,333.200 216.000 C 329.663 216.000,327.147 216.162,327.000 216.400 M37.200 300.000 C 37.200 300.220,36.300 300.400,35.200 300.400 C 34.100 300.400,33.200 300.580,33.200 300.800 C 33.200 301.020,32.660 301.200,32.000 301.200 C 31.340 301.200,30.800 301.380,30.800 301.600 C 30.800 301.820,30.260 302.000,29.600 302.000 C 28.940 302.000,28.400 302.180,28.400 302.400 C 28.400 302.620,28.040 302.800,27.600 302.800 C 27.160 302.800,26.799 302.935,26.797 303.100 C 26.793 303.486,24.832 304.400,24.009 304.400 C 23.661 304.400,23.117 304.760,22.800 305.200 C 22.483 305.640,21.903 306.000,21.512 306.000 C 21.120 306.000,20.800 306.180,20.800 306.400 C 20.800 306.620,20.564 306.800,20.275 306.800 C 19.987 306.800,19.402 307.115,18.975 307.500 C 18.549 307.885,17.390 308.727,16.400 309.370 C 14.270 310.755,10.715 314.351,9.252 316.600 C 8.679 317.480,7.894 318.491,7.506 318.847 C 7.118 319.203,6.800 319.788,6.800 320.147 C 6.800 320.506,6.620 320.800,6.400 320.800 C 6.180 320.800,6.000 321.120,6.000 321.512 C 6.000 321.903,5.640 322.483,5.200 322.800 C 4.760 323.117,4.400 323.787,4.400 324.288 C 4.400 324.790,4.220 325.200,4.000 325.200 C 3.780 325.200,3.600 325.560,3.600 326.000 C 3.600 326.440,3.420 326.800,3.200 326.800 C 2.980 326.800,2.800 327.160,2.800 327.600 C 2.800 328.040,2.620 328.400,2.400 328.400 C 2.180 328.400,2.000 328.940,2.000 329.600 C 2.000 330.260,1.820 330.800,1.600 330.800 C 1.380 330.800,1.200 331.325,1.200 331.967 C 1.200 332.608,0.975 333.208,0.700 333.300 C 0.313 333.429,0.200 336.488,0.200 346.799 C 0.200 357.110,0.313 360.170,0.700 360.300 C 0.975 360.391,1.200 360.737,1.200 361.068 C 1.200 361.806,5.497 366.000,6.254 366.000 C 6.554 366.000,6.800 366.180,6.800 366.400 C 6.800 366.620,7.419 366.800,8.176 366.800 C 8.933 366.800,9.664 366.980,9.800 367.200 C 9.962 367.462,22.804 367.600,47.024 367.600 L 84.000 367.600 84.000 362.400 C 84.000 359.200,84.154 357.200,84.400 357.200 C 84.631 357.200,84.800 355.941,84.800 354.224 C 84.800 352.587,84.980 351.136,85.200 351.000 C 85.420 350.864,85.600 349.953,85.600 348.976 C 85.600 347.999,85.780 347.200,86.000 347.200 C 86.220 347.200,86.400 346.480,86.400 345.600 C 86.400 344.720,86.580 344.000,86.800 344.000 C 87.020 344.000,87.200 343.460,87.200 342.800 C 87.200 342.140,87.380 341.600,87.600 341.600 C 87.820 341.600,88.000 341.161,88.000 340.624 C 88.000 340.087,88.180 339.536,88.400 339.400 C 88.620 339.264,88.800 338.713,88.800 338.176 C 88.800 337.639,88.959 337.200,89.153 337.200 C 89.348 337.200,89.598 336.795,89.710 336.300 C 90.007 334.984,91.750 331.022,92.100 330.867 C 92.265 330.793,92.400 330.388,92.400 329.967 C 92.400 329.545,92.580 329.200,92.800 329.200 C 93.020 329.200,93.200 328.840,93.200 328.400 C 93.200 327.960,93.380 327.600,93.600 327.600 C 93.820 327.600,94.000 327.280,94.000 326.888 C 94.000 326.497,94.360 325.917,94.800 325.600 C 95.240 325.283,95.600 324.793,95.600 324.512 C 95.600 324.230,95.750 324.000,95.932 324.000 C 96.115 324.000,96.520 323.510,96.832 322.911 C 97.145 322.311,98.075 321.120,98.900 320.262 C 99.725 319.405,100.400 318.543,100.400 318.347 C 100.400 317.852,108.697 309.600,109.195 309.600 C 109.418 309.600,109.600 309.432,109.600 309.227 C 109.600 309.022,109.960 308.740,110.400 308.600 C 110.840 308.460,111.200 308.088,111.200 307.773 C 111.200 307.458,111.380 307.200,111.600 307.200 C 111.820 307.200,112.000 307.007,112.000 306.771 C 112.000 306.147,110.953 305.200,110.262 305.200 C 109.935 305.200,109.607 305.065,109.533 304.900 C 109.312 304.401,105.978 302.800,105.162 302.800 C 104.743 302.800,104.400 302.620,104.400 302.400 C 104.400 302.180,103.950 302.000,103.400 302.000 C 102.850 302.000,102.400 301.820,102.400 301.600 C 102.400 301.380,101.770 301.200,101.000 301.200 C 100.230 301.200,99.600 301.020,99.600 300.800 C 99.600 300.580,98.880 300.400,98.000 300.400 C 97.120 300.400,96.400 300.220,96.400 300.000 C 96.400 299.737,86.267 299.600,66.800 299.600 C 47.333 299.600,37.200 299.737,37.200 300.000 M303.600 300.000 C 303.600 300.220,302.880 300.400,302.000 300.400 C 301.120 300.400,300.400 300.580,300.400 300.800 C 300.400 301.020,299.781 301.200,299.024 301.200 C 298.267 301.200,297.536 301.380,297.400 301.600 C 297.264 301.820,296.803 302.000,296.376 302.000 C 295.949 302.000,295.600 302.180,295.600 302.400 C 295.600 302.620,295.060 302.800,294.400 302.800 C 293.740 302.800,293.200 302.980,293.200 303.200 C 293.200 303.420,292.930 303.600,292.600 303.600 C 292.270 303.600,292.000 303.780,292.000 304.000 C 292.000 304.220,291.640 304.400,291.200 304.400 C 290.760 304.400,290.400 304.580,290.400 304.800 C 290.400 305.020,290.117 305.200,289.771 305.200 C 287.819 305.200,287.731 308.007,289.664 308.620 C 290.069 308.749,290.400 309.022,290.400 309.227 C 290.400 309.432,290.596 309.600,290.837 309.600 C 291.323 309.600,299.600 317.841,299.600 318.325 C 299.600 318.494,300.320 319.428,301.200 320.400 C 302.080 321.372,302.800 322.360,302.800 322.596 C 302.800 322.831,303.160 323.283,303.600 323.600 C 304.040 323.917,304.400 324.367,304.400 324.600 C 304.400 324.833,304.760 325.283,305.200 325.600 C 305.640 325.917,306.000 326.497,306.000 326.888 C 306.000 327.280,306.180 327.600,306.400 327.600 C 306.620 327.600,306.800 327.960,306.800 328.400 C 306.800 328.840,306.980 329.200,307.200 329.200 C 307.420 329.200,307.600 329.560,307.600 330.000 C 307.600 330.440,307.780 330.800,308.000 330.800 C 308.220 330.800,308.400 331.071,308.400 331.402 C 308.400 331.733,308.850 332.937,309.400 334.077 C 309.950 335.217,310.400 336.386,310.400 336.675 C 310.400 336.964,310.580 337.200,310.800 337.200 C 311.020 337.200,311.200 337.639,311.200 338.176 C 311.200 338.713,311.380 339.264,311.600 339.400 C 311.820 339.536,312.000 340.087,312.000 340.624 C 312.000 341.161,312.180 341.600,312.400 341.600 C 312.620 341.600,312.800 342.140,312.800 342.800 C 312.800 343.460,312.980 344.000,313.200 344.000 C 313.420 344.000,313.600 344.720,313.600 345.600 C 313.600 346.480,313.780 347.200,314.000 347.200 C 314.220 347.200,314.400 348.100,314.400 349.200 C 314.400 350.300,314.580 351.200,314.800 351.200 C 315.031 351.200,315.200 352.467,315.200 354.200 C 315.200 355.933,315.369 357.200,315.600 357.200 C 315.846 357.200,316.000 359.200,316.000 362.400 L 316.000 367.600 352.976 367.600 C 377.196 367.600,390.038 367.462,390.200 367.200 C 390.336 366.980,391.067 366.800,391.824 366.800 C 392.581 366.800,393.200 366.650,393.200 366.468 C 393.200 366.285,393.693 365.880,394.295 365.568 C 395.772 364.802,398.800 361.761,398.800 361.044 C 398.800 360.726,399.025 360.391,399.300 360.299 C 399.686 360.170,399.800 357.167,399.800 347.086 C 399.800 337.182,399.680 333.919,399.300 333.540 C 399.025 333.265,398.800 332.536,398.800 331.920 C 398.800 331.304,398.620 330.800,398.400 330.800 C 398.180 330.800,398.000 330.361,398.000 329.824 C 398.000 329.287,397.820 328.736,397.600 328.600 C 397.380 328.464,397.200 328.003,397.200 327.576 C 397.200 327.149,397.020 326.800,396.800 326.800 C 396.580 326.800,396.400 326.440,396.400 326.000 C 396.400 325.560,396.254 325.200,396.075 325.200 C 395.896 325.200,395.502 324.570,395.200 323.800 C 394.898 323.030,394.504 322.400,394.325 322.400 C 394.146 322.400,394.000 322.040,394.000 321.600 C 394.000 321.160,393.850 320.800,393.668 320.800 C 393.485 320.800,393.080 320.305,392.768 319.700 C 392.089 318.385,392.120 318.429,389.734 315.400 C 387.621 312.718,385.776 310.942,383.400 309.304 C 382.520 308.697,381.451 307.885,381.025 307.500 C 380.598 307.115,380.013 306.800,379.725 306.800 C 379.436 306.800,379.200 306.620,379.200 306.400 C 379.200 306.180,378.922 306.000,378.583 306.000 C 378.244 306.000,377.580 305.640,377.108 305.200 C 376.636 304.760,375.923 304.400,375.525 304.400 C 375.126 304.400,374.800 304.220,374.800 304.000 C 374.800 303.780,374.440 303.600,374.000 303.600 C 373.560 303.600,373.200 303.420,373.200 303.200 C 373.200 302.980,372.851 302.800,372.424 302.800 C 371.997 302.800,371.536 302.620,371.400 302.400 C 371.264 302.180,370.713 302.000,370.176 302.000 C 369.639 302.000,369.200 301.820,369.200 301.600 C 369.200 301.380,368.671 301.200,368.024 301.200 C 367.377 301.200,366.736 301.020,366.600 300.800 C 366.464 300.580,365.553 300.400,364.576 300.400 C 363.599 300.400,362.800 300.220,362.800 300.000 C 362.800 299.737,352.667 299.600,333.200 299.600 C 313.733 299.600,303.600 299.737,303.600 300.000 " stroke="none" fill="#47a34c" fill-rule="evenodd"></path><path id="path1" d="M200.000 241.800 L 200.000 292.400 202.120 292.400 C 203.286 292.400,204.411 292.230,204.620 292.023 C 204.829 291.816,206.215 291.607,207.700 291.560 C 209.185 291.513,210.400 291.360,210.400 291.221 C 210.400 291.082,210.985 290.991,211.700 291.018 C 212.415 291.046,213.228 290.893,213.507 290.679 C 213.786 290.465,214.326 290.257,214.707 290.217 C 215.088 290.176,215.760 290.005,216.200 289.835 C 217.658 289.274,218.789 288.805,219.717 288.377 C 220.222 288.144,220.933 287.910,221.298 287.856 C 221.663 287.803,222.299 287.453,222.712 287.079 C 223.125 286.706,223.764 286.400,224.131 286.400 C 224.499 286.400,224.800 286.245,224.800 286.056 C 224.800 285.866,225.610 285.281,226.600 284.756 C 227.590 284.231,228.400 283.655,228.400 283.477 C 228.400 283.299,228.547 283.244,228.727 283.355 C 228.907 283.466,229.492 283.153,230.027 282.658 C 230.562 282.163,231.315 281.639,231.700 281.492 C 232.085 281.345,232.400 281.029,232.400 280.789 C 232.400 280.549,232.580 280.464,232.800 280.600 C 233.020 280.736,233.200 280.561,233.200 280.211 C 233.200 279.861,233.460 279.475,233.777 279.354 C 234.426 279.105,238.126 275.600,237.740 275.600 C 237.604 275.600,237.966 275.227,238.546 274.771 C 239.126 274.315,239.600 273.728,239.600 273.467 C 239.600 273.206,239.967 272.763,240.416 272.483 C 240.864 272.203,241.123 271.800,240.992 271.587 C 240.860 271.374,240.943 271.200,241.176 271.200 C 241.409 271.200,241.600 270.930,241.600 270.600 C 241.600 270.270,241.780 270.000,242.000 270.000 C 242.220 270.000,242.400 269.719,242.400 269.376 C 242.400 269.033,242.580 268.864,242.800 269.000 C 243.020 269.136,243.200 268.877,243.200 268.424 C 243.200 267.971,243.380 267.600,243.600 267.600 C 243.820 267.600,244.000 267.345,244.000 267.033 C 244.000 266.722,244.135 266.407,244.300 266.333 C 244.791 266.115,246.400 262.784,246.400 261.986 C 246.400 261.580,246.580 261.136,246.800 261.000 C 247.020 260.864,247.200 260.393,247.200 259.953 C 247.200 259.513,247.343 259.241,247.517 259.349 C 247.691 259.456,247.877 258.975,247.931 258.279 C 247.984 257.583,248.201 256.839,248.413 256.627 C 248.626 256.414,248.800 255.725,248.800 255.096 C 248.800 254.436,248.969 254.057,249.200 254.200 C 249.447 254.352,249.600 253.671,249.600 252.424 C 249.600 251.296,249.783 250.400,250.014 250.400 C 250.530 250.400,250.505 233.208,249.988 232.585 C 249.794 232.352,249.590 231.482,249.534 230.653 C 249.478 229.823,249.290 229.056,249.116 228.948 C 248.942 228.841,248.800 228.324,248.800 227.800 C 248.800 227.276,248.620 226.736,248.400 226.600 C 248.180 226.464,248.000 225.823,248.000 225.176 C 248.000 224.529,247.820 224.000,247.600 224.000 C 247.380 224.000,247.200 223.676,247.200 223.280 C 247.200 222.386,246.306 220.407,245.900 220.403 C 245.735 220.401,245.600 219.950,245.600 219.400 C 245.600 218.850,245.420 218.400,245.200 218.400 C 244.980 218.400,244.800 218.029,244.800 217.576 C 244.800 217.123,244.620 216.864,244.400 217.000 C 244.180 217.136,244.000 216.866,244.000 216.400 C 244.000 215.934,243.865 215.636,243.700 215.738 C 243.535 215.840,242.963 215.050,242.431 213.981 C 241.898 212.913,241.332 212.119,241.173 212.217 C 240.873 212.402,240.225 211.227,240.336 210.700 C 240.371 210.535,240.220 210.400,240.000 210.400 C 239.780 210.400,239.600 210.130,239.600 209.800 C 239.600 209.470,239.300 209.200,238.933 209.200 C 238.567 209.200,238.372 209.095,238.501 208.966 C 238.766 208.701,231.279 201.200,230.749 201.200 C 230.560 201.200,229.971 200.822,229.439 200.359 C 228.907 199.896,228.362 199.540,228.228 199.567 C 228.094 199.595,227.763 199.430,227.492 199.201 C 225.519 197.536,221.261 195.200,220.198 195.200 C 219.923 195.200,219.472 194.928,219.196 194.595 C 218.919 194.262,218.492 194.021,218.247 194.059 C 218.001 194.097,217.274 193.912,216.631 193.648 C 215.988 193.384,215.236 193.254,214.960 193.360 C 214.684 193.466,214.257 193.310,214.011 193.013 C 213.765 192.717,213.122 192.523,212.582 192.582 C 212.042 192.641,211.600 192.535,211.600 192.345 C 211.600 192.155,210.621 192.000,209.424 192.000 C 208.227 192.000,207.136 191.820,207.000 191.600 C 206.864 191.380,205.233 191.200,203.376 191.200 L 200.000 191.200 200.000 241.800 M200.000 357.992 L 200.000 400.000 241.840 400.000 C 286.981 400.000,284.860 400.095,287.129 397.980 C 287.590 397.551,288.077 397.200,288.212 397.200 C 288.347 397.200,288.714 396.943,289.029 396.629 C 289.343 396.314,289.600 395.947,289.600 395.812 C 289.600 395.677,289.954 395.187,290.386 394.723 C 290.819 394.259,291.078 393.726,290.963 393.539 C 290.847 393.353,290.943 393.200,291.176 393.200 C 291.409 393.200,291.600 392.516,291.600 391.680 C 291.600 390.844,291.784 389.976,292.009 389.751 C 292.557 389.203,292.253 359.227,291.659 355.200 C 291.415 353.550,291.168 351.750,291.108 351.200 C 291.049 350.650,290.907 350.110,290.793 350.000 C 290.565 349.779,289.586 346.492,289.513 345.700 C 289.487 345.425,289.338 345.200,289.180 345.200 C 288.943 345.200,288.649 344.569,288.249 343.200 C 287.887 341.959,287.016 340.400,286.685 340.400 C 286.455 340.400,286.381 340.286,286.520 340.146 C 286.660 340.007,286.422 339.446,285.992 338.899 C 285.563 338.353,285.326 337.719,285.467 337.491 C 285.616 337.251,285.529 337.197,285.262 337.362 C 284.995 337.527,284.800 337.405,284.800 337.073 C 284.800 336.757,284.532 336.276,284.204 336.004 C 283.877 335.732,283.726 335.305,283.869 335.055 C 284.011 334.805,283.980 334.734,283.800 334.898 C 283.619 335.062,283.043 334.567,282.521 333.798 C 281.999 333.029,281.387 332.400,281.162 332.400 C 280.937 332.400,280.840 332.259,280.947 332.087 C 281.053 331.914,280.615 331.355,279.973 330.844 C 279.331 330.333,278.923 329.709,279.067 329.457 C 279.211 329.206,279.192 329.123,279.024 329.273 C 278.857 329.423,278.204 329.018,277.574 328.373 C 276.943 327.728,276.230 327.200,275.990 327.200 C 275.749 327.200,275.664 327.020,275.800 326.800 C 275.936 326.580,275.768 326.400,275.427 326.400 C 275.086 326.400,274.291 325.860,273.660 325.200 C 273.029 324.540,272.207 324.000,271.833 324.000 C 271.459 324.000,271.264 323.820,271.400 323.600 C 271.536 323.380,271.367 323.200,271.024 323.200 C 270.681 323.200,270.400 323.020,270.400 322.800 C 270.400 322.580,270.130 322.400,269.800 322.400 C 269.470 322.400,269.200 322.220,269.200 322.000 C 269.200 321.780,268.750 321.600,268.200 321.600 C 267.650 321.600,267.200 321.420,267.200 321.200 C 267.200 320.980,266.930 320.800,266.600 320.800 C 266.270 320.800,266.000 320.620,266.000 320.400 C 266.000 320.180,265.539 320.000,264.976 320.000 C 264.413 320.000,264.040 319.858,264.148 319.685 C 264.255 319.512,263.868 319.330,263.289 319.283 C 262.709 319.235,262.056 319.016,261.838 318.798 C 261.619 318.579,261.037 318.400,260.544 318.400 C 260.051 318.400,259.536 318.220,259.400 318.000 C 259.264 317.780,258.533 317.600,257.776 317.600 C 257.019 317.600,256.400 317.420,256.400 317.200 C 256.400 316.980,255.691 316.800,254.824 316.800 C 253.957 316.800,253.141 316.627,253.010 316.416 C 252.863 316.178,242.762 316.024,226.387 316.009 L 200.000 315.984 200.000 357.992 M107.757 389.788 C 107.902 390.775,108.400 390.990,108.400 390.067 C 108.400 389.590,108.236 389.200,108.035 389.200 C 107.835 389.200,107.710 389.465,107.757 389.788 " stroke="none" fill="#2494f4" fill-rule="evenodd"></path><path id="path2" d="M121.107 0.357 C 120.285 0.491,119.261 0.904,118.831 1.275 C 118.286 1.746,118.002 1.806,117.890 1.475 C 117.772 1.123,117.559 1.142,117.069 1.545 C 116.706 1.845,116.507 2.250,116.628 2.445 C 116.749 2.640,116.556 2.800,116.200 2.800 C 115.814 2.800,115.655 2.598,115.806 2.300 C 115.945 2.025,115.821 2.087,115.530 2.439 C 115.238 2.790,114.685 3.031,114.300 2.974 C 113.885 2.913,113.600 3.128,113.600 3.502 C 113.600 3.849,113.474 4.008,113.321 3.854 C 113.167 3.701,112.814 3.986,112.535 4.487 C 112.240 5.018,112.022 5.159,112.014 4.825 C 111.998 4.150,110.400 5.693,110.400 6.383 C 110.400 6.612,110.119 6.800,109.776 6.800 C 109.433 6.800,109.264 6.980,109.400 7.200 C 109.538 7.424,109.229 7.600,108.698 7.600 C 107.985 7.600,107.613 7.948,107.200 9.000 C 106.898 9.770,106.480 10.400,106.272 10.400 C 105.661 10.400,104.400 12.058,104.400 12.861 C 104.400 13.340,104.111 13.600,103.576 13.600 C 103.123 13.600,102.855 13.765,102.980 13.968 C 103.105 14.170,102.936 14.607,102.604 14.939 C 101.923 15.620,101.791 16.176,102.400 15.800 C 102.620 15.664,102.800 15.700,102.800 15.880 C 102.800 16.060,102.440 16.432,102.000 16.707 C 101.556 16.984,101.200 17.640,101.200 18.180 C 101.200 18.715,101.058 19.241,100.884 19.348 C 100.710 19.456,100.522 20.231,100.466 21.072 C 100.411 21.912,100.191 22.661,99.979 22.734 C 99.354 22.952,99.482 109.998,100.107 110.006 C 100.428 110.010,100.390 110.150,100.000 110.406 C 99.516 110.724,99.501 110.865,99.924 111.139 C 100.212 111.325,100.482 112.134,100.524 112.937 C 100.566 113.740,100.735 114.397,100.900 114.398 C 101.065 114.399,101.200 114.655,101.200 114.967 C 101.200 115.278,101.388 115.596,101.618 115.673 C 101.848 115.749,102.065 116.202,102.101 116.678 C 102.137 117.155,102.309 117.456,102.483 117.349 C 102.764 117.175,102.977 118.081,102.847 118.900 C 102.821 119.065,102.958 119.200,103.151 119.200 C 103.345 119.200,103.726 119.738,103.998 120.395 C 104.270 121.052,104.652 121.491,104.846 121.371 C 105.041 121.251,105.222 121.343,105.250 121.576 C 105.346 122.386,105.414 122.603,105.734 123.107 C 105.911 123.385,106.251 123.492,106.489 123.345 C 106.746 123.186,106.809 123.262,106.642 123.532 C 106.476 123.800,106.862 124.293,107.579 124.729 C 108.249 125.136,108.678 125.589,108.532 125.735 C 108.386 125.881,108.580 126.000,108.962 126.000 C 109.688 126.000,110.800 126.897,110.800 127.483 C 110.800 128.013,112.340 129.200,113.028 129.200 C 113.369 129.200,113.562 129.338,113.458 129.507 C 113.354 129.675,113.703 130.018,114.235 130.269 C 114.766 130.520,115.100 130.562,114.977 130.363 C 114.854 130.163,114.931 130.000,115.149 130.000 C 115.368 130.000,115.660 130.360,115.800 130.800 C 115.940 131.240,116.402 131.600,116.827 131.600 C 117.252 131.600,117.600 131.780,117.600 132.000 C 117.600 132.220,117.870 132.400,118.200 132.400 C 118.530 132.400,118.800 132.192,118.800 131.939 C 118.800 131.685,119.136 131.865,119.547 132.339 C 120.090 132.965,120.752 133.200,121.971 133.200 C 122.986 133.200,123.550 133.358,123.400 133.600 C 123.264 133.820,123.418 134.000,123.743 134.000 C 124.068 134.000,124.416 133.775,124.517 133.500 C 124.663 133.100,124.806 133.100,125.230 133.500 C 125.640 133.887,130.527 134.000,146.847 134.000 C 169.367 134.000,169.200 133.989,169.200 135.443 C 169.200 135.969,169.362 136.355,169.560 136.300 C 169.758 136.245,169.973 136.380,170.038 136.600 C 170.289 137.456,170.987 137.931,171.294 137.456 C 171.549 137.061,171.687 137.640,171.574 138.630 C 171.559 138.757,171.919 139.183,172.374 139.577 C 172.828 139.971,173.200 140.409,173.200 140.550 C 173.200 140.691,173.695 141.368,174.300 142.053 C 174.905 142.738,175.355 143.457,175.300 143.649 C 175.245 143.842,175.359 144.000,175.553 144.000 C 175.748 144.000,176.002 144.365,176.119 144.811 C 176.236 145.258,176.572 145.573,176.866 145.511 C 177.159 145.450,177.355 145.625,177.300 145.900 C 177.245 146.175,177.417 146.355,177.682 146.300 C 178.160 146.201,178.254 146.442,178.350 148.024 C 178.378 148.477,178.580 148.736,178.800 148.600 C 179.020 148.464,179.200 148.612,179.200 148.930 C 179.200 149.247,179.560 149.601,180.000 149.716 C 180.541 149.857,180.800 150.262,180.800 150.963 C 180.800 151.533,180.962 151.955,181.160 151.900 C 181.358 151.845,181.526 151.949,181.534 152.130 C 181.541 152.312,181.908 152.773,182.349 153.156 C 182.790 153.538,183.206 154.109,183.275 154.425 C 183.447 155.216,184.825 156.432,185.252 156.168 C 185.443 156.050,185.600 156.391,185.600 156.927 C 185.600 157.463,185.915 158.149,186.300 158.451 C 186.934 158.949,186.949 158.934,186.451 158.300 C 186.149 157.915,186.008 157.600,186.137 157.600 C 186.559 157.600,188.370 160.525,188.159 160.867 C 188.045 161.050,188.233 161.200,188.576 161.200 C 188.919 161.200,189.200 161.353,189.200 161.541 C 189.200 162.166,191.597 164.400,192.303 164.432 C 192.715 164.450,192.797 164.545,192.504 164.664 C 190.891 165.315,194.379 166.748,197.800 166.839 C 199.045 166.872,199.223 166.955,198.600 167.213 C 197.896 167.504,197.932 167.547,198.896 167.572 L 199.993 167.600 199.998 83.800 L 200.004 0.000 161.302 0.057 C 140.016 0.088,121.928 0.223,121.107 0.357 M192.585 191.576 C 192.722 191.798,192.267 191.863,191.479 191.735 C 190.553 191.585,189.941 191.716,189.498 192.159 C 188.736 192.921,188.229 193.006,188.653 192.300 C 188.893 191.901,188.829 191.900,188.340 192.297 C 188.003 192.570,187.621 192.688,187.493 192.560 C 187.258 192.325,184.795 192.998,183.505 193.649 C 183.123 193.842,182.528 194.000,182.182 194.000 C 181.836 194.000,181.650 194.158,181.769 194.350 C 181.888 194.543,181.518 194.700,180.947 194.700 C 180.376 194.700,179.752 194.947,179.561 195.250 C 179.273 195.704,179.209 195.696,179.193 195.200 C 179.177 194.684,179.106 194.689,178.687 195.234 C 178.419 195.582,177.705 195.991,177.100 196.141 C 176.495 196.292,176.000 196.592,176.000 196.808 C 176.000 197.023,175.730 197.200,175.400 197.200 C 175.070 197.200,174.800 197.380,174.800 197.600 C 174.800 197.820,174.440 198.000,174.000 198.000 C 173.560 198.000,173.200 198.180,173.200 198.400 C 173.200 198.620,172.930 198.800,172.600 198.800 C 172.270 198.800,172.000 198.980,172.000 199.200 C 172.000 199.420,171.802 199.600,171.560 199.600 C 171.319 199.600,170.599 200.159,169.960 200.842 C 169.322 201.526,168.800 201.878,168.800 201.627 C 168.800 201.310,168.628 201.328,168.242 201.684 C 167.935 201.968,167.766 202.335,167.866 202.500 C 167.965 202.665,167.845 202.800,167.599 202.800 C 166.922 202.800,160.364 209.619,160.629 210.047 C 160.756 210.252,160.649 210.370,160.393 210.310 C 160.136 210.249,159.717 210.552,159.463 210.983 C 159.208 211.414,158.787 212.000,158.526 212.285 C 158.266 212.571,157.938 213.164,157.799 213.602 C 157.660 214.041,157.368 214.400,157.149 214.400 C 156.931 214.400,156.864 214.580,157.000 214.800 C 157.136 215.020,156.956 215.200,156.600 215.200 C 156.244 215.200,156.055 215.365,156.180 215.568 C 156.305 215.770,156.136 216.207,155.804 216.539 C 155.472 216.871,155.200 217.426,155.200 217.771 C 155.200 218.117,155.020 218.400,154.800 218.400 C 154.580 218.400,154.400 218.760,154.400 219.200 C 154.400 219.640,154.220 220.000,154.000 220.000 C 153.780 220.000,153.600 220.349,153.600 220.776 C 153.600 221.203,153.420 221.664,153.200 221.800 C 152.980 221.936,152.800 222.487,152.800 223.024 C 152.800 223.561,152.620 224.000,152.400 224.000 C 152.180 224.000,152.000 224.551,152.000 225.224 C 152.000 225.897,151.843 226.350,151.650 226.231 C 151.458 226.112,151.300 226.499,151.300 227.091 C 151.300 227.682,151.097 228.234,150.850 228.317 C 150.598 228.401,150.400 229.332,150.400 230.433 C 150.400 231.515,150.220 232.400,150.000 232.400 C 149.745 232.400,149.600 235.667,149.600 241.400 C 149.600 247.133,149.745 250.400,150.000 250.400 C 150.220 250.400,150.400 251.030,150.400 251.800 C 150.400 252.570,150.580 253.200,150.800 253.200 C 151.020 253.200,151.200 253.391,151.200 253.624 C 151.200 253.857,151.020 253.936,150.800 253.800 C 150.580 253.664,150.400 253.818,150.400 254.143 C 150.400 254.468,150.597 254.799,150.837 254.879 C 151.077 254.959,151.302 255.497,151.337 256.074 C 151.372 256.651,151.535 257.040,151.700 256.938 C 151.865 256.836,152.000 257.393,152.000 258.176 C 152.000 258.959,152.180 259.600,152.400 259.600 C 152.620 259.600,152.800 259.971,152.800 260.424 C 152.800 260.877,152.980 261.136,153.200 261.000 C 153.559 260.778,153.828 262.340,153.614 263.400 C 153.570 263.620,153.666 263.668,153.827 263.506 C 154.157 263.176,155.200 264.975,155.200 265.874 C 155.200 266.743,156.280 267.731,156.536 267.096 C 156.647 266.823,156.751 267.185,156.768 267.900 C 156.786 268.615,156.937 269.200,157.105 269.200 C 157.273 269.200,157.588 269.526,157.805 269.924 C 158.999 272.114,160.145 273.600,160.640 273.600 C 160.948 273.600,161.200 273.791,161.200 274.024 C 161.200 274.257,160.976 274.311,160.700 274.144 C 160.425 273.977,161.370 275.016,162.800 276.452 C 164.230 277.888,165.535 278.993,165.700 278.908 C 165.865 278.823,166.000 278.956,166.000 279.205 C 166.000 279.815,167.042 280.824,167.352 280.514 C 167.489 280.378,167.600 280.577,167.600 280.957 C 167.600 281.337,167.765 281.545,167.968 281.420 C 168.170 281.295,168.614 281.471,168.953 281.811 C 169.293 282.150,169.713 282.443,169.886 282.462 C 170.690 282.546,171.646 283.519,171.128 283.726 C 170.838 283.842,171.230 283.965,172.000 284.000 C 172.770 284.035,173.177 284.153,172.904 284.264 C 172.198 284.549,173.094 285.386,174.476 285.733 C 175.063 285.881,175.814 286.271,176.143 286.601 C 176.473 286.930,176.848 287.200,176.976 287.200 C 177.104 287.200,178.062 287.578,179.104 288.040 C 182.666 289.618,183.899 290.073,185.193 290.288 C 185.738 290.378,186.278 290.575,186.393 290.726 C 186.634 291.045,187.331 291.132,192.200 291.453 C 194.180 291.583,195.971 291.850,196.180 292.045 C 196.389 292.240,197.334 292.400,198.280 292.400 L 200.000 292.400 200.000 241.800 L 200.000 191.200 196.176 191.200 C 193.890 191.200,192.446 191.351,192.585 191.576 M146.800 316.400 C 146.800 316.620,146.001 316.800,145.024 316.800 C 144.047 316.800,143.136 316.980,143.000 317.200 C 142.864 317.420,142.213 317.600,141.553 317.600 C 140.855 317.600,140.456 317.767,140.600 318.000 C 140.736 318.220,140.672 318.400,140.457 318.400 C 140.242 318.400,139.976 318.175,139.865 317.900 C 139.704 317.500,139.657 317.500,139.632 317.900 C 139.614 318.175,139.240 318.400,138.800 318.400 C 138.360 318.400,138.000 318.580,138.000 318.800 C 138.000 319.020,137.520 319.200,136.933 319.200 C 136.347 319.200,135.984 319.317,136.127 319.461 C 136.498 319.831,134.492 320.800,133.354 320.800 C 132.829 320.800,132.400 320.980,132.400 321.200 C 132.400 321.420,132.040 321.600,131.600 321.600 C 131.160 321.600,130.800 321.780,130.800 322.000 C 130.800 322.220,130.601 322.400,130.358 322.400 C 130.115 322.400,129.427 322.805,128.829 323.300 C 126.723 325.045,125.091 326.200,124.733 326.200 C 124.534 326.200,124.200 326.470,123.992 326.800 C 123.783 327.130,123.609 327.265,123.606 327.100 C 123.597 326.644,119.200 331.175,119.200 331.641 C 119.200 331.864,119.065 331.965,118.900 331.866 C 118.556 331.657,117.849 332.396,117.698 333.121 C 117.642 333.391,117.057 334.175,116.398 334.865 C 115.320 335.993,114.993 336.752,115.163 337.730 C 115.194 337.911,115.035 337.945,114.810 337.806 C 114.584 337.667,114.400 337.833,114.400 338.176 C 114.400 338.519,114.253 338.800,114.074 338.800 C 113.608 338.800,112.000 341.931,112.000 342.838 C 112.000 343.257,111.820 343.600,111.600 343.600 C 111.380 343.600,111.200 343.870,111.200 344.200 C 111.200 344.530,111.049 344.800,110.864 344.800 C 110.544 344.800,109.432 348.724,109.390 350.000 C 109.379 350.331,109.231 350.826,109.062 351.100 C 108.892 351.375,108.898 351.603,109.076 351.606 C 109.254 351.609,109.130 351.803,108.800 352.037 C 108.348 352.356,108.324 352.511,108.700 352.664 C 108.975 352.775,109.200 353.042,109.200 353.257 C 109.200 353.472,109.020 353.536,108.800 353.400 C 108.552 353.247,108.400 353.996,108.400 355.376 C 108.400 356.599,108.220 357.600,108.000 357.600 C 107.780 357.600,107.600 357.791,107.600 358.024 C 107.600 358.257,107.780 358.336,108.000 358.200 C 108.220 358.064,108.400 358.233,108.400 358.576 C 108.400 358.919,108.220 359.200,108.000 359.200 C 107.780 359.200,107.600 359.661,107.600 360.224 C 107.600 360.926,107.757 361.159,108.100 360.965 C 108.500 360.739,108.500 360.790,108.100 361.221 C 107.462 361.909,107.365 389.200,108.000 389.200 C 108.220 389.200,108.400 390.100,108.400 391.200 C 108.400 392.300,108.580 393.200,108.800 393.200 C 109.020 393.200,109.200 393.560,109.200 394.000 C 109.200 394.458,109.467 394.800,109.824 394.800 C 110.167 394.800,110.351 394.956,110.233 395.146 C 109.989 395.541,112.844 398.532,113.656 398.732 C 113.951 398.805,114.323 399.075,114.482 399.332 C 114.699 399.683,125.382 399.827,157.385 399.907 L 200.000 400.014 200.000 358.007 L 200.000 316.000 173.400 316.000 C 155.933 316.000,146.800 316.137,146.800 316.400 " stroke="none" fill="#0e8cd4" fill-rule="evenodd"></path><path id="path3" d="M23.200 16.411 C 23.200 16.625,22.581 16.800,21.824 16.800 C 21.067 16.800,20.336 16.980,20.200 17.200 C 20.064 17.420,19.423 17.600,18.776 17.600 C 18.129 17.600,17.600 17.780,17.600 18.000 C 17.600 18.220,17.240 18.400,16.800 18.400 C 16.360 18.400,16.000 18.580,16.000 18.800 C 16.000 19.020,15.640 19.200,15.200 19.200 C 14.760 19.200,14.400 19.380,14.400 19.600 C 14.400 19.820,14.130 20.000,13.800 20.000 C 13.470 20.000,13.200 20.180,13.200 20.400 C 13.200 20.620,13.012 20.800,12.783 20.800 C 12.554 20.800,11.980 21.160,11.508 21.600 C 11.036 22.040,10.453 22.400,10.213 22.400 C 9.973 22.400,9.512 22.788,9.188 23.262 C 8.865 23.736,8.169 24.501,7.643 24.962 C 6.022 26.381,5.200 27.331,5.200 27.787 C 5.200 28.027,4.840 28.483,4.400 28.800 C 3.960 29.117,3.600 29.697,3.600 30.088 C 3.600 30.480,3.420 30.800,3.200 30.800 C 2.980 30.800,2.800 31.160,2.800 31.600 C 2.800 32.040,2.620 32.400,2.400 32.400 C 2.180 32.400,2.000 32.760,2.000 33.200 C 2.000 33.640,1.820 34.000,1.600 34.000 C 1.380 34.000,1.200 34.324,1.200 34.720 C 1.200 35.116,0.975 35.665,0.700 35.940 C -0.033 36.674,-0.033 130.456,0.700 130.700 C 0.975 130.792,1.200 131.291,1.200 131.810 C 1.200 132.328,1.380 132.864,1.600 133.000 C 1.820 133.136,2.000 133.597,2.000 134.024 C 2.000 134.451,2.180 134.800,2.400 134.800 C 2.620 134.800,2.800 135.036,2.800 135.325 C 2.800 135.613,3.160 136.236,3.600 136.708 C 4.040 137.180,4.400 137.754,4.400 137.983 C 4.400 138.212,4.580 138.400,4.800 138.400 C 5.020 138.400,5.200 138.598,5.200 138.840 C 5.200 139.081,5.785 139.801,6.500 140.438 C 7.215 141.076,7.980 141.787,8.200 142.019 C 10.454 144.392,11.758 145.600,12.065 145.600 C 12.268 145.600,12.820 145.960,13.292 146.400 C 13.764 146.840,14.387 147.200,14.675 147.200 C 14.964 147.200,15.200 147.380,15.200 147.600 C 15.200 147.820,15.549 148.000,15.976 148.000 C 16.403 148.000,16.864 148.180,17.000 148.400 C 17.136 148.620,17.687 148.800,18.224 148.800 C 18.761 148.800,19.200 148.980,19.200 149.200 C 19.200 149.420,19.920 149.600,20.800 149.600 C 21.680 149.600,22.400 149.780,22.400 150.000 C 22.400 150.249,24.676 150.400,28.429 150.400 C 34.522 150.400,35.600 150.642,35.600 152.011 C 35.600 152.268,36.140 152.983,36.800 153.600 C 37.460 154.217,38.000 154.892,38.000 155.101 C 38.000 155.310,38.540 156.046,39.200 156.737 C 39.860 157.428,40.400 158.108,40.400 158.249 C 40.400 158.391,40.733 158.797,41.141 159.153 C 41.548 159.509,42.205 160.430,42.600 161.200 C 42.995 161.970,43.652 162.891,44.059 163.247 C 44.467 163.603,44.800 164.071,44.800 164.288 C 44.800 164.504,45.340 165.246,46.000 165.937 C 46.660 166.628,47.200 167.348,47.200 167.537 C 47.200 167.726,47.740 168.446,48.400 169.137 C 49.060 169.828,49.600 170.539,49.600 170.718 C 49.600 170.897,50.234 171.754,51.008 172.622 C 51.783 173.490,52.863 174.698,53.408 175.307 C 53.954 175.916,54.400 176.594,54.400 176.814 C 54.400 177.341,59.465 182.400,59.993 182.400 C 60.217 182.400,60.400 182.580,60.400 182.800 C 60.400 183.020,60.940 183.200,61.600 183.200 C 62.260 183.200,62.800 183.380,62.800 183.600 C 62.800 183.840,64.400 184.000,66.800 184.000 C 69.200 184.000,70.800 183.840,70.800 183.600 C 70.800 183.380,71.216 183.200,71.725 183.200 C 72.233 183.200,73.036 182.840,73.508 182.400 C 73.980 181.960,74.469 181.600,74.594 181.600 C 75.000 181.600,78.400 178.033,78.400 177.608 C 78.400 177.380,79.660 175.973,81.200 174.481 C 82.740 172.990,84.000 171.637,84.000 171.476 C 84.000 171.315,84.985 170.197,86.190 168.993 C 87.394 167.788,88.699 166.307,89.090 165.702 C 89.890 164.460,90.653 163.566,93.100 161.002 C 94.035 160.023,94.800 159.128,94.800 159.013 C 94.800 158.899,96.060 157.531,97.600 155.972 C 99.140 154.414,100.400 152.922,100.400 152.658 C 100.400 152.393,100.760 151.917,101.200 151.600 C 102.316 150.796,102.197 149.836,100.900 149.170 C 100.295 148.860,99.509 148.289,99.153 147.903 C 98.797 147.516,98.296 147.200,98.040 147.200 C 97.783 147.200,96.985 146.615,96.266 145.900 C 95.547 145.185,94.132 143.970,93.121 143.200 C 92.110 142.430,90.876 141.208,90.379 140.483 C 89.881 139.759,88.782 138.454,87.937 137.583 C 87.092 136.712,86.400 135.769,86.400 135.488 C 86.400 135.207,86.040 134.717,85.600 134.400 C 85.160 134.083,84.800 133.543,84.800 133.200 C 84.800 132.857,84.440 132.317,84.000 132.000 C 83.560 131.683,83.200 131.103,83.200 130.712 C 83.200 130.320,83.020 130.000,82.800 130.000 C 82.580 130.000,82.400 129.640,82.400 129.200 C 82.400 128.760,82.254 128.400,82.075 128.400 C 81.896 128.400,81.502 127.770,81.200 127.000 C 80.898 126.230,80.504 125.600,80.325 125.600 C 80.146 125.600,80.000 125.240,80.000 124.800 C 80.000 124.360,79.820 124.000,79.600 124.000 C 79.380 124.000,79.200 123.460,79.200 122.800 C 79.200 122.140,79.020 121.600,78.800 121.600 C 78.580 121.600,78.400 121.060,78.400 120.400 C 78.400 119.740,78.220 119.200,78.000 119.200 C 77.780 119.200,77.600 118.581,77.600 117.824 C 77.600 117.067,77.420 116.336,77.200 116.200 C 76.980 116.064,76.800 115.254,76.800 114.400 C 76.800 113.546,76.620 112.736,76.400 112.600 C 76.175 112.461,76.000 110.537,76.000 108.200 C 76.000 105.863,75.825 103.939,75.600 103.800 C 75.338 103.638,75.200 90.729,75.200 66.376 C 75.200 41.859,75.336 29.200,75.600 29.200 C 75.840 29.200,76.000 27.608,76.000 25.224 C 76.000 23.004,76.177 21.138,76.400 21.000 C 76.620 20.864,76.800 20.043,76.800 19.176 C 76.800 18.309,76.980 17.600,77.200 17.600 C 77.420 17.600,77.600 17.238,77.600 16.795 C 77.600 15.996,77.398 15.990,50.400 16.006 C 33.046 16.016,23.200 16.162,23.200 16.411 M322.400 16.800 C 322.400 17.240,322.580 17.600,322.800 17.600 C 323.020 17.600,323.200 18.410,323.200 19.400 C 323.200 20.390,323.380 21.200,323.600 21.200 C 323.840 21.200,324.000 22.800,324.000 25.200 C 324.000 27.600,324.160 29.200,324.400 29.200 C 324.664 29.200,324.800 41.867,324.800 66.400 C 324.800 90.933,324.664 103.600,324.400 103.600 C 324.158 103.600,324.000 105.333,324.000 108.000 C 324.000 110.667,323.842 112.400,323.600 112.400 C 323.380 112.400,323.200 113.210,323.200 114.200 C 323.200 115.190,323.057 116.000,322.882 116.000 C 322.707 116.000,322.519 116.675,322.464 117.500 C 322.410 118.325,322.193 119.060,321.982 119.133 C 321.772 119.207,321.600 119.792,321.600 120.433 C 321.600 121.075,321.420 121.600,321.200 121.600 C 320.980 121.600,320.800 122.140,320.800 122.800 C 320.800 123.460,320.620 124.000,320.400 124.000 C 320.180 124.000,320.000 124.360,320.000 124.800 C 320.000 125.240,319.854 125.600,319.675 125.600 C 319.496 125.600,319.102 126.230,318.800 127.000 C 318.498 127.770,318.104 128.400,317.925 128.400 C 317.746 128.400,317.600 128.760,317.600 129.200 C 317.600 129.640,317.420 130.000,317.200 130.000 C 316.980 130.000,316.800 130.320,316.800 130.712 C 316.800 131.103,316.440 131.683,316.000 132.000 C 315.560 132.317,315.200 132.897,315.200 133.288 C 315.200 133.680,315.050 134.000,314.868 134.000 C 314.685 134.000,314.280 134.495,313.968 135.100 C 313.655 135.705,312.710 136.875,311.867 137.700 C 311.024 138.525,310.477 139.200,310.650 139.200 C 310.823 139.200,309.803 140.286,308.383 141.613 C 306.962 142.941,305.039 144.741,304.109 145.613 C 303.179 146.486,302.184 147.200,301.898 147.200 C 301.611 147.200,301.117 147.560,300.800 148.000 C 300.483 148.440,299.980 148.800,299.683 148.800 C 299.386 148.800,298.886 149.057,298.571 149.371 C 297.970 149.973,297.788 151.198,298.300 151.203 C 298.465 151.204,299.050 151.867,299.600 152.675 C 300.150 153.484,301.500 155.081,302.600 156.225 C 304.421 158.119,305.651 159.477,309.805 164.178 C 310.572 165.046,311.200 165.911,311.200 166.100 C 311.200 166.290,312.280 167.504,313.600 168.800 C 314.920 170.096,316.000 171.257,316.000 171.381 C 316.000 171.629,317.902 173.861,318.708 174.560 C 320.932 176.485,321.600 177.181,321.600 177.571 C 321.600 178.732,326.967 183.200,328.362 183.200 C 328.823 183.200,329.200 183.380,329.200 183.600 C 329.200 183.840,330.800 184.000,333.200 184.000 C 335.600 184.000,337.200 183.840,337.200 183.600 C 337.200 183.380,337.562 183.200,338.005 183.200 C 339.467 183.200,345.600 178.006,345.600 176.768 C 345.600 176.522,346.140 175.817,346.800 175.200 C 347.460 174.583,348.000 173.921,348.000 173.728 C 348.000 173.535,348.360 173.117,348.800 172.800 C 349.240 172.483,349.600 172.020,349.600 171.771 C 349.600 171.522,350.140 170.754,350.800 170.063 C 351.460 169.372,352.000 168.661,352.000 168.482 C 352.000 168.303,352.630 167.469,353.400 166.628 C 354.170 165.787,354.800 164.955,354.800 164.778 C 354.800 164.602,355.031 164.219,355.313 163.929 C 355.595 163.638,356.264 162.770,356.800 162.000 C 357.336 161.230,358.005 160.362,358.287 160.071 C 358.569 159.781,358.800 159.352,358.800 159.118 C 358.800 158.885,359.124 158.403,359.519 158.047 C 359.914 157.691,360.671 156.770,361.200 156.000 C 361.729 155.230,362.486 154.309,362.881 153.953 C 363.276 153.597,363.600 153.147,363.600 152.953 C 363.601 152.759,364.027 152.105,364.547 151.500 L 365.493 150.400 371.547 150.400 C 375.316 150.400,377.600 150.249,377.600 150.000 C 377.600 149.780,378.320 149.600,379.200 149.600 C 380.080 149.600,380.800 149.420,380.800 149.200 C 380.800 148.980,381.155 148.800,381.589 148.800 C 382.023 148.800,383.148 148.342,384.089 147.782 C 385.030 147.223,386.115 146.662,386.500 146.536 C 386.885 146.410,387.200 146.148,387.200 145.953 C 387.200 145.759,387.470 145.600,387.800 145.600 C 388.130 145.600,388.400 145.420,388.400 145.200 C 388.400 144.980,388.598 144.800,388.840 144.800 C 389.081 144.800,389.801 144.215,390.438 143.500 C 391.865 141.900,391.900 141.865,393.500 140.438 C 394.215 139.801,394.800 139.081,394.800 138.840 C 394.800 138.598,394.980 138.400,395.200 138.400 C 395.420 138.400,395.600 138.130,395.600 137.800 C 395.600 137.470,395.759 137.200,395.953 137.200 C 396.148 137.200,396.410 136.885,396.536 136.500 C 396.662 136.115,397.223 135.030,397.782 134.089 C 398.342 133.148,398.800 132.038,398.800 131.623 C 398.800 131.207,399.025 130.792,399.300 130.700 C 399.696 130.568,399.800 120.768,399.800 83.487 C 399.800 46.383,399.694 36.334,399.300 35.940 C 399.025 35.665,398.800 35.116,398.800 34.720 C 398.800 34.324,398.620 34.000,398.400 34.000 C 398.180 34.000,398.000 33.640,398.000 33.200 C 398.000 32.760,397.820 32.400,397.600 32.400 C 397.380 32.400,397.200 32.040,397.200 31.600 C 397.200 31.160,397.020 30.800,396.800 30.800 C 396.580 30.800,396.400 30.480,396.400 30.088 C 396.400 29.697,396.040 29.117,395.600 28.800 C 395.160 28.483,394.800 28.063,394.800 27.868 C 394.800 27.672,394.035 26.730,393.100 25.775 C 392.165 24.819,391.197 23.804,390.949 23.519 C 390.332 22.809,388.838 21.600,388.579 21.600 C 388.462 21.600,387.980 21.240,387.508 20.800 C 387.036 20.360,386.413 20.000,386.125 20.000 C 385.836 20.000,385.600 19.820,385.600 19.600 C 385.600 19.380,385.240 19.200,384.800 19.200 C 384.360 19.200,384.000 19.020,384.000 18.800 C 384.000 18.580,383.640 18.400,383.200 18.400 C 382.760 18.400,382.400 18.220,382.400 18.000 C 382.400 17.780,381.860 17.600,381.200 17.600 C 380.540 17.600,380.000 17.420,380.000 17.200 C 380.000 16.980,379.280 16.800,378.400 16.800 C 377.520 16.800,376.800 16.620,376.800 16.400 C 376.800 16.137,367.467 16.000,349.600 16.000 C 322.667 16.000,322.400 16.008,322.400 16.800 " stroke="none" fill="#ebb704" fill-rule="evenodd"></path><path id="path4" d="M200.000 83.387 C 200.000 129.264,199.955 166.935,199.900 167.100 C 199.845 167.265,200.385 167.456,201.100 167.525 C 201.830 167.596,202.400 167.464,202.400 167.225 C 202.400 166.991,202.857 166.800,203.416 166.800 C 205.493 166.800,213.600 160.458,213.600 158.833 C 213.600 158.666,214.185 157.987,214.900 157.325 C 215.615 156.664,216.830 155.341,217.600 154.386 C 218.370 153.430,219.926 151.693,221.057 150.524 C 222.188 149.356,222.998 148.395,222.857 148.388 C 222.716 148.381,222.915 148.192,223.300 147.968 C 223.685 147.744,224.000 147.299,224.000 146.980 C 224.000 146.661,224.281 146.400,224.624 146.400 C 224.967 146.400,225.142 146.229,225.012 146.020 C 224.883 145.811,225.773 144.645,226.989 143.429 C 228.205 142.212,229.200 141.111,229.200 140.980 C 229.200 140.532,230.305 139.638,230.552 139.886 C 230.689 140.022,230.800 139.890,230.800 139.593 C 230.800 139.296,231.700 138.185,232.800 137.125 C 233.900 136.065,234.800 134.928,234.800 134.599 C 234.800 134.092,273.275 133.505,275.763 133.974 C 275.963 134.011,276.238 133.862,276.374 133.643 C 276.510 133.423,277.381 133.198,278.310 133.143 C 279.240 133.088,280.000 132.899,280.000 132.722 C 280.000 132.545,280.345 132.400,280.766 132.400 C 281.741 132.400,287.693 129.277,288.125 128.539 C 288.303 128.233,288.618 128.088,288.825 128.215 C 289.031 128.343,289.200 128.287,289.200 128.091 C 289.200 127.895,289.650 127.494,290.199 127.200 C 290.749 126.906,291.112 126.579,291.007 126.473 C 290.777 126.244,292.377 124.800,292.861 124.800 C 293.048 124.800,293.200 124.570,293.200 124.288 C 293.200 124.007,293.560 123.517,294.000 123.200 C 294.440 122.883,294.800 122.393,294.800 122.112 C 294.800 121.830,294.980 121.600,295.200 121.600 C 295.420 121.600,295.600 121.319,295.600 120.976 C 295.600 120.633,295.780 120.464,296.000 120.600 C 296.220 120.736,296.400 120.602,296.400 120.303 C 296.400 119.549,297.335 117.607,297.700 117.603 C 297.865 117.601,298.000 117.240,298.000 116.800 C 298.000 116.360,298.180 116.000,298.400 116.000 C 298.620 116.000,298.800 115.561,298.800 115.024 C 298.800 114.487,298.980 113.936,299.200 113.800 C 299.420 113.664,299.600 113.034,299.600 112.400 C 299.600 111.766,299.780 111.136,300.000 111.000 C 300.263 110.838,300.400 95.596,300.400 66.576 C 300.400 37.392,300.264 22.400,300.000 22.400 C 299.780 22.400,299.600 21.781,299.600 21.024 C 299.600 20.267,299.420 19.536,299.200 19.400 C 298.980 19.264,298.800 18.803,298.800 18.376 C 298.800 17.949,298.620 17.600,298.400 17.600 C 298.180 17.600,298.000 17.328,298.000 16.995 C 298.000 16.439,297.278 14.878,296.800 14.400 C 296.690 14.290,296.255 13.570,295.833 12.800 C 295.411 12.030,294.646 10.970,294.133 10.445 C 293.620 9.920,293.200 9.325,293.200 9.122 C 293.200 8.919,293.020 8.864,292.800 9.000 C 292.580 9.136,292.400 9.087,292.400 8.890 C 292.400 8.173,288.371 4.644,286.700 3.897 C 286.095 3.626,285.600 3.269,285.600 3.102 C 285.600 2.936,285.330 2.800,285.000 2.800 C 284.670 2.800,284.400 2.620,284.400 2.400 C 284.400 2.180,283.950 2.000,283.400 2.000 C 282.850 2.000,282.400 1.820,282.400 1.600 C 282.400 1.380,281.965 1.200,281.433 1.200 C 280.902 1.200,280.392 0.975,280.300 0.700 C 280.169 0.305,271.684 0.176,240.067 0.087 L 200.000 -0.026 200.000 83.387 M109.294 126.552 C 109.675 126.842,109.900 127.166,109.794 127.273 C 109.687 127.379,109.870 127.467,110.200 127.467 C 110.530 127.467,110.800 127.394,110.800 127.305 C 110.800 126.920,109.611 126.001,109.129 126.013 C 108.770 126.021,108.823 126.194,109.294 126.552 M177.053 145.600 C 177.295 145.930,177.574 146.461,177.673 146.780 C 177.789 147.152,177.948 147.207,178.117 146.934 C 178.262 146.699,177.983 146.168,177.497 145.753 C 177.011 145.339,176.812 145.270,177.053 145.600 " stroke="none" fill="#04abf3" fill-rule="evenodd"></path></g></svg>