<svg id="svg" version="1.1" xmlns="http://www.w3.org/2000/svg" xmlns:xlink="http://www.w3.org/1999/xlink" width="400" height="400" viewBox="0, 0, 400,400"><g id="svgg"><path id="path0" d="M303.002 12.379 L 298.604 12.600 298.146 15.400 C 297.893 16.940,297.476 20.000,297.219 22.200 C 296.274 30.269,295.544 31.565,291.137 33.013 C 288.862 33.760,284.414 35.877,280.800 37.934 C 278.083 39.480,275.667 39.612,273.600 38.327 C 263.538 32.070,260.666 30.478,260.246 30.924 C 255.588 35.861,253.870 38.100,254.261 38.726 C 254.493 39.097,256.779 42.093,259.341 45.385 C 262.161 49.008,264.028 51.771,264.072 52.385 C 264.217 54.436,263.942 56.079,263.245 57.324 C 261.028 61.285,259.668 66.400,260.831 66.400 C 261.021 66.400,262.127 66.830,263.288 67.355 C 264.450 67.881,266.210 68.670,267.200 69.110 C 268.190 69.549,269.873 70.302,270.939 70.782 C 273.447 71.912,273.711 71.767,274.535 68.805 C 281.342 44.319,314.287 36.994,332.111 56.002 C 347.905 72.845,342.028 101.320,320.954 110.054 C 318.343 111.137,318.351 110.663,320.837 117.000 C 321.959 119.860,323.061 122.695,323.287 123.300 C 323.904 124.956,325.725 124.408,332.439 120.548 C 337.231 117.793,337.723 117.882,346.000 123.000 C 349.736 125.310,353.031 127.200,353.323 127.200 C 353.791 127.200,358.568 122.238,359.896 120.372 C 360.327 119.768,359.873 119.019,356.481 114.738 C 349.512 105.939,348.882 104.448,350.725 101.112 C 352.026 98.758,354.011 93.259,355.211 88.682 C 355.825 86.339,357.583 84.751,360.299 84.086 C 362.953 83.436,369.010 82.040,371.400 81.528 C 372.500 81.292,373.625 81.038,373.900 80.962 C 374.448 80.812,374.584 76.193,374.148 72.557 L 373.902 70.514 370.451 70.034 C 368.553 69.770,366.025 69.385,364.833 69.177 C 363.642 68.970,361.932 68.797,361.033 68.794 C 357.396 68.781,354.769 66.974,353.654 63.720 C 352.498 60.345,350.161 55.456,348.625 53.200 C 346.784 50.495,346.861 47.422,348.844 44.400 C 352.993 38.081,355.600 33.742,355.600 33.155 C 355.600 32.382,349.146 26.400,348.311 26.400 C 347.997 26.400,346.741 27.165,345.520 28.100 C 344.299 29.035,341.883 30.875,340.150 32.189 C 338.418 33.503,336.910 34.692,336.800 34.833 C 335.352 36.682,331.953 36.762,328.038 35.041 C 324.456 33.466,321.888 32.552,318.800 31.754 C 314.546 30.654,313.063 29.470,312.397 26.641 C 312.236 25.959,311.431 22.520,310.608 19.000 C 309.198 12.972,308.766 11.909,307.800 12.085 C 307.580 12.125,305.421 12.258,303.002 12.379 M178.197 176.600 C 178.197 245.240,178.244 273.260,178.300 238.868 C 178.356 204.475,178.356 148.315,178.300 114.068 C 178.244 79.820,178.197 107.960,178.197 176.600 M220.009 66.300 C 219.072 68.445,217.947 71.010,217.510 72.000 C 217.073 72.990,216.465 74.385,216.158 75.100 C 215.851 75.815,215.349 76.985,215.042 77.700 C 214.332 79.356,212.978 82.408,211.755 85.112 C 211.230 86.273,210.800 87.292,210.800 87.376 C 210.800 87.460,210.190 88.850,209.444 90.464 C 207.186 95.355,206.382 97.315,206.561 97.494 C 206.718 97.651,207.256 96.572,208.605 93.400 C 208.886 92.740,209.495 91.345,209.958 90.300 C 210.421 89.255,211.139 87.635,211.554 86.700 C 211.968 85.765,213.880 81.400,215.803 77.000 C 222.107 62.568,221.999 62.800,222.434 62.800 C 222.622 62.800,223.727 63.230,224.888 63.756 C 230.621 66.352,236.520 68.813,236.664 68.670 C 236.752 68.581,235.874 68.108,234.712 67.617 C 233.550 67.127,231.700 66.314,230.600 65.811 C 229.500 65.307,227.880 64.584,227.000 64.204 C 226.120 63.824,224.877 63.262,224.239 62.956 C 222.095 61.930,221.828 62.141,220.009 66.300 M237.200 68.971 C 237.200 69.226,241.625 71.203,242.148 71.182 C 242.397 71.172,241.451 70.632,240.046 69.982 C 237.396 68.756,237.200 68.686,237.200 68.971 M242.800 71.347 C 242.800 71.561,244.414 72.348,248.000 73.884 C 248.770 74.213,250.120 74.806,251.000 75.200 C 251.880 75.594,253.230 76.187,254.000 76.516 C 255.478 77.149,258.589 78.520,260.600 79.424 C 266.848 82.234,275.735 85.998,275.851 85.882 C 275.995 85.738,272.826 84.215,269.800 82.974 C 268.920 82.613,267.390 81.955,266.400 81.513 C 265.410 81.071,263.790 80.349,262.800 79.910 C 261.810 79.470,260.050 78.681,258.888 78.155 C 257.727 77.630,256.708 77.200,256.624 77.200 C 256.540 77.200,255.150 76.589,253.536 75.843 C 251.151 74.741,245.752 72.358,243.300 71.325 C 243.025 71.209,242.800 71.219,242.800 71.347 M276.400 86.195 C 276.400 86.488,279.295 87.638,279.505 87.429 C 279.605 87.329,279.015 86.966,278.194 86.623 C 276.568 85.944,276.400 85.904,276.400 86.195 M280.200 88.000 C 280.336 88.220,280.619 88.400,280.828 88.400 C 281.179 88.400,281.988 88.736,286.700 90.841 C 287.635 91.258,289.165 91.942,290.100 92.359 C 294.850 94.481,295.625 94.800,296.027 94.800 C 296.305 94.800,296.371 95.272,296.208 96.100 C 296.017 97.067,296.059 97.246,296.370 96.800 C 297.218 95.583,296.829 94.833,294.900 93.964 C 288.945 91.283,280.415 87.600,280.160 87.600 C 280.046 87.600,280.064 87.780,280.200 88.000 M294.786 99.461 C 294.307 100.527,293.646 102.030,293.316 102.800 C 292.537 104.620,291.398 107.172,290.415 109.300 C 288.657 113.104,287.599 115.733,287.761 115.894 C 287.918 116.051,288.456 114.973,289.805 111.800 C 290.086 111.140,290.715 109.700,291.203 108.600 C 291.692 107.500,292.450 105.790,292.888 104.800 C 293.327 103.810,294.212 101.851,294.855 100.446 C 295.498 99.041,295.941 97.808,295.840 97.707 C 295.739 97.605,295.264 98.395,294.786 99.461 M205.044 100.444 C 204.457 101.800,204.066 102.999,204.177 103.110 C 204.287 103.221,204.574 102.794,204.815 102.161 C 205.055 101.529,205.534 100.418,205.878 99.692 C 206.223 98.966,206.417 98.283,206.309 98.176 C 206.201 98.068,205.632 99.089,205.044 100.444 M202.833 105.418 C 202.375 106.454,202.000 107.356,202.000 107.422 C 202.000 107.488,201.363 108.950,200.583 110.671 C 199.804 112.392,199.013 114.160,198.824 114.600 C 198.636 115.040,198.212 116.030,197.883 116.800 C 197.554 117.570,196.885 119.100,196.397 120.200 C 195.321 122.624,194.699 124.034,192.049 130.059 L 190.000 134.718 190.000 187.357 L 190.000 239.996 191.900 240.844 C 192.945 241.311,194.340 241.923,195.000 242.203 C 195.660 242.484,197.280 243.203,198.600 243.802 C 205.552 246.953,210.934 249.199,211.111 249.022 C 211.221 248.912,210.835 248.642,210.254 248.421 C 209.673 248.200,208.343 247.636,207.299 247.167 C 206.254 246.699,204.770 246.046,204.000 245.716 C 203.230 245.387,201.835 244.776,200.900 244.358 C 199.127 243.568,196.922 242.587,193.700 241.157 C 192.655 240.693,191.530 240.178,191.200 240.013 C 190.671 239.748,190.600 233.448,190.600 186.928 L 190.600 134.144 191.458 132.372 C 191.931 131.397,192.586 129.970,192.915 129.200 C 193.244 128.430,193.983 126.760,194.557 125.488 C 195.131 124.217,195.600 123.108,195.600 123.024 C 195.600 122.940,196.210 121.550,196.956 119.936 C 197.702 118.321,199.161 115.020,200.200 112.600 C 201.238 110.180,202.526 107.233,203.061 106.051 C 203.596 104.868,203.952 103.818,203.851 103.717 C 203.750 103.616,203.292 104.381,202.833 105.418 M303.003 110.500 C 302.395 111.875,301.581 113.720,301.194 114.600 C 300.807 115.480,300.090 117.100,299.600 118.200 C 298.630 120.378,297.774 122.307,296.407 125.400 C 295.921 126.500,295.271 127.923,294.962 128.561 C 293.918 130.720,294.096 130.910,299.300 133.185 C 301.995 134.363,305.280 135.816,306.600 136.413 C 307.920 137.011,309.630 137.773,310.400 138.107 C 311.170 138.441,312.840 139.183,314.112 139.757 C 317.849 141.443,317.832 141.490,315.578 135.622 C 312.398 127.342,307.134 113.783,306.717 112.800 C 306.484 112.250,306.113 111.350,305.893 110.800 C 304.494 107.304,304.421 107.296,303.003 110.500 M305.200 110.254 C 305.200 110.560,305.359 111.123,305.553 111.505 C 305.748 111.887,306.129 112.740,306.400 113.400 C 306.671 114.060,307.022 114.870,307.179 115.200 C 307.337 115.530,307.715 116.655,308.020 117.700 C 308.325 118.745,308.715 119.600,308.887 119.600 C 309.059 119.600,309.200 119.962,309.200 120.405 C 309.200 120.848,309.359 121.523,309.553 121.905 C 309.748 122.287,310.084 123.050,310.300 123.600 C 311.023 125.439,311.489 126.591,312.000 127.800 C 312.279 128.460,312.647 129.360,312.817 129.800 C 312.988 130.240,313.795 132.310,314.612 134.400 C 316.734 139.834,316.893 140.446,316.067 140.027 C 315.319 139.647,312.521 138.392,310.400 137.485 C 309.630 137.156,307.961 136.417,306.690 135.844 C 305.420 135.271,303.309 134.351,302.000 133.800 C 299.059 132.562,295.052 130.751,294.848 130.566 C 294.764 130.490,295.008 129.747,295.391 128.914 C 296.907 125.612,297.932 123.335,298.504 122.000 C 299.278 120.192,301.833 114.397,303.051 111.688 C 303.573 110.527,304.000 109.380,304.000 109.139 C 304.000 108.850,304.203 108.871,304.600 109.200 C 304.930 109.474,305.200 109.948,305.200 110.254 M284.204 123.404 C 282.495 127.268,281.185 130.519,281.294 130.627 C 281.402 130.736,281.895 129.874,282.390 128.712 C 282.884 127.550,283.718 125.650,284.244 124.488 C 284.770 123.327,285.200 122.280,285.200 122.163 C 285.200 122.046,285.762 120.783,286.450 119.358 C 287.137 117.933,287.612 116.679,287.505 116.572 C 287.399 116.465,285.913 119.540,284.204 123.404 M280.667 131.467 C 280.224 131.909,280.367 135.590,280.863 136.526 C 281.758 138.216,283.221 139.211,287.500 141.042 C 288.901 141.641,289.709 141.998,294.100 143.959 C 295.035 144.377,296.700 145.119,297.800 145.609 C 298.900 146.099,300.700 146.906,301.800 147.402 C 306.306 149.432,307.732 150.001,307.900 149.834 C 308.058 149.675,303.856 147.600,303.377 147.600 C 303.267 147.600,301.877 146.991,300.289 146.248 C 297.614 144.996,296.627 144.556,293.100 143.042 C 291.745 142.461,289.470 141.442,285.400 139.592 C 281.794 137.954,281.000 136.903,281.000 133.768 C 281.000 132.355,280.985 131.200,280.967 131.200 C 280.948 131.200,280.813 131.320,280.667 131.467 M310.721 151.278 C 312.108 151.945,313.348 152.385,313.477 152.257 C 313.606 152.128,313.191 151.826,312.555 151.587 C 311.920 151.347,310.877 150.892,310.239 150.575 C 309.600 150.259,308.880 150.015,308.639 150.033 C 308.397 150.051,309.335 150.611,310.721 151.278 M314.000 152.571 C 314.000 152.829,316.460 154.002,316.961 153.983 C 317.203 153.974,316.770 153.622,316.000 153.200 C 314.606 152.437,314.000 152.246,314.000 152.571 M317.800 154.400 C 317.936 154.620,318.285 154.800,318.575 154.800 C 319.719 154.800,320.085 155.875,319.396 157.208 C 319.036 157.905,318.834 158.567,318.947 158.680 C 319.153 158.886,320.400 156.208,320.400 155.561 C 320.400 155.374,319.869 154.946,319.220 154.610 C 317.846 153.900,317.455 153.842,317.800 154.400 M317.422 161.622 C 316.820 162.964,316.429 164.162,316.553 164.286 C 316.676 164.410,316.974 163.994,317.215 163.361 C 317.455 162.729,317.934 161.618,318.278 160.892 C 318.623 160.166,318.817 159.484,318.711 159.377 C 318.604 159.271,318.024 160.281,317.422 161.622 M315.621 165.746 C 315.226 166.785,314.107 169.325,312.905 171.914 C 312.570 172.637,312.382 173.315,312.487 173.421 C 312.593 173.526,313.523 171.697,314.555 169.355 C 315.586 167.013,316.339 165.005,316.226 164.893 C 316.114 164.781,315.842 165.165,315.621 165.746 M311.218 175.760 C 310.758 176.770,310.210 178.048,310.000 178.599 L 309.620 179.600 298.871 179.600 C 286.130 179.600,287.092 179.307,282.167 184.691 C 280.205 186.835,276.874 190.391,274.764 192.594 C 262.023 205.899,259.721 208.580,259.048 210.893 C 258.478 212.855,258.400 216.491,258.400 241.162 C 258.400 256.583,258.287 269.200,258.149 269.200 C 257.876 269.200,251.506 266.516,248.088 264.961 C 246.927 264.432,245.897 264.000,245.800 264.000 C 245.703 264.000,244.583 263.531,243.312 262.957 C 242.040 262.383,240.370 261.641,239.600 261.307 C 238.830 260.973,237.086 260.183,235.725 259.550 C 234.364 258.918,233.154 258.400,233.037 258.400 C 232.831 258.400,231.007 257.597,225.646 255.144 C 224.241 254.501,223.008 254.059,222.907 254.160 C 222.719 254.347,223.825 254.881,229.200 257.200 C 230.850 257.912,232.965 258.833,233.900 259.247 C 234.835 259.661,236.365 260.337,237.300 260.748 C 238.235 261.160,240.440 262.131,242.200 262.906 C 243.960 263.681,247.560 265.254,250.200 266.403 C 252.840 267.552,255.584 268.761,256.297 269.090 C 258.962 270.319,258.800 272.095,258.800 241.632 C 258.800 207.753,258.389 210.495,264.414 204.200 C 266.099 202.440,268.810 199.566,270.438 197.813 C 272.067 196.060,275.027 192.910,277.016 190.813 C 279.005 188.716,281.885 185.678,283.416 184.062 C 287.296 179.968,286.313 180.227,298.800 180.000 L 309.800 179.800 311.121 177.055 C 311.848 175.545,312.356 174.222,312.249 174.116 C 312.143 174.009,311.679 174.749,311.218 175.760 M285.989 198.235 C 282.585 201.884,279.656 205.124,279.480 205.435 C 279.205 205.920,285.110 206.000,321.317 206.000 L 363.474 206.000 368.676 200.500 C 374.485 194.357,376.400 192.212,376.400 191.847 C 376.400 191.711,357.450 191.600,334.289 191.600 L 292.178 191.600 285.989 198.235 M371.782 230.600 C 371.782 239.400,371.835 242.943,371.900 238.473 C 371.964 234.004,371.964 226.804,371.899 222.473 C 371.835 218.143,371.782 221.800,371.782 230.600 M270.897 243.700 L 271.000 269.400 272.800 269.510 C 277.358 269.787,278.853 271.717,279.998 278.800 C 280.264 280.450,280.644 282.322,280.841 282.960 C 281.039 283.598,281.200 284.605,281.200 285.198 C 281.200 286.436,282.007 287.244,284.000 287.998 C 284.770 288.290,285.571 288.679,285.780 288.864 C 286.749 289.721,288.375 289.014,293.155 285.662 C 295.930 283.716,298.560 281.922,299.000 281.674 C 299.475 281.407,299.577 281.219,299.251 281.212 C 298.949 281.205,297.509 282.053,296.051 283.095 C 287.898 288.924,287.543 289.086,285.294 288.000 C 284.384 287.560,283.478 287.200,283.281 287.200 C 282.376 287.200,281.656 285.483,281.018 281.800 C 280.637 279.600,280.170 276.926,279.980 275.858 C 279.237 271.675,277.102 269.537,273.120 268.989 L 271.200 268.725 271.200 243.561 L 271.200 218.396 315.300 218.498 L 359.400 218.600 359.600 233.800 C 359.818 250.403,359.855 250.638,362.402 252.001 C 363.846 252.774,364.182 252.371,362.773 251.554 C 360.130 250.021,360.212 250.567,360.082 233.500 L 359.965 218.000 315.379 218.000 L 270.794 218.000 270.897 243.700 M211.684 249.387 C 211.840 249.559,213.820 250.491,216.084 251.456 C 218.348 252.421,220.605 253.419,221.099 253.673 C 221.594 253.927,222.088 254.046,222.196 253.937 C 222.305 253.828,220.190 252.786,217.497 251.620 C 211.816 249.161,211.301 248.963,211.684 249.387 M362.718 272.256 C 359.806 273.791,359.822 273.698,359.600 290.800 L 359.400 306.200 337.700 306.303 C 322.975 306.374,316.000 306.274,316.000 305.994 C 316.000 305.767,316.630 304.665,317.400 303.545 C 318.170 302.426,318.800 301.321,318.800 301.089 C 318.800 300.670,316.034 304.441,315.205 305.990 C 314.772 306.799,314.804 306.800,337.386 306.800 L 360.000 306.800 360.004 292.300 C 360.010 273.594,360.018 273.560,364.360 272.222 C 365.918 271.743,366.016 271.658,365.000 271.670 C 364.340 271.678,363.313 271.942,362.718 272.256 M371.772 287.600 C 371.772 292.770,371.829 294.885,371.899 292.300 C 371.968 289.715,371.968 285.485,371.899 282.900 C 371.829 280.315,371.772 282.430,371.772 287.600 M300.705 281.083 C 301.202 281.179,301.922 281.175,302.305 281.075 C 302.687 280.975,302.280 280.896,301.400 280.901 C 300.520 280.905,300.207 280.987,300.705 281.083 M261.819 281.684 C 261.726 281.968,261.270 284.450,260.806 287.200 C 259.504 294.911,258.847 296.126,255.400 297.209 C 252.190 298.219,249.342 299.360,246.774 300.665 C 242.506 302.835,241.825 302.683,235.066 298.047 C 229.453 294.197,229.904 294.262,227.273 296.926 L 225.173 299.053 227.776 302.826 C 233.507 311.134,233.622 311.583,231.225 316.351 C 230.358 318.074,229.179 320.938,228.603 322.715 C 227.053 327.506,225.755 328.814,222.000 329.374 C 221.010 329.521,219.390 329.804,218.400 330.002 C 217.410 330.201,215.565 330.564,214.300 330.810 L 212.000 331.257 212.000 334.405 C 212.000 337.929,211.981 337.903,214.894 338.397 C 226.561 340.376,226.802 340.512,228.627 346.166 C 229.201 347.945,230.375 350.756,231.235 352.414 C 233.735 357.230,233.603 357.999,229.133 364.613 L 225.466 370.039 227.619 372.220 C 230.247 374.880,230.128 374.878,233.699 372.328 C 241.967 366.424,242.614 366.252,247.314 368.709 C 248.901 369.538,251.460 370.637,253.000 371.151 C 259.459 373.304,259.592 373.472,261.020 381.233 C 262.393 388.704,262.201 388.400,265.565 388.400 C 268.848 388.400,269.106 388.168,269.659 384.727 C 269.882 383.337,270.209 381.300,270.387 380.200 C 271.320 374.411,272.208 373.340,277.648 371.437 C 279.712 370.715,282.701 369.466,284.290 368.662 C 288.661 366.451,288.773 366.481,297.151 372.171 L 301.231 374.942 303.415 372.785 C 305.980 370.252,305.928 370.491,304.387 368.314 C 297.171 358.117,297.061 357.731,299.858 352.400 C 300.724 350.750,301.856 348.050,302.374 346.400 C 303.953 341.372,305.120 340.471,311.200 339.587 C 313.070 339.315,315.500 338.881,316.600 338.622 L 318.600 338.152 318.716 334.870 C 318.802 332.450,318.697 331.549,318.316 331.443 C 318.032 331.363,315.640 330.909,313.000 330.433 C 304.493 328.899,304.129 328.664,302.417 323.600 C 301.934 322.170,300.742 319.354,299.769 317.343 C 297.067 311.757,297.163 311.189,301.960 304.442 C 305.758 299.100,305.635 299.654,303.525 297.365 C 300.834 294.445,301.030 294.431,295.998 297.907 C 288.566 303.039,288.488 303.053,282.762 300.293 C 280.693 299.297,278.078 298.209,276.951 297.877 C 271.308 296.214,271.346 296.280,269.064 284.200 L 268.535 281.400 265.261 281.284 C 262.858 281.198,261.943 281.305,261.819 281.684 M304.200 281.951 C 304.860 282.363,308.415 285.759,312.100 289.498 C 315.785 293.237,318.800 296.105,318.800 295.871 C 318.800 295.081,304.585 281.200,303.777 281.201 C 303.158 281.203,303.244 281.355,304.200 281.951 M318.857 298.600 C 318.862 300.326,318.915 300.458,319.243 299.566 C 319.484 298.909,319.482 298.179,319.237 297.566 C 318.912 296.753,318.852 296.918,318.857 298.600 M273.000 308.987 C 300.715 318.454,297.471 357.199,268.629 361.178 C 249.753 363.781,233.980 344.306,240.163 326.031 C 244.663 312.729,260.258 304.634,273.000 308.987 M147.771 313.731 C 147.147 315.357,147.816 344.641,148.522 346.600 C 152.259 356.974,158.993 361.322,171.400 361.372 L 178.200 361.400 178.200 337.400 L 178.200 313.400 163.089 313.295 C 150.689 313.209,147.941 313.287,147.771 313.731 M178.000 337.200 L 178.000 360.800 171.328 360.800 C 167.435 360.800,164.062 360.610,163.228 360.344 C 161.275 359.720,158.313 358.312,157.671 357.702 C 157.381 357.426,156.995 357.200,156.814 357.200 C 155.918 357.200,151.816 352.329,150.538 349.747 C 148.268 345.165,148.001 342.799,148.000 327.300 L 148.000 313.600 163.000 313.600 L 178.000 313.600 178.000 337.200 " stroke="none" fill="#8a70dc" fill-rule="evenodd"></path><path id="path1" d="M172.000 52.042 C 138.502 55.826,108.013 74.061,89.679 101.277 C 86.591 105.862,82.834 107.874,80.926 105.966 C 80.189 105.229,78.776 105.741,78.071 107.000 C 77.702 107.660,77.310 108.290,77.200 108.400 C 76.724 108.876,75.465 111.845,75.546 112.300 C 75.595 112.575,75.447 112.800,75.218 112.800 C 74.988 112.800,74.800 113.160,74.800 113.600 C 74.800 114.040,74.620 114.400,74.400 114.400 C 74.180 114.400,74.000 114.760,74.000 115.200 C 74.000 115.640,73.820 116.000,73.600 116.000 C 73.380 116.000,73.200 116.360,73.200 116.800 C 73.200 117.240,73.020 117.600,72.800 117.600 C 72.580 117.600,72.400 118.039,72.400 118.576 C 72.400 119.113,72.220 119.664,72.000 119.800 C 71.780 119.936,71.600 120.397,71.600 120.824 C 71.600 121.251,71.420 121.600,71.200 121.600 C 70.980 121.600,70.800 121.949,70.800 122.376 C 70.800 122.803,70.619 123.265,70.397 123.402 C 69.931 123.690,70.373 124.186,72.306 125.545 C 74.997 127.437,75.341 129.500,73.854 134.817 C 73.334 136.678,72.683 139.280,72.408 140.600 C 72.133 141.920,71.768 143.540,71.597 144.200 C 71.425 144.860,71.085 146.930,70.841 148.800 C 70.597 150.670,70.218 153.494,69.999 155.077 C 69.410 159.325,69.529 172.667,70.207 178.391 C 74.677 216.137,94.803 246.673,127.986 266.056 C 132.948 268.954,132.800 268.463,132.800 282.009 C 132.800 296.505,133.273 298.135,138.172 300.534 L 140.350 301.600 159.175 301.600 L 178.000 301.600 178.000 176.600 L 178.000 51.600 176.500 51.652 C 175.675 51.680,173.650 51.856,172.000 52.042 M382.427 203.099 C 381.675 203.925,379.029 206.744,376.549 209.364 L 372.040 214.128 371.920 230.964 C 371.777 251.024,371.686 251.429,367.090 252.369 L 365.800 252.633 365.800 262.200 L 365.800 271.767 367.090 272.031 C 371.304 272.893,371.721 274.162,371.986 286.934 L 372.200 297.268 377.400 291.763 C 380.260 288.735,383.096 285.634,383.702 284.871 L 384.804 283.485 384.702 242.676 C 384.635 215.772,384.463 201.821,384.198 201.733 C 383.977 201.659,383.180 202.274,382.427 203.099 " stroke="none" fill="#fbf384" fill-rule="evenodd"></path><path id="path2" d="M294.300 0.289 C 292.155 0.366,290.400 0.602,290.400 0.814 C 290.400 1.027,290.122 1.200,289.782 1.200 C 288.810 1.200,287.200 3.059,287.200 4.182 C 287.200 4.742,287.020 5.200,286.800 5.200 C 286.575 5.200,286.400 6.325,286.400 7.776 C 286.400 9.193,286.220 10.464,286.000 10.600 C 285.780 10.736,285.600 12.187,285.600 13.824 C 285.600 15.541,285.431 16.800,285.200 16.800 C 284.980 16.800,284.800 17.775,284.800 18.967 C 284.800 21.759,284.531 22.400,283.357 22.400 C 282.831 22.400,282.400 22.580,282.400 22.800 C 282.400 23.020,282.040 23.200,281.600 23.200 C 281.160 23.200,280.800 23.380,280.800 23.600 C 280.800 23.820,280.455 24.000,280.033 24.000 C 279.612 24.000,279.207 24.165,279.133 24.367 C 278.865 25.105,276.160 25.303,275.490 24.633 C 275.142 24.285,274.664 24.000,274.429 24.000 C 274.193 24.000,274.000 23.820,274.000 23.600 C 274.000 23.380,273.764 23.200,273.475 23.200 C 273.187 23.200,272.564 22.840,272.092 22.400 C 271.620 21.960,271.038 21.600,270.800 21.600 C 270.562 21.600,269.980 21.240,269.508 20.800 C 269.036 20.360,268.413 20.000,268.125 20.000 C 267.836 20.000,267.600 19.820,267.600 19.600 C 267.600 19.380,267.280 19.200,266.888 19.200 C 266.497 19.200,265.917 18.840,265.600 18.400 C 265.283 17.960,264.703 17.600,264.312 17.600 C 263.920 17.600,263.600 17.420,263.600 17.200 C 263.600 16.980,263.240 16.800,262.800 16.800 C 262.360 16.800,262.000 16.620,262.000 16.400 C 262.000 15.445,257.102 16.098,256.000 17.200 C 255.890 17.310,255.452 17.592,255.027 17.827 C 254.601 18.061,254.061 18.587,253.827 18.995 C 253.592 19.403,251.960 21.209,250.200 23.007 C 248.440 24.805,245.920 27.496,244.600 28.985 C 243.280 30.475,241.795 32.115,241.300 32.629 C 240.805 33.143,240.400 33.842,240.400 34.182 C 240.400 34.522,240.220 34.800,240.000 34.800 C 239.420 34.800,239.504 40.243,240.100 41.283 C 240.375 41.763,240.960 42.562,241.400 43.059 C 242.745 44.576,243.072 45.014,243.597 45.995 C 243.875 46.514,244.529 47.366,245.051 47.888 C 245.573 48.409,246.000 49.002,246.000 49.205 C 246.000 49.408,246.630 50.203,247.400 50.973 C 248.170 51.743,248.800 52.525,248.800 52.711 C 248.800 52.897,249.189 53.466,249.664 53.976 C 250.371 54.735,250.443 55.039,250.064 55.646 C 249.809 56.055,249.600 56.662,249.600 56.995 C 249.600 57.328,249.420 57.600,249.200 57.600 C 248.980 57.600,248.800 58.050,248.800 58.600 C 248.800 59.755,248.195 59.863,246.546 59.002 C 245.916 58.674,245.085 58.404,244.700 58.402 C 244.315 58.401,244.000 58.220,244.000 58.000 C 244.000 57.780,243.460 57.600,242.800 57.600 C 242.140 57.600,241.600 57.420,241.600 57.200 C 241.600 56.980,241.330 56.800,241.000 56.800 C 240.670 56.800,240.400 56.620,240.400 56.400 C 240.400 56.180,240.040 56.000,239.600 56.000 C 239.160 56.000,238.800 55.820,238.800 55.600 C 238.800 55.380,238.361 55.200,237.824 55.200 C 237.287 55.200,236.736 55.020,236.600 54.800 C 236.464 54.580,236.003 54.400,235.576 54.400 C 235.149 54.400,234.800 54.220,234.800 54.000 C 234.800 53.780,234.440 53.600,234.000 53.600 C 233.560 53.600,233.200 53.420,233.200 53.200 C 233.200 52.980,232.840 52.800,232.400 52.800 C 231.960 52.800,231.600 52.620,231.600 52.400 C 231.600 52.180,231.060 52.000,230.400 52.000 C 229.740 52.000,229.200 51.820,229.200 51.600 C 229.200 51.380,228.840 51.200,228.400 51.200 C 227.960 51.200,227.600 51.020,227.600 50.800 C 227.600 50.580,227.240 50.400,226.800 50.400 C 226.360 50.400,226.000 50.220,226.000 50.000 C 226.000 49.780,225.651 49.600,225.224 49.600 C 224.797 49.600,224.336 49.420,224.200 49.200 C 224.064 48.980,223.603 48.800,223.176 48.800 C 222.749 48.800,222.400 48.620,222.400 48.400 C 222.400 48.165,221.026 48.000,219.078 48.000 C 215.585 48.000,212.800 49.488,212.800 51.354 C 212.800 51.709,212.620 52.000,212.400 52.000 C 212.180 52.000,212.000 52.272,212.000 52.605 C 212.000 52.938,211.792 53.613,211.538 54.105 C 210.567 55.982,210.400 56.407,210.400 56.995 C 210.400 57.328,210.264 57.600,210.098 57.600 C 209.769 57.600,208.869 59.945,208.525 61.700 C 208.406 62.305,208.150 62.800,207.955 62.800 C 207.760 62.800,207.600 63.160,207.600 63.600 C 207.600 64.040,207.420 64.400,207.200 64.400 C 206.980 64.400,206.800 64.760,206.800 65.200 C 206.800 65.640,206.620 66.000,206.400 66.000 C 206.180 66.000,206.000 66.349,206.000 66.776 C 206.000 67.203,205.820 67.664,205.600 67.800 C 205.380 67.936,205.200 68.487,205.200 69.024 C 205.200 69.561,205.020 70.000,204.800 70.000 C 204.580 70.000,204.400 70.360,204.400 70.800 C 204.400 71.240,204.220 71.600,204.000 71.600 C 203.780 71.600,203.600 71.960,203.600 72.400 C 203.600 72.840,203.420 73.200,203.200 73.200 C 202.980 73.200,202.800 73.524,202.800 73.920 C 202.800 74.814,201.906 76.793,201.500 76.797 C 201.335 76.799,201.200 77.072,201.200 77.405 C 201.200 77.993,201.033 78.418,200.062 80.295 C 199.808 80.787,199.600 81.462,199.600 81.795 C 199.600 82.128,199.420 82.400,199.200 82.400 C 198.980 82.400,198.800 82.760,198.800 83.200 C 198.800 83.640,198.620 84.000,198.400 84.000 C 198.180 84.000,198.000 84.349,198.000 84.776 C 198.000 85.203,197.820 85.664,197.600 85.800 C 197.380 85.936,197.200 86.487,197.200 87.024 C 197.200 87.561,197.020 88.000,196.800 88.000 C 196.580 88.000,196.400 88.360,196.400 88.800 C 196.400 89.240,196.220 89.600,196.000 89.600 C 195.780 89.600,195.600 89.960,195.600 90.400 C 195.600 90.840,195.420 91.200,195.200 91.200 C 194.980 91.200,194.800 91.472,194.800 91.805 C 194.800 92.138,194.635 92.723,194.434 93.105 C 193.690 94.518,192.111 98.237,191.761 99.400 C 191.538 100.140,191.321 83.648,191.193 56.400 C 191.080 32.090,190.830 11.750,190.638 11.200 C 190.150 9.799,188.797 8.400,187.930 8.400 C 187.529 8.400,187.200 8.220,187.200 8.000 C 187.200 7.767,185.867 7.600,184.000 7.600 C 182.240 7.600,180.800 7.736,180.800 7.902 C 180.800 8.069,180.305 8.426,179.700 8.697 C 177.684 9.600,177.600 10.253,177.600 25.080 C 177.600 38.533,177.584 38.800,176.800 38.800 C 176.360 38.800,176.000 38.980,176.000 39.200 C 176.000 39.441,174.333 39.600,171.800 39.600 C 169.267 39.600,167.600 39.759,167.600 40.000 C 167.600 40.229,166.400 40.400,164.800 40.400 C 163.200 40.400,162.000 40.571,162.000 40.800 C 162.000 41.020,161.415 41.201,160.700 41.201 C 159.488 41.203,153.453 42.337,149.800 43.249 C 148.920 43.469,147.703 43.749,147.095 43.871 C 146.487 43.993,145.892 44.251,145.771 44.446 C 145.651 44.641,145.124 44.800,144.600 44.800 C 144.076 44.800,143.536 44.980,143.400 45.200 C 143.264 45.420,142.713 45.600,142.176 45.600 C 141.639 45.600,141.200 45.780,141.200 46.000 C 141.200 46.220,140.761 46.400,140.224 46.400 C 139.687 46.400,139.136 46.580,139.000 46.800 C 138.864 47.020,138.403 47.200,137.976 47.200 C 137.549 47.200,137.200 47.380,137.200 47.600 C 137.200 47.820,136.660 48.000,136.000 48.000 C 135.340 48.000,134.800 48.180,134.800 48.400 C 134.800 48.620,134.440 48.800,134.000 48.800 C 133.560 48.800,133.200 48.980,133.200 49.200 C 133.200 49.420,132.840 49.600,132.400 49.600 C 131.960 49.600,131.600 49.780,131.600 50.000 C 131.600 50.220,131.251 50.400,130.824 50.400 C 130.397 50.400,129.936 50.580,129.800 50.800 C 129.664 51.020,129.203 51.200,128.776 51.200 C 128.349 51.200,128.000 51.380,128.000 51.600 C 128.000 51.820,127.640 52.000,127.200 52.000 C 126.760 52.000,126.400 52.180,126.400 52.400 C 126.400 52.620,126.080 52.800,125.688 52.800 C 125.297 52.800,124.717 53.160,124.400 53.600 C 124.083 54.040,123.503 54.400,123.112 54.400 C 122.720 54.400,122.400 54.580,122.400 54.800 C 122.400 55.020,122.040 55.200,121.600 55.200 C 121.160 55.200,120.800 55.380,120.800 55.600 C 120.800 55.820,120.480 56.000,120.088 56.000 C 119.697 56.000,119.117 56.360,118.800 56.800 C 118.483 57.240,117.903 57.600,117.512 57.600 C 117.120 57.600,116.800 57.780,116.800 58.000 C 116.800 58.220,116.529 58.400,116.198 58.400 C 115.602 58.400,110.967 61.429,109.374 62.859 C 108.920 63.266,108.407 63.600,108.235 63.600 C 108.062 63.600,107.417 64.140,106.800 64.800 C 106.183 65.460,105.499 66.000,105.280 66.000 C 105.061 66.000,103.962 66.900,102.839 68.000 C 101.715 69.100,100.617 70.000,100.398 70.000 C 100.179 70.000,100.000 70.180,100.000 70.400 C 100.000 70.620,99.816 70.800,99.590 70.800 C 99.044 70.800,90.028 79.820,88.795 81.600 C 88.262 82.370,87.145 83.661,86.313 84.469 C 85.481 85.276,84.800 86.110,84.800 86.320 C 84.800 86.531,84.080 87.445,83.200 88.352 C 82.320 89.259,81.600 90.231,81.600 90.512 C 81.600 90.793,81.240 91.283,80.800 91.600 C 80.360 91.917,80.000 92.324,80.000 92.505 C 80.000 92.686,79.640 93.220,79.200 93.692 C 78.760 94.164,78.400 94.787,78.400 95.075 C 78.400 95.364,78.240 95.600,78.044 95.600 C 77.489 95.600,76.000 99.059,76.000 100.347 C 76.000 102.999,77.880 105.744,79.800 105.893 C 80.460 105.945,81.810 106.093,82.800 106.224 C 85.332 106.557,86.707 105.496,90.166 100.541 C 97.789 89.621,107.169 80.194,118.560 72.000 C 120.243 70.790,122.110 69.530,122.709 69.199 C 123.309 68.869,124.520 68.149,125.400 67.600 C 133.404 62.604,144.589 57.872,154.797 55.163 C 162.142 53.214,176.169 51.119,177.767 51.732 C 178.344 51.954,178.392 63.143,178.301 176.688 L 178.200 301.400 159.600 301.509 C 131.993 301.671,132.800 302.249,132.800 282.315 C 132.800 267.861,133.356 269.228,125.600 264.616 C 104.075 251.815,88.096 233.389,78.062 209.800 C 75.093 202.820,71.764 190.706,70.807 183.400 C 70.548 181.420,70.170 178.596,69.968 177.123 C 69.473 173.520,69.500 158.395,70.009 154.516 C 71.230 145.214,72.082 140.870,73.997 134.201 C 75.345 129.505,74.805 127.112,72.028 125.477 C 71.352 125.080,70.800 124.585,70.800 124.377 C 70.800 124.170,69.671 124.000,68.291 124.000 C 65.543 124.000,62.800 125.601,62.800 127.206 C 62.800 127.617,62.620 128.064,62.400 128.200 C 62.180 128.336,62.000 128.966,62.000 129.600 C 62.000 130.234,61.820 130.864,61.600 131.000 C 61.380 131.136,61.200 131.766,61.200 132.400 C 61.200 133.034,61.040 133.652,60.844 133.773 C 60.649 133.894,60.386 134.579,60.261 135.296 C 60.136 136.013,59.834 137.590,59.590 138.800 C 59.346 140.010,58.965 142.800,58.742 145.000 C 58.520 147.200,58.172 149.313,57.969 149.695 C 57.766 150.077,57.600 152.372,57.600 154.795 C 57.600 157.465,57.442 159.200,57.200 159.200 C 56.949 159.200,56.800 161.733,56.800 166.000 C 56.800 170.267,56.949 172.800,57.200 172.800 C 57.443 172.800,57.600 174.592,57.600 177.376 C 57.600 179.996,57.771 182.058,58.000 182.200 C 58.220 182.336,58.413 183.472,58.429 184.724 C 58.464 187.398,59.258 192.256,60.404 196.800 C 60.654 197.790,60.954 199.185,61.073 199.900 C 61.191 200.615,61.448 201.200,61.644 201.200 C 61.840 201.200,62.000 201.819,62.000 202.576 C 62.000 203.333,62.180 204.064,62.400 204.200 C 62.620 204.336,62.800 204.887,62.800 205.424 C 62.800 205.961,62.980 206.400,63.200 206.400 C 63.420 206.400,63.600 206.940,63.600 207.600 C 63.600 208.260,63.780 208.800,64.000 208.800 C 64.220 208.800,64.400 209.239,64.400 209.776 C 64.400 210.313,64.580 210.864,64.800 211.000 C 65.020 211.136,65.200 211.597,65.200 212.024 C 65.200 212.451,65.380 212.800,65.600 212.800 C 65.820 212.800,66.000 213.340,66.000 214.000 C 66.000 214.660,66.180 215.200,66.400 215.200 C 66.620 215.200,66.800 215.560,66.800 216.000 C 66.800 216.440,66.980 216.800,67.200 216.800 C 67.420 216.800,67.600 217.160,67.600 217.600 C 67.600 218.040,67.780 218.400,68.000 218.400 C 68.220 218.400,68.400 218.749,68.400 219.176 C 68.400 219.603,68.580 220.064,68.800 220.200 C 69.020 220.336,69.200 220.797,69.200 221.224 C 69.200 221.651,69.380 222.000,69.600 222.000 C 69.820 222.000,70.000 222.360,70.000 222.800 C 70.000 223.240,70.180 223.600,70.400 223.600 C 70.620 223.600,70.800 223.960,70.800 224.400 C 70.800 224.840,70.980 225.200,71.200 225.200 C 71.420 225.200,71.600 225.436,71.600 225.725 C 71.600 226.013,71.960 226.636,72.400 227.108 C 72.840 227.580,73.200 228.244,73.200 228.583 C 73.200 228.922,73.380 229.200,73.600 229.200 C 73.820 229.200,74.000 229.545,74.000 229.967 C 74.000 230.388,74.135 230.793,74.300 230.867 C 74.465 230.940,75.140 232.034,75.800 233.299 C 76.460 234.563,77.135 235.598,77.300 235.599 C 77.465 235.599,77.600 235.836,77.600 236.125 C 77.600 236.413,77.960 237.036,78.400 237.508 C 78.840 237.980,79.200 238.475,79.200 238.607 C 79.200 238.906,81.489 241.846,82.700 243.102 C 83.195 243.616,83.600 244.189,83.600 244.376 C 83.600 244.563,84.410 245.574,85.400 246.622 C 86.390 247.670,87.200 248.692,87.200 248.893 C 87.200 249.374,100.609 262.800,101.089 262.800 C 101.292 262.800,102.422 263.700,103.600 264.800 C 104.778 265.900,105.914 266.800,106.124 266.800 C 106.334 266.800,106.797 267.115,107.153 267.500 C 108.185 268.616,111.113 270.800,111.577 270.800 C 111.809 270.800,112.000 270.950,112.000 271.132 C 112.000 271.315,112.495 271.720,113.100 272.032 C 113.705 272.345,114.380 272.738,114.600 272.906 C 115.857 273.866,118.093 275.200,118.446 275.200 C 119.849 275.200,120.000 276.208,120.000 285.571 C 120.000 291.457,120.145 294.800,120.400 294.800 C 120.620 294.800,120.800 295.700,120.800 296.800 C 120.800 297.900,120.980 298.800,121.200 298.800 C 121.420 298.800,121.600 299.340,121.600 300.000 C 121.600 300.660,121.780 301.200,122.000 301.200 C 122.220 301.200,122.400 301.560,122.400 302.000 C 122.400 302.440,122.580 302.800,122.800 302.800 C 123.020 302.800,123.200 303.120,123.200 303.512 C 123.200 303.903,123.560 304.483,124.000 304.800 C 124.440 305.117,124.800 305.578,124.800 305.825 C 124.800 306.432,127.941 309.600,128.542 309.600 C 128.807 309.600,129.283 309.960,129.600 310.400 C 129.917 310.840,130.497 311.200,130.888 311.200 C 131.280 311.200,131.600 311.380,131.600 311.600 C 131.600 311.820,131.960 312.000,132.400 312.000 C 132.840 312.000,133.200 312.180,133.200 312.400 C 133.200 312.620,133.560 312.800,134.000 312.800 C 134.785 312.800,134.800 313.067,134.800 326.800 C 134.800 335.867,134.941 340.800,135.200 340.800 C 135.437 340.800,135.600 342.267,135.600 344.400 C 135.600 346.533,135.763 348.000,136.000 348.000 C 136.220 348.000,136.400 348.720,136.400 349.600 C 136.400 350.480,136.580 351.200,136.800 351.200 C 137.020 351.200,137.200 351.639,137.200 352.176 C 137.200 352.713,137.380 353.264,137.600 353.400 C 137.820 353.536,138.000 353.997,138.000 354.424 C 138.000 354.851,138.180 355.200,138.400 355.200 C 138.620 355.200,138.800 355.560,138.800 356.000 C 138.800 356.440,138.980 356.800,139.200 356.800 C 139.420 356.800,139.600 357.030,139.600 357.312 C 139.600 357.593,139.960 358.083,140.400 358.400 C 140.840 358.717,141.200 359.214,141.200 359.505 C 141.200 360.470,148.889 368.400,149.825 368.400 C 150.141 368.400,150.400 368.559,150.400 368.753 C 150.400 368.948,150.715 369.216,151.100 369.350 C 151.485 369.485,152.610 370.040,153.600 370.586 C 154.590 371.131,155.715 371.583,156.100 371.589 C 156.485 371.595,156.800 371.780,156.800 372.000 C 156.800 372.220,157.340 372.400,158.000 372.400 C 158.660 372.400,159.200 372.562,159.200 372.760 C 159.200 373.338,162.497 373.664,170.300 373.855 L 177.600 374.034 177.600 385.617 C 177.600 393.072,177.743 397.200,178.000 397.200 C 178.220 397.200,178.400 397.539,178.400 397.954 C 178.400 400.198,187.377 400.901,189.202 398.800 C 191.311 396.372,191.200 400.473,191.200 324.751 C 191.200 286.058,191.292 254.400,191.405 254.400 C 191.518 254.400,191.923 254.566,192.305 254.768 C 192.687 254.971,194.260 255.698,195.800 256.384 C 197.340 257.071,198.893 257.793,199.251 257.989 C 199.609 258.185,200.554 258.468,201.351 258.617 C 202.148 258.767,202.800 259.049,202.800 259.245 C 202.800 259.440,203.160 259.600,203.600 259.600 C 204.040 259.600,204.400 259.780,204.400 260.000 C 204.400 260.220,204.839 260.400,205.376 260.400 C 205.913 260.400,206.464 260.580,206.600 260.800 C 206.736 261.020,207.197 261.200,207.624 261.200 C 208.051 261.200,208.401 261.335,208.403 261.500 C 208.407 261.859,210.344 262.800,211.080 262.800 C 211.366 262.800,211.600 262.980,211.600 263.200 C 211.600 263.420,212.050 263.600,212.600 263.600 C 213.150 263.600,213.600 263.780,213.600 264.000 C 213.600 264.220,213.960 264.400,214.400 264.400 C 214.840 264.400,215.200 264.580,215.200 264.800 C 215.200 265.020,215.560 265.200,216.000 265.200 C 216.440 265.200,216.800 265.380,216.800 265.600 C 216.800 265.820,217.239 266.000,217.776 266.000 C 218.313 266.000,218.864 266.180,219.000 266.400 C 219.136 266.620,219.597 266.800,220.024 266.800 C 220.451 266.800,220.800 266.980,220.800 267.200 C 220.800 267.420,221.160 267.600,221.600 267.600 C 222.040 267.600,222.400 267.780,222.400 268.000 C 222.400 268.220,222.760 268.400,223.200 268.400 C 223.640 268.400,224.000 268.580,224.000 268.800 C 224.000 269.020,224.335 269.200,224.744 269.200 C 225.364 269.200,227.722 270.224,231.295 272.046 C 231.677 272.241,232.262 272.400,232.595 272.400 C 232.928 272.400,233.200 272.580,233.200 272.800 C 233.200 273.020,233.436 273.200,233.725 273.200 C 234.014 273.200,234.962 273.544,235.832 273.964 C 236.702 274.385,238.086 274.855,238.907 275.009 C 239.728 275.163,240.400 275.449,240.400 275.645 C 240.400 275.840,240.760 276.000,241.200 276.000 C 241.640 276.000,242.000 276.180,242.000 276.400 C 242.000 276.620,242.349 276.800,242.776 276.800 C 243.203 276.800,243.664 276.980,243.800 277.200 C 243.936 277.420,244.397 277.600,244.824 277.600 C 245.251 277.600,245.600 277.780,245.600 278.000 C 245.600 278.220,245.960 278.400,246.400 278.400 C 246.840 278.400,247.200 278.580,247.200 278.800 C 247.200 279.020,247.560 279.200,248.000 279.200 C 248.694 279.200,248.800 279.467,248.800 281.206 C 248.800 283.945,247.998 286.400,247.103 286.400 C 246.716 286.400,246.400 286.580,246.400 286.800 C 246.400 287.020,246.051 287.200,245.624 287.200 C 245.197 287.200,244.736 287.380,244.600 287.600 C 244.278 288.121,242.400 288.121,242.400 287.600 C 242.400 287.380,242.130 287.200,241.800 287.200 C 241.470 287.200,241.200 287.050,241.200 286.868 C 241.200 286.685,240.705 286.281,240.100 285.970 C 239.495 285.660,238.709 285.089,238.353 284.703 C 237.997 284.316,237.547 284.000,237.353 283.999 C 237.159 283.999,236.370 283.459,235.600 282.800 C 234.830 282.141,233.975 281.601,233.700 281.601 C 233.425 281.600,233.200 281.420,233.200 281.200 C 233.200 280.980,232.840 280.800,232.400 280.800 C 231.960 280.800,231.600 280.620,231.600 280.400 C 231.600 280.174,230.467 280.000,229.000 280.000 C 227.533 280.000,226.400 280.174,226.400 280.400 C 226.400 280.620,226.130 280.800,225.800 280.800 C 224.876 280.800,211.200 294.625,211.200 295.560 C 211.200 295.996,211.020 296.464,210.800 296.600 C 210.280 296.922,210.280 299.878,210.800 300.200 C 211.020 300.336,211.200 300.797,211.200 301.224 C 211.200 301.651,211.380 302.000,211.600 302.000 C 211.820 302.000,212.000 302.236,212.000 302.525 C 212.000 302.813,212.315 303.398,212.700 303.825 C 213.085 304.251,213.655 305.095,213.968 305.700 C 214.280 306.305,214.685 306.800,214.868 306.800 C 215.050 306.800,215.200 306.982,215.200 307.204 C 215.200 307.426,215.740 308.172,216.400 308.863 C 217.060 309.554,217.600 310.296,217.600 310.512 C 217.600 310.729,218.005 311.267,218.500 311.707 C 219.110 312.250,219.239 312.565,218.900 312.687 C 218.625 312.786,218.400 313.212,218.400 313.633 C 218.400 314.055,218.220 314.400,218.000 314.400 C 217.780 314.400,217.600 314.863,217.600 315.429 C 217.600 316.852,216.714 317.600,215.029 317.600 C 214.243 317.600,213.600 317.780,213.600 318.000 C 213.600 318.220,212.610 318.400,211.400 318.400 C 210.190 318.400,209.200 318.580,209.200 318.800 C 209.200 319.020,208.300 319.200,207.200 319.200 C 206.100 319.200,205.200 319.380,205.200 319.600 C 205.200 319.820,204.748 320.000,204.195 320.000 C 202.543 320.000,200.400 321.452,200.400 322.571 C 200.400 322.917,200.220 323.200,200.000 323.200 C 199.743 323.200,199.600 327.200,199.600 334.400 C 199.600 341.600,199.743 345.600,200.000 345.600 C 200.220 345.600,200.400 345.878,200.400 346.218 C 200.400 347.837,203.699 349.600,206.728 349.600 C 207.648 349.600,208.400 349.780,208.400 350.000 C 208.400 350.220,209.199 350.400,210.176 350.400 C 211.153 350.400,212.064 350.580,212.200 350.800 C 212.336 351.020,213.349 351.200,214.452 351.200 C 216.712 351.200,217.600 351.812,217.600 353.371 C 217.600 353.937,217.780 354.400,218.000 354.400 C 218.220 354.400,218.400 354.745,218.400 355.167 C 218.400 355.588,218.605 356.002,218.854 356.085 C 219.383 356.261,218.633 357.789,217.500 358.843 C 217.115 359.201,216.800 359.698,216.800 359.947 C 216.800 360.196,216.650 360.400,216.468 360.400 C 216.285 360.400,215.881 360.895,215.570 361.500 C 215.260 362.105,214.689 362.891,214.303 363.247 C 213.916 363.603,213.600 364.148,213.600 364.459 C 213.600 364.769,213.240 365.283,212.800 365.600 C 212.360 365.917,212.000 366.497,212.000 366.888 C 212.000 367.280,211.820 367.600,211.600 367.600 C 211.020 367.600,211.104 373.045,211.700 374.074 C 212.351 375.198,224.802 387.649,225.926 388.300 C 227.393 389.150,232.490 388.948,233.508 388.000 C 233.980 387.560,234.578 387.200,234.836 387.200 C 235.095 387.200,235.597 386.884,235.953 386.497 C 236.309 386.111,237.095 385.540,237.700 385.230 C 238.305 384.919,238.800 384.515,238.800 384.332 C 238.800 384.150,238.990 384.000,239.222 384.000 C 239.454 384.000,240.219 383.461,240.922 382.802 C 241.625 382.143,242.410 381.603,242.667 381.602 C 242.923 381.601,243.238 381.375,243.367 381.100 C 243.553 380.700,243.647 380.700,243.833 381.100 C 243.962 381.375,244.412 381.600,244.833 381.600 C 245.255 381.600,245.600 381.780,245.600 382.000 C 245.600 382.220,246.005 382.406,246.500 382.413 C 248.036 382.434,248.800 383.334,248.800 385.120 C 248.800 386.018,248.980 386.864,249.200 387.000 C 249.420 387.136,249.600 388.036,249.600 389.000 C 249.600 389.964,249.780 390.864,250.000 391.000 C 250.220 391.136,250.400 392.227,250.400 393.424 C 250.400 394.621,250.580 395.600,250.800 395.600 C 251.020 395.600,251.200 396.058,251.200 396.618 C 251.200 397.191,251.673 398.109,252.281 398.718 L 253.363 399.800 265.421 399.916 L 277.480 400.033 278.740 398.856 C 279.528 398.120,280.000 397.290,280.000 396.640 C 280.000 396.068,280.180 395.600,280.400 395.600 C 280.620 395.600,280.800 394.700,280.800 393.600 C 280.800 392.500,280.980 391.600,281.200 391.600 C 281.420 391.600,281.600 390.610,281.600 389.400 C 281.600 388.190,281.780 387.200,282.000 387.200 C 282.220 387.200,282.400 386.300,282.400 385.200 C 282.400 383.467,282.507 383.200,283.200 383.200 C 283.640 383.200,284.000 383.020,284.000 382.800 C 284.000 382.580,284.360 382.400,284.800 382.400 C 285.240 382.400,285.600 382.240,285.600 382.045 C 285.600 381.436,288.032 381.290,288.607 381.864 C 288.902 382.159,289.291 382.400,289.471 382.400 C 289.652 382.401,290.340 382.866,291.000 383.435 C 291.660 384.004,292.695 384.763,293.300 385.121 C 293.905 385.479,294.400 385.914,294.400 386.086 C 294.400 386.259,294.588 386.400,294.817 386.400 C 295.046 386.400,295.620 386.760,296.092 387.200 C 296.564 387.640,297.187 388.000,297.475 388.000 C 297.764 388.000,298.000 388.180,298.000 388.400 C 298.000 388.620,298.349 388.800,298.776 388.800 C 299.203 388.800,299.664 388.980,299.800 389.200 C 300.122 389.721,303.478 389.721,303.800 389.200 C 303.936 388.980,304.340 388.800,304.697 388.800 C 305.351 388.800,318.566 375.639,319.500 374.057 C 320.336 372.642,320.144 368.305,319.200 367.292 C 318.760 366.820,318.400 366.222,318.400 365.964 C 318.400 365.705,318.084 365.203,317.697 364.847 C 317.311 364.491,316.740 363.705,316.430 363.100 C 316.119 362.495,315.715 362.000,315.532 362.000 C 315.350 362.000,315.200 361.822,315.200 361.605 C 315.200 361.233,314.440 360.185,313.300 358.984 C 313.025 358.694,312.800 358.264,312.800 358.029 C 312.800 357.793,312.620 357.600,312.400 357.600 C 312.180 357.600,312.000 357.251,312.000 356.824 C 312.000 356.397,312.180 355.936,312.400 355.800 C 312.620 355.664,312.800 355.113,312.800 354.576 C 312.800 354.039,312.980 353.600,313.200 353.600 C 313.420 353.600,313.600 353.240,313.600 352.800 C 313.600 352.178,313.867 352.000,314.800 352.000 C 315.460 352.000,316.000 351.820,316.000 351.600 C 316.000 351.380,316.979 351.200,318.176 351.200 C 319.373 351.200,320.464 351.020,320.600 350.800 C 320.736 350.580,321.636 350.400,322.600 350.400 C 323.564 350.400,324.464 350.220,324.600 350.000 C 324.736 349.780,325.467 349.600,326.224 349.600 C 326.981 349.600,327.600 349.420,327.600 349.200 C 327.600 348.980,327.878 348.800,328.218 348.800 C 329.018 348.800,330.800 347.018,330.800 346.218 C 330.800 345.878,330.980 345.600,331.200 345.600 C 331.456 345.600,331.600 341.867,331.600 335.200 C 331.600 328.533,331.456 324.800,331.200 324.800 C 330.980 324.800,330.800 324.395,330.800 323.900 C 330.799 322.804,329.153 320.800,328.253 320.800 C 327.894 320.800,327.600 320.620,327.600 320.400 C 327.600 320.180,326.801 320.000,325.824 320.000 C 324.847 320.000,323.936 319.820,323.800 319.600 C 323.636 319.335,331.194 319.200,346.172 319.200 L 368.791 319.200 371.803 316.100 C 373.460 314.395,376.702 311.072,379.008 308.716 C 381.314 306.361,383.200 304.333,383.200 304.211 C 383.200 304.089,384.865 302.295,386.900 300.224 C 392.986 294.029,395.600 291.194,395.600 290.786 C 395.600 290.574,395.735 290.399,395.900 290.397 C 397.153 290.384,397.200 288.404,397.200 235.720 C 397.200 200.973,397.065 183.200,396.800 183.200 C 396.580 183.200,396.400 182.909,396.400 182.554 C 396.400 182.199,395.735 181.299,394.922 180.554 L 393.444 179.200 358.722 179.200 C 335.841 179.200,324.000 179.064,324.000 178.800 C 324.000 178.580,324.164 178.400,324.365 178.400 C 324.566 178.400,324.851 177.680,325.000 176.800 C 325.149 175.920,325.434 175.200,325.635 175.200 C 325.836 175.200,326.000 174.750,326.000 174.200 C 326.000 173.650,326.180 173.200,326.400 173.200 C 326.620 173.200,326.800 172.840,326.800 172.400 C 326.800 171.960,326.980 171.600,327.200 171.600 C 327.420 171.600,327.600 171.240,327.600 170.800 C 327.600 170.360,327.780 170.000,328.000 170.000 C 328.220 170.000,328.400 169.550,328.400 169.000 C 328.400 168.450,328.580 168.000,328.800 168.000 C 329.020 168.000,329.200 167.550,329.200 167.000 C 329.200 166.450,329.380 166.000,329.600 166.000 C 329.820 166.000,330.000 165.640,330.000 165.200 C 330.000 164.760,330.180 164.400,330.400 164.400 C 330.620 164.400,330.800 164.040,330.800 163.600 C 330.800 163.160,330.980 162.800,331.200 162.800 C 331.420 162.800,331.600 162.260,331.600 161.600 C 331.600 160.940,331.780 160.400,332.000 160.400 C 332.220 160.400,332.400 160.040,332.400 159.600 C 332.400 159.160,332.580 158.800,332.800 158.800 C 333.020 158.800,333.200 158.440,333.200 158.000 C 333.200 157.560,333.380 157.200,333.600 157.200 C 333.820 157.200,334.000 156.851,334.000 156.424 C 334.000 155.997,334.180 155.536,334.400 155.400 C 334.620 155.264,334.800 153.824,334.800 152.200 C 334.800 150.576,334.620 149.136,334.400 149.000 C 334.180 148.864,334.000 148.403,334.000 147.976 C 334.000 147.549,333.820 147.200,333.600 147.200 C 333.380 147.200,333.200 146.761,333.200 146.224 C 333.200 145.687,333.020 145.136,332.800 145.000 C 332.580 144.864,332.400 144.403,332.400 143.976 C 332.400 143.549,332.220 143.200,332.000 143.200 C 331.780 143.200,331.600 142.750,331.600 142.200 C 331.600 141.650,331.420 141.200,331.200 141.200 C 330.980 141.200,330.800 140.761,330.800 140.224 C 330.800 139.687,330.620 139.136,330.400 139.000 C 330.180 138.864,330.000 138.418,330.000 138.010 C 330.000 137.601,329.777 137.192,329.504 137.101 C 328.843 136.881,330.095 135.600,330.971 135.600 C 331.317 135.600,331.600 135.420,331.600 135.200 C 331.600 134.980,332.014 134.800,332.520 134.800 C 333.026 134.800,333.611 134.637,333.820 134.438 C 335.666 132.678,338.800 132.211,338.800 133.696 C 338.800 133.863,339.078 134.000,339.417 134.000 C 339.756 134.000,340.389 134.331,340.823 134.736 C 341.258 135.141,342.105 135.726,342.707 136.036 C 343.308 136.346,344.149 136.915,344.575 137.300 C 345.002 137.685,345.587 138.000,345.875 138.000 C 346.164 138.000,346.400 138.159,346.400 138.353 C 346.400 138.548,346.715 138.807,347.100 138.929 C 348.004 139.215,350.125 140.496,350.459 140.957 C 350.602 141.154,352.054 141.401,353.686 141.505 C 357.311 141.738,358.399 141.262,360.854 138.370 C 361.814 137.239,364.042 134.847,365.803 133.056 C 367.565 131.265,369.447 129.170,369.986 128.400 C 370.524 127.630,371.575 126.431,372.321 125.736 C 375.902 122.400,375.577 116.687,371.608 113.200 C 371.233 112.870,370.852 112.402,370.763 112.161 C 370.547 111.578,368.126 108.623,366.500 106.958 C 365.785 106.226,365.200 105.417,365.200 105.160 C 365.200 104.904,364.795 104.333,364.300 103.893 C 363.690 103.350,363.561 103.035,363.900 102.913 C 364.175 102.814,364.400 102.208,364.400 101.567 C 364.400 100.925,364.580 100.400,364.800 100.400 C 365.020 100.400,365.200 99.860,365.200 99.200 C 365.200 98.540,365.380 98.000,365.600 98.000 C 365.820 98.000,366.000 97.460,366.000 96.800 C 366.000 95.867,366.178 95.600,366.800 95.600 C 367.240 95.600,367.600 95.420,367.600 95.200 C 367.600 94.980,368.399 94.800,369.376 94.800 C 370.353 94.800,371.264 94.620,371.400 94.400 C 371.536 94.180,372.256 94.000,373.000 94.000 C 373.744 94.000,374.464 93.820,374.600 93.600 C 374.736 93.380,375.467 93.200,376.224 93.200 C 376.981 93.200,377.600 93.020,377.600 92.800 C 377.600 92.580,378.500 92.400,379.600 92.400 C 380.700 92.400,381.600 92.220,381.600 92.000 C 381.600 91.780,382.168 91.600,382.862 91.600 C 383.816 91.600,384.499 91.206,385.662 89.983 L 387.200 88.366 387.200 80.807 C 387.200 76.199,387.044 73.151,386.800 73.000 C 386.568 72.857,386.400 70.663,386.400 67.776 C 386.400 64.725,386.245 62.800,386.000 62.800 C 385.780 62.800,385.600 62.498,385.600 62.128 C 385.600 60.048,382.130 58.400,377.750 58.400 C 376.317 58.400,375.200 58.225,375.200 58.000 C 375.200 57.769,373.933 57.600,372.200 57.600 C 370.467 57.600,369.200 57.431,369.200 57.200 C 369.200 56.978,368.133 56.800,366.800 56.800 C 364.667 56.800,364.400 56.711,364.400 56.000 C 364.400 55.560,364.220 55.200,364.000 55.200 C 363.780 55.200,363.600 54.840,363.600 54.400 C 363.600 53.960,363.420 53.600,363.200 53.600 C 362.980 53.600,362.800 53.240,362.800 52.800 C 362.800 52.360,362.620 52.000,362.400 52.000 C 362.180 52.000,362.000 51.640,362.000 51.200 C 362.000 50.760,361.820 50.400,361.600 50.400 C 361.380 50.400,361.200 49.860,361.200 49.200 C 361.200 48.540,361.380 48.000,361.600 48.000 C 361.820 48.000,362.000 47.680,362.000 47.288 C 362.000 46.897,362.360 46.317,362.800 46.000 C 363.240 45.683,363.600 45.143,363.600 44.800 C 363.600 44.457,363.960 43.917,364.400 43.600 C 364.840 43.283,365.200 42.703,365.200 42.312 C 365.200 41.920,365.380 41.600,365.600 41.600 C 365.820 41.600,366.000 41.330,366.000 41.000 C 366.000 40.670,366.150 40.400,366.332 40.400 C 366.515 40.400,366.920 39.905,367.232 39.300 C 367.545 38.695,368.115 37.851,368.500 37.425 C 368.885 36.998,369.200 36.413,369.200 36.125 C 369.200 35.836,369.380 35.600,369.600 35.600 C 369.820 35.600,370.000 35.071,370.000 34.424 C 370.000 33.777,370.180 33.136,370.400 33.000 C 370.620 32.864,370.800 32.324,370.800 31.800 C 370.800 31.276,370.620 30.736,370.400 30.600 C 370.180 30.464,370.000 29.913,370.000 29.376 C 370.000 28.839,369.820 28.400,369.600 28.400 C 369.380 28.400,369.200 28.159,369.200 27.864 C 369.200 27.272,366.647 24.800,366.035 24.800 C 365.823 24.800,364.017 23.180,362.022 21.200 C 360.027 19.220,358.296 17.600,358.175 17.600 C 358.054 17.600,356.931 16.565,355.678 15.300 C 354.425 14.035,352.860 12.754,352.200 12.453 C 351.540 12.153,350.687 11.748,350.305 11.553 C 349.367 11.076,347.306 11.105,347.000 11.600 C 346.864 11.820,346.405 12.000,345.981 12.000 C 345.199 12.000,344.679 12.361,342.085 14.700 C 341.292 15.415,340.481 16.000,340.282 16.000 C 340.084 16.000,339.417 16.540,338.800 17.200 C 338.183 17.860,337.463 18.400,337.200 18.400 C 336.937 18.400,336.244 18.895,335.660 19.500 C 335.077 20.105,334.105 20.855,333.500 21.168 C 332.895 21.480,332.400 21.885,332.400 22.068 C 332.400 22.541,330.097 22.481,329.800 22.000 C 329.664 21.780,329.113 21.600,328.576 21.600 C 328.039 21.600,327.600 21.420,327.600 21.200 C 327.600 20.980,327.060 20.800,326.400 20.800 C 325.740 20.800,325.200 20.620,325.200 20.400 C 325.200 20.180,324.975 19.999,324.700 19.997 C 324.015 19.993,323.200 18.117,323.200 16.544 C 323.200 15.831,323.020 15.136,322.800 15.000 C 322.580 14.864,322.400 14.144,322.400 13.400 C 322.400 12.656,322.220 11.936,322.000 11.800 C 321.780 11.664,321.600 10.843,321.600 9.976 C 321.600 9.109,321.420 8.400,321.200 8.400 C 320.980 8.400,320.800 7.680,320.800 6.800 C 320.800 5.920,320.620 5.200,320.400 5.200 C 320.180 5.200,320.000 4.660,320.000 4.000 C 320.000 3.340,319.820 2.800,319.600 2.800 C 319.380 2.800,319.200 2.517,319.200 2.171 C 319.200 0.204,311.936 -0.345,294.300 0.289 M308.655 12.306 C 308.906 12.468,309.784 15.480,310.608 19.000 C 311.431 22.520,312.236 25.959,312.397 26.641 C 313.063 29.470,314.546 30.654,318.800 31.754 C 321.888 32.552,324.456 33.466,328.038 35.041 C 331.953 36.762,335.352 36.682,336.800 34.833 C 336.910 34.692,338.418 33.503,340.150 32.189 C 341.883 30.875,344.299 29.035,345.520 28.100 C 346.741 27.165,347.997 26.400,348.311 26.400 C 349.146 26.400,355.600 32.382,355.600 33.155 C 355.600 33.742,352.993 38.081,348.844 44.400 C 346.861 47.422,346.784 50.495,348.625 53.200 C 350.161 55.456,352.498 60.345,353.654 63.720 C 354.769 66.974,357.396 68.781,361.033 68.794 C 361.932 68.797,363.642 68.970,364.833 69.177 C 366.025 69.385,368.553 69.770,370.451 70.034 L 373.902 70.514 374.148 72.557 C 374.584 76.193,374.448 80.812,373.900 80.962 C 373.625 81.038,372.500 81.292,371.400 81.528 C 369.010 82.040,362.953 83.436,360.299 84.086 C 357.583 84.751,355.825 86.339,355.211 88.682 C 354.011 93.259,352.026 98.758,350.725 101.112 C 348.882 104.448,349.512 105.939,356.481 114.738 C 359.873 119.019,360.327 119.768,359.896 120.372 C 358.568 122.238,353.791 127.200,353.323 127.200 C 353.031 127.200,349.736 125.310,346.000 123.000 C 337.723 117.882,337.231 117.793,332.439 120.548 C 325.725 124.408,323.904 124.956,323.287 123.300 C 323.061 122.695,321.959 119.860,320.837 117.000 C 318.351 110.663,318.343 111.137,320.954 110.054 C 342.028 101.320,347.905 72.845,332.111 56.002 C 314.287 36.994,281.342 44.319,274.535 68.805 C 273.711 71.767,273.447 71.912,270.939 70.782 C 269.873 70.302,268.190 69.549,267.200 69.110 C 266.210 68.670,264.450 67.881,263.288 67.355 C 262.127 66.830,261.021 66.400,260.831 66.400 C 259.668 66.400,261.028 61.285,263.245 57.324 C 263.942 56.079,264.217 54.436,264.072 52.385 C 264.028 51.771,262.161 49.008,259.341 45.385 C 256.779 42.093,254.493 39.097,254.261 38.726 C 253.870 38.100,255.588 35.861,260.246 30.924 C 260.666 30.478,263.538 32.070,273.600 38.327 C 275.667 39.612,278.083 39.480,280.800 37.934 C 284.414 35.877,288.862 33.760,291.137 33.013 C 295.544 31.565,296.274 30.269,297.219 22.200 C 297.476 20.000,297.893 16.940,298.146 15.400 L 298.604 12.600 303.002 12.379 C 305.421 12.258,307.580 12.125,307.800 12.085 C 308.020 12.045,308.405 12.144,308.655 12.306 M55.300 37.420 C 51.219 41.649,52.678 44.823,63.546 55.357 C 65.386 57.141,69.133 60.805,71.872 63.500 L 76.852 68.400 80.026 68.400 C 81.875 68.400,83.200 68.233,83.200 68.000 C 83.200 67.780,83.545 67.600,83.966 67.600 C 84.433 67.600,84.941 67.131,85.264 66.400 C 85.556 65.740,85.931 65.200,86.098 65.200 C 86.264 65.200,86.400 63.755,86.400 61.990 L 86.400 58.779 74.837 47.190 L 63.275 35.600 60.137 35.629 L 57.000 35.658 55.300 37.420 M312.700 58.414 C 314.075 58.687,315.200 59.066,315.200 59.255 C 315.200 59.445,315.560 59.600,316.000 59.600 C 316.440 59.600,316.800 59.780,316.800 60.000 C 316.800 60.220,317.120 60.400,317.512 60.400 C 317.903 60.400,318.483 60.760,318.800 61.200 C 319.117 61.640,319.611 62.000,319.897 62.000 C 320.612 62.000,324.800 66.243,324.800 66.968 C 324.800 67.289,324.975 67.661,325.189 67.793 C 325.403 67.926,325.869 68.701,326.223 69.517 C 326.577 70.333,327.032 71.313,327.234 71.695 C 327.435 72.077,327.600 72.842,327.600 73.395 C 327.600 73.948,327.780 74.400,328.000 74.400 C 328.513 74.400,328.537 82.557,328.027 83.505 C 327.821 83.887,327.422 85.055,327.139 86.100 C 326.857 87.145,326.485 88.000,326.313 88.000 C 326.141 88.000,326.000 88.338,326.000 88.751 C 326.000 89.164,325.730 89.726,325.400 90.000 C 325.070 90.274,324.800 90.836,324.800 91.249 C 324.800 91.662,324.624 92.000,324.409 92.000 C 324.193 92.000,323.027 92.990,321.817 94.200 C 320.607 95.410,319.358 96.400,319.042 96.400 C 318.726 96.400,318.407 96.541,318.333 96.713 C 317.798 97.971,314.400 99.103,314.400 98.024 C 314.400 97.597,314.220 97.136,314.000 97.000 C 313.780 96.864,313.600 96.313,313.600 95.776 C 313.600 95.239,313.420 94.800,313.200 94.800 C 312.980 94.800,312.800 94.350,312.800 93.800 C 312.800 93.250,312.620 92.800,312.400 92.800 C 312.180 92.800,312.000 92.440,312.000 92.000 C 312.000 91.560,311.820 91.200,311.600 91.200 C 311.380 91.200,311.200 90.745,311.200 90.189 C 311.200 89.073,308.047 85.600,307.034 85.600 C 306.711 85.600,306.336 85.420,306.200 85.200 C 306.064 84.980,305.603 84.800,305.176 84.800 C 304.749 84.800,304.400 84.620,304.400 84.400 C 304.400 84.180,304.040 84.000,303.600 84.000 C 303.160 84.000,302.800 83.820,302.800 83.600 C 302.800 83.380,302.451 83.200,302.024 83.200 C 301.597 83.200,301.136 83.020,301.000 82.800 C 300.864 82.580,300.313 82.400,299.776 82.400 C 299.239 82.400,298.800 82.220,298.800 82.000 C 298.800 81.780,298.440 81.600,298.000 81.600 C 297.560 81.600,297.200 81.420,297.200 81.200 C 297.200 80.980,296.840 80.800,296.400 80.800 C 295.960 80.800,295.600 80.653,295.600 80.472 C 295.600 80.292,294.700 79.900,293.600 79.600 C 292.500 79.300,291.600 78.952,291.600 78.825 C 291.600 78.699,291.015 78.360,290.300 78.071 C 289.585 77.783,288.687 77.379,288.305 77.174 C 287.923 76.968,287.360 76.800,287.054 76.800 C 286.039 76.800,285.388 75.632,285.924 74.773 C 286.186 74.354,286.400 73.736,286.400 73.400 C 286.400 73.064,286.562 72.477,286.760 72.095 C 286.957 71.713,287.542 70.545,288.059 69.500 C 288.576 68.455,289.134 67.600,289.299 67.600 C 289.465 67.600,289.600 67.375,289.600 67.100 C 289.601 66.825,290.048 66.060,290.595 65.400 C 291.141 64.740,291.996 63.710,292.494 63.112 C 292.992 62.514,293.675 62.019,294.012 62.012 C 294.348 62.005,294.883 61.640,295.200 61.200 C 295.517 60.760,296.097 60.400,296.488 60.400 C 296.880 60.400,297.200 60.220,297.200 60.000 C 297.200 59.780,297.560 59.600,298.000 59.600 C 298.440 59.600,298.800 59.437,298.800 59.238 C 298.800 59.038,299.745 58.748,300.900 58.593 C 302.055 58.438,303.270 58.149,303.600 57.952 C 304.353 57.502,309.398 57.758,312.700 58.414 M224.239 62.956 C 224.877 63.262,226.120 63.821,227.000 64.198 C 227.880 64.575,229.320 65.219,230.200 65.629 C 232.156 66.540,237.553 68.893,245.000 72.081 C 248.080 73.399,251.921 75.091,253.536 75.839 C 255.150 76.588,256.540 77.200,256.624 77.200 C 256.708 77.200,257.727 77.630,258.888 78.155 C 260.050 78.681,261.900 79.511,263.000 80.000 C 264.100 80.489,265.950 81.319,267.112 81.845 C 268.273 82.370,269.312 82.800,269.421 82.800 C 269.529 82.800,271.161 83.520,273.048 84.400 C 274.935 85.280,276.546 86.000,276.628 86.000 C 276.709 86.000,277.727 86.428,278.888 86.952 C 280.050 87.475,282.980 88.755,285.400 89.796 C 289.655 91.627,291.507 92.440,295.100 94.056 C 297.316 95.052,297.327 94.930,294.456 101.300 C 292.746 105.094,290.557 110.037,289.716 112.000 C 288.904 113.898,287.920 116.083,286.440 119.275 C 285.758 120.746,285.200 122.046,285.200 122.163 C 285.200 122.280,284.771 123.327,284.246 124.488 C 280.938 131.813,280.708 132.501,280.898 134.481 C 281.133 136.926,282.201 138.139,285.400 139.592 C 290.843 142.065,292.096 142.621,296.000 144.295 C 296.770 144.625,298.700 145.504,300.289 146.248 C 301.877 146.991,303.284 147.600,303.414 147.600 C 303.544 147.600,304.764 148.118,306.125 148.750 C 307.486 149.383,309.230 150.174,310.000 150.508 C 310.770 150.842,312.300 151.521,313.400 152.016 C 314.500 152.512,316.525 153.423,317.900 154.042 C 320.717 155.309,320.715 155.304,319.553 157.904 C 319.088 158.947,318.477 160.340,318.196 161.000 C 317.914 161.660,317.326 163.010,316.888 164.000 C 316.450 164.990,314.793 168.770,313.206 172.400 C 311.619 176.030,310.137 179.225,309.911 179.500 C 309.603 179.877,306.944 180.000,299.138 180.000 C 286.954 180.000,287.322 179.905,283.416 184.047 C 281.885 185.671,279.005 188.716,277.016 190.813 C 275.027 192.910,272.067 196.060,270.438 197.813 C 268.810 199.566,266.099 202.440,264.414 204.200 C 258.389 210.495,258.800 207.753,258.800 241.632 C 258.800 272.095,258.962 270.319,256.297 269.090 C 255.584 268.761,252.840 267.552,250.200 266.403 C 247.560 265.254,243.960 263.681,242.200 262.906 C 240.440 262.131,238.235 261.160,237.300 260.748 C 236.365 260.337,234.835 259.661,233.900 259.247 C 232.965 258.833,230.850 257.915,229.200 257.208 C 227.550 256.500,225.300 255.511,224.200 255.008 C 222.177 254.085,221.785 253.914,216.400 251.597 C 214.750 250.887,212.680 249.987,211.800 249.598 C 210.920 249.208,208.130 247.989,205.600 246.890 C 203.070 245.791,199.920 244.401,198.600 243.802 C 197.280 243.204,195.660 242.484,195.000 242.203 C 194.340 241.923,192.945 241.311,191.900 240.844 L 190.000 239.996 190.000 187.357 L 190.000 134.718 192.049 130.059 C 194.230 125.099,195.095 123.140,196.442 120.100 C 196.905 119.055,197.554 117.570,197.883 116.800 C 198.212 116.030,198.636 115.040,198.824 114.600 C 199.013 114.160,199.804 112.392,200.583 110.671 C 201.363 108.950,202.000 107.477,202.000 107.399 C 202.000 107.320,202.521 106.118,203.158 104.728 C 203.795 103.338,205.165 100.220,206.202 97.800 C 207.240 95.380,208.698 92.079,209.444 90.464 C 210.190 88.850,210.800 87.460,210.800 87.376 C 210.800 87.292,211.230 86.273,211.755 85.112 C 212.978 82.408,214.332 79.356,215.042 77.700 C 215.349 76.985,215.851 75.815,216.158 75.100 C 216.465 74.385,217.073 72.990,217.510 72.000 C 217.947 71.010,219.072 68.445,220.009 66.300 C 221.828 62.141,222.095 61.930,224.239 62.956 M305.079 108.900 C 305.307 109.395,305.673 110.250,305.893 110.800 C 306.113 111.350,306.484 112.250,306.717 112.800 C 307.134 113.783,312.398 127.342,315.578 135.622 C 317.832 141.490,317.849 141.443,314.112 139.757 C 312.840 139.183,311.170 138.441,310.400 138.107 C 309.630 137.773,307.920 137.011,306.600 136.413 C 305.280 135.816,301.995 134.363,299.300 133.185 C 294.096 130.910,293.918 130.720,294.962 128.561 C 295.271 127.923,295.921 126.500,296.407 125.400 C 297.774 122.307,298.630 120.378,299.600 118.200 C 300.090 117.100,300.807 115.480,301.194 114.600 C 304.452 107.185,304.355 107.327,305.079 108.900 M6.000 160.773 C 6.000 160.978,5.685 161.249,5.300 161.375 C 3.416 161.990,1.466 170.000,3.200 170.000 C 3.420 170.000,3.600 170.294,3.600 170.653 C 3.600 171.528,5.127 172.805,6.503 173.081 C 7.115 173.203,7.714 173.460,7.832 173.652 C 8.194 174.237,37.948 174.076,39.662 173.479 C 41.634 172.792,43.200 171.564,43.200 170.705 C 43.200 170.317,43.380 170.000,43.600 170.000 C 43.833 170.000,44.000 168.667,44.000 166.800 C 44.000 164.933,43.833 163.600,43.600 163.600 C 43.380 163.600,43.200 163.391,43.200 163.136 C 43.200 162.880,42.628 162.160,41.928 161.536 L 40.656 160.400 23.328 160.400 C 12.877 160.400,6.000 160.548,6.000 160.773 M376.400 191.847 C 376.400 192.212,374.485 194.357,368.676 200.500 L 363.474 206.000 321.317 206.000 C 285.110 206.000,279.205 205.920,279.480 205.435 C 279.656 205.124,282.585 201.884,285.989 198.235 L 292.178 191.600 334.289 191.600 C 357.450 191.600,376.400 191.711,376.400 191.847 M384.800 242.814 L 384.800 284.028 381.300 287.712 C 373.183 296.256,372.264 297.163,371.940 296.963 C 371.753 296.847,371.600 292.156,371.600 286.537 C 371.600 274.911,371.443 274.148,368.761 272.780 C 366.817 271.789,365.083 271.791,363.026 272.789 C 360.116 274.201,360.214 273.595,360.079 291.100 L 359.957 306.800 337.365 306.800 C 311.537 306.800,314.152 307.303,317.219 302.924 C 318.592 300.964,318.800 300.380,318.800 298.480 L 318.800 296.294 311.900 289.312 C 301.764 279.055,302.386 279.176,293.155 285.658 C 288.375 289.015,286.750 289.721,285.780 288.864 C 285.571 288.679,284.770 288.290,284.000 287.998 C 282.007 287.244,281.200 286.436,281.200 285.198 C 281.200 284.605,281.039 283.598,280.841 282.960 C 280.644 282.322,280.264 280.450,279.998 278.800 C 278.853 271.717,277.358 269.787,272.800 269.510 L 271.000 269.400 270.897 243.700 L 270.794 218.000 315.379 218.000 L 359.965 218.000 360.082 233.500 C 360.212 250.617,360.126 250.049,362.832 251.570 C 365.845 253.263,369.598 252.298,370.932 249.487 C 371.523 248.242,371.600 246.158,371.600 231.493 C 371.600 212.429,371.038 215.082,376.239 209.600 C 377.805 207.950,380.124 205.475,381.394 204.100 C 382.663 202.725,383.949 201.600,384.251 201.600 C 384.713 201.600,384.800 208.147,384.800 242.814 M76.917 266.438 C 75.862 267.559,73.326 270.124,71.280 272.138 C 55.186 287.979,55.200 287.963,55.200 290.869 C 55.200 292.156,55.379 293.200,55.600 293.200 C 55.820 293.200,56.000 293.476,56.000 293.813 C 56.000 294.609,58.591 297.200,59.387 297.200 C 59.724 297.200,60.000 297.380,60.000 297.600 C 60.000 297.820,60.810 298.000,61.800 298.000 C 62.790 298.000,63.600 297.820,63.600 297.600 C 63.600 297.380,64.050 297.200,64.600 297.200 C 65.150 297.200,65.600 297.020,65.600 296.800 C 65.600 296.580,65.784 296.400,66.009 296.400 C 66.834 296.400,87.581 275.220,88.195 273.751 C 88.877 272.117,89.009 269.200,88.400 269.200 C 88.180 269.200,88.000 268.840,88.000 268.400 C 88.000 267.960,87.820 267.600,87.600 267.600 C 87.380 267.600,87.200 267.340,87.200 267.023 C 87.200 266.705,86.660 266.126,86.000 265.736 C 85.340 265.346,84.800 264.886,84.800 264.714 C 84.800 264.541,83.457 264.400,81.817 264.400 L 78.833 264.400 76.917 266.438 M269.064 284.200 C 271.346 296.280,271.308 296.214,276.951 297.877 C 278.078 298.209,280.693 299.297,282.762 300.293 C 288.488 303.053,288.566 303.039,295.998 297.907 C 301.030 294.431,300.834 294.445,303.525 297.365 C 305.635 299.654,305.758 299.100,301.960 304.442 C 297.163 311.189,297.067 311.757,299.769 317.343 C 300.742 319.354,301.934 322.170,302.417 323.600 C 304.129 328.664,304.493 328.899,313.000 330.433 C 315.640 330.909,318.032 331.363,318.316 331.443 C 318.697 331.549,318.802 332.450,318.716 334.870 L 318.600 338.152 316.600 338.622 C 315.500 338.881,313.070 339.315,311.200 339.587 C 305.120 340.471,303.953 341.372,302.374 346.400 C 301.856 348.050,300.724 350.750,299.858 352.400 C 297.061 357.731,297.171 358.117,304.387 368.314 C 305.928 370.491,305.980 370.252,303.415 372.785 L 301.231 374.942 297.151 372.171 C 288.773 366.481,288.661 366.451,284.290 368.662 C 282.701 369.466,279.712 370.715,277.648 371.437 C 272.208 373.340,271.320 374.411,270.387 380.200 C 270.209 381.300,269.882 383.337,269.659 384.727 C 269.106 388.168,268.848 388.400,265.565 388.400 C 262.201 388.400,262.393 388.704,261.020 381.233 C 259.592 373.472,259.459 373.304,253.000 371.151 C 251.460 370.637,248.901 369.538,247.314 368.709 C 242.614 366.252,241.967 366.424,233.699 372.328 C 230.128 374.878,230.247 374.880,227.619 372.220 L 225.466 370.039 229.133 364.613 C 233.603 357.999,233.735 357.230,231.235 352.414 C 230.375 350.756,229.201 347.945,228.627 346.166 C 226.802 340.512,226.561 340.376,214.894 338.397 C 211.981 337.903,212.000 337.929,212.000 334.405 L 212.000 331.257 214.300 330.810 C 215.565 330.564,217.410 330.201,218.400 330.002 C 219.390 329.804,221.010 329.521,222.000 329.374 C 225.755 328.814,227.053 327.506,228.603 322.715 C 229.179 320.938,230.358 318.074,231.225 316.351 C 233.622 311.583,233.507 311.134,227.776 302.826 L 225.173 299.053 227.273 296.926 C 229.904 294.262,229.453 294.197,235.066 298.047 C 241.825 302.683,242.506 302.835,246.774 300.665 C 249.342 299.360,252.190 298.219,255.400 297.209 C 258.847 296.126,259.504 294.911,260.806 287.200 C 261.270 284.450,261.726 281.968,261.819 281.684 C 261.943 281.305,262.858 281.198,265.261 281.284 L 268.535 281.400 269.064 284.200 M259.000 308.618 C 238.723 313.713,232.021 338.945,247.022 353.717 C 264.785 371.209,294.752 356.557,291.969 331.741 C 290.194 315.915,274.307 304.773,259.000 308.618 M178.200 337.400 L 178.200 361.400 171.400 361.372 C 158.993 361.322,152.259 356.974,148.522 346.600 C 147.816 344.641,147.147 315.357,147.771 313.731 C 147.941 313.287,150.689 313.209,163.089 313.295 L 178.200 313.400 178.200 337.400 M269.200 321.200 C 269.200 321.420,269.490 321.600,269.846 321.600 C 271.644 321.600,276.790 325.678,277.394 327.582 C 277.537 328.032,277.822 328.400,278.027 328.400 C 278.232 328.400,278.400 328.940,278.400 329.600 C 278.400 330.260,278.580 330.800,278.800 330.800 C 279.040 330.800,279.200 332.400,279.200 334.800 C 279.200 337.200,279.040 338.800,278.800 338.800 C 278.580 338.800,278.400 339.340,278.400 340.000 C 278.400 340.660,278.259 341.200,278.086 341.200 C 277.914 341.200,277.477 341.695,277.116 342.300 C 276.059 344.070,273.746 346.400,273.046 346.400 C 272.691 346.400,272.400 346.580,272.400 346.800 C 272.400 347.020,272.040 347.200,271.600 347.200 C 271.160 347.200,270.800 347.380,270.800 347.600 C 270.800 347.820,270.260 348.000,269.600 348.000 C 268.940 348.000,268.400 348.180,268.400 348.400 C 268.400 348.629,267.200 348.800,265.600 348.800 C 264.000 348.800,262.800 348.629,262.800 348.400 C 262.800 348.180,262.260 348.000,261.600 348.000 C 260.940 348.000,260.400 347.820,260.400 347.600 C 260.400 347.380,260.040 347.200,259.600 347.200 C 259.160 347.200,258.800 347.020,258.800 346.800 C 258.800 346.580,258.581 346.400,258.313 346.400 C 257.659 346.400,253.600 342.364,253.600 341.714 C 253.600 341.431,253.420 341.200,253.200 341.200 C 252.980 341.200,252.800 340.840,252.800 340.400 C 252.800 339.960,252.620 339.600,252.400 339.600 C 252.180 339.600,252.000 339.060,252.000 338.400 C 252.000 337.740,251.820 337.200,251.600 337.200 C 251.378 337.200,251.200 336.141,251.200 334.824 C 251.200 333.517,251.380 332.336,251.600 332.200 C 251.820 332.064,252.000 331.333,252.000 330.576 C 252.000 329.819,252.180 329.200,252.400 329.200 C 252.620 329.200,252.800 328.880,252.800 328.488 C 252.800 328.097,253.160 327.517,253.600 327.200 C 254.040 326.883,254.400 326.368,254.400 326.056 C 254.400 325.412,254.925 324.953,257.908 322.988 C 259.067 322.225,260.282 321.600,260.608 321.600 C 260.933 321.600,261.200 321.420,261.200 321.200 C 261.200 320.960,262.800 320.800,265.200 320.800 C 267.600 320.800,269.200 320.960,269.200 321.200 " stroke="none" fill="#040404" fill-rule="evenodd"></path><path id="path3" d="M219.405 69.100 C 217.897 72.565,216.264 76.300,215.776 77.400 C 215.289 78.500,214.490 80.300,214.003 81.400 C 213.515 82.500,212.846 84.030,212.516 84.800 C 212.187 85.570,211.576 86.965,211.158 87.900 C 210.741 88.835,210.040 90.410,209.600 91.400 C 209.160 92.390,208.459 93.965,208.042 94.900 C 207.624 95.835,207.013 97.230,206.684 98.000 C 206.354 98.770,205.723 100.210,205.282 101.200 C 204.841 102.190,203.668 104.890,202.676 107.200 C 201.684 109.510,200.400 112.480,199.823 113.800 C 199.245 115.120,198.618 116.560,198.428 117.000 C 198.239 117.440,197.634 118.790,197.085 120.000 C 196.536 121.210,195.778 122.920,195.401 123.800 C 195.025 124.680,194.376 126.165,193.958 127.100 C 193.541 128.035,192.820 129.655,192.356 130.700 C 191.892 131.745,191.307 132.960,191.056 133.400 C 190.722 133.985,190.572 148.328,190.494 186.834 L 190.388 239.468 192.194 240.334 C 194.195 241.294,196.571 242.364,199.000 243.399 C 199.880 243.774,201.490 244.513,202.579 245.040 C 203.667 245.568,204.701 246.000,204.877 246.000 C 205.053 246.000,206.592 246.645,208.298 247.433 C 210.004 248.221,213.850 249.918,216.844 251.205 C 219.839 252.491,223.169 253.937,224.244 254.418 C 225.320 254.899,226.830 255.561,227.600 255.890 C 228.370 256.218,229.990 256.936,231.200 257.486 C 235.413 259.400,237.005 260.103,237.800 260.400 C 238.240 260.564,239.410 261.063,240.400 261.508 C 241.390 261.953,242.830 262.587,243.600 262.916 C 244.370 263.246,245.810 263.872,246.800 264.309 C 253.795 267.390,257.240 268.800,257.778 268.800 C 258.335 268.800,258.401 265.840,258.406 240.500 C 258.411 219.082,258.532 211.855,258.906 210.782 C 259.515 209.037,260.614 207.320,261.971 205.996 C 262.537 205.443,265.340 202.480,268.200 199.410 C 271.060 196.340,274.300 192.904,275.400 191.774 C 276.500 190.644,279.191 187.778,281.380 185.405 C 287.131 179.171,285.873 179.603,298.267 179.601 C 309.363 179.600,310.000 179.534,310.000 178.381 C 310.000 177.977,310.180 177.536,310.400 177.400 C 310.620 177.264,310.800 176.803,310.800 176.376 C 310.800 175.949,310.980 175.600,311.200 175.600 C 311.420 175.600,311.600 175.328,311.600 174.995 C 311.600 174.662,311.760 174.077,311.956 173.695 C 312.646 172.350,313.973 169.373,314.992 166.887 C 315.558 165.505,316.525 163.255,317.140 161.887 C 317.756 160.519,318.501 158.770,318.797 158.000 C 319.092 157.230,319.499 156.383,319.701 156.118 C 320.105 155.587,319.817 155.436,311.600 151.874 C 305.828 149.371,303.540 148.354,300.200 146.801 C 298.880 146.187,297.080 145.377,296.200 145.000 C 295.320 144.623,293.610 143.864,292.400 143.315 C 291.190 142.766,289.840 142.172,289.400 141.997 C 281.350 138.782,278.523 135.147,280.766 130.895 C 280.968 130.513,281.403 129.570,281.734 128.800 C 282.665 126.633,285.211 120.790,286.048 118.900 C 286.461 117.965,287.177 116.345,287.638 115.300 C 288.099 114.255,288.928 112.410,289.481 111.200 C 290.435 109.110,290.952 107.958,292.800 103.800 C 293.240 102.810,293.940 101.235,294.356 100.300 C 294.772 99.365,295.385 97.986,295.718 97.235 C 296.473 95.537,296.321 95.126,294.694 94.460 C 293.982 94.169,292.635 93.587,291.700 93.166 C 288.616 91.777,286.619 90.891,285.200 90.284 C 284.430 89.954,282.990 89.326,282.000 88.889 C 281.010 88.451,277.410 86.881,274.000 85.400 C 270.590 83.919,266.990 82.349,266.000 81.911 C 265.010 81.474,263.570 80.846,262.800 80.516 C 262.030 80.187,260.635 79.576,259.700 79.158 C 258.765 78.741,257.190 78.040,256.200 77.600 C 255.210 77.160,253.635 76.459,252.700 76.042 C 251.765 75.624,250.370 75.013,249.600 74.684 C 248.183 74.077,245.801 73.026,242.700 71.640 C 241.765 71.222,239.028 70.039,236.617 69.012 C 234.206 67.985,231.416 66.778,230.417 66.330 C 229.418 65.882,227.970 65.248,227.200 64.920 C 226.430 64.593,225.108 63.982,224.262 63.563 C 223.416 63.143,222.594 62.800,222.436 62.800 C 222.277 62.800,220.913 65.635,219.405 69.100 M303.757 110.667 C 303.315 112.002,300.978 117.278,299.561 120.138 C 299.143 120.984,298.800 121.929,298.800 122.238 C 298.800 122.547,298.620 122.800,298.400 122.800 C 298.180 122.800,298.000 123.072,298.000 123.405 C 298.000 123.738,297.843 124.323,297.650 124.705 C 296.167 127.650,295.600 128.949,295.600 129.404 C 295.600 129.695,295.403 129.999,295.163 130.079 C 294.922 130.159,295.867 130.731,297.263 131.350 C 298.658 131.968,300.565 132.818,301.500 133.237 C 302.435 133.657,304.055 134.380,305.100 134.844 C 306.145 135.308,307.313 135.848,307.695 136.044 C 308.077 136.240,308.662 136.400,308.995 136.400 C 309.328 136.400,309.600 136.580,309.600 136.800 C 309.600 137.020,309.960 137.200,310.400 137.200 C 310.840 137.200,311.200 137.380,311.200 137.600 C 311.200 137.820,311.472 138.000,311.805 138.000 C 312.393 138.000,312.818 138.167,314.695 139.138 C 316.286 139.960,316.374 139.636,315.250 137.096 C 314.046 134.374,312.800 131.125,312.800 130.707 C 312.800 130.495,312.550 129.754,312.246 129.060 C 311.941 128.367,311.293 126.720,310.807 125.400 C 310.320 124.080,309.735 122.550,309.507 122.000 C 308.878 120.481,308.325 119.087,308.000 118.200 C 307.563 117.006,306.753 115.092,306.353 114.305 C 306.159 113.923,306.000 113.248,306.000 112.805 C 306.000 112.362,305.833 112.000,305.628 112.000 C 305.423 112.000,305.198 111.609,305.128 111.131 C 304.964 110.015,304.073 109.714,303.757 110.667 M148.537 314.620 C 148.056 315.875,148.614 345.738,149.122 345.907 C 149.385 345.995,149.600 346.395,149.600 346.796 C 149.600 347.460,151.096 350.723,151.619 351.200 C 151.740 351.310,152.273 352.030,152.804 352.800 C 154.777 355.662,157.671 357.875,161.600 359.527 C 163.436 360.299,167.817 360.800,172.733 360.800 L 177.600 360.800 177.600 337.400 L 177.600 314.000 163.187 314.000 C 150.539 314.000,148.746 314.076,148.537 314.620 " stroke="none" fill="#efeffb" fill-rule="evenodd"></path><path id="path4" d="M303.909 109.506 C 303.777 110.011,303.943 110.229,304.460 110.229 C 305.339 110.229,305.407 109.870,304.649 109.241 C 304.219 108.884,304.056 108.942,303.909 109.506 M302.904 111.921 C 301.552 115.012,301.199 116.048,301.579 115.813 C 301.811 115.670,302.000 115.381,302.000 115.172 C 302.000 114.963,302.383 113.976,302.851 112.980 C 303.319 111.984,303.629 111.096,303.539 111.006 C 303.450 110.916,303.164 111.328,302.904 111.921 M312.779 130.692 C 313.205 132.135,314.294 134.965,315.244 137.096 C 315.660 138.028,316.000 139.053,316.000 139.372 C 316.000 139.691,316.168 140.057,316.374 140.184 C 316.883 140.499,316.401 138.944,314.650 134.622 C 313.852 132.655,313.200 130.820,313.200 130.546 C 313.200 130.272,313.032 129.943,312.826 129.816 C 312.599 129.676,312.580 130.020,312.779 130.692 M281.375 185.300 L 280.200 186.600 281.500 185.425 C 282.215 184.779,282.800 184.194,282.800 184.125 C 282.800 183.816,282.470 184.088,281.375 185.300 M268.975 198.500 L 267.800 199.800 269.100 198.625 C 269.815 197.979,270.400 197.394,270.400 197.325 C 270.400 197.016,270.070 197.288,268.975 198.500 M271.200 243.561 L 271.200 268.725 273.120 268.989 C 277.102 269.537,279.237 271.675,279.980 275.858 C 280.170 276.926,280.637 279.600,281.018 281.800 C 281.656 285.483,282.376 287.200,283.281 287.200 C 283.478 287.200,284.384 287.560,285.294 288.000 C 287.542 289.086,287.816 288.961,296.000 283.142 C 301.689 279.097,302.783 279.461,311.631 288.342 C 320.568 297.312,321.084 298.810,317.056 304.091 C 315.194 306.533,314.104 306.416,337.700 306.303 L 359.400 306.200 359.600 290.800 C 359.798 275.576,359.810 275.385,360.710 274.124 C 361.666 272.784,363.613 271.600,364.861 271.600 C 365.558 271.600,365.600 271.074,365.600 262.247 L 365.600 252.895 363.820 252.447 C 362.529 252.122,361.731 251.595,360.920 250.531 L 359.800 249.064 359.600 233.832 L 359.400 218.600 315.300 218.498 L 271.200 218.396 271.200 243.561 M148.047 327.700 C 148.073 335.455,148.208 342.331,148.347 342.981 C 148.486 343.630,148.600 337.420,148.600 329.181 L 148.600 314.200 163.097 314.095 L 177.594 313.990 177.700 337.495 L 177.807 361.000 177.903 337.300 L 178.000 313.600 163.000 313.600 L 148.000 313.600 148.047 327.700 M151.991 352.388 C 153.228 354.124,153.825 354.334,152.732 352.648 C 152.219 351.857,151.653 351.208,151.473 351.205 C 151.293 351.202,151.526 351.735,151.991 352.388 M163.600 360.388 C 163.930 360.608,164.815 360.791,165.567 360.794 C 167.360 360.802,167.041 360.575,164.800 360.250 C 163.542 360.067,163.181 360.109,163.600 360.388 " stroke="none" fill="#92e1f9" fill-rule="evenodd"></path></g></svg>