<svg id="svg" version="1.1" xmlns="http://www.w3.org/2000/svg" xmlns:xlink="http://www.w3.org/1999/xlink" width="400" height="400" viewBox="0, 0, 400,400"><g id="svgg"><path id="path0" d="M68.400 274.600 L 68.400 280.800 43.400 280.800 L 18.400 280.800 18.400 325.000 L 18.400 369.200 43.400 369.200 L 68.400 369.200 68.400 375.400 L 68.400 381.600 93.700 381.600 L 119.000 381.600 119.000 325.000 L 119.000 268.400 93.700 268.400 L 68.400 268.400 68.400 274.600 " stroke="none" fill="#0463df" fill-rule="evenodd"></path><path id="path1" d="M161.394 21.990 C 161.542 22.230,161.213 22.400,160.600 22.400 C 160.004 22.400,159.659 22.572,159.800 22.800 C 159.936 23.020,159.687 23.200,159.247 23.200 C 158.807 23.200,158.349 23.359,158.229 23.554 C 158.109 23.748,157.243 24.299,156.305 24.778 C 153.118 26.406,152.207 26.936,151.671 27.472 C 151.376 27.766,150.942 27.888,150.706 27.742 C 150.458 27.589,150.392 27.663,150.549 27.918 C 150.700 28.162,150.418 28.576,149.920 28.843 C 149.423 29.109,148.568 29.838,148.020 30.463 C 147.471 31.088,146.792 31.600,146.511 31.600 C 146.230 31.600,146.000 31.887,146.000 32.237 C 146.000 32.588,145.646 32.967,145.213 33.081 C 144.781 33.194,144.318 33.630,144.184 34.049 C 144.051 34.468,143.748 34.691,143.509 34.544 C 143.271 34.397,143.185 34.453,143.319 34.668 C 143.452 34.884,142.838 35.892,141.955 36.908 C 141.072 37.924,140.373 38.869,140.401 39.008 C 140.429 39.147,140.107 39.562,139.684 39.930 C 139.261 40.299,138.524 41.320,138.045 42.200 C 137.567 43.080,136.641 44.786,135.988 45.992 C 135.335 47.198,134.800 48.413,134.800 48.692 C 134.800 48.971,134.620 49.200,134.400 49.200 C 134.180 49.200,134.000 49.639,134.000 50.176 C 134.000 50.713,133.820 51.264,133.600 51.400 C 133.380 51.536,133.200 51.997,133.200 52.424 C 133.200 52.851,133.065 53.200,132.900 53.201 C 132.735 53.201,132.554 53.845,132.498 54.631 C 132.442 55.417,132.217 56.395,131.998 56.804 C 131.779 57.213,131.600 58.099,131.600 58.774 C 131.600 59.448,131.435 60.000,131.232 60.000 C 130.756 60.000,130.735 75.931,131.211 76.820 C 131.407 77.186,131.619 78.393,131.683 79.502 C 131.748 80.612,131.935 81.437,132.100 81.336 C 132.265 81.235,132.400 81.603,132.400 82.153 C 132.400 82.703,132.580 83.264,132.800 83.400 C 133.020 83.536,133.200 84.177,133.200 84.824 C 133.200 85.471,133.380 86.000,133.600 86.000 C 133.820 86.000,134.000 86.355,134.000 86.788 C 134.000 87.221,134.360 88.217,134.800 89.000 C 135.240 89.783,135.600 90.689,135.600 91.012 C 135.600 91.335,135.780 91.600,136.000 91.600 C 136.220 91.600,136.400 91.960,136.400 92.400 C 136.400 92.840,136.558 93.200,136.751 93.200 C 136.945 93.200,137.327 93.740,137.600 94.400 C 137.873 95.060,138.255 95.600,138.449 95.600 C 138.642 95.600,138.800 95.836,138.800 96.125 C 138.800 96.413,139.160 97.036,139.600 97.508 C 140.040 97.980,140.400 98.625,140.400 98.940 C 140.400 99.256,140.672 99.619,141.003 99.746 C 141.335 99.873,141.814 100.433,142.068 100.989 C 142.321 101.545,142.750 102.000,143.021 102.000 C 143.447 102.000,144.149 103.112,144.001 103.551 C 143.973 103.633,144.366 103.918,144.875 104.183 C 145.384 104.448,145.755 104.876,145.700 105.133 C 145.645 105.390,145.818 105.555,146.085 105.500 C 146.352 105.445,146.755 105.805,146.980 106.300 C 147.205 106.795,147.592 107.200,147.838 107.200 C 148.085 107.200,148.898 107.936,149.644 108.836 C 150.390 109.735,151.225 110.712,151.500 111.007 C 151.775 111.302,152.000 111.826,152.000 112.171 C 152.000 112.517,152.138 112.800,152.306 112.800 C 152.657 112.800,153.835 115.389,154.245 117.065 C 154.398 117.689,154.665 118.294,154.837 118.409 C 155.010 118.523,155.192 119.738,155.241 121.109 C 155.291 122.479,155.470 123.600,155.640 123.600 C 155.810 123.600,155.966 128.010,155.986 133.400 L 156.022 143.200 149.811 143.200 C 146.395 143.200,143.497 143.155,143.372 143.100 C 142.992 142.933,142.339 144.378,142.602 144.803 C 142.737 145.021,142.657 145.200,142.424 145.200 C 142.191 145.200,142.000 145.560,142.000 146.000 C 142.000 146.440,141.820 146.800,141.600 146.800 C 141.380 146.800,141.200 147.160,141.200 147.600 C 141.200 148.040,141.020 148.400,140.800 148.400 C 140.580 148.400,140.400 148.672,140.400 149.005 C 140.400 149.573,139.660 151.156,139.187 151.600 C 139.070 151.710,137.096 155.580,134.800 160.200 C 132.504 164.820,130.530 168.690,130.412 168.800 C 130.177 169.020,129.443 170.549,128.971 171.800 C 128.805 172.240,128.629 172.690,128.581 172.800 C 128.532 172.910,128.361 173.405,128.200 173.900 C 128.038 174.395,127.679 174.800,127.400 174.800 C 126.882 174.800,126.263 176.195,126.376 177.109 C 126.411 177.389,126.159 177.898,125.816 178.241 C 125.473 178.584,125.295 179.030,125.420 179.232 C 125.545 179.435,125.457 179.600,125.224 179.600 C 124.991 179.600,124.800 179.971,124.800 180.424 C 124.800 180.877,124.620 181.136,124.400 181.000 C 124.173 180.860,124.000 181.196,124.000 181.776 C 124.000 182.339,123.820 182.800,123.600 182.800 C 123.380 182.800,123.200 183.145,123.200 183.567 C 123.200 183.988,123.063 184.393,122.895 184.467 C 122.486 184.645,118.394 192.865,118.397 193.500 C 118.399 193.889,121.148 194.000,130.798 194.000 L 143.196 194.000 143.298 237.500 C 143.399 280.729,143.405 281.000,144.200 280.922 C 145.130 280.832,146.456 280.517,153.000 278.828 C 165.179 275.685,170.525 275.431,178.900 277.598 C 182.855 278.621,187.800 279.941,189.600 280.454 C 190.370 280.674,191.630 281.009,192.400 281.200 C 193.170 281.391,194.520 281.751,195.400 282.000 C 196.280 282.249,197.630 282.609,198.400 282.800 C 199.170 282.991,200.520 283.351,201.400 283.600 C 202.280 283.849,203.630 284.205,204.400 284.391 C 205.170 284.577,207.420 285.181,209.400 285.733 C 213.819 286.965,217.982 288.091,224.000 289.682 C 226.530 290.350,230.580 291.430,233.000 292.080 C 235.420 292.730,238.660 293.594,240.200 293.999 C 246.801 295.739,248.001 296.073,251.800 297.227 C 254.000 297.896,256.520 298.635,257.400 298.868 C 258.280 299.102,259.450 299.431,260.000 299.600 C 261.070 299.929,262.452 300.311,267.200 301.594 C 274.295 303.510,276.517 304.593,279.565 307.617 C 281.590 309.626,282.654 311.300,283.946 314.512 C 284.443 315.746,284.798 315.658,288.400 313.403 C 289.170 312.921,290.610 312.074,291.600 311.520 C 293.285 310.577,294.527 309.872,297.700 308.056 C 298.415 307.647,299.990 306.721,301.200 306.000 C 302.410 305.279,303.985 304.353,304.700 303.944 C 307.406 302.395,309.051 301.458,310.600 300.583 C 311.480 300.086,314.450 298.379,317.200 296.790 C 323.275 293.280,324.429 292.614,326.100 291.652 C 332.334 288.067,343.193 281.764,345.733 280.258 C 347.456 279.236,348.933 278.400,349.015 278.400 C 349.098 278.400,350.064 277.870,351.164 277.221 C 352.263 276.573,353.936 275.772,354.882 275.440 C 356.589 274.842,356.591 274.838,355.300 274.819 C 354.585 274.809,354.000 274.980,354.000 275.200 C 354.000 275.420,353.735 275.600,353.412 275.600 C 352.829 275.600,351.872 276.089,348.400 278.161 C 347.410 278.752,346.285 279.338,345.900 279.464 C 345.515 279.590,345.200 279.852,345.200 280.047 C 345.200 280.241,345.044 280.400,344.854 280.400 C 344.522 280.400,338.201 283.946,330.600 288.395 C 327.110 290.439,325.544 291.342,323.555 292.462 C 323.030 292.758,322.510 293.090,322.400 293.200 C 322.290 293.310,321.480 293.777,320.600 294.238 C 319.720 294.700,318.370 295.444,317.600 295.893 C 315.870 296.902,308.699 301.018,306.800 302.093 C 306.030 302.529,305.220 303.020,305.000 303.185 C 304.780 303.350,303.610 304.024,302.400 304.683 C 298.941 306.568,297.034 307.659,296.600 308.000 C 296.380 308.173,295.550 308.677,294.755 309.120 C 291.862 310.731,291.396 311.004,291.200 311.200 C 291.090 311.310,290.280 311.778,289.400 312.240 C 288.520 312.702,287.136 313.479,286.324 313.965 L 284.849 314.850 283.599 312.259 C 281.079 307.033,276.255 303.370,269.600 301.627 C 267.950 301.195,265.538 300.565,264.239 300.227 C 262.941 299.889,261.812 299.545,261.730 299.463 C 261.570 299.303,264.329 298.751,269.200 297.968 C 270.850 297.702,273.190 297.224,274.400 296.904 C 277.124 296.184,279.458 295.619,280.905 295.329 C 281.513 295.207,282.108 294.949,282.229 294.754 C 282.349 294.559,282.799 294.400,283.229 294.400 C 283.659 294.400,284.323 294.234,284.705 294.031 C 285.087 293.828,286.930 293.082,288.800 292.372 C 295.950 289.659,309.173 282.425,311.929 279.719 C 312.219 279.434,312.581 279.200,312.733 279.200 C 312.884 279.200,313.462 278.795,314.017 278.300 C 314.573 277.805,315.831 276.775,316.813 276.012 C 321.519 272.354,328.906 264.964,332.416 260.400 C 333.177 259.410,333.910 258.510,334.045 258.400 C 334.461 258.061,340.256 249.495,341.217 247.800 C 344.280 242.395,346.939 237.063,347.997 234.200 C 348.290 233.408,348.845 232.041,349.580 230.300 C 352.388 223.650,355.483 208.185,356.263 196.900 L 356.463 194.000 315.667 194.000 L 274.871 194.000 262.424 169.119 C 255.578 155.435,250.066 144.005,250.176 143.719 C 250.337 143.298,246.275 143.200,228.557 143.200 L 206.738 143.200 206.917 133.300 C 207.128 121.557,207.302 119.041,207.957 118.251 C 208.228 117.926,208.409 117.421,208.361 117.130 C 208.208 116.200,209.718 112.732,210.593 112.006 C 210.927 111.729,211.200 111.343,211.200 111.148 C 211.200 110.675,212.920 108.729,215.540 106.236 C 216.717 105.116,217.977 103.868,218.340 103.463 C 220.710 100.816,221.380 99.956,222.670 97.900 C 223.464 96.635,224.254 95.600,224.425 95.600 C 224.596 95.600,224.855 95.060,225.000 94.400 C 225.145 93.740,225.429 93.200,225.632 93.200 C 225.834 93.200,226.000 92.840,226.000 92.400 C 226.000 91.960,226.180 91.600,226.400 91.600 C 226.620 91.600,226.800 91.240,226.800 90.800 C 226.800 90.360,226.980 90.000,227.200 90.000 C 227.420 90.000,227.600 89.640,227.600 89.200 C 227.600 88.760,227.780 88.400,228.000 88.400 C 228.220 88.400,228.400 88.128,228.400 87.795 C 228.400 87.462,228.558 86.877,228.751 86.495 C 229.335 85.339,230.000 82.996,230.000 82.095 C 230.000 81.629,230.180 81.136,230.400 81.000 C 230.620 80.864,230.800 79.953,230.800 78.976 C 230.800 77.999,230.986 77.200,231.213 77.200 C 231.485 77.200,231.612 74.208,231.585 68.394 C 231.560 63.083,231.396 59.679,231.172 59.817 C 230.966 59.945,230.800 59.322,230.800 58.424 C 230.800 57.531,230.658 56.800,230.485 56.800 C 230.312 56.800,230.143 56.395,230.109 55.900 C 230.040 54.881,229.194 52.005,228.786 51.400 C 228.638 51.180,228.274 50.157,227.978 49.126 C 227.683 48.095,227.296 47.340,227.120 47.449 C 226.944 47.558,226.800 47.277,226.800 46.824 C 226.800 46.371,226.620 46.000,226.400 46.000 C 226.180 46.000,226.000 45.655,226.000 45.233 C 226.000 44.812,225.865 44.407,225.700 44.333 C 225.372 44.187,223.878 41.385,223.942 41.035 C 223.964 40.916,223.526 40.363,222.969 39.806 C 222.410 39.247,222.084 38.588,222.240 38.335 C 222.410 38.059,222.347 37.985,222.082 38.149 C 221.838 38.300,221.422 38.015,221.153 37.511 C 220.690 36.646,217.779 33.364,216.320 32.063 C 215.947 31.730,215.750 31.282,215.882 31.067 C 216.017 30.850,215.918 30.804,215.659 30.964 C 215.217 31.237,212.966 29.590,210.360 27.086 C 209.722 26.474,209.197 26.114,209.194 26.286 C 209.191 26.459,209.037 26.363,208.854 26.073 C 208.670 25.784,208.268 25.496,207.960 25.434 C 207.092 25.259,205.822 24.689,205.600 24.376 C 205.187 23.791,202.344 22.400,201.564 22.400 C 201.112 22.400,200.865 22.219,201.006 21.990 C 201.329 21.468,200.300 21.664,199.906 22.200 C 199.744 22.420,199.609 32.905,199.606 45.500 L 199.600 68.400 198.733 68.400 C 198.257 68.400,197.988 68.521,198.137 68.670 C 198.506 69.040,196.346 70.414,195.863 70.115 C 195.650 69.984,195.605 70.084,195.762 70.338 C 195.933 70.615,195.787 70.800,195.400 70.800 C 195.044 70.800,194.844 70.947,194.955 71.127 C 195.066 71.307,194.534 71.680,193.772 71.955 C 193.011 72.231,192.483 72.611,192.600 72.799 C 192.716 72.988,192.450 73.257,192.008 73.397 C 191.566 73.538,190.930 73.927,190.594 74.263 C 190.259 74.598,189.739 74.909,189.439 74.953 C 188.846 75.040,185.972 77.105,185.522 77.767 C 185.369 77.993,185.133 78.067,184.999 77.932 C 184.864 77.797,184.184 78.208,183.488 78.844 C 181.827 80.360,177.250 79.538,178.259 77.904 C 178.408 77.663,178.336 77.592,178.094 77.742 C 177.858 77.888,177.401 77.744,177.080 77.423 C 176.758 77.101,176.388 76.945,176.257 77.076 C 176.126 77.207,175.906 77.020,175.768 76.660 C 175.629 76.299,175.357 76.103,175.163 76.223 C 174.969 76.343,174.445 76.100,173.998 75.684 C 173.552 75.268,172.695 74.674,172.093 74.364 C 171.492 74.054,170.805 73.618,170.567 73.396 C 170.329 73.173,168.487 71.913,166.473 70.596 L 162.813 68.200 162.800 45.400 C 162.793 32.860,162.656 22.420,162.494 22.200 C 162.100 21.664,161.071 21.468,161.394 21.990 M295.000 100.400 L 294.200 100.744 295.000 100.744 C 295.440 100.744,296.160 100.589,296.600 100.400 L 297.400 100.056 296.600 100.056 C 296.160 100.056,295.440 100.211,295.000 100.400 M303.600 100.400 C 304.968 100.838,306.019 100.838,305.000 100.400 C 304.560 100.211,303.840 100.062,303.400 100.068 C 302.757 100.077,302.796 100.143,303.600 100.400 M310.440 103.251 C 311.408 103.939,312.737 104.974,313.394 105.551 C 314.412 106.446,314.472 106.463,313.801 105.666 C 312.934 104.636,309.472 102.000,308.986 102.000 C 308.818 102.000,309.472 102.563,310.440 103.251 M287.369 104.701 C 286.472 105.525,285.399 106.650,284.983 107.200 C 284.567 107.750,285.346 107.126,286.714 105.813 C 288.996 103.621,289.382 103.198,289.100 103.201 C 289.045 103.202,288.266 103.877,287.369 104.701 M318.068 113.600 C 318.088 114.639,318.718 116.346,318.732 115.400 C 318.738 114.960,318.589 114.240,318.400 113.800 C 318.189 113.310,318.061 113.232,318.068 113.600 M281.449 114.215 C 281.312 114.573,281.216 115.256,281.236 115.733 C 281.262 116.347,281.385 116.208,281.659 115.256 C 282.057 113.872,281.894 113.058,281.449 114.215 M281.268 121.800 C 281.262 122.240,281.411 122.960,281.600 123.400 C 282.038 124.419,282.038 123.368,281.600 122.000 C 281.343 121.196,281.277 121.157,281.268 121.800 M318.200 122.800 C 318.048 123.491,318.014 124.147,318.124 124.257 C 318.234 124.367,318.448 123.891,318.600 123.200 C 318.752 122.509,318.786 121.853,318.676 121.743 C 318.566 121.633,318.352 122.109,318.200 122.800 M283.400 128.000 C 283.741 128.660,284.111 129.200,284.221 129.200 C 284.331 129.200,284.141 128.660,283.800 128.000 C 283.459 127.340,283.089 126.800,282.979 126.800 C 282.869 126.800,283.059 127.340,283.400 128.000 M285.305 130.760 C 285.842 131.398,286.983 132.512,287.841 133.235 C 288.772 134.020,288.439 133.553,287.013 132.075 C 284.477 129.446,283.690 128.840,285.305 130.760 M313.000 132.068 C 311.261 133.851,311.006 134.228,312.073 133.437 C 313.290 132.536,315.937 129.591,315.520 129.603 C 315.454 129.605,314.320 130.714,313.000 132.068 M289.600 134.579 C 289.600 134.689,290.140 135.059,290.800 135.400 C 291.460 135.741,292.000 135.931,292.000 135.821 C 292.000 135.711,291.460 135.341,290.800 135.000 C 290.140 134.659,289.600 134.469,289.600 134.579 M295.400 137.200 C 295.840 137.389,296.560 137.538,297.000 137.532 C 297.643 137.523,297.604 137.457,296.800 137.200 C 295.432 136.762,294.381 136.762,295.400 137.200 M303.200 137.200 L 302.200 137.520 303.200 137.554 C 303.750 137.573,304.470 137.413,304.800 137.200 C 305.564 136.706,304.742 136.706,303.200 137.200 M193.800 309.200 C 193.664 309.420,193.158 309.607,192.676 309.615 C 191.171 309.640,189.599 312.175,189.606 314.564 C 189.613 316.749,191.171 319.200,192.553 319.200 C 192.909 319.200,193.200 319.380,193.200 319.600 C 193.200 319.820,193.819 320.000,194.576 320.000 C 195.333 320.000,196.064 320.180,196.200 320.400 C 196.336 320.620,196.977 320.800,197.624 320.800 C 198.271 320.800,198.800 320.980,198.800 321.200 C 198.800 321.420,199.520 321.600,200.400 321.600 C 201.280 321.600,202.000 321.780,202.000 322.000 C 202.000 322.220,202.630 322.400,203.400 322.400 C 204.170 322.400,204.800 322.580,204.800 322.800 C 204.800 323.020,205.419 323.200,206.176 323.200 C 206.933 323.200,207.664 323.380,207.800 323.600 C 207.936 323.820,208.577 324.000,209.224 324.000 C 209.871 324.000,210.400 324.180,210.400 324.400 C 210.400 324.620,211.120 324.800,212.000 324.800 C 212.880 324.800,213.600 324.980,213.600 325.200 C 213.600 325.420,214.219 325.600,214.976 325.600 C 215.733 325.600,216.464 325.780,216.600 326.000 C 216.736 326.220,217.347 326.400,217.957 326.400 C 218.567 326.400,219.201 326.535,219.366 326.699 C 219.531 326.864,220.776 327.202,222.133 327.451 C 225.003 327.977,229.447 329.103,230.600 329.597 C 231.040 329.786,231.895 330.043,232.500 330.170 C 233.105 330.296,234.095 330.504,234.700 330.630 C 235.305 330.757,236.160 331.013,236.600 331.200 C 237.443 331.558,238.940 331.915,241.100 332.272 C 241.815 332.391,242.400 332.648,242.400 332.844 C 242.400 333.040,243.019 333.200,243.776 333.200 C 244.533 333.200,245.264 333.380,245.400 333.600 C 245.536 333.820,246.256 334.000,247.000 334.000 C 247.744 334.000,248.464 334.180,248.600 334.400 C 248.736 334.620,249.366 334.800,250.000 334.800 C 250.634 334.800,251.264 334.980,251.400 335.200 C 251.536 335.420,252.166 335.600,252.800 335.600 C 253.434 335.600,254.064 335.780,254.200 336.000 C 254.336 336.220,255.067 336.400,255.824 336.400 C 256.581 336.400,257.200 336.580,257.200 336.800 C 257.200 337.020,257.819 337.200,258.576 337.200 C 259.333 337.200,260.064 337.380,260.200 337.600 C 260.336 337.820,261.157 338.000,262.024 338.000 C 262.891 338.000,263.600 338.180,263.600 338.400 C 263.600 338.622,264.659 338.800,265.976 338.800 C 267.283 338.800,268.464 338.620,268.600 338.400 C 268.736 338.180,269.456 338.000,270.200 338.000 C 270.944 338.000,271.664 337.820,271.800 337.600 C 271.936 337.380,272.487 337.200,273.024 337.200 C 273.561 337.200,274.000 337.020,274.000 336.800 C 274.000 336.580,274.360 336.400,274.800 336.400 C 275.240 336.400,275.600 336.259,275.600 336.086 C 275.600 335.914,276.127 335.461,276.770 335.081 C 278.253 334.205,281.589 330.761,281.595 330.100 C 281.598 329.825,281.735 329.599,281.900 329.597 C 282.259 329.593,283.200 327.656,283.200 326.920 C 283.200 326.634,283.362 326.400,283.560 326.400 C 283.758 326.400,284.028 325.590,284.160 324.600 C 284.292 323.610,284.504 322.035,284.630 321.100 C 284.785 319.959,284.660 319.013,284.249 318.225 L 283.637 317.050 283.210 318.172 C 282.262 320.666,275.679 326.000,273.550 326.000 C 273.137 326.000,272.800 326.180,272.800 326.400 C 272.800 326.620,272.181 326.800,271.424 326.800 C 270.667 326.800,269.936 326.980,269.800 327.200 C 269.664 327.420,268.134 327.600,266.400 327.600 C 264.666 327.600,263.136 327.420,263.000 327.200 C 262.864 326.980,262.144 326.800,261.400 326.800 C 260.656 326.800,259.936 326.620,259.800 326.400 C 259.664 326.180,258.933 326.000,258.176 326.000 C 257.419 326.000,256.800 325.857,256.800 325.682 C 256.800 325.507,255.675 325.173,254.300 324.940 C 252.925 324.706,250.450 324.121,248.800 323.640 C 247.150 323.160,245.121 322.660,244.290 322.529 C 243.460 322.399,242.684 322.136,242.567 321.946 C 242.449 321.756,241.834 321.600,241.200 321.600 C 240.566 321.600,239.936 321.420,239.800 321.200 C 239.664 320.980,238.944 320.800,238.200 320.800 C 237.456 320.800,236.736 320.620,236.600 320.400 C 236.464 320.180,235.834 320.000,235.200 320.000 C 234.566 320.000,233.948 319.840,233.827 319.644 C 233.706 319.449,232.976 319.179,232.204 319.044 C 231.432 318.910,230.168 318.690,229.396 318.556 C 228.624 318.421,227.894 318.151,227.773 317.956 C 227.652 317.760,226.933 317.600,226.176 317.600 C 225.419 317.600,224.800 317.420,224.800 317.200 C 224.800 316.980,224.181 316.800,223.424 316.800 C 222.667 316.800,221.936 316.620,221.800 316.400 C 221.664 316.180,221.034 316.000,220.400 316.000 C 219.766 316.000,219.136 315.820,219.000 315.600 C 218.864 315.380,218.234 315.200,217.600 315.200 C 216.966 315.200,216.336 315.020,216.200 314.800 C 216.064 314.580,215.333 314.400,214.576 314.400 C 213.819 314.400,213.200 314.220,213.200 314.000 C 213.200 313.780,212.581 313.600,211.824 313.600 C 211.067 313.600,210.336 313.420,210.200 313.200 C 210.064 312.980,209.423 312.800,208.776 312.800 C 208.129 312.800,207.600 312.620,207.600 312.400 C 207.600 312.180,206.880 312.000,206.000 312.000 C 205.120 312.000,204.400 311.820,204.400 311.600 C 204.400 311.380,203.770 311.200,203.000 311.200 C 202.230 311.200,201.600 311.020,201.600 310.800 C 201.600 310.580,200.981 310.400,200.224 310.400 C 199.467 310.400,198.736 310.220,198.600 310.000 C 198.464 309.780,197.834 309.600,197.200 309.600 C 196.566 309.600,195.936 309.420,195.800 309.200 C 195.664 308.980,195.214 308.800,194.800 308.800 C 194.386 308.800,193.936 308.980,193.800 309.200 " stroke="none" fill="#b5885d" fill-rule="evenodd"></path><path id="path2" d="M295.600 100.594 C 281.260 104.536,276.535 121.719,286.978 131.950 C 302.190 146.853,325.944 129.334,316.552 110.138 C 312.956 102.789,303.420 98.445,295.600 100.594 M356.545 274.600 C 356.418 274.930,356.045 275.200,355.715 275.200 C 354.860 275.200,350.255 277.571,344.650 280.896 C 342.957 281.900,330.994 288.837,326.100 291.652 C 324.429 292.614,323.275 293.280,317.200 296.790 C 314.450 298.379,311.480 300.086,310.600 300.583 C 309.051 301.458,307.406 302.395,304.700 303.944 C 303.985 304.353,302.410 305.279,301.200 306.000 C 299.990 306.721,298.415 307.647,297.700 308.056 C 294.527 309.872,293.285 310.577,291.600 311.520 C 290.610 312.074,289.170 312.921,288.400 313.403 C 284.798 315.658,284.443 315.746,283.946 314.512 C 282.654 311.300,281.590 309.626,279.565 307.617 C 276.517 304.593,274.295 303.510,267.200 301.594 C 262.452 300.311,261.070 299.929,260.000 299.600 C 259.450 299.431,258.280 299.102,257.400 298.868 C 256.520 298.635,254.000 297.896,251.800 297.227 C 248.001 296.073,246.801 295.739,240.200 293.999 C 238.660 293.594,235.420 292.730,233.000 292.080 C 230.580 291.430,226.530 290.350,224.000 289.682 C 217.982 288.091,213.819 286.965,209.400 285.733 C 207.420 285.181,205.170 284.577,204.400 284.391 C 203.630 284.205,202.280 283.849,201.400 283.600 C 200.520 283.351,199.170 282.991,198.400 282.800 C 197.630 282.609,196.280 282.249,195.400 282.000 C 194.520 281.751,193.170 281.391,192.400 281.200 C 191.630 281.009,190.370 280.674,189.600 280.454 C 187.800 279.941,182.855 278.621,178.900 277.598 C 170.525 275.431,165.179 275.685,153.000 278.828 C 145.517 280.759,145.124 280.845,143.000 281.007 C 139.393 281.284,137.200 281.674,137.200 282.040 C 137.200 282.238,136.581 282.400,135.824 282.400 C 135.067 282.400,134.336 282.580,134.200 282.800 C 134.064 283.020,133.344 283.200,132.600 283.200 C 131.856 283.200,131.136 283.380,131.000 283.600 C 130.864 283.820,130.133 284.000,129.376 284.000 C 128.619 284.000,128.000 284.180,128.000 284.400 C 128.000 284.620,127.280 284.800,126.400 284.800 C 125.520 284.800,124.800 284.980,124.800 285.200 C 124.800 285.420,124.181 285.600,123.424 285.600 C 122.667 285.600,121.936 285.780,121.800 286.000 C 121.664 286.220,121.043 286.400,120.419 286.400 C 118.736 286.400,118.800 284.873,118.800 325.172 C 118.800 366.096,118.707 364.400,120.947 364.400 C 121.306 364.400,121.600 364.580,121.600 364.800 C 121.600 365.020,121.960 365.200,122.400 365.200 C 122.840 365.200,123.200 365.380,123.200 365.600 C 123.200 365.820,123.560 366.000,124.000 366.000 C 124.440 366.000,124.800 366.180,124.800 366.400 C 124.800 366.620,125.160 366.800,125.600 366.800 C 126.040 366.800,126.400 366.980,126.400 367.200 C 126.400 367.420,126.670 367.600,127.000 367.600 C 127.330 367.600,127.600 367.780,127.600 368.000 C 127.600 368.220,127.825 368.399,128.100 368.397 C 128.580 368.395,136.789 372.357,137.200 372.789 C 137.310 372.905,137.760 373.055,138.200 373.123 C 138.640 373.190,139.548 373.496,140.217 373.802 C 140.886 374.108,142.236 374.544,143.217 374.771 C 146.016 375.419,256.204 375.156,256.860 374.500 C 257.135 374.225,257.738 374.000,258.200 374.000 C 258.662 374.000,259.211 373.857,259.420 373.682 C 259.629 373.507,260.520 373.122,261.400 372.827 C 262.280 372.533,263.478 371.956,264.062 371.546 C 264.646 371.136,265.321 370.800,265.562 370.800 C 265.803 370.800,266.000 370.620,266.000 370.400 C 266.000 370.180,266.360 370.000,266.800 370.000 C 267.240 370.000,267.603 369.865,267.606 369.700 C 267.610 369.535,268.510 368.960,269.606 368.421 C 270.703 367.883,271.600 367.332,271.600 367.196 C 271.600 367.060,272.230 366.702,273.000 366.400 C 273.770 366.098,274.400 365.726,274.400 365.574 C 274.400 365.422,274.940 365.073,275.600 364.800 C 276.260 364.527,276.800 364.145,276.800 363.951 C 276.800 363.758,277.160 363.600,277.600 363.600 C 278.040 363.600,278.400 363.420,278.400 363.200 C 278.400 362.980,278.678 362.800,279.017 362.800 C 279.356 362.800,280.020 362.440,280.492 362.000 C 280.964 361.560,281.587 361.200,281.875 361.200 C 282.164 361.200,282.400 361.020,282.400 360.800 C 282.400 360.580,282.760 360.400,283.200 360.400 C 283.640 360.400,284.000 360.220,284.000 360.000 C 284.000 359.780,284.345 359.600,284.767 359.600 C 285.188 359.600,285.593 359.459,285.667 359.288 C 285.826 358.914,292.354 355.200,292.852 355.200 C 293.044 355.200,293.200 355.055,293.200 354.879 C 293.200 354.702,294.097 354.117,295.194 353.579 C 296.290 353.040,297.190 352.465,297.194 352.300 C 297.197 352.135,297.560 352.000,298.000 352.000 C 298.440 352.000,298.800 351.854,298.800 351.675 C 298.800 351.496,299.430 351.102,300.200 350.800 C 300.970 350.498,301.600 350.104,301.600 349.925 C 301.600 349.746,301.870 349.600,302.200 349.600 C 302.530 349.600,302.800 349.454,302.800 349.275 C 302.800 349.096,303.430 348.702,304.200 348.400 C 304.970 348.098,305.600 347.733,305.600 347.588 C 305.600 347.444,306.455 346.895,307.500 346.368 C 308.545 345.842,309.490 345.318,309.600 345.205 C 309.982 344.813,312.204 343.549,312.900 343.329 C 313.285 343.207,313.600 342.948,313.600 342.753 C 313.600 342.559,313.960 342.400,314.400 342.400 C 314.840 342.400,315.200 342.220,315.200 342.000 C 315.200 341.780,315.425 341.590,315.700 341.578 C 315.975 341.566,317.370 340.857,318.800 340.002 C 320.230 339.147,322.030 338.129,322.800 337.739 C 323.570 337.349,324.426 336.810,324.702 336.541 C 324.979 336.272,325.564 335.938,326.002 335.799 C 326.441 335.660,326.800 335.378,326.800 335.173 C 326.800 334.968,327.160 334.800,327.600 334.800 C 328.040 334.800,328.400 334.620,328.400 334.400 C 328.400 334.180,328.678 334.000,329.017 334.000 C 329.356 334.000,330.020 333.640,330.492 333.200 C 330.964 332.760,331.587 332.400,331.875 332.400 C 332.164 332.400,332.400 332.220,332.400 332.000 C 332.400 331.780,332.760 331.600,333.200 331.600 C 333.640 331.600,334.000 331.454,334.000 331.275 C 334.000 331.096,334.630 330.702,335.400 330.400 C 336.170 330.098,336.800 329.704,336.800 329.525 C 336.800 329.346,337.070 329.200,337.400 329.200 C 337.730 329.200,338.000 329.054,338.000 328.875 C 338.000 328.696,338.630 328.302,339.400 328.000 C 340.170 327.698,340.800 327.304,340.800 327.125 C 340.800 326.946,341.036 326.800,341.325 326.800 C 341.613 326.800,342.236 326.440,342.708 326.000 C 343.180 325.560,343.799 325.199,344.083 325.199 C 344.367 325.198,345.230 324.801,346.000 324.317 C 348.302 322.870,351.353 321.179,352.100 320.935 C 352.485 320.809,352.800 320.548,352.800 320.353 C 352.800 320.159,352.999 320.000,353.242 320.000 C 353.485 320.000,354.430 319.505,355.342 318.900 C 356.254 318.295,357.540 317.530,358.200 317.201 C 358.860 316.871,359.490 316.509,359.600 316.395 C 359.710 316.282,360.655 315.758,361.700 315.232 C 362.745 314.705,363.600 314.123,363.600 313.937 C 363.600 313.752,363.960 313.600,364.400 313.600 C 364.840 313.600,365.200 313.441,365.200 313.247 C 365.200 313.052,365.515 312.793,365.900 312.671 C 366.587 312.454,368.806 311.195,369.200 310.799 C 369.310 310.689,369.895 310.344,370.500 310.032 C 371.105 309.720,371.600 309.315,371.600 309.132 C 371.600 308.950,371.856 308.800,372.169 308.800 C 372.973 308.800,375.200 306.846,375.200 306.141 C 375.200 305.817,375.380 305.664,375.600 305.800 C 375.820 305.936,376.000 305.666,376.000 305.200 C 376.000 304.734,376.150 304.445,376.332 304.558 C 376.515 304.671,376.909 304.142,377.207 303.382 C 377.505 302.622,377.896 302.000,378.075 302.000 C 378.254 302.000,378.400 301.651,378.400 301.224 C 378.400 300.797,378.580 300.336,378.800 300.200 C 379.020 300.064,379.200 299.333,379.200 298.576 C 379.200 297.819,379.389 297.200,379.619 297.200 C 379.889 297.200,380.015 295.706,379.972 293.006 C 379.935 290.699,379.746 288.910,379.552 289.029 C 379.359 289.149,379.200 288.607,379.200 287.824 C 379.200 287.041,379.020 286.400,378.800 286.400 C 378.580 286.400,378.400 285.849,378.400 285.176 C 378.400 284.463,378.233 284.056,378.000 284.200 C 377.780 284.336,377.600 284.066,377.600 283.600 C 377.600 283.134,377.420 282.864,377.200 283.000 C 376.980 283.136,376.800 282.958,376.800 282.605 C 376.800 282.252,376.395 281.536,375.900 281.013 C 375.405 280.490,374.280 279.309,373.400 278.389 C 371.838 276.756,368.227 274.800,366.774 274.800 C 366.374 274.800,365.936 274.620,365.800 274.400 C 365.370 273.704,356.818 273.888,356.545 274.600 M195.800 309.200 C 195.936 309.420,196.566 309.600,197.200 309.600 C 197.834 309.600,198.464 309.780,198.600 310.000 C 198.736 310.220,199.467 310.400,200.224 310.400 C 200.981 310.400,201.600 310.580,201.600 310.800 C 201.600 311.020,202.230 311.200,203.000 311.200 C 203.770 311.200,204.400 311.380,204.400 311.600 C 204.400 311.820,205.120 312.000,206.000 312.000 C 206.880 312.000,207.600 312.180,207.600 312.400 C 207.600 312.620,208.129 312.800,208.776 312.800 C 209.423 312.800,210.064 312.980,210.200 313.200 C 210.336 313.420,211.067 313.600,211.824 313.600 C 212.581 313.600,213.200 313.780,213.200 314.000 C 213.200 314.220,213.819 314.400,214.576 314.400 C 215.333 314.400,216.064 314.580,216.200 314.800 C 216.336 315.020,216.966 315.200,217.600 315.200 C 218.234 315.200,218.864 315.380,219.000 315.600 C 219.136 315.820,219.766 316.000,220.400 316.000 C 221.034 316.000,221.664 316.180,221.800 316.400 C 221.936 316.620,222.667 316.800,223.424 316.800 C 224.181 316.800,224.800 316.980,224.800 317.200 C 224.800 317.420,225.419 317.600,226.176 317.600 C 226.933 317.600,227.652 317.760,227.773 317.956 C 227.894 318.151,228.624 318.421,229.396 318.556 C 230.168 318.690,231.432 318.910,232.204 319.044 C 232.976 319.179,233.706 319.449,233.827 319.644 C 233.948 319.840,234.566 320.000,235.200 320.000 C 235.834 320.000,236.464 320.180,236.600 320.400 C 236.736 320.620,237.456 320.800,238.200 320.800 C 238.944 320.800,239.664 320.980,239.800 321.200 C 239.936 321.420,240.566 321.600,241.200 321.600 C 241.834 321.600,242.449 321.756,242.567 321.946 C 242.684 322.136,243.460 322.399,244.290 322.529 C 245.121 322.660,247.150 323.160,248.800 323.640 C 250.450 324.121,252.925 324.706,254.300 324.940 C 255.675 325.173,256.800 325.507,256.800 325.682 C 256.800 325.857,257.419 326.000,258.176 326.000 C 258.933 326.000,259.664 326.180,259.800 326.400 C 259.936 326.620,260.656 326.800,261.400 326.800 C 262.144 326.800,262.864 326.980,263.000 327.200 C 263.136 327.420,264.666 327.600,266.400 327.600 C 268.134 327.600,269.664 327.420,269.800 327.200 C 269.936 326.980,270.667 326.800,271.424 326.800 C 272.181 326.800,272.800 326.620,272.800 326.400 C 272.800 326.180,273.137 326.000,273.550 326.000 C 275.679 326.000,282.262 320.666,283.210 318.172 L 283.637 317.050 284.249 318.225 C 284.660 319.013,284.785 319.959,284.630 321.100 C 284.504 322.035,284.292 323.610,284.160 324.600 C 284.028 325.590,283.758 326.400,283.560 326.400 C 283.362 326.400,283.200 326.634,283.200 326.920 C 283.200 327.656,282.259 329.593,281.900 329.597 C 281.735 329.599,281.598 329.825,281.595 330.100 C 281.589 330.761,278.253 334.205,276.770 335.081 C 276.127 335.461,275.600 335.914,275.600 336.086 C 275.600 336.259,275.240 336.400,274.800 336.400 C 274.360 336.400,274.000 336.580,274.000 336.800 C 274.000 337.020,273.561 337.200,273.024 337.200 C 272.487 337.200,271.936 337.380,271.800 337.600 C 271.664 337.820,270.944 338.000,270.200 338.000 C 269.456 338.000,268.736 338.180,268.600 338.400 C 268.464 338.620,267.283 338.800,265.976 338.800 C 264.659 338.800,263.600 338.622,263.600 338.400 C 263.600 338.180,262.891 338.000,262.024 338.000 C 261.157 338.000,260.336 337.820,260.200 337.600 C 260.064 337.380,259.333 337.200,258.576 337.200 C 257.819 337.200,257.200 337.020,257.200 336.800 C 257.200 336.580,256.581 336.400,255.824 336.400 C 255.067 336.400,254.336 336.220,254.200 336.000 C 254.064 335.780,253.434 335.600,252.800 335.600 C 252.166 335.600,251.536 335.420,251.400 335.200 C 251.264 334.980,250.634 334.800,250.000 334.800 C 249.366 334.800,248.736 334.620,248.600 334.400 C 248.464 334.180,247.744 334.000,247.000 334.000 C 246.256 334.000,245.536 333.820,245.400 333.600 C 245.264 333.380,244.533 333.200,243.776 333.200 C 243.019 333.200,242.400 333.040,242.400 332.844 C 242.400 332.648,241.815 332.391,241.100 332.272 C 238.940 331.915,237.443 331.558,236.600 331.200 C 236.160 331.013,235.305 330.757,234.700 330.630 C 234.095 330.504,233.105 330.296,232.500 330.170 C 231.895 330.043,231.040 329.786,230.600 329.597 C 229.447 329.103,225.003 327.977,222.133 327.451 C 220.776 327.202,219.531 326.864,219.366 326.699 C 219.201 326.535,218.567 326.400,217.957 326.400 C 217.347 326.400,216.736 326.220,216.600 326.000 C 216.464 325.780,215.733 325.600,214.976 325.600 C 214.219 325.600,213.600 325.420,213.600 325.200 C 213.600 324.980,212.880 324.800,212.000 324.800 C 211.120 324.800,210.400 324.620,210.400 324.400 C 210.400 324.180,209.871 324.000,209.224 324.000 C 208.577 324.000,207.936 323.820,207.800 323.600 C 207.664 323.380,206.933 323.200,206.176 323.200 C 205.419 323.200,204.800 323.020,204.800 322.800 C 204.800 322.580,204.170 322.400,203.400 322.400 C 202.630 322.400,202.000 322.220,202.000 322.000 C 202.000 321.780,201.280 321.600,200.400 321.600 C 199.520 321.600,198.800 321.420,198.800 321.200 C 198.800 320.980,198.271 320.800,197.624 320.800 C 196.977 320.800,196.336 320.620,196.200 320.400 C 196.064 320.180,195.333 320.000,194.576 320.000 C 193.819 320.000,193.200 319.820,193.200 319.600 C 193.200 319.380,192.909 319.200,192.553 319.200 C 191.171 319.200,189.613 316.749,189.606 314.564 C 189.599 312.175,191.171 309.640,192.676 309.615 C 193.158 309.607,193.664 309.420,193.800 309.200 C 193.936 308.980,194.386 308.800,194.800 308.800 C 195.214 308.800,195.664 308.980,195.800 309.200 " stroke="none" fill="#fabeaf" fill-rule="evenodd"></path><path id="path3" d="M250.113 143.741 C 249.997 143.929,255.519 155.314,262.386 169.041 L 274.869 194.000 315.666 194.000 L 356.463 194.000 356.263 196.900 C 355.476 208.287,352.329 223.938,349.527 230.400 C 349.288 230.950,348.937 231.805,348.746 232.300 C 347.847 234.637,347.643 235.130,346.803 237.000 C 345.407 240.110,343.649 243.508,341.217 247.800 C 340.256 249.495,334.461 258.061,334.045 258.400 C 333.910 258.510,333.177 259.410,332.416 260.400 C 328.906 264.964,321.519 272.354,316.813 276.012 C 315.831 276.775,314.573 277.805,314.017 278.300 C 313.462 278.795,312.884 279.200,312.733 279.200 C 312.581 279.200,312.219 279.434,311.929 279.719 C 309.173 282.425,295.950 289.659,288.800 292.372 C 286.930 293.082,285.087 293.828,284.705 294.031 C 284.323 294.234,283.659 294.400,283.229 294.400 C 282.799 294.400,282.349 294.559,282.229 294.754 C 282.108 294.949,281.513 295.207,280.905 295.329 C 279.458 295.619,277.124 296.184,274.400 296.904 C 273.190 297.224,270.850 297.702,269.200 297.968 C 264.356 298.747,261.570 299.303,261.727 299.460 C 261.860 299.594,263.165 299.951,270.190 301.781 C 276.213 303.349,281.170 307.223,283.599 312.259 L 284.849 314.850 286.324 313.965 C 287.136 313.479,288.520 312.702,289.400 312.240 C 290.280 311.778,291.090 311.310,291.200 311.200 C 291.396 311.004,291.862 310.731,294.755 309.120 C 295.550 308.677,296.380 308.173,296.600 308.000 C 297.034 307.659,298.941 306.568,302.400 304.683 C 303.610 304.024,304.780 303.350,305.000 303.185 C 305.220 303.020,306.030 302.529,306.800 302.093 C 308.699 301.018,315.870 296.902,317.600 295.893 C 318.370 295.444,319.720 294.700,320.600 294.238 C 321.480 293.777,322.290 293.310,322.400 293.200 C 322.510 293.090,323.030 292.758,323.555 292.462 C 325.544 291.342,327.110 290.439,330.600 288.395 C 338.201 283.946,344.522 280.400,344.854 280.400 C 345.044 280.400,345.200 280.241,345.200 280.047 C 345.200 279.852,345.515 279.590,345.900 279.464 C 346.285 279.338,347.410 278.752,348.400 278.161 C 351.872 276.089,352.829 275.600,353.412 275.600 C 353.735 275.600,354.000 275.420,354.000 275.200 C 354.000 274.980,354.521 274.800,355.157 274.800 C 356.870 274.800,356.800 276.540,356.800 233.767 L 356.800 194.000 369.200 194.000 L 381.600 194.000 381.600 193.000 C 381.600 192.450,381.420 192.000,381.200 192.000 C 380.980 192.000,380.800 191.640,380.800 191.200 C 380.800 190.760,380.620 190.400,380.400 190.400 C 380.180 190.400,380.000 190.040,380.000 189.600 C 380.000 189.160,379.820 188.800,379.600 188.800 C 379.380 188.800,379.200 188.440,379.200 188.000 C 379.200 187.560,379.020 187.200,378.800 187.200 C 378.580 187.200,378.400 186.840,378.400 186.400 C 378.400 185.960,378.220 185.600,378.000 185.600 C 377.780 185.600,377.600 185.240,377.600 184.800 C 377.600 184.360,377.420 184.000,377.200 184.000 C 376.980 184.000,376.800 183.640,376.800 183.200 C 376.800 182.760,376.620 182.400,376.400 182.400 C 376.180 182.400,376.000 182.040,376.000 181.600 C 376.000 181.160,375.820 180.800,375.600 180.800 C 375.380 180.800,375.200 180.520,375.200 180.177 C 375.200 179.834,374.750 178.748,374.200 177.763 C 373.650 176.778,373.200 175.708,373.200 175.386 C 373.200 175.064,373.020 174.800,372.800 174.800 C 372.580 174.800,372.400 174.440,372.400 174.000 C 372.400 173.560,372.220 173.200,372.000 173.200 C 371.780 173.200,371.600 172.840,371.600 172.400 C 371.600 171.960,371.420 171.600,371.200 171.600 C 370.980 171.600,370.800 171.240,370.800 170.800 C 370.800 170.360,370.620 170.000,370.400 170.000 C 370.180 170.000,370.000 169.640,370.000 169.200 C 370.000 168.760,369.820 168.400,369.600 168.400 C 369.380 168.400,369.200 168.040,369.200 167.600 C 369.200 167.160,369.020 166.800,368.800 166.800 C 368.580 166.800,368.400 166.440,368.400 166.000 C 368.400 165.560,368.220 165.200,368.000 165.200 C 367.780 165.200,367.600 164.840,367.600 164.400 C 367.600 163.960,367.420 163.600,367.200 163.600 C 366.980 163.600,366.800 163.240,366.800 162.800 C 366.800 162.360,366.620 162.000,366.400 162.000 C 366.180 162.000,366.000 161.640,366.000 161.200 C 366.000 160.760,365.820 160.400,365.600 160.400 C 365.380 160.400,365.200 160.130,365.200 159.800 C 365.200 159.470,365.020 159.200,364.800 159.200 C 364.580 159.200,364.400 158.840,364.400 158.400 C 364.400 157.960,364.220 157.600,364.000 157.600 C 363.780 157.600,363.600 157.240,363.600 156.800 C 363.600 156.360,363.420 156.000,363.200 156.000 C 362.980 156.000,362.800 155.640,362.800 155.200 C 362.800 154.760,362.620 154.400,362.400 154.400 C 362.180 154.400,362.000 154.040,362.000 153.600 C 362.000 153.160,361.820 152.800,361.600 152.800 C 361.380 152.800,361.200 152.440,361.200 152.000 C 361.200 151.560,361.020 151.200,360.800 151.200 C 360.580 151.200,360.400 150.840,360.400 150.400 C 360.400 149.960,360.220 149.600,360.000 149.600 C 359.780 149.600,359.600 149.240,359.600 148.800 C 359.600 148.360,359.420 148.000,359.200 148.000 C 358.980 148.000,358.802 147.775,358.803 147.500 C 358.805 147.225,358.424 146.190,357.957 145.200 L 357.106 143.400 303.715 143.400 C 274.350 143.400,250.229 143.554,250.113 143.741 " stroke="none" fill="#8c5c3c" fill-rule="evenodd"></path><path id="path4" d="M153.600 25.800 C 152.912 26.193,152.803 26.376,153.251 26.386 C 153.609 26.394,154.126 26.130,154.400 25.800 C 155.009 25.066,154.884 25.066,153.600 25.800 M210.400 27.105 C 210.400 27.327,210.844 27.799,211.386 28.154 C 213.212 29.350,213.026 28.766,211.098 27.251 C 210.714 26.949,210.400 26.883,210.400 27.105 M150.456 28.013 C 149.216 29.046,149.775 29.035,151.091 28.000 C 151.650 27.560,151.949 27.206,151.754 27.213 C 151.559 27.221,150.975 27.581,150.456 28.013 M214.567 30.617 C 216.616 32.426,217.239 32.412,215.318 30.600 C 214.501 29.830,213.646 29.207,213.417 29.217 C 213.187 29.226,213.705 29.856,214.567 30.617 M147.433 30.446 C 146.842 30.911,146.455 31.388,146.573 31.506 C 146.691 31.624,147.265 31.244,147.848 30.661 C 149.123 29.386,148.916 29.279,147.433 30.446 M145.260 32.266 C 144.962 32.589,144.830 32.964,144.966 33.100 C 145.301 33.434,146.127 32.570,145.945 32.074 C 145.865 31.856,145.557 31.942,145.260 32.266 M218.417 34.293 C 219.398 35.333,220.245 36.263,220.300 36.359 C 220.355 36.455,220.400 36.338,220.400 36.099 C 220.400 35.597,217.417 32.400,216.948 32.400 C 216.775 32.400,217.436 33.252,218.417 34.293 M144.000 33.505 C 144.000 33.746,143.775 34.181,143.500 34.473 C 142.434 35.603,141.917 36.400,142.251 36.397 C 142.758 36.393,144.563 33.629,144.258 33.324 C 144.116 33.183,144.000 33.264,144.000 33.505 M221.214 37.469 C 221.234 37.923,223.196 40.285,223.198 39.858 C 223.199 39.670,222.750 38.981,222.200 38.327 C 221.650 37.673,221.206 37.287,221.214 37.469 M287.200 72.029 C 287.200 82.482,287.088 83.200,285.452 83.200 C 285.119 83.200,284.738 83.377,284.605 83.592 C 284.471 83.808,281.039 80.658,276.976 76.592 C 272.914 72.527,269.397 69.200,269.161 69.200 C 268.622 69.200,250.400 87.422,250.400 87.961 C 250.400 88.177,251.141 89.040,252.047 89.877 C 252.952 90.715,254.977 92.716,256.547 94.324 C 258.116 95.933,260.741 98.621,262.380 100.298 C 264.019 101.975,265.144 103.419,264.880 103.507 C 264.616 103.595,264.400 103.935,264.400 104.262 C 264.400 105.887,263.671 106.000,253.229 106.000 L 243.200 106.000 243.200 118.800 L 243.200 131.600 253.229 131.600 C 263.671 131.600,264.400 131.713,264.400 133.338 C 264.400 133.665,264.610 134.003,264.867 134.089 C 265.124 134.175,263.774 135.829,261.867 137.767 C 259.960 139.704,258.400 141.437,258.400 141.617 C 258.400 141.798,258.040 142.060,257.600 142.200 C 257.160 142.340,256.800 142.712,256.800 143.027 C 256.800 143.521,262.770 143.600,300.000 143.600 C 337.230 143.600,343.200 143.521,343.200 143.027 C 343.200 142.712,342.840 142.340,342.400 142.200 C 341.960 142.060,341.600 141.781,341.600 141.579 C 341.600 141.377,340.034 139.646,338.121 137.732 C 336.207 135.819,334.857 134.181,335.121 134.093 C 335.384 134.005,335.600 133.665,335.600 133.338 C 335.600 131.713,336.329 131.600,346.771 131.600 L 356.800 131.600 356.800 118.807 L 356.800 106.014 346.543 105.907 C 335.455 105.791,336.362 105.967,335.271 103.723 C 334.921 103.002,339.138 98.410,348.100 89.752 C 348.925 88.955,349.600 88.138,349.600 87.935 C 349.600 87.420,331.365 69.200,330.850 69.200 C 330.619 69.200,327.102 72.527,323.034 76.593 C 318.966 80.659,315.529 83.809,315.395 83.593 C 315.262 83.377,314.881 83.200,314.548 83.200 C 312.912 83.200,312.800 82.482,312.800 72.029 L 312.800 62.000 300.000 62.000 L 287.200 62.000 287.200 72.029 M173.883 75.551 C 174.805 76.437,175.425 76.687,175.001 76.002 C 174.866 75.783,174.360 75.401,173.878 75.153 L 173.000 74.701 173.883 75.551 M223.618 96.366 C 223.373 96.825,223.339 97.200,223.543 97.200 C 223.954 97.200,224.522 95.988,224.242 95.708 C 224.144 95.611,223.864 95.907,223.618 96.366 M222.237 98.600 C 221.876 99.150,221.737 99.600,221.927 99.600 C 222.116 99.600,222.477 99.150,222.727 98.600 C 222.978 98.050,223.117 97.600,223.037 97.600 C 222.957 97.600,222.597 98.050,222.237 98.600 M306.826 101.093 C 326.140 108.608,320.851 137.600,300.165 137.600 C 279.011 137.600,273.757 109.080,293.423 100.996 C 296.995 99.528,302.911 99.570,306.826 101.093 M142.800 102.229 C 142.800 102.527,143.875 103.600,144.175 103.600 C 144.302 103.600,144.182 103.240,143.907 102.800 C 143.438 102.049,142.800 101.720,142.800 102.229 M145.695 105.384 C 146.394 106.145,147.050 106.683,147.153 106.580 C 147.382 106.352,145.179 104.000,144.738 104.000 C 144.565 104.000,144.996 104.623,145.695 105.384 M216.096 105.600 C 215.180 106.480,214.559 107.195,214.715 107.189 C 215.142 107.173,218.525 104.000,218.115 104.000 C 217.920 104.000,217.012 104.720,216.096 105.600 " stroke="none" fill="#ec1c24" fill-rule="evenodd"></path></g></svg>