<svg id="svg" version="1.1" xmlns="http://www.w3.org/2000/svg" xmlns:xlink="http://www.w3.org/1999/xlink" width="400" height="400" viewBox="0, 0, 400,400"><g id="svgg"><path id="path0" d="M96.460 196.651 C 95.943 197.202,95.596 197.729,95.689 197.822 C 95.782 197.915,96.374 197.454,97.004 196.796 C 97.634 196.138,97.981 195.611,97.775 195.624 C 97.569 195.638,96.977 196.100,96.460 196.651 M360.400 204.525 C 360.400 204.594,360.985 205.179,361.700 205.825 L 363.000 207.000 361.825 205.700 C 360.730 204.488,360.400 204.216,360.400 204.525 M123.660 207.451 C 123.143 208.002,122.796 208.529,122.889 208.622 C 122.982 208.715,123.574 208.254,124.204 207.596 C 124.834 206.938,125.181 206.411,124.975 206.424 C 124.769 206.438,124.177 206.900,123.660 207.451 M80.086 213.024 C 79.583 213.561,79.327 214.000,79.516 214.000 C 79.706 214.000,80.283 213.550,80.800 213.000 C 81.317 212.450,81.573 212.011,81.370 212.024 C 81.166 212.038,80.589 212.488,80.086 213.024 M107.260 223.851 C 106.743 224.402,106.396 224.929,106.489 225.022 C 106.582 225.115,107.174 224.654,107.804 223.996 C 108.434 223.338,108.781 222.811,108.575 222.824 C 108.369 222.838,107.777 223.300,107.260 223.851 M62.860 230.280 C 62.343 230.815,61.997 231.330,62.092 231.425 C 62.186 231.519,62.685 231.148,63.200 230.600 C 63.715 230.052,64.061 229.537,63.968 229.455 C 63.876 229.374,63.377 229.745,62.860 230.280 M180.800 237.367 C 180.800 237.788,182.005 238.928,182.221 238.712 C 182.322 238.611,182.044 238.202,181.602 237.802 C 181.161 237.403,180.800 237.207,180.800 237.367 M90.460 240.642 C 90.162 240.978,89.999 241.332,90.095 241.429 C 90.192 241.526,90.598 241.244,90.998 240.802 C 91.397 240.361,91.561 240.007,91.362 240.015 C 91.163 240.024,90.757 240.305,90.460 240.642 M46.462 246.658 C 45.506 247.648,44.797 248.530,44.886 248.619 C 44.975 248.709,45.931 247.886,47.009 246.791 C 48.088 245.696,48.797 244.813,48.585 244.829 C 48.373 244.845,47.418 245.668,46.462 246.658 M198.000 254.567 C 198.000 254.988,199.205 256.128,199.421 255.912 C 199.522 255.811,199.244 255.402,198.802 255.002 C 198.361 254.603,198.000 254.407,198.000 254.567 M73.660 257.451 C 73.143 258.002,72.796 258.529,72.889 258.622 C 72.982 258.715,73.574 258.254,74.204 257.596 C 74.834 256.938,75.181 256.411,74.975 256.424 C 74.769 256.438,74.177 256.900,73.660 257.451 M240.000 258.567 C 240.000 258.988,241.205 260.128,241.421 259.912 C 241.522 259.811,241.244 259.402,240.802 259.002 C 240.361 258.603,240.000 258.407,240.000 258.567 M30.891 262.229 C 29.951 263.203,29.328 264.000,29.507 264.000 C 29.687 264.000,30.628 263.190,31.600 262.200 C 32.572 261.210,33.194 260.413,32.983 260.429 C 32.772 260.445,31.831 261.255,30.891 262.229 M28.060 265.042 C 27.762 265.378,27.599 265.732,27.695 265.829 C 27.792 265.926,28.198 265.644,28.598 265.202 C 28.997 264.761,29.161 264.407,28.962 264.415 C 28.763 264.424,28.357 264.705,28.060 265.042 M210.400 266.935 C 210.400 267.095,211.030 267.857,211.800 268.627 C 212.570 269.397,213.200 269.876,213.200 269.692 C 213.200 269.508,212.570 268.746,211.800 268.000 C 211.030 267.254,210.400 266.774,210.400 266.935 M214.400 270.967 C 214.400 271.388,215.605 272.528,215.821 272.312 C 215.922 272.211,215.644 271.802,215.202 271.402 C 214.761 271.003,214.400 270.807,214.400 270.967 M57.260 273.851 C 56.743 274.402,56.396 274.929,56.489 275.022 C 56.582 275.115,57.174 274.654,57.804 273.996 C 58.434 273.338,58.781 272.811,58.575 272.824 C 58.369 272.838,57.777 273.300,57.260 273.851 M228.089 284.942 C 228.810 285.680,229.477 286.218,229.571 286.138 C 229.802 285.940,227.537 283.600,227.114 283.600 C 226.929 283.600,227.367 284.204,228.089 284.942 M230.800 287.343 C 230.800 287.756,232.812 289.722,233.020 289.513 C 233.114 289.419,232.654 288.826,231.996 288.196 C 231.338 287.566,230.800 287.182,230.800 287.343 M40.460 290.642 C 40.162 290.978,39.999 291.332,40.095 291.429 C 40.192 291.526,40.598 291.244,40.998 290.802 C 41.397 290.361,41.561 290.007,41.362 290.015 C 41.163 290.024,40.757 290.305,40.460 290.642 M34.593 296.407 C 33.737 297.283,33.170 298.000,33.332 298.000 C 33.740 298.000,36.519 295.186,36.314 294.981 C 36.223 294.889,35.448 295.531,34.593 296.407 M29.600 301.400 C 28.854 302.170,28.374 302.800,28.535 302.800 C 28.695 302.800,29.457 302.170,30.227 301.400 C 30.997 300.630,31.476 300.000,31.292 300.000 C 31.108 300.000,30.346 300.630,29.600 301.400 M246.527 303.300 C 248.364 305.115,250.481 307.136,251.233 307.791 C 251.985 308.445,250.623 306.960,248.207 304.491 C 245.791 302.021,243.673 300.000,243.501 300.000 C 243.329 300.000,244.691 301.485,246.527 303.300 M253.600 309.825 C 253.600 310.125,254.673 311.200,254.971 311.200 C 255.480 311.200,255.151 310.562,254.400 310.093 C 253.960 309.818,253.600 309.698,253.600 309.825 M24.879 334.924 C 24.828 337.190,24.943 338.359,25.200 338.200 C 25.420 338.064,25.600 338.146,25.600 338.382 C 25.600 338.681,21.860 338.779,13.300 338.706 C 1.841 338.607,1.008 338.552,1.118 337.900 C 1.182 337.515,0.987 337.200,0.684 337.200 C 0.017 337.200,-0.060 338.381,0.555 339.177 C 0.899 339.623,0.881 339.682,0.473 339.437 C -0.184 339.041,0.123 351.083,0.787 351.747 C 1.014 351.974,1.200 352.754,1.200 353.480 C 1.200 354.206,1.380 354.800,1.600 354.800 C 1.820 354.800,2.000 355.329,2.000 355.976 C 2.000 356.623,2.180 357.264,2.400 357.400 C 2.620 357.536,2.800 358.087,2.800 358.624 C 2.800 359.161,2.980 359.600,3.200 359.600 C 3.420 359.600,3.600 360.039,3.600 360.576 C 3.600 361.113,3.780 361.664,4.000 361.800 C 4.220 361.936,4.400 362.397,4.400 362.824 C 4.400 363.251,4.580 363.600,4.800 363.600 C 5.020 363.600,5.200 363.960,5.200 364.400 C 5.200 364.840,5.380 365.200,5.600 365.200 C 5.820 365.200,6.000 365.560,6.000 366.000 C 6.000 366.440,6.180 366.800,6.400 366.800 C 6.620 366.800,6.800 367.160,6.800 367.600 C 6.800 368.040,6.980 368.400,7.200 368.400 C 7.420 368.400,7.600 368.636,7.600 368.925 C 7.600 369.213,7.915 369.805,8.300 370.240 C 8.685 370.675,9.051 371.268,9.114 371.558 C 9.177 371.848,9.492 372.349,9.814 372.671 C 10.136 372.994,10.400 373.426,10.400 373.632 C 10.400 373.839,10.940 374.572,11.600 375.263 C 12.260 375.954,12.800 376.674,12.800 376.863 C 12.800 377.313,22.687 387.200,23.137 387.200 C 23.326 387.200,24.017 387.695,24.672 388.300 C 25.326 388.905,26.208 389.618,26.631 389.884 C 28.659 391.160,30.936 392.400,31.250 392.400 C 31.443 392.400,31.600 392.580,31.600 392.800 C 31.600 393.020,31.960 393.200,32.400 393.200 C 32.840 393.200,33.200 393.380,33.200 393.600 C 33.200 393.820,33.560 394.000,34.000 394.000 C 34.440 394.000,34.800 394.180,34.800 394.400 C 34.800 394.620,35.160 394.800,35.600 394.800 C 36.040 394.800,36.400 394.980,36.400 395.200 C 36.400 395.420,36.749 395.600,37.176 395.600 C 37.603 395.600,38.064 395.780,38.200 396.000 C 38.336 396.220,38.887 396.400,39.424 396.400 C 39.961 396.400,40.400 396.580,40.400 396.800 C 40.400 397.020,40.839 397.200,41.376 397.200 C 41.913 397.200,42.464 397.380,42.600 397.600 C 42.736 397.820,43.377 398.000,44.024 398.000 C 44.671 398.000,45.200 398.180,45.200 398.400 C 45.200 398.620,45.794 398.800,46.520 398.800 C 47.246 398.800,48.065 399.025,48.340 399.300 C 48.738 399.698,79.605 399.800,200.000 399.800 C 320.395 399.800,351.262 399.698,351.660 399.300 C 351.935 399.025,352.754 398.800,353.480 398.800 C 354.206 398.800,354.800 398.620,354.800 398.400 C 354.800 398.180,355.329 398.000,355.976 398.000 C 356.623 398.000,357.264 397.820,357.400 397.600 C 357.536 397.380,358.087 397.200,358.624 397.200 C 359.161 397.200,359.600 397.020,359.600 396.800 C 359.600 396.580,360.039 396.400,360.576 396.400 C 361.113 396.400,361.664 396.220,361.800 396.000 C 361.936 395.780,362.397 395.600,362.824 395.600 C 363.251 395.600,363.600 395.420,363.600 395.200 C 363.600 394.980,363.960 394.800,364.400 394.800 C 364.840 394.800,365.200 394.620,365.200 394.400 C 365.200 394.180,365.560 394.000,366.000 394.000 C 366.440 394.000,366.800 393.820,366.800 393.600 C 366.800 393.380,367.160 393.200,367.600 393.200 C 368.040 393.200,368.400 393.064,368.400 392.898 C 368.400 392.731,369.276 392.193,370.348 391.702 C 371.419 391.210,372.521 390.537,372.797 390.204 C 373.072 389.872,373.458 389.600,373.653 389.600 C 373.848 389.600,374.572 389.060,375.263 388.400 C 375.954 387.740,376.674 387.200,376.863 387.200 C 377.313 387.200,387.200 377.313,387.200 376.863 C 387.200 376.674,387.740 375.954,388.400 375.263 C 389.060 374.572,389.600 373.848,389.600 373.653 C 389.600 373.458,389.872 373.072,390.204 372.797 C 390.537 372.521,391.210 371.419,391.702 370.348 C 392.193 369.276,392.731 368.400,392.898 368.400 C 393.064 368.400,393.200 368.040,393.200 367.600 C 393.200 367.160,393.380 366.800,393.600 366.800 C 393.820 366.800,394.000 366.440,394.000 366.000 C 394.000 365.560,394.180 365.200,394.400 365.200 C 394.620 365.200,394.800 364.840,394.800 364.400 C 394.800 363.960,394.980 363.600,395.200 363.600 C 395.420 363.600,395.600 363.251,395.600 362.824 C 395.600 362.397,395.780 361.936,396.000 361.800 C 396.220 361.664,396.400 361.113,396.400 360.576 C 396.400 360.039,396.580 359.600,396.800 359.600 C 397.020 359.600,397.200 359.161,397.200 358.624 C 397.200 358.087,397.380 357.536,397.600 357.400 C 397.820 357.264,398.000 356.623,398.000 355.976 C 398.000 355.329,398.180 354.800,398.400 354.800 C 398.620 354.800,398.800 354.206,398.800 353.480 C 398.800 352.754,398.986 351.974,399.213 351.747 C 399.789 351.171,400.174 339.355,399.627 339.017 C 399.395 338.873,393.579 338.754,386.703 338.752 C 379.826 338.750,374.425 338.655,374.700 338.541 C 375.055 338.394,375.177 337.326,375.121 334.867 L 375.041 331.400 374.903 334.300 C 374.827 335.895,374.602 337.200,374.402 337.200 C 374.203 337.200,374.040 338.757,374.040 340.660 C 374.040 342.563,373.851 344.309,373.620 344.540 C 373.389 344.771,373.200 345.464,373.200 346.080 C 373.200 346.696,373.020 347.200,372.800 347.200 C 372.580 347.200,372.400 347.740,372.400 348.400 C 372.400 349.060,372.220 349.600,372.000 349.600 C 371.780 349.600,371.600 350.140,371.600 350.800 C 371.600 351.460,371.420 352.000,371.200 352.000 C 370.980 352.000,370.800 352.278,370.800 352.617 C 370.800 352.956,370.440 353.620,370.000 354.092 C 369.560 354.564,369.200 355.187,369.200 355.475 C 369.200 355.764,369.020 356.000,368.800 356.000 C 368.580 356.000,368.400 356.278,368.400 356.617 C 368.400 356.956,368.040 357.620,367.600 358.092 C 367.160 358.564,366.800 359.198,366.800 359.499 C 366.800 359.801,366.663 359.962,366.495 359.858 C 366.327 359.755,365.652 360.309,364.995 361.091 C 363.498 362.870,362.870 363.498,361.091 364.995 C 360.309 365.652,359.755 366.327,359.858 366.495 C 359.962 366.663,359.801 366.800,359.499 366.800 C 359.198 366.800,358.564 367.160,358.092 367.600 C 357.620 368.040,356.956 368.400,356.617 368.400 C 356.278 368.400,356.000 368.580,356.000 368.800 C 356.000 369.020,355.764 369.200,355.475 369.200 C 355.187 369.200,354.564 369.560,354.092 370.000 C 353.620 370.440,352.956 370.800,352.617 370.800 C 352.278 370.800,352.000 370.980,352.000 371.200 C 352.000 371.420,351.460 371.600,350.800 371.600 C 350.140 371.600,349.600 371.780,349.600 372.000 C 349.600 372.220,349.060 372.400,348.400 372.400 C 347.740 372.400,347.200 372.580,347.200 372.800 C 347.200 373.020,346.671 373.200,346.024 373.200 C 345.377 373.200,344.736 373.380,344.600 373.600 C 344.464 373.820,342.743 374.000,340.776 374.000 C 338.659 374.000,337.200 374.163,337.200 374.400 C 337.200 374.666,291.200 374.800,200.000 374.800 C 108.800 374.800,62.800 374.666,62.800 374.400 C 62.800 374.163,61.341 374.000,59.224 374.000 C 57.257 374.000,55.536 373.820,55.400 373.600 C 55.264 373.380,54.623 373.200,53.976 373.200 C 53.329 373.200,52.800 373.020,52.800 372.800 C 52.800 372.580,52.260 372.400,51.600 372.400 C 50.940 372.400,50.400 372.220,50.400 372.000 C 50.400 371.780,49.860 371.600,49.200 371.600 C 48.540 371.600,48.000 371.420,48.000 371.200 C 48.000 370.980,47.722 370.800,47.383 370.800 C 47.044 370.800,46.380 370.440,45.908 370.000 C 45.436 369.560,44.813 369.200,44.525 369.200 C 44.236 369.200,44.000 369.020,44.000 368.800 C 44.000 368.580,43.717 368.400,43.371 368.400 C 43.026 368.400,42.500 368.175,42.203 367.900 C 41.906 367.625,40.728 366.590,39.585 365.600 C 37.004 363.364,36.499 362.867,35.005 361.091 C 34.348 360.309,33.673 359.755,33.505 359.858 C 33.337 359.962,33.200 359.801,33.200 359.499 C 33.200 359.198,32.840 358.564,32.400 358.092 C 31.960 357.620,31.600 356.956,31.600 356.617 C 31.600 356.278,31.420 356.000,31.200 356.000 C 30.980 356.000,30.800 355.764,30.800 355.475 C 30.800 355.187,30.440 354.564,30.000 354.092 C 29.560 353.620,29.200 352.956,29.200 352.617 C 29.200 352.278,29.020 352.000,28.800 352.000 C 28.580 352.000,28.400 351.460,28.400 350.800 C 28.400 350.140,28.220 349.600,28.000 349.600 C 27.780 349.600,27.600 349.060,27.600 348.400 C 27.600 347.740,27.420 347.200,27.200 347.200 C 26.980 347.200,26.800 346.696,26.800 346.080 C 26.800 345.464,26.604 344.764,26.365 344.525 C 26.118 344.278,25.934 342.606,25.940 340.645 C 25.945 338.750,25.789 337.200,25.592 337.200 C 25.396 337.200,25.173 335.895,25.097 334.300 L 24.959 331.400 24.879 334.924 M398.800 337.551 C 398.800 337.744,399.060 338.118,399.377 338.381 C 399.851 338.774,399.944 338.711,399.892 338.030 C 399.833 337.249,398.800 336.796,398.800 337.551 " stroke="none" fill="#ec433c" fill-rule="evenodd"></path><path id="path1" d="M302.400 108.702 C 302.400 108.899,302.890 109.497,303.488 110.030 C 304.286 110.742,304.419 110.787,303.988 110.202 C 303.050 108.928,302.400 108.314,302.400 108.702 M250.247 130.833 C 249.172 131.930,248.373 132.906,248.470 133.003 C 248.567 133.101,249.620 132.195,250.810 130.990 C 251.999 129.786,252.799 128.809,252.586 128.820 C 252.374 128.831,251.321 129.737,250.247 130.833 M286.400 131.638 C 285.935 131.969,286.040 132.013,286.865 131.833 C 287.697 131.653,288.138 131.843,288.875 132.701 C 290.154 134.189,291.687 135.382,290.800 134.200 C 288.884 131.646,287.513 130.848,286.400 131.638 M284.062 134.258 C 283.106 135.248,282.397 136.130,282.486 136.219 C 282.575 136.309,283.531 135.486,284.609 134.391 C 285.688 133.296,286.397 132.413,286.185 132.429 C 285.973 132.445,285.018 133.268,284.062 134.258 M326.000 132.574 C 326.000 132.674,326.650 133.440,327.445 134.278 C 328.820 135.727,328.856 135.741,328.198 134.567 C 327.601 133.503,326.000 132.051,326.000 132.574 M246.000 135.109 C 244.116 136.993,244.559 136.987,246.774 135.098 C 247.484 134.492,248.006 133.842,247.933 133.652 C 247.860 133.463,246.990 134.118,246.000 135.109 M329.200 135.713 C 329.200 136.002,333.046 139.901,334.218 140.800 C 334.955 141.365,334.966 141.356,334.407 140.647 C 333.223 139.143,329.200 135.331,329.200 135.713 M293.258 137.241 C 293.996 137.924,295.455 139.286,296.500 140.269 C 297.545 141.251,298.400 141.939,298.400 141.797 C 298.400 141.410,292.679 136.000,292.270 136.000 C 292.075 136.000,292.519 136.559,293.258 137.241 M277.010 141.190 C 275.710 142.504,274.725 143.646,274.823 143.727 C 274.920 143.809,276.128 142.733,277.507 141.338 C 278.886 139.942,279.870 138.800,279.694 138.800 C 279.519 138.800,278.311 139.875,277.010 141.190 M24.898 145.500 L 24.800 149.600 12.400 149.600 L 0.000 149.600 0.000 197.600 L 0.000 245.600 12.357 245.600 L 24.714 245.600 24.980 238.700 C 25.126 234.905,25.190 211.460,25.121 186.600 C 25.053 161.740,24.952 143.245,24.898 145.500 M374.786 161.127 L 374.600 180.853 372.875 179.127 C 371.926 178.177,365.681 171.922,358.997 165.227 C 352.313 158.531,346.548 153.010,346.186 152.957 C 345.823 152.904,345.408 152.728,345.263 152.566 C 345.119 152.405,345.360 152.402,345.800 152.561 C 346.374 152.768,346.211 152.447,345.223 151.426 C 344.201 150.370,343.752 150.131,343.485 150.501 C 343.231 150.853,343.188 150.802,343.338 150.329 C 343.456 149.960,343.293 149.443,342.976 149.180 C 342.659 148.917,342.400 148.874,342.400 149.084 C 342.400 149.295,342.130 149.467,341.800 149.467 C 341.470 149.467,341.200 149.295,341.200 149.084 C 341.200 148.870,340.967 148.896,340.670 149.142 C 339.752 149.904,308.460 149.960,308.271 149.200 C 308.169 148.789,307.993 148.915,307.714 149.600 C 307.314 150.580,307.225 150.517,303.244 146.442 C 301.010 144.156,299.106 142.360,299.015 142.452 C 298.600 142.867,307.300 151.137,307.906 150.904 C 308.375 150.724,308.472 150.834,308.282 151.331 C 308.141 151.699,308.184 152.000,308.379 152.000 C 308.574 152.000,308.824 151.775,308.935 151.500 C 309.081 151.139,309.146 151.133,309.168 151.476 C 309.186 151.738,309.046 152.048,308.857 152.165 C 308.541 152.360,331.846 175.953,333.200 176.809 C 333.530 177.017,333.687 177.191,333.548 177.194 C 333.222 177.202,341.098 184.958,341.611 185.133 C 341.825 185.207,342.000 185.440,342.000 185.652 C 342.000 185.863,342.450 186.486,343.000 187.036 C 343.550 187.586,344.000 187.952,344.000 187.849 C 344.000 187.555,358.184 201.958,358.334 202.405 C 358.408 202.625,358.633 202.703,358.834 202.579 C 359.035 202.455,359.200 202.633,359.200 202.976 C 359.200 203.319,359.377 203.600,359.593 203.600 C 359.964 203.600,362.402 205.959,367.072 210.836 C 369.285 213.147,370.765 214.400,371.281 214.400 C 371.457 214.400,371.555 214.625,371.500 214.900 C 371.445 215.175,371.625 215.355,371.900 215.300 C 372.175 215.245,372.400 215.500,372.400 215.867 C 372.400 216.233,372.517 216.417,372.660 216.274 C 372.802 216.131,373.342 216.506,373.859 217.107 C 374.782 218.181,374.799 218.351,374.801 226.800 C 374.802 231.530,374.920 237.695,375.063 240.500 L 375.323 245.600 387.662 245.600 L 400.000 245.600 400.000 197.600 L 400.000 149.600 387.614 149.600 L 375.228 149.600 375.100 145.500 C 375.030 143.245,374.889 150.277,374.786 161.127 M336.000 142.280 C 336.000 142.480,336.609 143.309,337.354 144.122 C 338.099 144.935,338.594 145.606,338.454 145.613 C 338.314 145.621,338.625 145.981,339.144 146.413 C 339.664 146.846,339.934 147.201,339.744 147.202 C 339.555 147.204,339.916 147.474,340.546 147.802 C 342.245 148.689,342.221 148.577,340.269 146.500 C 339.286 145.455,337.924 143.996,337.241 143.258 C 336.559 142.519,336.000 142.079,336.000 142.280 M234.947 146.134 C 233.347 147.809,233.320 147.882,234.105 148.372 C 234.796 148.804,234.881 148.789,234.681 148.266 C 234.545 147.912,234.944 147.026,235.623 146.171 C 236.712 144.801,236.957 144.397,236.700 144.402 C 236.645 144.402,235.856 145.182,234.947 146.134 M271.875 146.195 C 271.477 146.486,270.728 146.678,270.211 146.621 C 269.520 146.545,269.331 146.676,269.499 147.113 C 269.649 147.505,269.534 147.645,269.164 147.521 C 268.854 147.417,268.129 147.835,267.554 148.451 L 266.508 149.569 249.658 149.685 C 233.359 149.796,232.817 149.776,233.047 149.053 C 233.212 148.533,233.119 148.363,232.742 148.496 C 232.444 148.600,232.225 148.980,232.255 149.339 C 232.285 149.698,232.158 149.898,231.972 149.783 C 231.592 149.548,229.600 151.154,229.600 151.696 C 229.600 151.889,229.808 151.919,230.062 151.762 C 230.350 151.584,230.415 151.652,230.234 151.945 C 230.075 152.202,229.776 152.309,229.569 152.181 C 229.122 151.905,227.928 152.995,228.286 153.352 C 228.422 153.489,228.315 153.600,228.049 153.600 C 227.783 153.600,227.078 154.082,226.483 154.671 C 225.887 155.260,225.719 155.504,226.110 155.214 C 226.500 154.924,226.905 154.771,227.009 154.876 C 227.113 154.980,226.705 155.321,226.102 155.633 C 224.765 156.325,222.400 158.610,222.400 159.210 C 222.400 159.451,222.220 159.536,222.000 159.400 C 221.780 159.264,221.600 159.444,221.600 159.800 C 221.600 160.156,221.420 160.336,221.200 160.200 C 220.980 160.064,220.800 160.131,220.800 160.349 C 220.800 160.568,220.440 160.860,220.000 161.000 C 219.560 161.140,219.200 161.388,219.200 161.551 C 219.200 161.940,211.940 169.200,211.551 169.200 C 211.388 169.200,211.140 169.560,211.000 170.000 C 210.860 170.440,210.568 170.800,210.349 170.800 C 210.131 170.800,210.064 170.980,210.200 171.200 C 210.336 171.420,210.156 171.600,209.800 171.600 C 209.444 171.600,209.264 171.780,209.400 172.000 C 209.536 172.220,209.448 172.400,209.204 172.400 C 208.961 172.400,202.555 178.628,194.969 186.240 C 181.008 200.249,180.000 201.078,180.000 198.551 C 180.000 198.248,179.822 198.000,179.604 198.000 C 179.386 198.000,173.186 191.970,165.827 184.600 C 158.467 177.230,152.538 171.200,152.651 171.200 C 152.765 171.200,152.587 170.930,152.257 170.600 C 151.927 170.270,151.574 170.000,151.473 170.000 C 151.059 170.000,146.893 165.640,147.105 165.429 C 147.230 165.303,147.078 165.200,146.767 165.200 C 146.455 165.199,145.671 164.744,145.025 164.188 C 144.378 163.632,143.388 163.068,142.825 162.934 C 142.261 162.799,141.594 162.528,141.342 162.331 C 140.724 161.846,134.402 162.020,133.400 162.549 C 132.960 162.782,132.480 162.978,132.333 162.986 C 132.187 162.994,131.932 163.135,131.767 163.300 C 131.602 163.465,131.227 163.600,130.933 163.600 C 130.213 163.600,131.493 162.360,107.524 186.285 C 78.151 215.604,66.400 227.532,66.400 228.027 C 66.400 228.258,66.262 228.362,66.094 228.258 C 65.925 228.154,64.820 229.043,63.639 230.234 C 62.457 231.425,61.650 232.403,61.845 232.406 C 62.040 232.409,61.750 232.645,61.200 232.929 C 60.650 233.214,60.224 233.744,60.253 234.108 C 60.282 234.471,60.109 234.731,59.868 234.684 C 59.627 234.638,59.244 235.007,59.017 235.505 C 58.791 236.004,58.370 236.321,58.082 236.210 C 57.794 236.100,57.659 236.173,57.783 236.372 C 57.906 236.572,57.724 237.019,57.378 237.365 C 57.032 237.711,56.878 238.203,57.036 238.459 C 57.208 238.737,57.150 238.816,56.891 238.656 C 56.652 238.509,56.342 238.753,56.200 239.200 C 56.058 239.646,55.808 239.929,55.644 239.827 C 55.480 239.726,54.861 240.092,54.268 240.642 C 53.663 241.203,52.973 241.520,52.695 241.364 C 52.423 241.212,52.514 241.421,52.899 241.828 C 53.568 242.537,53.535 242.633,52.118 244.084 L 50.638 245.600 67.419 245.594 C 78.401 245.590,83.993 245.454,83.600 245.200 C 83.124 244.892,83.207 244.810,84.000 244.800 C 84.819 244.790,84.891 244.710,84.400 244.359 C 83.918 244.015,83.977 243.969,84.700 244.128 C 85.395 244.280,85.600 244.146,85.600 243.539 C 85.600 243.107,85.780 242.864,86.000 243.000 C 86.220 243.136,86.400 243.057,86.400 242.824 C 86.400 242.591,86.729 242.400,87.130 242.400 C 87.532 242.400,88.297 241.906,88.830 241.303 L 89.800 240.206 88.800 240.993 C 88.250 241.426,88.512 241.019,89.381 240.090 C 90.997 238.363,91.722 237.844,90.764 239.100 C 90.471 239.485,90.776 239.302,91.443 238.694 C 92.110 238.086,92.778 237.711,92.928 237.861 C 93.077 238.011,93.200 237.823,93.200 237.443 C 93.200 237.063,93.380 236.864,93.600 237.000 C 93.820 237.136,94.000 237.058,94.000 236.827 C 94.000 236.215,95.667 234.394,96.024 234.615 C 96.191 234.718,96.793 234.248,97.364 233.570 C 97.934 232.893,98.400 232.545,98.400 232.798 C 98.400 233.081,98.630 233.027,99.000 232.657 C 99.330 232.327,99.600 231.880,99.600 231.664 C 99.600 231.448,100.130 230.825,100.778 230.280 C 101.426 229.735,101.862 229.195,101.748 229.081 C 101.633 228.967,101.913 228.754,102.370 228.610 C 102.826 228.465,103.200 228.206,103.200 228.034 C 103.200 227.862,105.020 225.939,107.244 223.761 C 109.469 221.582,112.108 218.945,113.110 217.900 C 114.113 216.855,115.130 216.000,115.371 216.000 C 115.613 216.000,115.988 215.598,116.205 215.107 C 116.422 214.616,117.004 214.015,117.498 213.771 C 117.991 213.528,118.318 213.251,118.223 213.157 C 118.021 212.954,131.376 199.600,131.781 199.600 C 132.194 199.600,133.009 198.694,133.310 197.900 C 133.456 197.515,133.881 197.200,134.254 197.200 C 134.628 197.200,134.836 197.102,134.716 196.983 C 134.486 196.753,137.005 194.000,137.445 194.000 C 137.588 194.000,140.269 196.565,143.403 199.700 C 146.537 202.835,150.016 206.255,151.133 207.300 C 152.251 208.345,153.065 209.200,152.941 209.200 C 152.818 209.200,154.011 210.415,155.594 211.900 C 157.177 213.385,159.987 216.130,161.839 218.000 C 165.900 222.099,164.788 220.990,171.970 228.100 C 175.247 231.345,178.136 234.000,178.388 234.000 C 178.641 234.000,178.719 234.208,178.562 234.462 C 178.384 234.749,178.452 234.815,178.741 234.636 C 179.197 234.355,180.536 235.330,180.182 235.685 C 180.082 235.784,180.457 236.110,181.015 236.408 C 181.572 236.706,181.938 237.184,181.828 237.470 C 181.719 237.756,181.757 237.971,181.914 237.948 C 182.774 237.820,183.216 238.054,182.959 238.500 C 182.801 238.775,182.823 238.862,183.008 238.694 C 183.193 238.526,183.852 238.875,184.472 239.469 C 185.093 240.063,185.600 240.398,185.600 240.213 C 185.600 240.028,185.948 240.191,186.373 240.576 C 186.798 240.960,187.048 241.530,186.928 241.842 C 186.791 242.201,186.911 242.338,187.255 242.216 C 187.953 241.968,189.359 243.020,189.034 243.546 C 188.898 243.765,188.998 244.075,189.255 244.234 C 189.548 244.415,189.616 244.350,189.438 244.062 C 188.998 243.349,190.250 243.508,191.002 244.260 C 191.365 244.622,191.572 245.263,191.463 245.682 C 191.312 246.258,191.386 246.344,191.763 246.031 C 192.088 245.761,197.924 245.608,208.518 245.591 C 219.989 245.573,224.855 245.435,225.049 245.121 C 225.209 244.862,225.143 244.788,224.889 244.945 C 224.651 245.092,224.340 245.027,224.200 244.800 C 224.060 244.573,223.773 244.493,223.562 244.623 C 223.352 244.753,223.230 244.636,223.290 244.362 C 223.351 244.089,222.979 243.646,222.465 243.378 C 221.882 243.075,221.696 242.788,221.971 242.618 C 222.214 242.468,222.308 242.174,222.179 241.966 C 222.050 241.757,221.777 241.691,221.572 241.817 C 221.368 241.944,221.200 241.756,221.200 241.400 C 221.200 241.044,221.032 240.856,220.828 240.983 C 220.215 241.362,219.851 240.343,220.449 239.921 C 220.855 239.633,220.763 239.583,220.098 239.728 C 219.398 239.882,219.143 239.712,218.956 238.966 C 218.823 238.438,218.554 238.105,218.357 238.226 C 218.161 238.348,218.000 238.167,218.000 237.824 C 218.000 237.481,217.730 237.200,217.400 237.200 C 216.859 237.200,216.622 236.725,216.753 235.900 C 216.779 235.735,216.665 235.621,216.500 235.647 C 215.644 235.783,215.199 235.529,215.191 234.900 C 215.186 234.515,214.196 233.230,212.991 232.045 C 211.786 230.860,210.800 229.735,210.800 229.545 C 210.800 229.355,210.637 229.200,210.437 229.200 C 210.116 229.200,207.972 227.112,201.739 220.731 C 199.683 218.626,199.690 218.577,202.351 216.200 C 207.172 211.895,268.880 149.921,268.100 150.168 C 266.953 150.532,266.966 150.293,268.164 149.001 C 268.694 148.429,269.236 148.134,269.367 148.346 C 269.498 148.558,269.379 148.823,269.102 148.934 C 268.718 149.089,268.725 149.144,269.131 149.168 C 269.424 149.186,270.387 148.468,271.272 147.574 C 272.897 145.933,273.209 145.219,271.875 146.195 M236.800 146.357 C 236.800 146.627,236.640 146.749,236.445 146.628 C 236.250 146.508,235.989 146.798,235.865 147.274 L 235.638 148.139 236.497 147.281 C 236.969 146.809,237.231 146.297,237.078 146.144 C 236.925 145.992,236.800 146.087,236.800 146.357 M305.460 147.267 C 306.189 148.072,306.800 148.224,306.800 147.600 C 306.800 147.380,306.575 147.245,306.300 147.300 C 306.025 147.355,305.835 147.205,305.878 146.967 C 305.921 146.728,305.695 146.533,305.376 146.533 C 304.901 146.533,304.916 146.665,305.460 147.267 M270.400 147.800 C 270.117 148.141,269.796 148.329,269.686 148.219 C 269.576 148.109,269.717 147.741,270.000 147.400 C 270.283 147.059,270.604 146.871,270.714 146.981 C 270.824 147.091,270.683 147.459,270.400 147.800 M266.360 152.025 C 265.599 152.495,265.419 152.161,266.060 151.466 C 266.372 151.126,266.663 151.050,266.749 151.286 C 266.831 151.509,266.656 151.842,266.360 152.025 " stroke="none" fill="#ed743c" fill-rule="evenodd"></path><path id="path2" d="M50.800 0.444 C 49.590 0.627,47.835 0.891,46.900 1.030 C 45.965 1.170,45.200 1.445,45.200 1.642 C 45.200 1.839,44.660 2.000,44.000 2.000 C 43.340 2.000,42.800 2.180,42.800 2.400 C 42.800 2.620,42.260 2.800,41.600 2.800 C 40.940 2.800,40.400 2.980,40.400 3.200 C 40.400 3.420,39.961 3.600,39.424 3.600 C 38.887 3.600,38.336 3.780,38.200 4.000 C 38.064 4.220,37.603 4.400,37.176 4.400 C 36.749 4.400,36.400 4.580,36.400 4.800 C 36.400 5.020,36.040 5.200,35.600 5.200 C 35.160 5.200,34.800 5.380,34.800 5.600 C 34.800 5.820,34.440 6.000,34.000 6.000 C 33.560 6.000,33.200 6.180,33.200 6.400 C 33.200 6.620,32.855 6.800,32.433 6.800 C 32.012 6.800,31.607 6.935,31.533 7.100 C 31.460 7.265,30.590 7.835,29.600 8.367 C 27.908 9.277,27.358 9.659,24.531 11.895 C 23.909 12.387,23.263 12.792,23.096 12.795 C 22.699 12.802,12.802 22.699,12.795 23.096 C 12.792 23.263,12.387 23.909,11.895 24.531 C 9.659 27.358,9.277 27.908,8.367 29.600 C 7.835 30.590,7.265 31.460,7.100 31.533 C 6.935 31.607,6.800 32.012,6.800 32.433 C 6.800 32.855,6.620 33.200,6.400 33.200 C 6.180 33.200,6.000 33.560,6.000 34.000 C 6.000 34.440,5.820 34.800,5.600 34.800 C 5.380 34.800,5.200 35.065,5.200 35.388 C 5.200 35.711,4.840 36.617,4.400 37.400 C 3.960 38.183,3.600 39.279,3.600 39.836 C 3.600 40.408,3.426 40.740,3.200 40.600 C 2.967 40.456,2.800 40.863,2.800 41.576 C 2.800 42.249,2.620 42.800,2.400 42.800 C 2.180 42.800,2.000 43.430,2.000 44.200 C 2.000 44.970,1.820 45.600,1.600 45.600 C 1.380 45.600,1.200 46.062,1.200 46.626 C 1.200 47.191,1.002 48.022,0.760 48.475 C 0.417 49.115,0.431 49.228,0.822 48.986 C 1.181 48.765,1.222 48.836,0.967 49.238 C 0.248 50.370,0.431 52.348,1.249 52.286 C 1.662 52.255,2.000 52.003,2.000 51.726 C 2.000 51.334,4.757 51.198,14.400 51.111 C 21.220 51.050,26.800 51.032,26.800 51.071 C 26.800 51.111,26.485 51.461,26.100 51.849 C 25.433 52.522,25.433 52.543,26.100 52.290 C 26.485 52.144,26.800 52.199,26.800 52.413 C 26.800 52.626,26.952 52.800,27.138 52.800 C 27.536 52.800,27.503 51.203,27.092 50.545 C 26.918 50.266,27.077 50.112,27.504 50.145 C 27.983 50.183,28.239 49.857,28.327 49.100 C 28.396 48.495,28.621 48.000,28.827 48.000 C 29.032 48.000,29.200 47.640,29.200 47.200 C 29.200 46.760,29.380 46.400,29.600 46.400 C 29.820 46.400,30.000 46.040,30.000 45.600 C 30.000 45.160,30.146 44.800,30.325 44.800 C 30.504 44.800,30.895 44.178,31.193 43.418 C 31.491 42.658,31.885 42.129,32.068 42.242 C 32.250 42.355,32.400 42.231,32.400 41.967 C 32.400 41.703,32.940 40.971,33.600 40.340 C 34.260 39.709,34.800 39.015,34.800 38.797 C 34.800 38.578,34.950 38.400,35.132 38.400 C 35.315 38.400,35.706 37.950,36.000 37.400 C 36.294 36.850,36.735 36.400,36.979 36.400 C 37.224 36.400,37.683 36.040,38.000 35.600 C 38.317 35.160,38.715 34.800,38.885 34.800 C 39.054 34.800,39.709 34.260,40.340 33.600 C 40.971 32.940,41.610 32.400,41.760 32.400 C 41.910 32.400,42.420 32.040,42.892 31.600 C 43.364 31.160,43.987 30.800,44.275 30.800 C 44.564 30.800,44.800 30.620,44.800 30.400 C 44.800 30.180,45.160 30.000,45.600 30.000 C 46.040 30.000,46.400 29.820,46.400 29.600 C 46.400 29.380,46.760 29.200,47.200 29.200 C 47.640 29.200,48.000 29.020,48.000 28.800 C 48.000 28.580,48.439 28.400,48.976 28.400 C 49.513 28.400,50.064 28.220,50.200 28.000 C 50.336 27.780,50.977 27.600,51.624 27.600 C 52.271 27.600,52.800 27.420,52.800 27.200 C 52.800 26.980,53.329 26.800,53.976 26.800 C 54.623 26.800,55.264 26.620,55.400 26.400 C 55.536 26.180,57.156 26.000,59.000 26.000 C 60.844 26.000,62.464 25.820,62.600 25.600 C 62.764 25.335,109.004 25.200,200.024 25.200 C 291.208 25.200,337.200 25.334,337.200 25.600 C 337.200 25.837,338.659 26.000,340.776 26.000 C 342.743 26.000,344.464 26.180,344.600 26.400 C 344.736 26.620,345.377 26.800,346.024 26.800 C 346.671 26.800,347.200 26.980,347.200 27.200 C 347.200 27.420,347.729 27.600,348.376 27.600 C 349.023 27.600,349.664 27.780,349.800 28.000 C 349.936 28.220,350.487 28.400,351.024 28.400 C 351.561 28.400,352.000 28.580,352.000 28.800 C 352.000 29.020,352.360 29.200,352.800 29.200 C 353.240 29.200,353.600 29.380,353.600 29.600 C 353.600 29.820,353.894 30.000,354.253 30.000 C 354.612 30.000,355.229 30.372,355.623 30.826 C 356.017 31.281,356.443 31.641,356.570 31.626 C 357.532 31.516,358.009 31.661,357.800 32.000 C 357.664 32.220,357.833 32.400,358.176 32.400 C 358.519 32.400,358.800 32.580,358.800 32.800 C 358.800 33.020,359.100 33.200,359.467 33.200 C 359.833 33.200,360.022 33.311,359.886 33.448 C 359.607 33.726,360.558 34.800,361.083 34.800 C 361.269 34.800,361.723 35.115,362.091 35.500 C 362.459 35.885,362.945 36.380,363.171 36.600 C 363.397 36.820,363.991 37.475,364.491 38.056 C 364.991 38.637,365.896 39.671,366.502 40.355 C 367.108 41.038,367.587 41.712,367.568 41.854 C 367.548 41.995,367.713 42.222,367.934 42.359 C 368.155 42.496,368.395 42.868,368.468 43.186 C 368.541 43.504,369.008 44.188,369.508 44.708 C 370.007 45.227,370.311 45.820,370.184 46.026 C 370.057 46.232,370.143 46.400,370.376 46.400 C 370.609 46.400,370.800 46.760,370.800 47.200 C 370.800 47.640,370.980 48.000,371.200 48.000 C 371.420 48.000,371.600 48.467,371.600 49.037 C 371.600 49.737,371.859 50.143,372.396 50.283 C 372.833 50.397,373.105 50.630,373.000 50.800 C 372.895 50.970,373.077 51.332,373.404 51.604 C 373.818 51.947,374.000 51.961,374.000 51.649 C 374.000 51.327,377.394 51.200,386.000 51.200 C 397.157 51.200,398.001 51.249,398.012 51.900 C 398.024 52.561,398.047 52.561,398.437 51.892 C 398.664 51.502,399.008 51.281,399.203 51.402 C 399.619 51.659,399.512 48.979,399.089 48.556 C 398.930 48.397,398.800 47.667,398.800 46.933 C 398.800 46.200,398.620 45.600,398.400 45.600 C 398.180 45.600,397.997 44.925,397.994 44.100 C 397.989 42.984,397.888 42.754,397.600 43.200 C 397.311 43.647,397.211 43.424,397.206 42.324 C 397.203 41.512,397.020 40.736,396.800 40.600 C 396.580 40.464,396.400 39.913,396.400 39.376 C 396.400 38.839,396.220 38.400,396.000 38.400 C 395.780 38.400,395.600 38.040,395.600 37.600 C 395.600 37.160,395.420 36.800,395.200 36.800 C 394.980 36.800,394.800 36.350,394.800 35.800 C 394.800 35.250,394.620 34.800,394.400 34.800 C 394.180 34.800,394.000 34.440,394.000 34.000 C 394.000 33.560,393.820 33.200,393.600 33.200 C 393.380 33.200,393.200 32.855,393.200 32.433 C 393.200 32.012,393.065 31.607,392.900 31.533 C 392.735 31.460,392.165 30.590,391.633 29.600 C 390.662 27.793,389.498 26.163,388.003 24.514 C 387.561 24.027,387.200 23.451,387.200 23.234 C 387.200 22.699,378.553 14.036,376.800 12.814 C 376.030 12.278,375.310 11.724,375.200 11.584 C 374.709 10.959,370.655 8.400,370.155 8.400 C 369.850 8.400,369.600 8.220,369.600 8.000 C 369.600 7.780,369.330 7.600,369.000 7.600 C 368.670 7.600,368.400 7.420,368.400 7.200 C 368.400 6.980,368.040 6.800,367.600 6.800 C 367.160 6.800,366.800 6.620,366.800 6.400 C 366.800 6.180,366.440 6.000,366.000 6.000 C 365.560 6.000,365.200 5.820,365.200 5.600 C 365.200 5.380,364.840 5.200,364.400 5.200 C 363.960 5.200,363.600 5.020,363.600 4.800 C 363.600 4.580,363.150 4.400,362.600 4.400 C 362.050 4.400,361.600 4.220,361.600 4.000 C 361.600 3.780,361.238 3.600,360.795 3.600 C 360.352 3.600,359.587 3.392,359.095 3.138 C 357.138 2.126,356.774 2.000,355.805 2.000 C 355.252 2.000,354.800 1.820,354.800 1.600 C 354.800 1.380,354.116 1.200,353.280 1.200 C 352.444 1.200,351.535 0.975,351.260 0.700 C 350.674 0.114,54.659 -0.138,50.800 0.444 M167.376 50.118 C 167.248 50.452,166.683 50.579,165.789 50.475 C 164.360 50.308,164.038 50.678,164.880 51.520 C 165.486 52.126,166.800 52.147,166.800 51.551 C 166.800 51.259,167.033 51.294,167.465 51.651 C 167.984 52.079,168.167 52.090,168.298 51.700 C 168.501 51.097,181.600 50.966,181.600 51.568 C 181.600 51.770,183.040 51.911,184.800 51.881 C 186.560 51.851,188.000 51.708,188.000 51.562 C 188.000 51.417,187.470 51.343,186.823 51.398 C 186.118 51.458,185.562 51.278,185.436 50.949 C 185.172 50.263,182.919 50.222,182.688 50.900 C 182.594 51.175,182.576 51.024,182.650 50.565 C 182.765 49.843,182.565 49.722,181.169 49.667 C 179.977 49.621,179.633 49.734,179.854 50.102 C 180.086 50.488,180.023 50.495,179.577 50.135 C 178.566 49.320,170.681 49.497,170.969 50.329 C 171.175 50.923,171.140 50.920,170.657 50.300 C 170.019 49.480,167.671 49.350,167.376 50.118 M162.165 51.748 C 162.038 52.079,161.709 52.263,161.434 52.158 C 161.158 52.052,160.933 52.235,160.933 52.565 C 160.933 52.895,161.083 53.072,161.267 52.959 C 161.450 52.845,161.614 52.988,161.632 53.276 C 161.649 53.564,161.847 53.295,162.072 52.679 C 162.458 51.621,162.514 51.599,163.070 52.279 C 163.394 52.675,163.557 52.794,163.432 52.542 C 163.307 52.290,163.483 51.977,163.823 51.846 C 164.163 51.716,164.339 51.775,164.214 51.977 C 164.089 52.179,164.187 52.468,164.432 52.620 C 164.712 52.793,164.824 52.617,164.735 52.147 C 164.554 51.195,162.499 50.876,162.165 51.748 M372.533 52.130 C 372.533 52.930,373.481 53.327,373.851 52.683 C 374.004 52.417,373.982 52.332,373.804 52.494 C 373.625 52.655,373.266 52.497,373.006 52.141 C 372.579 51.556,372.533 51.555,372.533 52.130 M158.400 53.733 C 158.400 54.027,158.662 54.267,158.983 54.267 C 159.303 54.267,159.658 54.027,159.770 53.733 C 159.898 53.400,159.679 53.200,159.187 53.200 C 158.754 53.200,158.400 53.440,158.400 53.733 " stroke="none" fill="#f7a729" fill-rule="evenodd"></path><path id="path3" d="M372.489 51.371 C 372.534 51.905,372.712 52.255,372.885 52.148 C 373.058 52.040,373.200 52.154,373.200 52.400 C 373.200 52.651,373.419 52.716,373.700 52.547 C 374.011 52.360,373.982 52.515,373.624 52.956 C 373.179 53.504,373.151 53.830,373.503 54.393 C 373.753 54.794,373.991 56.759,374.032 58.761 C 374.072 60.762,374.261 62.400,374.453 62.400 C 374.647 62.400,374.800 78.966,374.800 99.936 C 374.800 120.581,374.918 140.201,375.062 143.536 L 375.325 149.600 387.665 149.600 L 400.006 149.600 399.968 101.300 C 399.947 74.735,399.841 53.225,399.732 53.500 C 399.623 53.775,399.362 54.000,399.153 54.000 C 398.932 54.000,398.959 53.650,399.217 53.169 C 399.886 51.918,399.338 50.735,398.571 51.776 C 398.074 52.452,398.000 52.465,398.000 51.876 C 398.000 51.256,397.003 51.200,386.000 51.200 C 377.394 51.200,374.000 51.327,374.000 51.649 C 374.000 51.961,373.818 51.947,373.404 51.604 C 373.077 51.332,372.907 50.950,373.028 50.755 C 373.149 50.560,373.059 50.400,372.828 50.400 C 372.598 50.400,372.445 50.837,372.489 51.371 M14.300 51.100 C 3.737 51.196,2.000 51.295,2.000 51.806 C 2.000 52.133,1.865 52.379,1.700 52.353 C 0.808 52.212,0.449 52.462,0.681 53.066 C 0.852 53.513,0.783 53.636,0.468 53.442 C 0.184 53.267,0.000 53.408,0.000 53.800 C 0.000 54.202,0.190 54.340,0.500 54.165 C 0.900 53.939,0.900 53.990,0.500 54.421 C 0.106 54.846,0.000 64.978,0.000 102.280 L 0.000 149.600 12.338 149.600 L 24.675 149.600 24.938 143.536 C 25.082 140.201,25.200 120.592,25.200 99.960 C 25.200 75.383,25.338 62.362,25.600 62.200 C 25.820 62.064,26.000 60.379,26.000 58.456 C 26.000 56.205,26.177 54.783,26.497 54.463 C 26.892 54.068,26.872 53.890,26.397 53.589 C 25.998 53.338,25.966 53.210,26.300 53.206 C 26.575 53.203,26.800 52.919,26.800 52.576 C 26.800 52.233,26.950 52.045,27.133 52.159 C 27.317 52.272,27.467 52.102,27.467 51.781 C 27.467 51.298,27.339 51.313,26.731 51.863 C 26.326 52.229,25.876 52.410,25.731 52.264 C 25.586 52.119,25.657 52.000,25.891 52.000 C 26.124 52.000,26.418 51.730,26.545 51.400 C 26.671 51.070,26.736 50.842,26.687 50.894 C 26.639 50.946,21.065 51.038,14.300 51.100 M163.906 51.766 C 163.525 52.048,163.255 52.353,163.306 52.444 C 163.358 52.535,163.175 52.348,162.900 52.028 C 162.543 51.614,162.400 51.590,162.400 51.947 C 162.400 52.222,162.237 52.346,162.037 52.223 C 161.838 52.100,161.750 52.404,161.842 52.899 C 161.934 53.395,161.902 53.574,161.770 53.298 C 161.639 53.021,161.339 52.914,161.104 53.059 C 160.861 53.210,160.792 53.136,160.945 52.889 C 161.409 52.139,160.530 51.980,159.342 52.600 C 158.308 53.139,158.284 53.195,159.087 53.198 C 159.662 53.199,159.903 53.388,159.770 53.733 C 159.526 54.371,158.403 54.452,158.394 53.833 C 158.391 53.595,158.211 53.670,157.994 54.000 C 157.693 54.458,157.525 54.484,157.282 54.109 C 157.047 53.747,156.814 53.826,156.394 54.409 C 156.080 54.844,155.574 55.200,155.269 55.200 C 154.757 55.200,152.464 56.827,150.625 58.496 C 150.198 58.883,149.717 59.200,149.555 59.200 C 149.155 59.200,146.010 62.513,146.004 62.940 C 146.002 63.126,145.415 63.829,144.700 64.501 C 143.985 65.173,143.445 65.875,143.500 66.061 C 143.555 66.248,143.432 66.400,143.226 66.400 C 143.020 66.400,142.624 67.030,142.346 67.800 C 142.067 68.570,141.695 69.200,141.520 69.200 C 141.344 69.200,141.200 69.434,141.200 69.720 C 141.200 70.456,140.259 72.393,139.900 72.397 C 139.735 72.399,139.600 72.940,139.600 73.600 C 139.600 74.260,139.440 74.800,139.245 74.800 C 138.910 74.800,138.657 75.690,138.137 78.704 C 138.013 79.421,137.751 80.106,137.556 80.227 C 137.051 80.539,137.094 94.800,137.600 94.800 C 137.820 94.800,138.000 95.419,138.000 96.176 C 138.000 96.933,138.180 97.664,138.400 97.800 C 138.620 97.936,138.800 98.577,138.800 99.224 C 138.800 99.871,138.980 100.400,139.200 100.400 C 139.420 100.400,139.600 100.724,139.600 101.120 C 139.600 102.014,140.494 103.993,140.900 103.997 C 141.065 103.999,141.200 104.360,141.200 104.800 C 141.200 105.240,141.380 105.600,141.600 105.600 C 141.820 105.600,142.000 105.960,142.000 106.400 C 142.000 106.840,142.191 107.200,142.424 107.200 C 142.657 107.200,142.735 107.381,142.598 107.603 C 142.461 107.824,142.631 108.114,142.975 108.246 C 143.319 108.378,143.600 108.670,143.600 108.896 C 143.600 109.122,143.988 109.642,144.461 110.053 C 144.935 110.464,145.177 110.800,145.000 110.800 C 144.823 110.800,145.093 111.160,145.600 111.600 C 146.107 112.040,146.371 112.400,146.185 112.400 C 145.845 112.400,148.583 115.071,151.438 117.523 C 152.285 118.251,153.568 119.127,154.289 119.469 C 155.010 119.811,155.600 120.270,155.600 120.488 C 155.600 120.707,155.870 120.782,156.200 120.655 C 156.530 120.529,156.800 120.629,156.800 120.879 C 156.800 121.129,156.920 121.213,157.068 121.066 C 157.215 120.919,157.620 121.042,157.968 121.339 C 158.654 121.927,161.471 123.034,165.653 124.359 C 169.132 125.462,180.668 125.587,183.600 124.554 C 184.590 124.205,186.380 123.661,187.577 123.345 C 188.774 123.029,189.989 122.575,190.277 122.336 C 190.565 122.097,190.800 122.026,190.800 122.178 C 190.800 122.330,191.323 122.082,191.962 121.627 C 192.601 121.172,193.402 120.800,193.742 120.800 C 194.082 120.800,194.506 120.540,194.683 120.223 C 194.861 119.906,195.398 119.501,195.877 119.323 C 197.423 118.749,202.609 114.096,204.411 111.665 C 204.955 110.931,205.617 110.097,205.882 109.812 C 206.520 109.125,207.773 107.025,208.873 104.800 C 209.362 103.810,209.906 102.940,210.081 102.867 C 210.257 102.793,210.400 102.219,210.400 101.590 C 210.400 100.962,210.580 100.336,210.800 100.200 C 211.020 100.064,211.200 99.513,211.200 98.976 C 211.200 98.439,211.380 98.000,211.600 98.000 C 211.820 98.000,212.000 97.406,212.000 96.680 C 212.000 95.954,212.188 95.172,212.418 94.942 C 213.258 94.102,212.464 77.534,211.558 76.974 C 211.361 76.852,211.200 76.313,211.200 75.776 C 211.200 75.239,211.020 74.800,210.800 74.800 C 210.580 74.800,210.400 74.260,210.400 73.600 C 210.400 72.940,210.220 72.400,210.000 72.400 C 209.780 72.400,209.600 72.040,209.600 71.600 C 209.600 71.160,209.420 70.800,209.200 70.800 C 208.980 70.800,208.800 70.429,208.800 69.976 C 208.800 69.523,208.620 69.264,208.400 69.400 C 208.180 69.536,208.000 69.312,208.000 68.902 C 208.000 67.882,205.842 64.558,204.827 64.014 C 204.372 63.771,204.000 63.328,204.000 63.029 C 204.000 62.159,200.022 58.400,199.101 58.400 C 198.642 58.400,198.378 58.289,198.514 58.152 C 198.824 57.842,197.815 56.800,197.205 56.800 C 196.956 56.800,196.851 56.640,196.972 56.445 C 197.158 56.145,196.209 55.646,195.085 55.454 C 194.912 55.424,194.642 55.200,194.485 54.957 C 194.328 54.713,193.897 54.560,193.528 54.617 C 193.158 54.674,192.759 54.469,192.640 54.161 C 192.522 53.852,192.014 53.597,191.513 53.594 C 190.761 53.589,190.706 53.514,191.200 53.170 C 191.644 52.860,191.437 52.816,190.400 53.000 C 189.477 53.164,189.185 53.121,189.543 52.874 C 189.938 52.602,189.960 52.423,189.625 52.216 C 189.372 52.059,188.868 52.172,188.506 52.466 C 188.036 52.847,187.933 52.857,188.147 52.500 C 188.338 52.182,188.211 52.000,187.800 52.000 C 187.444 52.000,187.245 51.850,187.359 51.667 C 187.472 51.483,187.311 51.333,187.000 51.333 C 186.689 51.333,186.528 51.483,186.641 51.667 C 186.755 51.850,186.556 52.000,186.200 52.000 C 185.831 52.000,185.670 51.811,185.825 51.560 C 186.014 51.254,185.868 51.232,185.348 51.487 C 184.237 52.033,181.600 52.134,181.600 51.631 C 181.600 50.972,168.521 51.040,168.298 51.700 C 168.167 52.090,167.984 52.079,167.465 51.651 C 167.033 51.294,166.800 51.259,166.800 51.551 C 166.800 52.094,165.511 52.148,164.980 51.627 C 164.744 51.396,164.336 51.449,163.906 51.766 M179.133 76.460 C 179.207 76.647,179.520 76.800,179.829 76.800 C 180.995 76.800,185.600 81.362,185.600 82.517 C 185.600 82.804,185.777 83.217,185.993 83.433 C 186.716 84.156,186.651 92.000,185.922 92.000 C 185.745 92.000,185.600 92.298,185.600 92.663 C 185.600 93.549,180.930 98.000,180.000 98.000 C 179.597 98.000,179.207 98.171,179.133 98.380 C 179.060 98.589,178.235 98.804,177.300 98.858 C 176.365 98.912,175.600 99.101,175.600 99.278 C 175.600 99.455,175.330 99.600,175.000 99.600 C 174.670 99.600,174.400 99.457,174.400 99.282 C 174.400 99.107,173.725 98.922,172.900 98.870 C 169.760 98.675,165.149 95.003,164.023 91.800 C 163.349 89.885,163.302 83.499,163.960 83.280 C 164.202 83.199,164.400 82.828,164.400 82.455 C 164.400 82.082,164.760 81.517,165.200 81.200 C 165.640 80.883,166.000 80.420,166.000 80.172 C 166.000 79.923,166.569 79.288,167.263 78.760 C 167.958 78.232,168.755 77.575,169.035 77.300 C 169.314 77.025,169.826 76.800,170.171 76.800 C 170.517 76.800,170.800 76.630,170.800 76.422 C 170.800 75.669,178.837 75.706,179.133 76.460 M282.800 100.247 C 282.030 100.561,281.085 100.925,280.700 101.056 C 280.315 101.186,280.000 101.452,280.000 101.647 C 280.000 101.841,279.816 102.000,279.591 102.000 C 279.367 102.000,277.123 104.115,274.606 106.700 C 272.088 109.285,269.861 111.554,269.657 111.743 C 268.592 112.725,261.578 119.740,257.108 124.294 C 254.307 127.148,251.893 129.374,251.744 129.241 C 251.594 129.109,251.584 129.197,251.722 129.439 C 252.036 129.991,249.864 132.120,249.408 131.706 C 249.223 131.538,249.189 131.605,249.331 131.855 C 249.626 132.370,248.668 133.334,248.263 132.930 C 248.118 132.785,248.000 133.057,248.000 133.533 C 248.000 134.010,247.862 134.400,247.693 134.400 C 247.524 134.400,246.534 135.216,245.493 136.214 C 244.452 137.212,243.600 137.907,243.600 137.760 C 243.600 137.613,243.240 137.950,242.800 138.509 C 242.360 139.069,242.000 139.733,242.000 139.987 C 242.000 140.240,241.820 140.336,241.600 140.200 C 241.380 140.064,241.200 140.233,241.200 140.576 C 241.200 140.919,240.919 141.200,240.576 141.200 C 240.233 141.200,240.064 141.380,240.200 141.600 C 240.336 141.820,240.240 142.000,239.987 142.000 C 239.443 142.000,237.327 143.594,237.846 143.613 C 238.041 143.620,237.886 143.864,237.502 144.156 C 236.082 145.234,234.446 147.653,234.682 148.326 C 234.874 148.875,234.818 148.907,234.379 148.500 C 233.563 147.743,233.006 147.899,232.948 148.900 L 232.897 149.800 249.702 149.685 L 266.508 149.569 267.554 148.451 C 268.129 147.835,268.854 147.417,269.164 147.521 C 269.531 147.643,269.649 147.505,269.503 147.124 C 269.344 146.711,269.531 146.564,270.139 146.622 C 271.521 146.756,281.586 137.628,281.606 136.224 C 281.609 135.991,281.787 136.070,282.000 136.400 C 282.269 136.816,282.390 136.844,282.394 136.489 C 282.402 135.825,285.825 132.402,286.489 132.394 C 286.872 132.389,286.862 132.300,286.447 132.038 C 286.008 131.760,286.058 131.635,286.691 131.435 C 287.803 131.082,288.418 131.406,289.800 133.072 C 290.460 133.868,291.596 135.078,292.325 135.760 C 296.641 139.800,298.400 141.600,298.400 141.975 C 298.400 142.209,298.607 142.400,298.859 142.400 C 299.471 142.400,306.435 149.620,306.196 150.007 C 306.093 150.173,306.322 150.285,306.704 150.255 C 307.087 150.225,307.562 149.840,307.761 149.400 C 308.039 148.784,308.156 148.738,308.271 149.200 C 308.460 149.960,339.752 149.904,340.670 149.142 C 340.967 148.896,341.200 148.870,341.200 149.084 C 341.200 149.295,341.470 149.467,341.800 149.467 C 342.130 149.467,342.400 149.227,342.400 148.933 C 342.400 148.640,342.119 148.400,341.776 148.400 C 341.433 148.400,341.267 148.216,341.406 147.990 C 341.545 147.765,341.511 147.606,341.330 147.637 C 340.422 147.795,339.581 147.555,339.800 147.200 C 339.936 146.980,339.846 146.800,339.600 146.800 C 339.354 146.800,339.267 146.616,339.406 146.390 C 339.545 146.165,339.511 146.030,339.330 146.090 C 339.148 146.151,338.941 146.078,338.869 145.928 C 338.631 145.434,336.221 142.717,335.074 141.649 C 331.651 138.462,329.200 135.946,329.200 135.619 C 329.200 135.414,328.992 135.119,328.738 134.962 C 328.431 134.772,328.380 134.865,328.585 135.238 C 328.754 135.547,328.242 135.115,327.446 134.278 C 326.651 133.440,326.000 132.585,326.000 132.378 C 326.000 132.170,325.713 132.000,325.363 132.000 C 325.012 132.000,324.637 131.662,324.529 131.249 C 324.421 130.836,323.874 130.289,323.314 130.034 C 322.755 129.779,322.397 129.470,322.519 129.348 C 322.642 129.225,319.965 126.347,316.571 122.952 C 313.177 119.557,310.400 116.593,310.400 116.366 C 310.400 116.139,310.220 116.064,310.000 116.200 C 309.780 116.336,309.600 116.137,309.600 115.757 C 309.600 115.377,309.495 115.172,309.367 115.300 C 309.147 115.520,303.652 110.221,300.961 107.194 C 298.047 103.914,293.609 100.441,292.300 100.414 C 291.915 100.406,291.600 100.243,291.600 100.051 C 291.600 99.457,284.340 99.619,282.800 100.247 M236.497 147.281 L 235.638 148.139 235.865 147.274 C 235.989 146.798,236.250 146.508,236.445 146.628 C 236.640 146.749,236.800 146.627,236.800 146.357 C 236.800 146.087,236.925 145.992,237.078 146.144 C 237.231 146.297,236.969 146.809,236.497 147.281 M305.878 146.967 C 305.835 147.205,306.025 147.355,306.300 147.300 C 306.575 147.245,306.800 147.380,306.800 147.600 C 306.800 148.224,306.189 148.072,305.460 147.267 C 304.916 146.665,304.901 146.533,305.376 146.533 C 305.695 146.533,305.921 146.728,305.878 146.967 M269.841 147.663 C 269.488 148.166,269.200 148.422,269.200 148.231 C 269.200 148.040,268.740 148.379,268.178 148.986 C 266.936 150.326,267.135 150.676,268.665 149.847 C 269.289 149.509,269.530 149.222,269.200 149.210 C 268.680 149.191,268.678 149.139,269.181 148.820 C 269.500 148.618,269.950 148.560,270.181 148.691 C 270.411 148.821,270.467 148.781,270.303 148.601 C 270.140 148.421,270.211 148.028,270.460 147.727 C 270.710 147.427,270.817 147.083,270.698 146.964 C 270.579 146.846,270.193 147.160,269.841 147.663 M266.060 151.466 C 265.419 152.161,265.599 152.495,266.360 152.025 C 266.656 151.842,266.831 151.509,266.749 151.286 C 266.663 151.050,266.372 151.126,266.060 151.466 " stroke="none" fill="#f4873c" fill-rule="evenodd"></path><path id="path4" d="M198.975 182.100 L 197.800 183.400 199.100 182.225 C 200.312 181.130,200.584 180.800,200.275 180.800 C 200.206 180.800,199.621 181.385,198.975 182.100 M182.042 198.900 C 181.392 199.525,181.049 199.647,180.920 199.300 C 180.817 199.025,180.530 198.800,180.281 198.800 C 180.032 198.800,180.138 199.110,180.517 199.488 C 181.168 200.139,181.264 200.118,182.294 199.088 C 183.599 197.782,183.377 197.616,182.042 198.900 M202.100 216.409 C 199.737 218.660,199.686 218.792,200.800 219.800 C 201.772 220.679,201.873 220.330,200.922 219.379 C 200.284 218.741,200.338 218.614,201.822 217.246 C 203.382 215.809,204.638 214.396,204.349 214.404 C 204.267 214.406,203.255 215.308,202.100 216.409 M113.381 217.700 L 111.800 219.400 113.500 217.819 C 115.081 216.348,115.384 216.000,115.081 216.000 C 115.016 216.000,114.251 216.765,113.381 217.700 M372.684 216.250 C 372.554 216.379,372.898 216.935,373.448 217.485 C 374.746 218.782,375.043 218.486,373.843 217.090 C 373.335 216.498,372.813 216.120,372.684 216.250 M204.000 223.373 C 204.000 223.468,204.540 223.930,205.200 224.400 C 206.581 225.384,206.714 225.284,205.653 224.061 C 204.996 223.304,204.000 222.889,204.000 223.373 M170.086 226.546 C 170.589 227.067,171.074 227.428,171.164 227.349 C 171.397 227.145,169.948 225.600,169.524 225.600 C 169.330 225.600,169.583 226.026,170.086 226.546 M100.400 230.600 C 99.883 231.150,99.627 231.594,99.830 231.587 C 100.172 231.576,101.821 229.600,101.488 229.600 C 101.406 229.600,100.917 230.050,100.400 230.600 M211.605 230.592 C 212.152 231.248,213.185 232.306,213.900 232.943 C 214.615 233.580,215.200 234.341,215.200 234.633 C 215.200 235.241,217.045 237.200,217.618 237.200 C 217.828 237.200,218.000 237.481,218.000 237.824 C 218.000 238.167,218.161 238.348,218.357 238.226 C 218.554 238.105,218.823 238.438,218.956 238.966 C 219.140 239.700,219.392 239.875,220.029 239.708 C 220.786 239.510,220.690 239.315,218.964 237.563 C 217.920 236.503,216.888 235.746,216.671 235.880 C 216.452 236.015,216.402 235.920,216.558 235.668 C 216.834 235.222,216.014 234.308,212.372 231.000 C 211.109 229.853,210.892 229.737,211.605 230.592 M97.267 233.656 C 96.754 234.289,96.196 234.721,96.027 234.617 C 95.667 234.394,94.000 236.212,94.000 236.827 C 94.000 237.058,93.820 237.136,93.600 237.000 C 93.380 236.864,93.200 236.943,93.200 237.176 C 93.200 237.409,93.341 237.600,93.513 237.600 C 93.934 237.600,98.602 232.863,98.377 232.663 C 98.280 232.576,97.780 233.023,97.267 233.656 M58.526 234.984 C 58.045 235.498,57.760 236.027,57.893 236.159 C 58.025 236.292,57.935 236.400,57.693 236.400 C 57.158 236.400,52.800 240.699,52.800 241.226 C 52.800 241.817,53.157 241.672,54.290 240.621 C 54.871 240.083,55.480 239.726,55.644 239.827 C 55.808 239.929,56.058 239.646,56.200 239.200 C 56.342 238.753,56.652 238.509,56.891 238.656 C 57.155 238.820,57.208 238.736,57.026 238.441 C 56.851 238.159,57.116 237.583,57.664 237.054 C 58.179 236.556,58.808 235.800,59.063 235.374 C 59.317 234.948,59.736 234.649,59.993 234.710 C 60.249 234.770,60.345 234.635,60.206 234.410 C 59.840 233.818,59.510 233.931,58.526 234.984 M178.000 234.424 C 178.000 234.657,178.180 234.736,178.400 234.600 C 178.620 234.464,178.800 234.517,178.800 234.717 C 178.800 235.028,179.548 235.857,181.583 237.800 C 181.814 238.020,182.524 238.785,183.162 239.500 C 183.799 240.215,184.519 240.800,184.760 240.800 C 185.002 240.800,185.200 240.965,185.200 241.167 C 185.200 241.706,188.259 244.800,188.792 244.800 C 189.042 244.800,189.118 245.008,188.961 245.263 C 188.765 245.580,188.946 245.655,189.537 245.500 C 190.249 245.314,190.400 245.448,190.400 246.261 C 190.400 246.817,190.575 247.139,190.800 247.000 C 191.020 246.864,191.200 246.952,191.200 247.195 C 191.200 247.897,193.093 249.599,193.882 249.606 C 194.336 249.610,194.432 249.720,194.144 249.906 C 193.814 250.119,193.842 250.342,194.244 250.716 C 194.550 250.999,194.800 251.122,194.800 250.987 C 194.800 250.853,195.070 251.013,195.400 251.343 C 195.730 251.673,196.000 252.054,196.000 252.190 C 196.000 252.325,196.450 252.886,197.000 253.436 C 197.550 253.986,198.000 254.314,198.000 254.164 C 198.000 254.015,198.346 254.332,198.769 254.870 C 199.463 255.752,237.623 294.000,237.810 294.000 C 238.018 294.000,252.618 308.888,252.733 309.219 C 252.807 309.429,253.088 309.600,253.358 309.600 C 253.628 309.600,254.198 309.915,254.625 310.300 C 255.051 310.685,255.940 311.246,256.600 311.547 C 257.260 311.847,258.113 312.252,258.495 312.447 C 258.877 312.641,271.252 312.800,285.995 312.800 L 312.800 312.800 312.800 300.000 L 312.800 287.200 290.636 287.200 L 268.472 287.200 253.868 272.600 C 245.836 264.570,239.353 258.000,239.461 258.000 C 239.569 258.000,239.387 257.730,239.057 257.400 C 238.727 257.070,238.348 256.800,238.215 256.800 C 238.082 256.800,236.944 255.689,235.687 254.332 C 234.429 252.974,232.066 250.589,230.436 249.032 C 226.345 245.125,222.724 241.452,221.958 240.434 C 221.543 239.882,221.078 239.672,220.641 239.840 C 219.912 240.120,220.009 241.065,220.750 240.900 C 220.998 240.845,221.200 241.070,221.200 241.400 C 221.200 241.730,221.335 241.979,221.500 241.953 C 222.283 241.829,222.455 242.052,222.000 242.600 C 221.591 243.093,221.622 243.200,222.175 243.200 C 222.545 243.200,222.733 243.384,222.594 243.610 C 222.455 243.835,222.579 243.970,222.870 243.910 C 223.162 243.849,223.351 244.038,223.290 244.330 C 223.230 244.621,223.352 244.753,223.562 244.623 C 223.773 244.493,224.060 244.573,224.200 244.800 C 224.340 245.027,224.651 245.092,224.889 244.945 C 225.143 244.788,225.209 244.862,225.049 245.121 C 224.855 245.435,219.989 245.573,208.518 245.591 C 197.924 245.608,192.088 245.761,191.763 246.031 C 191.386 246.344,191.312 246.258,191.463 245.682 C 191.572 245.263,191.365 244.622,191.002 244.260 C 190.250 243.508,188.998 243.349,189.438 244.062 C 189.616 244.350,189.548 244.415,189.255 244.234 C 188.998 244.075,188.898 243.765,189.034 243.546 C 189.359 243.020,187.953 241.968,187.255 242.216 C 186.911 242.338,186.791 242.201,186.928 241.842 C 187.144 241.281,186.173 240.111,185.400 239.999 C 185.180 239.967,184.234 239.243,183.297 238.391 C 182.360 237.538,181.195 236.562,180.708 236.220 C 180.221 235.879,179.980 235.600,180.172 235.600 C 180.365 235.600,180.107 235.240,179.600 234.800 C 178.579 233.915,178.000 233.778,178.000 234.424 M92.000 238.200 C 91.730 238.525,91.379 238.711,91.220 238.612 C 90.837 238.376,87.741 241.556,88.000 241.919 C 88.110 242.074,87.795 242.258,87.300 242.328 C 86.805 242.398,86.400 242.634,86.400 242.851 C 86.400 243.069,86.220 243.136,86.000 243.000 C 85.780 242.864,85.600 243.107,85.600 243.539 C 85.600 244.146,85.395 244.280,84.700 244.128 C 83.977 243.969,83.918 244.015,84.400 244.359 C 84.891 244.710,84.819 244.790,84.000 244.800 C 83.207 244.810,83.124 244.892,83.600 245.200 C 83.993 245.454,78.401 245.590,67.419 245.594 L 50.638 245.600 52.130 244.072 C 53.534 242.634,53.580 242.509,52.911 241.949 C 52.206 241.358,40.868 251.934,41.514 252.580 C 41.634 252.701,41.535 252.800,41.293 252.800 C 41.051 252.800,37.331 256.332,33.027 260.649 L 25.200 268.499 25.118 253.549 C 25.073 245.327,24.975 240.175,24.902 242.100 L 24.769 245.600 12.384 245.600 L 0.000 245.600 0.000 291.400 C 0.000 332.422,0.064 337.200,0.618 337.200 C 0.984 337.200,1.187 337.485,1.118 337.900 C 1.008 338.552,1.841 338.607,13.300 338.706 C 21.860 338.779,25.600 338.681,25.600 338.382 C 25.600 338.146,25.446 338.048,25.258 338.164 C 25.070 338.281,25.006 331.077,25.116 322.120 L 25.315 305.864 59.292 271.977 C 77.979 253.339,93.093 237.981,92.879 237.849 C 92.666 237.717,92.270 237.875,92.000 238.200 M374.970 288.500 C 374.990 321.413,374.864 338.459,374.600 338.574 C 374.380 338.670,379.826 338.750,386.703 338.752 C 393.579 338.754,399.429 338.887,399.703 339.047 C 399.976 339.207,399.885 338.977,399.500 338.537 C 398.642 337.557,398.616 337.200,399.400 337.200 C 399.930 337.200,400.000 331.844,400.000 291.400 L 400.000 245.600 387.616 245.600 L 375.231 245.600 375.085 242.100 C 375.005 240.175,374.953 261.055,374.970 288.500 " stroke="none" fill="#ec583c" fill-rule="evenodd"></path></g></svg>