<svg id="svg" version="1.1" xmlns="http://www.w3.org/2000/svg" xmlns:xlink="http://www.w3.org/1999/xlink" width="400" height="400" viewBox="0, 0, 400,400"><g id="svgg"><path id="path0" d="M143.868 150.265 C 143.420 150.714,143.557 216.696,144.016 221.166 C 145.458 235.221,154.656 245.926,168.071 249.163 C 173.473 250.466,226.553 250.462,231.929 249.158 C 242.917 246.493,251.558 238.537,254.692 228.200 C 256.411 222.531,256.453 221.397,256.324 185.000 L 256.200 150.200 200.168 150.099 C 169.350 150.043,144.015 150.118,143.868 150.265 M209.198 200.847 C 213.296 203.150,213.468 209.185,209.504 211.602 C 207.469 212.843,161.331 212.843,159.296 211.602 C 155.360 209.202,155.497 203.209,159.543 200.863 C 161.833 199.535,206.838 199.521,209.198 200.847 M240.522 200.925 C 244.630 203.412,244.728 209.148,240.704 211.602 C 237.094 213.803,227.812 212.478,225.998 209.504 C 224.216 206.582,225.230 202.771,228.278 200.925 C 230.548 199.551,238.252 199.551,240.522 200.925 M209.199 225.822 C 213.807 228.529,213.378 234.971,208.451 237.035 C 207.343 237.499,203.053 237.600,184.400 237.600 C 165.747 237.600,161.457 237.499,160.349 237.035 C 154.489 234.580,155.304 226.421,161.534 225.168 C 165.440 224.383,207.736 224.963,209.199 225.822 M240.508 225.890 C 244.741 228.362,244.652 234.324,240.346 236.773 C 236.731 238.828,228.302 237.706,226.220 234.891 C 224.358 232.375,225.179 227.881,227.815 226.153 C 230.168 224.612,238.040 224.449,240.508 225.890 " stroke="none" fill="#2189fb" fill-rule="evenodd"></path><path id="path1" d="M347.002 49.598 L 334.205 62.400 339.748 62.400 C 351.243 62.400,351.659 63.699,346.604 83.821 C 344.735 91.257,343.255 97.389,343.315 97.448 C 343.374 97.507,348.457 92.526,354.611 86.379 L 365.800 75.203 363.626 75.201 C 359.074 75.199,356.400 72.732,356.400 68.535 C 356.400 65.943,358.390 48.869,359.661 40.546 C 359.901 38.976,360.030 37.491,359.948 37.244 C 359.866 36.998,354.040 42.557,347.002 49.598 M160.412 50.633 C 156.205 52.458,156.400 50.843,156.400 83.849 L 156.400 112.400 162.600 112.400 L 168.800 112.400 168.789 83.900 L 168.777 55.400 167.868 53.621 C 166.363 50.679,163.215 49.418,160.412 50.633 M235.042 50.809 C 233.367 51.646,232.474 52.664,231.730 54.586 C 231.388 55.471,231.253 63.459,231.230 84.100 L 231.200 112.400 237.400 112.400 L 243.600 112.400 243.600 83.459 L 243.600 54.518 242.688 53.165 C 240.790 50.348,237.808 49.429,235.042 50.809 M137.000 125.600 C 136.864 125.820,136.329 126.000,135.810 126.000 C 133.734 126.000,131.151 130.393,132.047 132.400 C 133.305 135.215,133.472 135.383,136.495 136.861 C 137.403 137.304,262.597 137.304,263.505 136.861 C 266.078 135.603,266.688 135.082,267.517 133.433 C 268.862 130.754,266.863 126.000,264.390 126.000 C 263.981 126.000,263.536 125.820,263.400 125.600 C 263.058 125.046,137.342 125.046,137.000 125.600 M46.985 312.015 L 34.205 324.800 39.453 324.800 C 46.092 324.800,47.915 325.499,49.550 328.674 C 50.398 330.319,49.995 332.732,46.621 346.245 C 44.763 353.687,43.288 359.822,43.345 359.878 C 43.401 359.934,48.434 354.990,54.529 348.890 L 65.611 337.800 63.185 337.680 C 56.396 337.346,55.596 334.983,57.383 320.544 C 58.330 312.898,58.609 310.750,59.652 303.098 C 59.915 301.172,60.047 299.514,59.947 299.414 C 59.846 299.313,54.013 304.984,46.985 312.015 " stroke="none" fill="#d6b618" fill-rule="evenodd"></path><path id="path2" d="M193.784 288.100 C 193.680 288.375,193.640 309.480,193.697 335.000 L 193.800 381.400 200.000 381.400 L 206.200 381.400 206.302 334.500 L 206.403 287.600 200.189 287.600 C 195.586 287.600,193.926 287.730,193.784 288.100 " stroke="none" fill="#fc3454" fill-rule="evenodd"></path><path id="path3" d="M34.000 12.305 C 34.000 12.473,33.595 12.788,33.100 13.005 C 32.605 13.222,32.022 13.805,31.805 14.300 C 31.588 14.795,31.273 15.200,31.105 15.200 C 30.937 15.200,30.800 18.710,30.800 23.000 L 30.800 30.800 23.000 30.800 C 18.710 30.800,15.200 30.937,15.200 31.105 C 15.200 31.273,14.795 31.588,14.300 31.805 C 13.805 32.022,13.222 32.605,13.005 33.100 C 12.788 33.595,12.473 34.000,12.305 34.000 C 12.137 34.000,12.000 35.468,12.000 37.262 C 12.000 40.673,13.115 43.200,14.620 43.200 C 14.939 43.200,15.200 43.380,15.200 43.600 C 15.200 43.853,18.067 44.000,23.000 44.000 L 30.800 44.000 30.800 51.800 C 30.800 56.733,30.947 59.600,31.200 59.600 C 31.420 59.600,31.600 59.883,31.600 60.229 C 31.600 61.037,32.563 62.000,33.371 62.000 C 33.717 62.000,34.000 62.180,34.000 62.400 C 34.000 62.986,40.233 62.901,41.290 62.300 C 42.631 61.537,43.200 60.920,43.200 60.229 C 43.200 59.883,43.380 59.600,43.600 59.600 C 43.853 59.600,44.000 56.733,44.000 51.800 L 44.000 44.000 51.800 44.000 C 56.733 44.000,59.600 43.853,59.600 43.600 C 59.600 43.380,59.883 43.200,60.229 43.200 C 60.920 43.200,61.537 42.631,62.300 41.290 C 62.901 40.233,62.986 34.000,62.400 34.000 C 62.180 34.000,62.000 33.717,62.000 33.371 C 62.000 32.563,61.037 31.600,60.229 31.600 C 59.883 31.600,59.600 31.420,59.600 31.200 C 59.600 30.947,56.733 30.800,51.800 30.800 L 44.000 30.800 44.000 23.000 C 44.000 18.067,43.853 15.200,43.600 15.200 C 43.380 15.200,43.200 14.939,43.200 14.620 C 43.200 13.115,40.673 12.000,37.262 12.000 C 35.468 12.000,34.000 12.137,34.000 12.305 M184.800 12.400 C 184.800 12.620,184.524 12.800,184.187 12.800 C 183.403 12.800,180.800 15.385,180.800 16.163 C 180.800 16.487,180.620 16.864,180.400 17.000 C 180.180 17.136,180.000 18.126,180.000 19.200 C 180.000 20.274,180.180 21.264,180.400 21.400 C 180.620 21.536,180.800 21.915,180.800 22.242 C 180.800 22.914,182.071 24.261,183.686 25.301 C 184.872 26.064,195.600 26.374,195.600 25.645 C 195.600 25.449,196.191 25.178,196.913 25.043 C 198.177 24.806,199.600 23.616,199.600 22.795 C 199.600 22.578,199.780 22.400,200.000 22.400 C 200.237 22.400,200.400 20.933,200.400 18.800 C 200.400 16.667,200.237 15.200,200.000 15.200 C 199.780 15.200,199.600 14.922,199.600 14.581 C 199.600 14.241,199.061 13.656,198.403 13.281 C 197.744 12.907,197.204 12.465,197.203 12.300 C 197.201 12.135,194.410 12.000,191.000 12.000 C 187.133 12.000,184.800 12.151,184.800 12.400 M365.200 12.400 C 365.200 12.620,365.002 12.800,364.761 12.800 C 364.186 12.800,312.800 64.186,312.800 64.761 C 312.800 65.002,312.620 65.200,312.400 65.200 C 311.814 65.200,311.899 71.433,312.500 72.490 C 313.998 75.123,314.357 75.200,325.174 75.200 C 334.436 75.200,334.800 75.229,334.800 75.976 C 334.800 76.403,334.620 76.864,334.400 77.000 C 334.180 77.136,334.000 77.867,334.000 78.624 C 334.000 79.381,333.820 80.000,333.600 80.000 C 333.380 80.000,333.200 80.720,333.200 81.600 C 333.200 82.480,333.020 83.200,332.800 83.200 C 332.580 83.200,332.400 83.920,332.400 84.800 C 332.400 85.680,332.220 86.400,332.000 86.400 C 331.780 86.400,331.600 87.120,331.600 88.000 C 331.600 88.880,331.420 89.600,331.200 89.600 C 330.980 89.600,330.800 90.219,330.800 90.976 C 330.800 91.733,330.620 92.464,330.400 92.600 C 330.180 92.736,330.000 93.456,330.000 94.200 C 330.000 94.944,329.820 95.664,329.600 95.800 C 329.380 95.936,329.200 96.667,329.200 97.424 C 329.200 98.181,329.020 98.800,328.800 98.800 C 328.580 98.800,328.400 99.520,328.400 100.400 C 328.400 101.280,328.220 102.000,328.000 102.000 C 327.780 102.000,327.600 102.720,327.600 103.600 C 327.600 104.480,327.420 105.200,327.200 105.200 C 326.980 105.200,326.800 105.920,326.800 106.800 C 326.800 107.680,326.620 108.400,326.400 108.400 C 326.180 108.400,326.000 108.841,326.000 109.380 C 326.000 109.920,325.730 111.398,325.400 112.665 C 325.070 113.931,324.800 116.634,324.800 118.671 L 324.800 122.373 326.213 123.787 C 327.742 125.315,333.168 125.887,335.302 124.745 C 336.365 124.177,386.817 73.654,387.500 72.474 C 388.039 71.543,388.209 65.200,387.695 65.200 C 387.527 65.200,387.212 64.795,386.995 64.300 C 386.778 63.805,386.195 63.222,385.700 63.005 C 385.205 62.788,384.800 62.473,384.800 62.305 C 384.800 62.137,381.650 62.000,377.800 62.000 L 370.800 62.000 370.800 59.680 C 370.800 58.404,370.966 57.189,371.169 56.980 C 371.372 56.771,371.635 55.340,371.755 53.800 C 371.874 52.260,372.158 49.515,372.386 47.700 C 372.987 42.914,373.529 38.621,373.966 35.200 C 376.536 15.087,375.796 12.000,368.405 12.000 C 366.535 12.000,365.200 12.167,365.200 12.400 M161.751 15.588 C 161.425 15.894,160.587 16.052,156.100 16.653 C 155.165 16.778,154.400 17.042,154.400 17.240 C 154.400 17.438,153.680 17.600,152.800 17.600 C 151.920 17.600,151.200 17.780,151.200 18.000 C 151.200 18.220,150.660 18.400,150.000 18.400 C 149.340 18.400,148.800 18.580,148.800 18.800 C 148.800 19.020,148.181 19.200,147.424 19.200 C 146.667 19.200,145.936 19.380,145.800 19.600 C 145.664 19.820,145.124 20.000,144.600 20.000 C 144.076 20.000,143.536 20.180,143.400 20.400 C 143.264 20.620,142.713 20.800,142.176 20.800 C 141.639 20.800,141.200 20.980,141.200 21.200 C 141.200 21.420,140.660 21.600,140.000 21.600 C 139.340 21.600,138.800 21.780,138.800 22.000 C 138.800 22.220,138.260 22.400,137.600 22.400 C 136.940 22.400,136.400 22.580,136.400 22.800 C 136.400 23.020,135.860 23.200,135.200 23.200 C 134.540 23.200,134.000 23.380,134.000 23.600 C 134.000 23.820,133.640 24.000,133.200 24.000 C 132.760 24.000,132.400 24.180,132.400 24.400 C 132.400 24.620,131.972 24.800,131.450 24.800 C 130.927 24.800,129.482 25.250,128.238 25.800 C 126.995 26.350,125.712 26.800,125.389 26.800 C 125.065 26.800,124.800 26.980,124.800 27.200 C 124.800 27.420,124.440 27.600,124.000 27.600 C 123.560 27.600,123.200 27.780,123.200 28.000 C 123.200 28.220,122.947 28.400,122.638 28.400 C 122.329 28.400,121.384 28.742,120.538 29.161 C 119.692 29.579,117.650 30.571,116.000 31.365 C 112.868 32.872,110.740 34.037,110.400 34.432 C 110.290 34.560,109.615 34.919,108.900 35.230 C 108.185 35.541,107.600 35.931,107.600 36.098 C 107.600 36.264,107.322 36.400,106.983 36.400 C 106.644 36.400,105.980 36.760,105.508 37.200 C 105.036 37.640,104.413 38.000,104.125 38.000 C 103.836 38.000,103.600 38.180,103.600 38.400 C 103.600 38.620,103.240 38.800,102.800 38.800 C 102.360 38.800,102.000 38.980,102.000 39.200 C 102.000 39.420,101.764 39.600,101.475 39.600 C 101.187 39.600,100.601 39.915,100.173 40.300 C 99.745 40.685,98.587 41.435,97.598 41.966 C 96.609 42.498,94.763 43.713,93.496 44.666 C 92.228 45.620,91.053 46.400,90.884 46.400 C 90.715 46.400,90.317 46.760,90.000 47.200 C 89.683 47.640,89.175 48.000,88.872 48.000 C 88.569 48.000,87.817 48.540,87.200 49.200 C 86.583 49.860,85.881 50.400,85.640 50.400 C 85.398 50.400,84.459 51.120,83.552 52.000 C 82.645 52.880,81.741 53.600,81.541 53.600 C 81.342 53.600,80.403 54.365,79.455 55.300 C 78.507 56.235,77.033 57.540,76.180 58.200 C 73.457 60.307,57.600 76.376,57.600 77.029 C 57.600 77.152,56.700 78.129,55.600 79.200 C 54.500 80.271,53.600 81.358,53.600 81.614 C 53.600 81.870,53.060 82.583,52.400 83.200 C 51.740 83.817,51.200 84.481,51.200 84.676 C 51.200 84.872,50.480 85.828,49.600 86.800 C 48.720 87.772,48.000 88.760,48.000 88.996 C 48.000 89.231,47.640 89.683,47.200 90.000 C 46.760 90.317,46.400 90.897,46.400 91.288 C 46.400 91.680,46.227 92.000,46.015 92.000 C 45.554 92.000,42.809 95.988,41.815 98.100 C 41.426 98.925,40.949 99.600,40.754 99.600 C 40.559 99.600,40.400 99.920,40.400 100.312 C 40.400 100.703,40.040 101.283,39.600 101.600 C 39.160 101.917,38.800 102.497,38.800 102.888 C 38.800 103.280,38.620 103.600,38.400 103.600 C 38.180 103.600,38.000 103.920,38.000 104.312 C 38.000 104.703,37.640 105.283,37.200 105.600 C 36.760 105.917,36.400 106.497,36.400 106.888 C 36.400 107.280,36.220 107.600,36.000 107.600 C 35.780 107.600,35.600 107.960,35.600 108.400 C 35.600 108.840,35.420 109.200,35.200 109.200 C 34.980 109.200,34.800 109.470,34.800 109.800 C 34.800 110.130,34.620 110.400,34.400 110.400 C 34.180 110.400,34.000 110.760,34.000 111.200 C 34.000 111.640,33.820 112.000,33.600 112.000 C 33.380 112.000,33.200 112.360,33.200 112.800 C 33.200 113.240,33.020 113.600,32.800 113.600 C 32.580 113.600,32.400 113.960,32.400 114.400 C 32.400 114.840,32.220 115.200,32.000 115.200 C 31.780 115.200,31.600 115.560,31.600 116.000 C 31.600 116.440,31.420 116.800,31.200 116.800 C 30.980 116.800,30.800 117.160,30.800 117.600 C 30.800 118.040,30.620 118.400,30.400 118.400 C 30.180 118.400,30.000 118.760,30.000 119.200 C 30.000 119.640,29.820 120.000,29.600 120.000 C 29.380 120.000,29.200 120.360,29.200 120.800 C 29.200 121.240,29.020 121.600,28.800 121.600 C 28.580 121.600,28.400 121.960,28.400 122.400 C 28.400 122.840,28.220 123.200,28.000 123.200 C 27.780 123.200,27.600 123.465,27.600 123.788 C 27.600 124.112,27.156 125.347,26.613 126.535 C 26.070 127.722,25.403 129.527,25.130 130.546 C 24.857 131.566,24.491 132.400,24.317 132.400 C 24.143 132.400,24.000 132.940,24.000 133.600 C 24.000 134.260,23.820 134.800,23.600 134.800 C 23.380 134.800,23.200 135.149,23.200 135.576 C 23.200 136.003,23.020 136.464,22.800 136.600 C 22.580 136.736,22.400 137.287,22.400 137.824 C 22.400 138.361,22.220 138.800,22.000 138.800 C 21.780 138.800,21.600 139.340,21.600 140.000 C 21.600 140.660,21.420 141.200,21.200 141.200 C 20.980 141.200,20.800 141.740,20.800 142.400 C 20.800 143.060,20.620 143.600,20.400 143.600 C 20.180 143.600,20.000 144.230,20.000 145.000 C 20.000 145.770,19.820 146.400,19.600 146.400 C 19.380 146.400,19.200 146.940,19.200 147.600 C 19.200 148.260,19.020 148.800,18.800 148.800 C 18.580 148.800,18.400 149.520,18.400 150.400 C 18.400 151.280,18.220 152.000,18.000 152.000 C 17.780 152.000,17.600 152.720,17.600 153.600 C 17.600 154.480,17.420 155.200,17.200 155.200 C 16.980 155.200,16.800 155.920,16.800 156.800 C 16.800 157.680,16.620 158.400,16.400 158.400 C 16.180 158.400,16.000 159.210,16.000 160.200 C 16.000 161.190,15.820 162.000,15.600 162.000 C 15.380 162.000,15.200 162.900,15.200 164.000 C 15.200 165.100,15.020 166.000,14.800 166.000 C 14.578 166.000,14.400 167.067,14.400 168.400 C 14.400 169.733,14.222 170.800,14.000 170.800 C 13.775 170.800,13.600 171.925,13.600 173.376 C 13.600 174.793,13.420 176.064,13.200 176.200 C 12.980 176.336,12.800 177.967,12.800 179.824 C 12.800 181.808,12.635 183.200,12.400 183.200 C 12.144 183.200,12.000 186.867,12.000 193.400 C 12.000 199.933,12.144 203.600,12.400 203.600 C 12.620 203.600,12.800 203.793,12.800 204.029 C 12.800 204.264,13.025 204.672,13.300 204.934 C 17.272 208.720,25.200 206.822,25.200 202.086 C 25.200 201.184,25.380 200.336,25.600 200.200 C 25.844 200.049,26.000 197.004,26.000 192.400 C 26.000 187.796,26.156 184.751,26.400 184.600 C 26.620 184.464,26.800 182.833,26.800 180.976 C 26.800 178.992,26.965 177.600,27.200 177.600 C 27.422 177.600,27.600 176.541,27.600 175.224 C 27.600 173.917,27.780 172.736,28.000 172.600 C 28.220 172.464,28.400 171.463,28.400 170.376 C 28.400 169.289,28.580 168.400,28.800 168.400 C 29.020 168.400,29.200 167.500,29.200 166.400 C 29.200 165.300,29.380 164.400,29.600 164.400 C 29.820 164.400,30.000 163.500,30.000 162.400 C 30.000 161.300,30.180 160.400,30.400 160.400 C 30.620 160.400,30.800 159.781,30.800 159.024 C 30.800 158.267,30.980 157.536,31.200 157.400 C 31.420 157.264,31.600 156.533,31.600 155.776 C 31.600 155.019,31.780 154.400,32.000 154.400 C 32.220 154.400,32.400 153.860,32.400 153.200 C 32.400 152.540,32.580 152.000,32.800 152.000 C 33.020 152.000,33.200 151.471,33.200 150.824 C 33.200 150.177,33.380 149.536,33.600 149.400 C 33.820 149.264,34.000 148.634,34.000 148.000 C 34.000 147.366,34.144 146.758,34.321 146.649 C 34.497 146.540,34.893 145.528,35.200 144.400 C 35.507 143.272,35.903 142.260,36.079 142.151 C 36.256 142.042,36.400 141.513,36.400 140.976 C 36.400 140.439,36.580 140.000,36.800 140.000 C 37.020 140.000,37.200 139.550,37.200 139.000 C 37.200 138.450,37.347 138.000,37.528 138.000 C 37.708 138.000,38.100 137.100,38.400 136.000 C 38.700 134.900,39.092 134.000,39.272 134.000 C 39.453 134.000,39.600 133.764,39.600 133.475 C 39.600 133.186,39.944 132.238,40.364 131.368 C 40.785 130.498,41.255 129.114,41.409 128.293 C 41.563 127.472,41.849 126.800,42.045 126.800 C 42.240 126.800,42.400 126.440,42.400 126.000 C 42.400 125.560,42.546 125.200,42.725 125.200 C 42.904 125.200,43.298 124.570,43.600 123.800 C 43.902 123.030,44.296 122.400,44.475 122.400 C 44.654 122.400,44.800 122.040,44.800 121.600 C 44.800 121.160,44.980 120.800,45.200 120.800 C 45.420 120.800,45.600 120.440,45.600 120.000 C 45.600 119.560,45.780 119.200,46.000 119.200 C 46.220 119.200,46.400 118.840,46.400 118.400 C 46.400 117.960,46.580 117.600,46.800 117.600 C 47.020 117.600,47.200 117.240,47.200 116.800 C 47.200 116.360,47.380 116.000,47.600 116.000 C 47.820 116.000,48.000 115.764,48.000 115.475 C 48.000 115.187,48.360 114.564,48.800 114.092 C 49.240 113.620,49.600 112.956,49.600 112.617 C 49.600 112.278,49.780 112.000,50.000 112.000 C 50.220 112.000,50.400 111.764,50.400 111.475 C 50.400 111.187,50.760 110.564,51.200 110.092 C 51.640 109.620,52.000 109.128,52.000 108.999 C 52.000 108.870,52.900 107.430,54.000 105.800 C 55.100 104.170,56.000 102.730,56.000 102.601 C 56.000 102.471,56.443 101.887,56.984 101.304 C 57.525 100.720,58.177 99.738,58.433 99.121 C 58.688 98.505,59.055 98.000,59.249 98.000 C 59.442 98.000,59.600 97.730,59.600 97.400 C 59.600 97.071,60.320 96.059,61.200 95.152 C 62.080 94.245,62.800 93.327,62.800 93.112 C 62.800 92.897,63.340 92.217,64.000 91.600 C 64.660 90.983,65.200 90.375,65.200 90.249 C 65.200 90.122,66.190 88.996,67.400 87.747 C 68.610 86.498,69.600 85.332,69.600 85.157 C 69.600 84.859,72.663 81.557,77.168 77.000 C 80.605 73.523,84.248 70.162,85.648 69.177 C 86.392 68.654,87.661 67.545,88.469 66.713 C 89.276 65.881,90.056 65.200,90.200 65.200 C 90.344 65.200,91.154 64.480,92.000 63.600 C 92.846 62.720,93.749 62.000,94.008 62.000 C 94.267 62.000,94.983 61.460,95.600 60.800 C 96.217 60.140,97.009 59.600,97.360 59.600 C 97.712 59.600,98.004 59.465,98.008 59.300 C 98.012 59.135,98.912 58.468,100.008 57.817 C 101.104 57.167,102.000 56.492,102.000 56.317 C 102.000 56.143,102.236 56.000,102.525 56.000 C 102.813 56.000,103.436 55.640,103.908 55.200 C 104.380 54.760,104.920 54.400,105.108 54.400 C 105.296 54.400,105.798 54.085,106.225 53.700 C 106.651 53.315,107.492 52.746,108.093 52.436 C 108.695 52.126,109.542 51.541,109.977 51.136 C 110.411 50.731,111.044 50.400,111.383 50.400 C 111.722 50.400,112.000 50.220,112.000 50.000 C 112.000 49.780,112.320 49.600,112.712 49.600 C 113.103 49.600,113.683 49.240,114.000 48.800 C 114.317 48.360,114.897 48.000,115.288 48.000 C 115.680 48.000,116.000 47.820,116.000 47.600 C 116.000 47.380,116.360 47.200,116.800 47.200 C 117.240 47.200,117.600 47.020,117.600 46.800 C 117.600 46.580,117.960 46.400,118.400 46.400 C 118.840 46.400,119.200 46.220,119.200 46.000 C 119.200 45.780,119.560 45.600,120.000 45.600 C 120.440 45.600,120.800 45.420,120.800 45.200 C 120.800 44.980,121.070 44.800,121.400 44.800 C 121.730 44.800,122.000 44.620,122.000 44.400 C 122.000 44.180,122.360 44.000,122.800 44.000 C 123.240 44.000,123.600 43.820,123.600 43.600 C 123.600 43.380,123.960 43.200,124.400 43.200 C 124.840 43.200,125.200 43.020,125.200 42.800 C 125.200 42.580,125.560 42.400,126.000 42.400 C 126.440 42.400,126.800 42.236,126.800 42.035 C 126.800 41.834,127.520 41.549,128.400 41.400 C 129.280 41.251,130.000 40.966,130.000 40.765 C 130.000 40.564,130.279 40.400,130.619 40.400 C 130.960 40.400,131.984 40.040,132.894 39.600 C 133.805 39.160,134.786 38.800,135.075 38.800 C 135.364 38.800,135.600 38.620,135.600 38.400 C 135.600 38.180,135.962 38.000,136.405 38.000 C 136.848 38.000,137.613 37.792,138.105 37.538 C 139.982 36.567,140.407 36.400,140.995 36.400 C 141.328 36.400,141.600 36.220,141.600 36.000 C 141.600 35.780,142.140 35.600,142.800 35.600 C 143.460 35.600,144.000 35.420,144.000 35.200 C 144.000 34.980,144.540 34.800,145.200 34.800 C 145.860 34.800,146.400 34.620,146.400 34.400 C 146.400 34.180,146.940 34.000,147.600 34.000 C 148.260 34.000,148.800 33.820,148.800 33.600 C 148.800 33.380,149.430 33.200,150.200 33.200 C 150.970 33.200,151.600 33.020,151.600 32.800 C 151.600 32.580,152.230 32.400,153.000 32.400 C 153.770 32.400,154.400 32.220,154.400 32.000 C 154.400 31.780,155.030 31.600,155.800 31.600 C 156.570 31.600,157.200 31.420,157.200 31.200 C 157.200 30.980,157.920 30.800,158.800 30.800 C 159.680 30.800,160.400 30.620,160.400 30.400 C 160.400 30.180,161.120 30.000,162.000 30.000 C 162.880 30.000,163.600 29.820,163.600 29.600 C 163.600 29.380,164.140 29.200,164.800 29.200 C 165.460 29.200,166.000 29.020,166.000 28.800 C 166.000 28.580,166.283 28.400,166.629 28.400 C 167.437 28.400,168.400 27.437,168.400 26.629 C 168.400 26.283,168.580 26.000,168.800 26.000 C 169.020 26.000,169.200 25.460,169.200 24.800 C 169.200 24.140,169.380 23.600,169.600 23.600 C 169.820 23.600,170.000 23.150,170.000 22.600 C 170.000 22.050,169.820 21.600,169.600 21.600 C 169.380 21.600,169.200 21.060,169.200 20.400 C 169.200 19.740,169.020 19.200,168.800 19.200 C 168.580 19.200,168.400 18.917,168.400 18.571 C 168.400 17.763,167.437 16.800,166.629 16.800 C 166.283 16.800,166.000 16.620,166.000 16.400 C 166.000 16.180,165.562 16.000,165.026 16.000 C 164.490 16.000,163.613 15.833,163.077 15.629 C 162.540 15.425,161.944 15.407,161.751 15.588 M359.764 41.235 C 359.469 43.344,358.844 48.204,358.376 52.035 C 357.908 55.866,357.361 60.260,357.161 61.800 C 355.826 72.064,357.000 74.790,362.759 74.806 C 366.634 74.817,366.731 74.675,354.587 86.813 C 346.727 94.669,343.200 97.947,343.200 97.395 C 343.200 96.955,344.730 90.482,346.600 83.012 C 350.383 67.897,350.349 68.130,349.115 65.935 C 347.534 63.121,346.204 62.620,339.900 62.462 C 336.875 62.386,334.400 62.207,334.400 62.064 C 334.400 61.384,359.802 36.462,360.039 36.909 C 360.183 37.179,360.059 39.126,359.764 41.235 M156.800 37.600 C 156.800 37.820,156.260 38.000,155.600 38.000 C 154.940 38.000,154.400 38.180,154.400 38.400 C 154.400 38.620,154.040 38.800,153.600 38.800 C 153.160 38.800,152.800 38.980,152.800 39.200 C 152.800 39.420,152.524 39.600,152.187 39.600 C 151.849 39.600,150.967 40.185,150.227 40.900 C 149.486 41.615,148.537 42.470,148.117 42.800 C 146.657 43.948,144.000 48.330,144.000 49.589 C 144.000 50.009,143.820 50.464,143.600 50.600 C 143.339 50.761,143.200 61.471,143.200 81.424 L 143.200 112.000 137.400 112.000 C 133.800 112.000,131.600 112.152,131.600 112.400 C 131.600 112.620,131.257 112.800,130.838 112.800 C 128.769 112.800,120.800 119.305,120.800 120.994 C 120.800 121.327,120.620 121.600,120.400 121.600 C 120.180 121.600,120.000 121.960,120.000 122.400 C 120.000 122.840,119.820 123.200,119.600 123.200 C 119.380 123.200,119.200 123.740,119.200 124.400 C 119.200 125.060,119.020 125.600,118.800 125.600 C 118.552 125.600,118.400 127.800,118.400 131.400 C 118.400 135.000,118.552 137.200,118.800 137.200 C 119.020 137.200,119.200 137.524,119.200 137.920 C 119.200 138.814,120.094 140.793,120.500 140.797 C 120.665 140.799,120.800 141.049,120.800 141.354 C 120.800 142.009,125.745 147.200,126.369 147.200 C 126.606 147.200,126.800 147.361,126.800 147.558 C 126.800 147.754,127.697 148.339,128.793 148.858 L 130.786 149.800 130.793 188.476 C 130.798 213.822,130.938 227.238,131.200 227.400 C 131.420 227.536,131.600 228.357,131.600 229.224 C 131.600 230.091,131.780 230.800,132.000 230.800 C 132.220 230.800,132.400 231.340,132.400 232.000 C 132.400 232.660,132.580 233.200,132.800 233.200 C 133.020 233.200,133.200 233.740,133.200 234.400 C 133.200 235.060,133.380 235.600,133.600 235.600 C 133.820 235.600,134.000 235.960,134.000 236.400 C 134.000 236.840,134.180 237.200,134.400 237.200 C 134.620 237.200,134.800 237.560,134.800 238.000 C 134.800 238.440,134.980 238.800,135.200 238.800 C 135.420 238.800,135.600 239.160,135.600 239.600 C 135.600 240.040,135.780 240.400,136.000 240.400 C 136.220 240.400,136.400 240.670,136.400 241.000 C 136.400 241.330,136.580 241.600,136.800 241.600 C 137.020 241.600,137.200 241.920,137.200 242.312 C 137.200 242.703,137.560 243.283,138.000 243.600 C 138.440 243.917,138.800 244.411,138.800 244.698 C 138.800 244.984,139.516 245.979,140.391 246.909 C 145.082 251.893,146.731 253.515,148.000 254.393 C 148.770 254.926,149.490 255.474,149.600 255.611 C 149.710 255.748,150.610 256.296,151.600 256.830 C 152.590 257.363,153.490 257.918,153.601 258.063 C 153.711 258.208,154.476 258.453,155.301 258.608 C 156.125 258.762,156.800 259.049,156.800 259.245 C 156.800 259.440,157.160 259.600,157.600 259.600 C 158.040 259.600,158.400 259.780,158.400 260.000 C 158.400 260.220,158.850 260.400,159.400 260.400 C 159.950 260.400,160.400 260.580,160.400 260.800 C 160.400 261.020,160.929 261.200,161.576 261.200 C 162.223 261.200,162.864 261.380,163.000 261.600 C 163.136 261.820,164.047 262.000,165.024 262.000 C 166.001 262.000,166.800 262.180,166.800 262.400 C 166.800 262.620,167.160 262.800,167.600 262.800 C 168.363 262.800,168.400 263.067,168.400 268.600 C 168.400 272.200,168.552 274.400,168.800 274.400 C 169.020 274.400,169.200 274.940,169.200 275.600 C 169.200 276.260,169.380 276.800,169.600 276.800 C 169.820 276.800,170.000 277.120,170.000 277.512 C 170.000 277.903,170.360 278.483,170.800 278.800 C 171.240 279.117,171.600 279.611,171.600 279.897 C 171.600 280.509,175.793 284.800,176.391 284.800 C 176.616 284.800,176.800 284.950,176.800 285.132 C 176.800 285.315,177.250 285.675,177.800 285.932 C 178.350 286.190,179.250 286.610,179.800 286.868 L 180.800 287.335 180.800 304.868 L 180.800 322.400 178.800 322.400 C 177.700 322.400,176.800 322.220,176.800 322.000 C 176.800 321.780,176.080 321.600,175.200 321.600 C 174.320 321.600,173.600 321.420,173.600 321.200 C 173.600 320.980,172.790 320.800,171.800 320.800 C 170.810 320.800,170.000 320.620,170.000 320.400 C 170.000 320.180,169.471 320.000,168.824 320.000 C 168.177 320.000,167.536 319.820,167.400 319.600 C 167.264 319.380,166.533 319.200,165.776 319.200 C 165.019 319.200,164.400 319.020,164.400 318.800 C 164.400 318.580,163.860 318.400,163.200 318.400 C 162.540 318.400,162.000 318.220,162.000 318.000 C 162.000 317.780,161.460 317.600,160.800 317.600 C 160.140 317.600,159.600 317.420,159.600 317.200 C 159.600 316.980,159.161 316.800,158.624 316.800 C 158.087 316.800,157.536 316.620,157.400 316.400 C 157.264 316.180,156.713 316.000,156.176 316.000 C 155.639 316.000,155.200 315.820,155.200 315.600 C 155.200 315.380,154.840 315.200,154.400 315.200 C 153.960 315.200,153.600 315.020,153.600 314.800 C 153.600 314.580,153.161 314.400,152.624 314.400 C 152.087 314.400,151.536 314.220,151.400 314.000 C 151.264 313.780,150.803 313.600,150.376 313.600 C 149.949 313.600,149.600 313.420,149.600 313.200 C 149.600 312.980,149.240 312.800,148.800 312.800 C 148.360 312.800,148.000 312.620,148.000 312.400 C 148.000 312.180,147.640 312.000,147.200 312.000 C 146.760 312.000,146.400 311.820,146.400 311.600 C 146.400 311.380,146.040 311.200,145.600 311.200 C 145.160 311.200,144.800 311.020,144.800 310.800 C 144.800 310.580,144.556 310.400,144.257 310.400 C 143.958 310.400,142.473 309.742,140.957 308.939 C 139.441 308.135,137.796 307.280,137.303 307.039 C 136.810 306.797,136.405 306.465,136.403 306.300 C 136.401 306.135,136.080 306.000,135.688 306.000 C 135.297 306.000,134.717 305.640,134.400 305.200 C 134.083 304.760,133.543 304.400,133.200 304.400 C 132.857 304.400,132.317 304.040,132.000 303.600 C 131.683 303.160,131.143 302.800,130.800 302.800 C 130.457 302.800,129.917 302.440,129.600 302.000 C 129.283 301.560,128.775 301.200,128.472 301.200 C 128.169 301.200,127.417 300.660,126.800 300.000 C 126.183 299.340,125.526 298.799,125.340 298.798 C 125.153 298.797,124.425 298.257,123.722 297.598 C 123.019 296.939,122.338 296.400,122.208 296.400 C 122.079 296.400,121.380 295.815,120.656 295.100 C 118.873 293.341,116.269 291.211,115.894 291.205 C 115.394 291.197,109.090 284.711,107.909 282.990 C 107.309 282.116,106.094 280.635,105.209 279.699 C 104.324 278.764,103.600 277.897,103.600 277.772 C 103.600 277.648,102.972 276.884,102.203 276.073 C 101.435 275.263,100.805 274.473,100.803 274.318 C 100.802 274.163,100.350 273.586,99.800 273.036 C 99.250 272.486,98.800 271.798,98.800 271.506 C 98.800 271.215,98.440 270.717,98.000 270.400 C 97.560 270.083,97.200 269.627,97.200 269.387 C 97.200 269.147,96.885 268.602,96.500 268.175 C 96.115 267.749,95.545 266.905,95.232 266.300 C 94.920 265.695,94.515 265.200,94.332 265.200 C 94.150 265.200,94.000 264.840,94.000 264.400 C 94.000 263.960,93.820 263.600,93.600 263.600 C 93.380 263.600,93.200 263.330,93.200 263.000 C 93.200 262.670,93.020 262.400,92.800 262.400 C 92.580 262.400,92.400 262.130,92.400 261.800 C 92.400 261.470,92.220 261.200,92.000 261.200 C 91.780 261.200,91.600 260.973,91.600 260.696 C 91.600 260.420,90.790 258.606,89.800 256.666 C 88.810 254.726,88.000 252.882,88.000 252.569 C 88.000 252.256,87.820 252.000,87.600 252.000 C 87.380 252.000,87.200 251.640,87.200 251.200 C 87.200 250.760,87.020 250.400,86.800 250.400 C 86.580 250.400,86.400 250.040,86.400 249.600 C 86.400 249.160,86.220 248.800,86.000 248.800 C 85.780 248.800,85.600 248.361,85.600 247.824 C 85.600 247.287,85.420 246.736,85.200 246.600 C 84.980 246.464,84.800 246.003,84.800 245.576 C 84.800 245.149,84.620 244.800,84.400 244.800 C 84.180 244.800,84.000 244.350,84.000 243.800 C 84.000 243.250,83.820 242.800,83.600 242.800 C 83.380 242.800,83.200 242.438,83.200 241.995 C 83.200 241.552,83.020 240.832,82.800 240.395 C 82.580 239.958,82.220 239.242,82.000 238.805 C 81.780 238.368,81.600 237.569,81.600 237.029 C 81.600 236.489,81.420 235.936,81.200 235.800 C 80.980 235.664,80.800 235.023,80.800 234.376 C 80.800 233.729,80.620 233.200,80.400 233.200 C 80.180 233.200,80.000 232.581,80.000 231.824 C 80.000 231.067,79.820 230.336,79.600 230.200 C 79.380 230.064,79.200 229.333,79.200 228.576 C 79.200 227.819,79.020 227.200,78.800 227.200 C 78.580 227.200,78.400 226.401,78.400 225.424 C 78.400 224.447,78.220 223.536,78.000 223.400 C 77.780 223.264,77.600 222.263,77.600 221.176 C 77.600 220.089,77.420 219.200,77.200 219.200 C 76.971 219.200,76.800 218.000,76.800 216.400 C 76.800 214.800,76.629 213.600,76.400 213.600 C 76.151 213.600,76.000 211.293,76.000 207.480 C 76.000 203.253,75.852 201.212,75.520 200.880 C 75.147 200.507,75.147 200.293,75.520 199.920 C 75.854 199.586,76.000 197.458,76.000 192.920 C 76.000 188.840,76.150 186.400,76.400 186.400 C 76.629 186.400,76.800 185.200,76.800 183.600 C 76.800 182.000,76.971 180.800,77.200 180.800 C 77.422 180.800,77.600 179.733,77.600 178.400 C 77.600 177.067,77.778 176.000,78.000 176.000 C 78.220 176.000,78.400 175.280,78.400 174.400 C 78.400 173.520,78.580 172.800,78.800 172.800 C 79.020 172.800,79.200 172.080,79.200 171.200 C 79.200 170.320,79.380 169.600,79.600 169.600 C 79.820 169.600,80.000 168.970,80.000 168.200 C 80.000 167.430,80.180 166.800,80.400 166.800 C 80.620 166.800,80.800 166.181,80.800 165.424 C 80.800 164.667,80.980 163.936,81.200 163.800 C 81.420 163.664,81.600 163.023,81.600 162.376 C 81.600 161.729,81.780 161.200,82.000 161.200 C 82.220 161.200,82.400 160.660,82.400 160.000 C 82.400 159.340,82.580 158.800,82.800 158.800 C 83.020 158.800,83.200 158.440,83.200 158.000 C 83.200 157.560,83.380 157.200,83.600 157.200 C 83.820 157.200,84.000 156.838,84.000 156.395 C 84.000 155.952,84.180 155.232,84.400 154.795 C 84.620 154.358,84.980 153.642,85.200 153.205 C 85.420 152.768,85.600 152.138,85.600 151.805 C 85.600 151.472,85.780 151.200,86.000 151.200 C 86.220 151.200,86.400 150.840,86.400 150.400 C 86.400 149.960,86.580 149.600,86.800 149.600 C 87.020 149.600,87.200 149.364,87.200 149.075 C 87.200 148.786,87.576 147.751,88.035 146.775 C 90.300 141.963,91.829 138.987,92.100 138.867 C 92.265 138.793,92.400 138.428,92.400 138.055 C 92.400 137.682,92.760 137.117,93.200 136.800 C 93.640 136.483,94.000 135.903,94.000 135.512 C 94.000 135.120,94.180 134.800,94.400 134.800 C 94.620 134.800,94.800 134.564,94.800 134.275 C 94.800 133.987,95.160 133.364,95.600 132.892 C 96.040 132.420,96.400 131.844,96.400 131.613 C 96.400 131.382,96.940 130.628,97.600 129.937 C 98.260 129.246,98.800 128.438,98.800 128.141 C 98.800 127.843,98.935 127.599,99.100 127.597 C 99.792 127.590,100.400 125.251,100.400 122.598 C 100.400 119.601,98.780 116.800,97.046 116.800 C 96.691 116.800,96.400 116.620,96.400 116.400 C 96.400 116.174,95.267 116.000,93.800 116.000 C 92.333 116.000,91.200 116.174,91.200 116.400 C 91.200 116.620,90.912 116.800,90.560 116.800 C 89.853 116.800,86.400 120.265,86.400 120.975 C 86.400 121.222,86.040 121.683,85.600 122.000 C 85.160 122.317,84.800 122.831,84.800 123.141 C 84.800 123.452,84.484 123.997,84.097 124.353 C 83.711 124.709,83.126 125.540,82.797 126.200 C 82.469 126.860,81.885 127.749,81.500 128.175 C 81.115 128.602,80.800 129.187,80.800 129.475 C 80.800 129.764,80.620 130.000,80.400 130.000 C 80.180 130.000,80.000 130.360,80.000 130.800 C 80.000 131.240,79.865 131.601,79.700 131.603 C 79.535 131.605,79.194 132.010,78.941 132.503 C 76.186 137.889,74.800 140.858,74.800 141.376 C 74.800 141.719,74.620 142.000,74.400 142.000 C 74.180 142.000,74.000 142.349,74.000 142.776 C 74.000 143.203,73.820 143.664,73.600 143.800 C 73.380 143.936,73.200 144.397,73.200 144.824 C 73.200 145.251,73.020 145.600,72.800 145.600 C 72.580 145.600,72.400 145.960,72.400 146.400 C 72.400 146.840,72.220 147.200,72.000 147.200 C 71.780 147.200,71.600 147.740,71.600 148.400 C 71.600 149.060,71.420 149.600,71.200 149.600 C 70.980 149.600,70.800 149.949,70.800 150.376 C 70.800 150.803,70.620 151.264,70.400 151.400 C 70.180 151.536,70.000 152.087,70.000 152.624 C 70.000 153.161,69.820 153.600,69.600 153.600 C 69.380 153.600,69.200 154.140,69.200 154.800 C 69.200 155.460,69.020 156.000,68.800 156.000 C 68.580 156.000,68.400 156.540,68.400 157.200 C 68.400 157.860,68.220 158.400,68.000 158.400 C 67.780 158.400,67.600 159.030,67.600 159.800 C 67.600 160.570,67.420 161.200,67.200 161.200 C 66.980 161.200,66.800 161.729,66.800 162.376 C 66.800 163.023,66.620 163.664,66.400 163.800 C 66.180 163.936,66.000 164.667,66.000 165.424 C 66.000 166.181,65.838 166.800,65.640 166.800 C 65.442 166.800,65.183 167.565,65.064 168.500 C 64.945 169.435,64.645 171.190,64.397 172.400 C 64.150 173.610,63.853 175.500,63.737 176.600 C 63.621 177.700,63.363 178.771,63.163 178.980 C 62.963 179.189,62.800 180.548,62.800 182.000 C 62.800 183.452,62.616 184.824,62.390 185.050 C 61.543 185.897,62.343 220.065,63.231 220.980 C 63.434 221.189,63.600 222.213,63.600 223.256 C 63.600 224.299,63.780 225.264,64.000 225.400 C 64.220 225.536,64.400 226.436,64.400 227.400 C 64.400 228.364,64.580 229.264,64.800 229.400 C 65.020 229.536,65.200 230.447,65.200 231.424 C 65.200 232.401,65.380 233.200,65.600 233.200 C 65.820 233.200,66.000 233.819,66.000 234.576 C 66.000 235.333,66.180 236.064,66.400 236.200 C 66.620 236.336,66.800 236.977,66.800 237.624 C 66.800 238.271,66.980 238.800,67.200 238.800 C 67.420 238.800,67.600 239.430,67.600 240.200 C 67.600 240.970,67.780 241.600,68.000 241.600 C 68.220 241.600,68.400 242.140,68.400 242.800 C 68.400 243.460,68.580 244.000,68.800 244.000 C 69.020 244.000,69.200 244.540,69.200 245.200 C 69.200 245.860,69.380 246.400,69.600 246.400 C 69.820 246.400,70.000 246.760,70.000 247.200 C 70.000 247.640,70.180 248.000,70.400 248.000 C 70.620 248.000,70.800 248.540,70.800 249.200 C 70.800 249.860,70.980 250.400,71.200 250.400 C 71.420 250.400,71.600 250.850,71.600 251.400 C 71.600 251.950,71.780 252.400,72.000 252.400 C 72.220 252.400,72.400 252.850,72.400 253.400 C 72.400 253.950,72.580 254.400,72.800 254.400 C 73.020 254.400,73.200 254.760,73.200 255.200 C 73.200 255.640,73.380 256.000,73.600 256.000 C 73.820 256.000,74.000 256.272,74.000 256.605 C 74.000 256.938,74.152 257.523,74.339 257.905 C 74.525 258.287,75.560 260.442,76.639 262.694 C 77.717 264.946,78.735 266.791,78.900 266.794 C 79.065 266.797,79.200 267.160,79.200 267.600 C 79.200 268.040,79.380 268.400,79.600 268.400 C 79.820 268.400,80.000 268.760,80.000 269.200 C 80.000 269.640,80.180 270.000,80.400 270.000 C 80.620 270.000,80.800 270.270,80.800 270.600 C 80.800 270.930,80.980 271.200,81.200 271.200 C 81.420 271.200,81.600 271.470,81.600 271.800 C 81.600 272.130,81.780 272.400,82.000 272.400 C 82.220 272.400,82.400 272.636,82.400 272.925 C 82.400 273.213,82.760 273.836,83.200 274.308 C 83.640 274.780,84.000 275.354,84.000 275.583 C 84.000 275.812,84.180 276.000,84.400 276.000 C 84.620 276.000,84.800 276.243,84.800 276.541 C 84.800 276.838,85.340 277.646,86.000 278.337 C 86.660 279.028,87.200 279.825,87.200 280.108 C 87.200 280.391,87.560 280.883,88.000 281.200 C 88.440 281.517,88.800 281.969,88.800 282.204 C 88.800 282.440,89.520 283.428,90.400 284.400 C 91.280 285.372,92.001 286.355,92.003 286.584 C 92.005 286.813,92.807 287.810,93.785 288.800 C 94.763 289.790,95.572 290.739,95.582 290.909 C 95.634 291.790,111.938 307.276,113.956 308.361 C 114.530 308.670,115.291 309.255,115.647 309.661 C 116.003 310.068,116.471 310.400,116.688 310.400 C 116.904 310.400,117.646 310.940,118.337 311.600 C 119.028 312.260,119.825 312.800,120.108 312.800 C 120.391 312.800,120.883 313.160,121.200 313.600 C 121.517 314.040,122.031 314.400,122.341 314.400 C 122.652 314.400,123.197 314.716,123.553 315.103 C 123.909 315.489,124.695 316.060,125.300 316.370 C 125.905 316.681,126.400 317.085,126.400 317.268 C 126.400 317.450,126.670 317.600,127.000 317.600 C 127.330 317.600,127.600 317.780,127.600 318.000 C 127.600 318.220,127.878 318.400,128.217 318.400 C 128.556 318.400,129.220 318.760,129.692 319.200 C 130.164 319.640,130.787 320.000,131.075 320.000 C 131.364 320.000,131.600 320.180,131.600 320.400 C 131.600 320.620,131.960 320.800,132.400 320.800 C 132.840 320.800,133.200 320.980,133.200 321.200 C 133.200 321.420,133.560 321.600,134.000 321.600 C 134.440 321.600,134.800 321.780,134.800 322.000 C 134.800 322.220,135.160 322.400,135.600 322.400 C 136.040 322.400,136.401 322.535,136.403 322.700 C 136.407 323.059,138.344 324.000,139.080 324.000 C 139.366 324.000,139.600 324.160,139.600 324.355 C 139.600 324.551,140.230 324.829,141.000 324.974 C 141.770 325.118,142.400 325.408,142.400 325.618 C 142.400 325.828,142.760 326.000,143.200 326.000 C 143.640 326.000,144.000 326.180,144.000 326.400 C 144.000 326.620,144.349 326.800,144.776 326.800 C 145.203 326.800,145.664 326.980,145.800 327.200 C 145.936 327.420,146.487 327.600,147.024 327.600 C 147.561 327.600,148.000 327.780,148.000 328.000 C 148.000 328.220,148.360 328.400,148.800 328.400 C 149.240 328.400,149.600 328.580,149.600 328.800 C 149.600 329.020,150.140 329.200,150.800 329.200 C 151.460 329.200,152.000 329.380,152.000 329.600 C 152.000 329.820,152.540 330.000,153.200 330.000 C 153.860 330.000,154.400 330.180,154.400 330.400 C 154.400 330.620,154.940 330.800,155.600 330.800 C 156.260 330.800,156.800 330.980,156.800 331.200 C 156.800 331.420,157.340 331.600,158.000 331.600 C 158.660 331.600,159.200 331.780,159.200 332.000 C 159.200 332.220,159.740 332.400,160.400 332.400 C 161.060 332.400,161.600 332.580,161.600 332.800 C 161.600 333.020,162.230 333.200,163.000 333.200 C 163.770 333.200,164.400 333.380,164.400 333.600 C 164.400 333.820,165.120 334.000,166.000 334.000 C 166.880 334.000,167.600 334.162,167.600 334.360 C 167.600 334.707,169.063 334.977,173.500 335.450 C 174.655 335.573,175.600 335.837,175.600 336.037 C 175.600 336.237,176.554 336.400,177.720 336.400 C 181.026 336.400,180.800 334.587,180.800 361.080 C 180.800 374.126,180.937 384.800,181.105 384.800 C 181.273 384.800,181.588 385.205,181.805 385.700 C 182.022 386.195,182.605 386.778,183.100 386.995 C 183.595 387.212,184.000 387.527,184.000 387.695 C 184.000 387.863,185.468 388.000,187.262 388.000 C 190.673 388.000,193.200 386.885,193.200 385.380 C 193.200 385.061,193.335 384.800,193.500 384.800 C 193.665 384.800,193.800 362.975,193.800 336.300 L 193.800 287.800 200.115 287.690 L 206.430 287.580 206.315 336.190 C 206.252 362.925,206.335 384.800,206.500 384.800 C 206.665 384.800,206.800 385.061,206.800 385.380 C 206.800 386.885,209.327 388.000,212.738 388.000 C 214.532 388.000,216.000 387.863,216.000 387.695 C 216.000 387.527,216.405 387.212,216.900 386.995 C 217.395 386.778,217.978 386.195,218.195 385.700 C 218.412 385.205,218.727 384.800,218.895 384.800 C 219.063 384.800,219.200 374.126,219.200 361.080 C 219.200 334.604,218.978 336.400,222.256 336.400 C 223.409 336.400,224.464 336.220,224.600 336.000 C 224.736 335.780,225.726 335.600,226.800 335.600 C 227.874 335.600,228.864 335.420,229.000 335.200 C 229.136 334.980,229.957 334.800,230.824 334.800 C 231.691 334.800,232.400 334.620,232.400 334.400 C 232.400 334.180,233.120 334.000,234.000 334.000 C 234.880 334.000,235.600 333.820,235.600 333.600 C 235.600 333.380,236.320 333.200,237.200 333.200 C 238.080 333.200,238.800 333.020,238.800 332.800 C 238.800 332.580,239.340 332.400,240.000 332.400 C 240.660 332.400,241.200 332.220,241.200 332.000 C 241.200 331.780,241.830 331.600,242.600 331.600 C 243.370 331.600,244.000 331.420,244.000 331.200 C 244.000 330.980,244.362 330.800,244.805 330.800 C 245.248 330.800,245.968 330.620,246.405 330.400 C 246.842 330.180,247.558 329.820,247.995 329.600 C 248.432 329.380,249.152 329.200,249.595 329.200 C 250.038 329.200,250.400 329.020,250.400 328.800 C 250.400 328.580,250.839 328.400,251.376 328.400 C 251.913 328.400,252.464 328.220,252.600 328.000 C 252.736 327.780,253.197 327.600,253.624 327.600 C 254.051 327.600,254.400 327.420,254.400 327.200 C 254.400 326.980,254.850 326.800,255.400 326.800 C 255.950 326.800,256.400 326.620,256.400 326.400 C 256.400 326.180,256.760 326.000,257.200 326.000 C 257.640 326.000,258.000 325.820,258.000 325.600 C 258.000 325.380,258.306 325.200,258.680 325.200 C 259.583 325.200,268.400 320.802,268.400 320.352 C 268.400 320.158,268.760 320.000,269.200 320.000 C 269.640 320.000,270.000 319.820,270.000 319.600 C 270.000 319.380,270.360 319.200,270.800 319.200 C 271.240 319.200,271.600 319.020,271.600 318.800 C 271.600 318.580,271.870 318.400,272.200 318.400 C 272.530 318.400,272.800 318.250,272.800 318.068 C 272.800 317.885,273.295 317.481,273.900 317.170 C 274.505 316.860,275.291 316.289,275.647 315.903 C 276.003 315.516,276.548 315.200,276.859 315.200 C 277.169 315.200,277.683 314.840,278.000 314.400 C 278.317 313.960,278.857 313.600,279.200 313.600 C 279.543 313.600,280.083 313.240,280.400 312.800 C 280.717 312.360,281.225 312.000,281.528 312.000 C 281.831 312.000,282.583 311.460,283.200 310.800 C 283.817 310.140,284.519 309.600,284.760 309.600 C 285.002 309.600,285.200 309.420,285.200 309.200 C 285.200 308.980,285.388 308.800,285.618 308.800 C 286.652 308.800,294.870 301.219,302.600 293.133 C 304.360 291.292,306.277 289.159,306.859 288.393 C 307.442 287.627,308.297 286.603,308.759 286.117 C 309.222 285.631,309.600 285.028,309.600 284.777 C 309.600 284.526,310.140 283.817,310.800 283.200 C 311.460 282.583,312.000 281.831,312.000 281.528 C 312.000 281.225,312.360 280.717,312.800 280.400 C 313.240 280.083,313.600 279.591,313.600 279.308 C 313.600 279.025,314.140 278.228,314.800 277.537 C 315.460 276.846,316.000 276.038,316.000 275.741 C 316.000 275.443,316.180 275.200,316.400 275.200 C 316.620 275.200,316.800 275.012,316.800 274.783 C 316.800 274.554,317.160 273.980,317.600 273.508 C 318.040 273.036,318.400 272.413,318.400 272.125 C 318.400 271.836,318.580 271.600,318.800 271.600 C 319.020 271.600,319.200 271.322,319.200 270.983 C 319.200 270.644,319.560 269.980,320.000 269.508 C 320.440 269.036,320.800 268.413,320.800 268.125 C 320.800 267.836,320.980 267.600,321.200 267.600 C 321.420 267.600,321.600 267.240,321.600 266.800 C 321.600 266.360,321.780 266.000,322.000 266.000 C 322.220 266.000,322.400 265.640,322.400 265.200 C 322.400 264.760,322.580 264.400,322.800 264.400 C 323.020 264.400,323.200 264.040,323.200 263.600 C 323.200 263.160,323.380 262.800,323.600 262.800 C 323.820 262.800,324.000 262.440,324.000 262.000 C 324.000 261.560,324.160 261.200,324.355 261.200 C 324.551 261.200,324.829 260.570,324.974 259.800 C 325.118 259.030,325.408 258.400,325.618 258.400 C 325.828 258.400,326.000 258.051,326.000 257.624 C 326.000 257.197,326.180 256.736,326.400 256.600 C 326.620 256.464,326.800 256.003,326.800 255.576 C 326.800 255.149,326.980 254.800,327.200 254.800 C 327.420 254.800,327.600 254.350,327.600 253.800 C 327.600 253.250,327.780 252.800,328.000 252.800 C 328.220 252.800,328.400 252.440,328.400 252.000 C 328.400 251.560,328.580 251.200,328.800 251.200 C 329.020 251.200,329.200 250.660,329.200 250.000 C 329.200 249.340,329.380 248.800,329.600 248.800 C 329.820 248.800,330.000 248.260,330.000 247.600 C 330.000 246.940,330.180 246.400,330.400 246.400 C 330.620 246.400,330.800 245.961,330.800 245.424 C 330.800 244.887,330.980 244.336,331.200 244.200 C 331.420 244.064,331.600 243.423,331.600 242.776 C 331.600 242.129,331.780 241.600,332.000 241.600 C 332.220 241.600,332.400 241.161,332.400 240.624 C 332.400 240.087,332.580 239.536,332.800 239.400 C 333.020 239.264,333.200 238.533,333.200 237.776 C 333.200 237.019,333.380 236.400,333.600 236.400 C 333.820 236.400,334.000 235.781,334.000 235.024 C 334.000 234.267,334.180 233.536,334.400 233.400 C 334.620 233.264,334.800 232.443,334.800 231.576 C 334.800 230.709,334.980 230.000,335.200 230.000 C 335.420 230.000,335.600 229.100,335.600 228.000 C 335.600 226.900,335.780 226.000,336.000 226.000 C 336.220 226.000,336.400 225.021,336.400 223.824 C 336.400 222.627,336.580 221.536,336.800 221.400 C 337.020 221.264,337.200 219.813,337.200 218.176 C 337.200 216.459,337.369 215.200,337.600 215.200 C 337.855 215.200,338.000 211.800,338.000 205.800 C 338.000 199.800,337.855 196.400,337.600 196.400 C 337.380 196.400,337.200 196.207,337.200 195.971 C 337.200 195.736,336.975 195.328,336.700 195.066 C 332.716 191.269,324.800 193.205,324.800 197.976 C 324.800 198.843,324.620 199.664,324.400 199.800 C 324.159 199.949,324.000 202.737,324.000 206.824 C 324.000 211.075,323.851 213.600,323.600 213.600 C 323.372 213.600,323.200 214.792,323.200 216.376 C 323.200 217.903,323.020 219.264,322.800 219.400 C 322.580 219.536,322.400 220.627,322.400 221.824 C 322.400 223.021,322.220 224.000,322.000 224.000 C 321.780 224.000,321.600 224.810,321.600 225.800 C 321.600 226.790,321.420 227.600,321.200 227.600 C 320.980 227.600,320.800 228.320,320.800 229.200 C 320.800 230.080,320.620 230.800,320.400 230.800 C 320.180 230.800,320.000 231.520,320.000 232.400 C 320.000 233.280,319.820 234.000,319.600 234.000 C 319.380 234.000,319.200 234.540,319.200 235.200 C 319.200 235.860,319.020 236.400,318.800 236.400 C 318.580 236.400,318.400 236.940,318.400 237.600 C 318.400 238.260,318.220 238.800,318.000 238.800 C 317.780 238.800,317.600 239.340,317.600 240.000 C 317.600 240.660,317.420 241.200,317.200 241.200 C 316.980 241.200,316.800 241.562,316.800 242.005 C 316.800 242.448,316.620 243.168,316.400 243.605 C 316.180 244.042,315.820 244.758,315.600 245.195 C 315.380 245.632,315.200 246.262,315.200 246.595 C 315.200 246.928,315.020 247.200,314.800 247.200 C 314.580 247.200,314.400 247.472,314.400 247.805 C 314.400 248.138,314.220 248.768,314.000 249.205 C 313.780 249.642,313.420 250.358,313.200 250.795 C 312.980 251.232,312.800 251.862,312.800 252.195 C 312.800 252.528,312.620 252.800,312.400 252.800 C 312.180 252.800,312.000 253.160,312.000 253.600 C 312.000 254.040,311.820 254.400,311.600 254.400 C 311.380 254.400,311.200 254.760,311.200 255.200 C 311.200 255.640,311.020 256.000,310.800 256.000 C 310.580 256.000,310.400 256.360,310.400 256.800 C 310.400 257.240,310.260 257.600,310.090 257.600 C 309.919 257.600,309.424 258.408,308.990 259.396 C 308.555 260.384,308.065 261.194,307.900 261.196 C 307.735 261.198,307.600 261.560,307.600 262.000 C 307.600 262.440,307.420 262.800,307.200 262.800 C 306.980 262.800,306.800 263.120,306.800 263.512 C 306.800 263.903,306.440 264.483,306.000 264.800 C 305.560 265.117,305.200 265.697,305.200 266.088 C 305.200 266.480,305.050 266.800,304.868 266.800 C 304.685 266.800,304.281 267.295,303.970 267.900 C 303.660 268.505,303.089 269.291,302.703 269.647 C 302.316 270.003,302.000 270.548,302.000 270.859 C 302.000 271.169,301.640 271.683,301.200 272.000 C 300.760 272.317,300.400 272.825,300.400 273.128 C 300.400 273.431,299.860 274.183,299.200 274.800 C 298.540 275.417,298.000 276.047,298.000 276.200 C 298.000 276.353,297.498 276.956,296.885 277.540 C 296.271 278.123,295.329 279.230,294.792 280.000 C 292.827 282.816,282.558 293.197,280.711 294.236 C 280.061 294.601,277.377 296.840,275.120 298.900 C 274.458 299.505,273.763 300.000,273.576 300.000 C 273.389 300.000,272.786 300.450,272.236 301.000 C 271.686 301.550,270.998 302.000,270.706 302.000 C 270.415 302.000,269.917 302.360,269.600 302.800 C 269.283 303.240,268.743 303.600,268.400 303.600 C 268.057 303.600,267.517 303.960,267.200 304.400 C 266.883 304.840,266.303 305.200,265.912 305.200 C 265.520 305.200,265.200 305.380,265.200 305.600 C 265.200 305.820,264.930 306.000,264.600 306.000 C 264.270 306.000,264.000 306.180,264.000 306.400 C 264.000 306.620,263.730 306.800,263.400 306.800 C 263.070 306.800,262.800 306.980,262.800 307.200 C 262.800 307.420,262.455 307.600,262.033 307.600 C 261.612 307.600,261.207 307.735,261.133 307.900 C 261.060 308.065,259.875 308.728,258.500 309.374 C 257.125 310.019,256.000 310.694,256.000 310.874 C 256.000 311.053,255.728 311.200,255.395 311.200 C 255.062 311.200,254.477 311.357,254.095 311.550 C 251.120 313.048,249.847 313.600,249.362 313.600 C 249.053 313.600,248.800 313.780,248.800 314.000 C 248.800 314.220,248.451 314.400,248.024 314.400 C 247.597 314.400,247.136 314.580,247.000 314.800 C 246.864 315.020,246.313 315.200,245.776 315.200 C 245.239 315.200,244.800 315.380,244.800 315.600 C 244.800 315.820,244.350 316.000,243.800 316.000 C 243.250 316.000,242.800 316.180,242.800 316.400 C 242.800 316.620,242.361 316.800,241.824 316.800 C 241.287 316.800,240.736 316.980,240.600 317.200 C 240.464 317.420,239.924 317.600,239.400 317.600 C 238.876 317.600,238.336 317.780,238.200 318.000 C 238.064 318.220,237.423 318.400,236.776 318.400 C 236.129 318.400,235.600 318.580,235.600 318.800 C 235.600 319.020,235.060 319.200,234.400 319.200 C 233.740 319.200,233.200 319.380,233.200 319.600 C 233.200 319.820,232.480 320.000,231.600 320.000 C 230.720 320.000,230.000 320.180,230.000 320.400 C 230.000 320.620,229.280 320.800,228.400 320.800 C 227.520 320.800,226.800 320.980,226.800 321.200 C 226.800 321.420,225.990 321.600,225.000 321.600 C 224.010 321.600,223.200 321.780,223.200 322.000 C 223.200 322.220,222.300 322.400,221.200 322.400 L 219.200 322.400 219.200 304.868 L 219.200 287.335 220.200 286.868 C 220.750 286.610,221.650 286.190,222.200 285.932 C 222.750 285.675,223.200 285.315,223.200 285.132 C 223.200 284.950,223.407 284.800,223.660 284.800 C 224.275 284.800,228.400 280.518,228.400 279.879 C 228.400 279.603,228.760 279.117,229.200 278.800 C 229.640 278.483,230.000 277.903,230.000 277.512 C 230.000 277.120,230.180 276.800,230.400 276.800 C 230.620 276.800,230.800 276.260,230.800 275.600 C 230.800 274.940,230.980 274.400,231.200 274.400 C 231.448 274.400,231.600 272.200,231.600 268.600 C 231.600 263.067,231.637 262.800,232.400 262.800 C 232.840 262.800,233.200 262.620,233.200 262.400 C 233.200 262.180,233.999 262.000,234.976 262.000 C 235.953 262.000,236.864 261.820,237.000 261.600 C 237.136 261.380,237.777 261.200,238.424 261.200 C 239.071 261.200,239.600 261.020,239.600 260.800 C 239.600 260.580,240.050 260.400,240.600 260.400 C 241.150 260.400,241.600 260.220,241.600 260.000 C 241.600 259.780,241.960 259.600,242.400 259.600 C 242.840 259.600,243.200 259.440,243.200 259.245 C 243.200 259.049,243.875 258.762,244.699 258.608 C 245.524 258.453,246.289 258.208,246.399 258.063 C 246.510 257.918,247.410 257.359,248.400 256.820 C 249.390 256.281,250.549 255.516,250.975 255.120 C 251.402 254.724,251.905 254.400,252.093 254.400 C 252.280 254.400,253.866 252.915,255.617 251.100 C 260.675 245.855,261.200 245.254,261.200 244.700 C 261.200 244.412,261.560 243.917,262.000 243.600 C 262.440 243.283,262.800 242.703,262.800 242.312 C 262.800 241.920,262.980 241.600,263.200 241.600 C 263.420 241.600,263.600 241.330,263.600 241.000 C 263.600 240.670,263.780 240.400,264.000 240.400 C 264.220 240.400,264.400 240.040,264.400 239.600 C 264.400 239.160,264.580 238.800,264.800 238.800 C 265.020 238.800,265.200 238.440,265.200 238.000 C 265.200 237.560,265.380 237.200,265.600 237.200 C 265.820 237.200,266.000 236.840,266.000 236.400 C 266.000 235.960,266.180 235.600,266.400 235.600 C 266.620 235.600,266.800 235.060,266.800 234.400 C 266.800 233.740,266.980 233.200,267.200 233.200 C 267.420 233.200,267.600 232.660,267.600 232.000 C 267.600 231.340,267.780 230.800,268.000 230.800 C 268.220 230.800,268.400 230.091,268.400 229.224 C 268.400 228.357,268.580 227.536,268.800 227.400 C 269.062 227.238,269.200 213.796,269.200 188.376 C 269.200 154.175,269.271 149.600,269.800 149.600 C 270.130 149.600,270.400 149.420,270.400 149.200 C 270.400 148.980,270.726 148.800,271.125 148.800 C 271.523 148.800,272.236 148.440,272.708 148.000 C 273.180 147.560,273.691 147.200,273.844 147.200 C 274.222 147.200,278.400 142.860,278.400 142.466 C 278.400 142.293,278.715 141.793,279.100 141.355 C 280.169 140.140,280.800 138.896,280.800 138.005 C 280.800 137.562,280.980 137.200,281.200 137.200 C 281.448 137.200,281.600 135.000,281.600 131.400 C 281.600 127.800,281.448 125.600,281.200 125.600 C 280.980 125.600,280.800 125.060,280.800 124.400 C 280.800 123.740,280.620 123.200,280.400 123.200 C 280.180 123.200,280.000 122.840,280.000 122.400 C 280.000 121.960,279.820 121.600,279.600 121.600 C 279.380 121.600,279.200 121.330,279.200 121.000 C 279.200 119.298,271.246 112.800,269.162 112.800 C 268.743 112.800,268.400 112.620,268.400 112.400 C 268.400 112.152,266.200 112.000,262.600 112.000 L 256.800 112.000 256.800 81.424 C 256.800 61.471,256.661 50.761,256.400 50.600 C 256.180 50.464,256.000 50.009,256.000 49.589 C 256.000 48.330,253.343 43.948,251.883 42.800 C 251.463 42.470,250.514 41.615,249.773 40.900 C 249.033 40.185,248.151 39.600,247.813 39.600 C 247.476 39.600,247.200 39.420,247.200 39.200 C 247.200 38.980,246.840 38.800,246.400 38.800 C 245.960 38.800,245.600 38.620,245.600 38.400 C 245.600 38.180,245.060 38.000,244.400 38.000 C 243.740 38.000,243.200 37.820,243.200 37.600 C 243.200 37.352,241.000 37.200,237.400 37.200 C 233.800 37.200,231.600 37.352,231.600 37.600 C 231.600 37.820,231.060 38.000,230.400 38.000 C 229.740 38.000,229.200 38.180,229.200 38.400 C 229.200 38.620,228.840 38.800,228.400 38.800 C 227.960 38.800,227.600 38.980,227.600 39.200 C 227.600 39.420,227.415 39.600,227.189 39.600 C 226.419 39.600,220.800 45.095,220.800 45.848 C 220.800 46.152,220.620 46.400,220.400 46.400 C 220.180 46.400,220.000 46.760,220.000 47.200 C 220.000 47.640,219.820 48.000,219.600 48.000 C 219.380 48.000,219.200 48.540,219.200 49.200 C 219.200 49.860,219.020 50.400,218.800 50.400 C 218.537 50.400,218.400 60.933,218.400 81.200 L 218.400 112.000 200.000 112.000 L 181.600 112.000 181.600 81.200 C 181.600 60.933,181.463 50.400,181.200 50.400 C 180.980 50.400,180.800 49.860,180.800 49.200 C 180.800 48.540,180.620 48.000,180.400 48.000 C 180.180 48.000,180.000 47.640,180.000 47.200 C 180.000 46.760,179.820 46.400,179.600 46.400 C 179.380 46.400,179.200 46.130,179.200 45.800 C 179.200 45.470,179.020 45.200,178.800 45.200 C 178.580 45.200,178.400 45.002,178.400 44.760 C 178.400 44.263,176.092 42.000,175.585 42.000 C 175.403 42.000,175.140 41.640,175.000 41.200 C 174.860 40.760,174.488 40.400,174.173 40.400 C 173.858 40.400,173.600 40.220,173.600 40.000 C 173.600 39.780,173.330 39.600,173.000 39.600 C 172.670 39.600,172.400 39.420,172.400 39.200 C 172.400 38.980,172.040 38.800,171.600 38.800 C 171.160 38.800,170.800 38.620,170.800 38.400 C 170.800 38.180,170.260 38.000,169.600 38.000 C 168.940 38.000,168.400 37.820,168.400 37.600 C 168.400 37.352,166.200 37.200,162.600 37.200 C 159.000 37.200,156.800 37.352,156.800 37.600 M165.598 50.847 C 168.977 52.746,168.800 50.943,168.800 83.554 L 168.800 112.400 162.600 112.400 L 156.400 112.400 156.400 83.259 L 156.400 54.118 157.300 52.789 C 159.162 50.039,162.691 49.213,165.598 50.847 M240.274 50.597 C 244.064 52.488,243.962 51.566,243.982 84.100 L 244.000 112.400 237.600 112.400 L 231.200 112.400 231.200 83.459 L 231.200 54.518 232.110 53.169 C 234.073 50.256,237.454 49.191,240.274 50.597 M110.600 95.200 C 110.464 95.420,110.010 95.600,109.592 95.600 C 109.164 95.600,107.162 97.269,105.015 99.415 L 101.200 103.231 101.200 106.415 C 101.200 108.167,101.341 109.600,101.514 109.600 C 101.686 109.600,102.146 110.140,102.536 110.800 C 102.926 111.460,103.505 112.000,103.823 112.000 C 104.140 112.000,104.400 112.180,104.400 112.400 C 104.400 112.620,104.940 112.800,105.600 112.800 C 106.260 112.800,106.800 112.980,106.800 113.200 C 106.800 113.420,107.430 113.600,108.200 113.600 C 108.970 113.600,109.600 113.420,109.600 113.200 C 109.600 112.980,110.054 112.800,110.609 112.800 C 111.574 112.800,112.100 112.367,117.700 106.953 C 120.913 103.847,119.170 95.603,115.300 95.600 C 114.805 95.600,114.400 95.420,114.400 95.200 C 114.400 94.980,113.601 94.800,112.624 94.800 C 111.647 94.800,110.736 94.980,110.600 95.200 M265.116 125.557 C 269.844 127.971,270.108 133.673,265.631 136.690 L 264.282 137.600 200.000 137.600 L 135.718 137.600 134.369 136.690 C 129.842 133.640,130.175 127.768,135.000 125.552 C 137.537 124.387,262.833 124.392,265.116 125.557 M256.324 185.000 C 256.453 221.397,256.411 222.531,254.692 228.200 C 251.558 238.537,242.917 246.493,231.929 249.158 C 226.553 250.462,173.473 250.466,168.071 249.163 C 154.656 245.926,145.458 235.221,144.016 221.166 C 143.557 216.696,143.420 150.714,143.868 150.265 C 144.015 150.118,169.350 150.043,200.168 150.099 L 256.200 150.200 256.324 185.000 M322.500 163.820 L 320.800 165.581 320.800 169.191 C 320.800 171.330,320.963 172.800,321.200 172.800 C 321.420 172.800,321.600 173.520,321.600 174.400 C 321.600 175.280,321.780 176.000,322.000 176.000 C 322.220 176.000,322.400 176.540,322.400 177.200 C 322.400 177.860,322.580 178.400,322.800 178.400 C 323.020 178.400,323.200 178.683,323.200 179.029 C 323.200 179.837,324.163 180.800,324.971 180.800 C 325.317 180.800,325.600 180.980,325.600 181.200 C 325.600 181.435,327.000 181.600,329.000 181.600 C 330.870 181.600,332.400 181.463,332.400 181.295 C 332.400 181.127,332.805 180.812,333.300 180.595 C 333.795 180.378,334.378 179.795,334.595 179.300 C 334.812 178.805,335.127 178.400,335.295 178.400 C 335.754 178.400,335.663 170.886,335.200 170.600 C 334.980 170.464,334.800 169.553,334.800 168.576 C 334.800 167.599,334.620 166.800,334.400 166.800 C 334.180 166.800,334.000 166.528,334.000 166.195 C 334.000 164.906,332.405 162.800,331.429 162.800 C 331.083 162.800,330.800 162.620,330.800 162.400 C 330.800 162.163,329.453 162.012,327.500 162.029 L 324.200 162.058 322.500 163.820 M376.400 194.800 C 375.007 196.193,374.800 196.633,374.800 198.200 C 374.800 199.190,374.620 200.000,374.400 200.000 C 374.147 200.000,374.000 202.925,374.000 207.976 C 374.000 212.863,373.845 216.049,373.600 216.200 C 373.380 216.336,373.200 217.967,373.200 219.824 C 373.200 221.808,373.035 223.200,372.800 223.200 C 372.574 223.200,372.400 224.333,372.400 225.800 C 372.400 227.267,372.226 228.400,372.000 228.400 C 371.778 228.400,371.600 229.467,371.600 230.800 C 371.600 232.133,371.422 233.200,371.200 233.200 C 370.980 233.200,370.800 233.909,370.800 234.776 C 370.800 235.643,370.620 236.464,370.400 236.600 C 370.180 236.736,370.000 237.647,370.000 238.624 C 370.000 239.601,369.820 240.400,369.600 240.400 C 369.380 240.400,369.200 241.019,369.200 241.776 C 369.200 242.533,369.020 243.264,368.800 243.400 C 368.580 243.536,368.400 244.267,368.400 245.024 C 368.400 245.781,368.220 246.400,368.000 246.400 C 367.780 246.400,367.600 246.940,367.600 247.600 C 367.600 248.260,367.420 248.800,367.200 248.800 C 366.980 248.800,366.800 249.520,366.800 250.400 C 366.800 251.280,366.620 252.000,366.400 252.000 C 366.180 252.000,366.000 252.540,366.000 253.200 C 366.000 253.860,365.820 254.400,365.600 254.400 C 365.380 254.400,365.200 254.940,365.200 255.600 C 365.200 256.260,365.020 256.800,364.800 256.800 C 364.580 256.800,364.400 257.239,364.400 257.776 C 364.400 258.313,364.220 258.864,364.000 259.000 C 363.780 259.136,363.600 259.597,363.600 260.024 C 363.600 260.451,363.420 260.800,363.200 260.800 C 362.980 260.800,362.800 261.250,362.800 261.800 C 362.800 262.350,362.620 262.800,362.400 262.800 C 362.180 262.800,362.000 263.239,362.000 263.776 C 362.000 264.313,361.820 264.864,361.600 265.000 C 361.380 265.136,361.200 265.597,361.200 266.024 C 361.200 266.451,361.053 266.800,360.872 266.800 C 360.692 266.800,360.300 267.700,360.000 268.800 C 359.700 269.900,359.324 270.800,359.163 270.800 C 359.002 270.800,358.749 271.520,358.600 272.400 C 358.451 273.280,358.166 274.000,357.965 274.000 C 357.764 274.000,357.600 274.360,357.600 274.800 C 357.600 275.240,357.420 275.600,357.200 275.600 C 356.980 275.600,356.800 275.870,356.800 276.200 C 356.800 276.530,356.620 276.800,356.400 276.800 C 356.180 276.800,356.000 277.160,356.000 277.600 C 356.000 278.040,355.820 278.400,355.600 278.400 C 355.380 278.400,355.200 278.760,355.200 279.200 C 355.200 279.640,355.020 280.000,354.800 280.000 C 354.580 280.000,354.400 280.360,354.400 280.800 C 354.400 281.240,354.220 281.600,354.000 281.600 C 353.780 281.600,353.600 281.960,353.600 282.400 C 353.600 282.840,353.420 283.200,353.200 283.200 C 352.980 283.200,352.800 283.478,352.800 283.817 C 352.800 284.156,352.440 284.820,352.000 285.292 C 351.560 285.764,351.200 286.387,351.200 286.675 C 351.200 286.964,351.020 287.200,350.800 287.200 C 350.580 287.200,350.400 287.560,350.400 288.000 C 350.400 288.440,350.242 288.800,350.049 288.800 C 349.855 288.800,349.473 289.340,349.200 290.000 C 348.927 290.660,348.545 291.200,348.351 291.200 C 348.158 291.200,348.000 291.436,348.000 291.725 C 348.000 292.013,347.640 292.636,347.200 293.108 C 346.760 293.580,346.400 294.154,346.400 294.383 C 346.400 294.612,346.220 294.800,346.000 294.800 C 345.780 294.800,345.600 295.000,345.600 295.244 C 345.600 295.489,344.790 296.847,343.800 298.263 C 342.810 299.680,342.000 300.983,342.000 301.160 C 342.000 301.337,341.460 302.046,340.800 302.737 C 340.140 303.428,339.600 304.192,339.600 304.436 C 339.600 304.680,339.060 305.383,338.400 306.000 C 337.740 306.617,337.200 307.319,337.200 307.562 C 337.200 307.804,336.480 308.653,335.600 309.448 C 334.720 310.243,334.000 311.056,334.000 311.255 C 334.000 311.454,333.015 312.603,331.810 313.807 C 330.606 315.012,329.301 316.487,328.910 317.086 C 327.309 319.541,320.083 326.842,318.226 327.881 C 317.887 328.071,316.235 329.480,314.555 331.013 C 308.831 336.234,307.717 337.200,307.419 337.200 C 307.255 337.200,306.617 337.740,306.000 338.400 C 305.383 339.060,304.673 339.600,304.421 339.600 C 304.170 339.600,303.540 340.005,303.022 340.500 C 302.504 340.995,301.147 341.940,300.007 342.600 C 298.866 343.260,297.723 343.980,297.467 344.200 C 297.210 344.420,296.505 344.855,295.900 345.168 C 295.295 345.480,294.800 345.885,294.800 346.068 C 294.800 346.250,294.558 346.400,294.262 346.400 C 293.966 346.400,293.398 346.760,293.000 347.200 C 292.602 347.640,292.034 348.000,291.738 348.000 C 291.442 348.000,291.200 348.180,291.200 348.400 C 291.200 348.620,290.880 348.800,290.488 348.800 C 290.097 348.800,289.517 349.160,289.200 349.600 C 288.883 350.040,288.303 350.400,287.912 350.400 C 287.520 350.400,287.200 350.580,287.200 350.800 C 287.200 351.020,286.855 351.200,286.433 351.200 C 286.012 351.200,285.607 351.335,285.533 351.500 C 285.366 351.876,283.236 353.175,282.300 353.471 C 281.915 353.593,281.600 353.852,281.600 354.047 C 281.600 354.241,281.240 354.400,280.800 354.400 C 280.360 354.400,280.000 354.580,280.000 354.800 C 280.000 355.020,279.640 355.200,279.200 355.200 C 278.760 355.200,278.400 355.380,278.400 355.600 C 278.400 355.820,278.055 356.000,277.633 356.000 C 277.212 356.000,276.807 356.135,276.733 356.300 C 276.490 356.847,271.515 358.980,269.300 359.487 C 268.805 359.601,268.400 359.852,268.400 360.047 C 268.400 360.241,268.051 360.400,267.624 360.400 C 267.197 360.400,266.736 360.580,266.600 360.800 C 266.464 361.020,265.913 361.200,265.376 361.200 C 264.839 361.200,264.400 361.380,264.400 361.600 C 264.400 361.820,264.040 362.000,263.600 362.000 C 263.160 362.000,262.800 362.137,262.800 362.305 C 262.800 362.473,262.410 362.788,261.933 363.005 C 261.456 363.222,260.871 363.760,260.633 364.200 C 260.395 364.640,260.101 365.090,259.981 365.200 C 257.687 367.290,259.866 374.249,263.066 375.052 C 265.076 375.557,270.564 374.986,272.375 374.084 C 273.351 373.598,274.386 373.200,274.675 373.200 C 274.964 373.200,275.200 373.053,275.200 372.872 C 275.200 372.692,276.100 372.300,277.200 372.000 C 278.300 371.700,279.200 371.308,279.200 371.128 C 279.200 370.947,279.560 370.800,280.000 370.800 C 280.440 370.800,280.800 370.620,280.800 370.400 C 280.800 370.180,281.160 370.000,281.600 370.000 C 282.040 370.000,282.400 369.820,282.400 369.600 C 282.400 369.380,282.760 369.200,283.200 369.200 C 283.640 369.200,284.000 369.020,284.000 368.800 C 284.000 368.580,284.360 368.400,284.800 368.400 C 285.240 368.400,285.600 368.220,285.600 368.000 C 285.600 367.780,285.960 367.600,286.400 367.600 C 286.840 367.600,287.200 367.420,287.200 367.200 C 287.200 366.980,287.560 366.800,288.000 366.800 C 288.440 366.800,288.800 366.654,288.800 366.475 C 288.800 366.296,289.430 365.902,290.200 365.600 C 290.970 365.298,291.600 364.904,291.600 364.725 C 291.600 364.546,291.836 364.400,292.125 364.400 C 292.413 364.400,293.036 364.040,293.508 363.600 C 293.980 363.160,294.644 362.800,294.983 362.800 C 295.322 362.800,295.600 362.620,295.600 362.400 C 295.600 362.180,295.920 362.000,296.312 362.000 C 296.703 362.000,297.283 361.640,297.600 361.200 C 297.917 360.760,298.497 360.400,298.888 360.400 C 299.280 360.400,299.600 360.220,299.600 360.000 C 299.600 359.780,299.878 359.600,300.217 359.600 C 300.556 359.600,301.051 359.417,301.317 359.194 C 302.238 358.421,304.837 356.800,305.156 356.800 C 305.332 356.800,305.802 356.440,306.200 356.000 C 306.598 355.560,307.126 355.200,307.374 355.200 C 307.621 355.200,308.083 354.840,308.400 354.400 C 308.717 353.960,309.180 353.600,309.429 353.600 C 309.678 353.600,310.446 353.060,311.137 352.400 C 311.828 351.740,312.592 351.200,312.836 351.200 C 313.080 351.200,313.783 350.660,314.400 350.000 C 315.017 349.340,315.697 348.800,315.912 348.800 C 316.127 348.800,317.045 348.080,317.952 347.200 C 318.859 346.320,319.762 345.600,319.960 345.600 C 320.157 345.600,321.198 344.745,322.273 343.700 C 323.347 342.655,324.941 341.263,325.813 340.606 C 328.277 338.751,341.600 325.243,341.600 324.599 C 341.600 324.492,342.500 323.485,343.600 322.361 C 344.700 321.238,345.600 320.143,345.600 319.928 C 345.600 319.713,346.320 318.846,347.200 318.000 C 348.080 317.154,348.800 316.251,348.800 315.992 C 348.800 315.733,349.340 315.017,350.000 314.400 C 350.660 313.783,351.200 313.108,351.200 312.899 C 351.200 312.690,351.740 311.954,352.400 311.263 C 353.060 310.572,353.600 309.775,353.600 309.492 C 353.600 309.209,353.960 308.717,354.400 308.400 C 354.840 308.083,355.200 307.621,355.200 307.374 C 355.200 307.126,355.560 306.598,356.000 306.200 C 356.440 305.802,356.800 305.262,356.800 305.000 C 356.800 304.738,357.144 304.213,357.564 303.833 C 357.984 303.452,358.438 302.704,358.572 302.171 C 358.706 301.637,358.992 301.200,359.208 301.200 C 359.423 301.200,359.600 300.880,359.600 300.488 C 359.600 300.097,359.960 299.517,360.400 299.200 C 360.840 298.883,361.200 298.303,361.200 297.912 C 361.200 297.520,361.380 297.200,361.600 297.200 C 361.820 297.200,362.000 296.880,362.000 296.488 C 362.000 296.097,362.360 295.517,362.800 295.200 C 363.240 294.883,363.600 294.303,363.600 293.912 C 363.600 293.520,363.780 293.200,364.000 293.200 C 364.220 293.200,364.400 292.840,364.400 292.400 C 364.400 291.960,364.580 291.600,364.800 291.600 C 365.020 291.600,365.200 291.330,365.200 291.000 C 365.200 290.670,365.380 290.400,365.600 290.400 C 365.820 290.400,366.000 290.040,366.000 289.600 C 366.000 289.160,366.180 288.800,366.400 288.800 C 366.620 288.800,366.800 288.455,366.800 288.033 C 366.800 287.612,366.937 287.207,367.104 287.133 C 367.541 286.942,370.800 280.448,370.800 279.769 C 370.800 279.456,370.980 279.200,371.200 279.200 C 371.420 279.200,371.600 278.840,371.600 278.400 C 371.600 277.960,371.780 277.600,372.000 277.600 C 372.220 277.600,372.400 277.328,372.400 276.995 C 372.400 276.662,372.557 276.077,372.750 275.695 C 374.359 272.501,374.837 271.310,375.053 269.959 C 375.190 269.101,375.459 268.400,375.651 268.400 C 375.843 268.400,376.000 267.961,376.000 267.424 C 376.000 266.887,376.180 266.336,376.400 266.200 C 376.620 266.064,376.800 265.603,376.800 265.176 C 376.800 264.749,376.980 264.400,377.200 264.400 C 377.420 264.400,377.600 263.860,377.600 263.200 C 377.600 262.540,377.780 262.000,378.000 262.000 C 378.220 262.000,378.400 261.460,378.400 260.800 C 378.400 260.140,378.580 259.600,378.800 259.600 C 379.020 259.600,379.200 259.060,379.200 258.400 C 379.200 257.740,379.380 257.200,379.600 257.200 C 379.820 257.200,380.000 256.671,380.000 256.024 C 380.000 255.377,380.180 254.736,380.400 254.600 C 380.620 254.464,380.800 253.823,380.800 253.176 C 380.800 252.529,380.980 252.000,381.200 252.000 C 381.420 252.000,381.600 251.381,381.600 250.624 C 381.600 249.867,381.780 249.136,382.000 249.000 C 382.220 248.864,382.400 248.144,382.400 247.400 C 382.400 246.656,382.580 245.936,382.800 245.800 C 383.020 245.664,383.200 244.843,383.200 243.976 C 383.200 243.109,383.380 242.400,383.600 242.400 C 383.820 242.400,384.000 241.691,384.000 240.824 C 384.000 239.957,384.180 239.136,384.400 239.000 C 384.620 238.864,384.800 237.964,384.800 237.000 C 384.800 236.036,384.980 235.136,385.200 235.000 C 385.420 234.864,385.600 233.899,385.600 232.856 C 385.600 231.813,385.765 230.789,385.968 230.580 C 386.339 230.196,386.645 227.494,387.040 221.100 C 387.159 219.175,387.424 217.600,387.628 217.600 C 387.848 217.600,388.000 213.260,388.000 207.000 C 388.000 200.200,387.857 196.400,387.600 196.400 C 387.380 196.400,387.200 196.207,387.200 195.971 C 387.200 192.956,379.120 192.080,376.400 194.800 M159.543 200.863 C 155.497 203.209,155.360 209.202,159.296 211.602 C 161.331 212.843,207.469 212.843,209.504 211.602 C 213.468 209.185,213.296 203.150,209.198 200.847 C 206.838 199.521,161.833 199.535,159.543 200.863 M228.278 200.925 C 224.170 203.412,224.072 209.148,228.096 211.602 C 231.706 213.803,240.988 212.478,242.802 209.504 C 244.584 206.582,243.570 202.771,240.522 200.925 C 238.252 199.551,230.548 199.551,228.278 200.925 M161.534 225.168 C 155.304 226.421,154.489 234.580,160.349 237.035 C 161.457 237.499,165.747 237.600,184.400 237.600 C 203.053 237.600,207.343 237.499,208.451 237.035 C 213.378 234.971,213.807 228.529,209.199 225.822 C 207.736 224.963,165.440 224.383,161.534 225.168 M230.334 225.151 C 224.437 226.406,223.240 233.808,228.454 236.773 C 232.069 238.828,240.498 237.706,242.580 234.891 C 244.592 232.172,243.556 227.670,240.508 225.890 C 239.063 225.046,232.922 224.600,230.334 225.151 M218.715 266.318 C 218.970 274.552,218.430 274.800,200.213 274.800 C 184.007 274.800,183.929 274.787,182.186 271.813 C 181.208 270.144,180.685 263.449,181.471 262.663 C 181.619 262.514,190.034 262.439,200.171 262.496 L 218.600 262.600 218.715 266.318 M64.625 275.324 C 63.511 276.009,13.099 326.498,12.500 327.529 C 11.961 328.457,11.791 334.800,12.305 334.800 C 12.473 334.800,12.788 335.205,13.005 335.700 C 13.222 336.195,13.805 336.778,14.300 336.995 C 14.795 337.212,15.200 337.527,15.200 337.695 C 15.200 337.863,19.610 338.000,25.000 338.000 C 34.533 338.000,34.800 338.022,34.800 338.800 C 34.800 339.240,34.620 339.600,34.400 339.600 C 34.180 339.600,34.000 340.219,34.000 340.976 C 34.000 341.733,33.820 342.464,33.600 342.600 C 33.380 342.736,33.200 343.467,33.200 344.224 C 33.200 344.981,33.020 345.600,32.800 345.600 C 32.580 345.600,32.400 346.320,32.400 347.200 C 32.400 348.080,32.220 348.800,32.000 348.800 C 31.780 348.800,31.600 349.520,31.600 350.400 C 31.600 351.280,31.420 352.000,31.200 352.000 C 30.980 352.000,30.800 352.720,30.800 353.600 C 30.800 354.480,30.620 355.200,30.400 355.200 C 30.180 355.200,30.000 355.920,30.000 356.800 C 30.000 357.680,29.820 358.400,29.600 358.400 C 29.380 358.400,29.200 359.019,29.200 359.776 C 29.200 360.533,29.020 361.264,28.800 361.400 C 28.580 361.536,28.400 362.256,28.400 363.000 C 28.400 363.744,28.220 364.464,28.000 364.600 C 27.780 364.736,27.600 365.467,27.600 366.224 C 27.600 366.981,27.420 367.600,27.200 367.600 C 26.980 367.600,26.800 368.309,26.800 369.176 C 26.800 370.043,26.639 370.852,26.442 370.974 C 26.245 371.095,25.994 371.871,25.883 372.697 C 25.772 373.524,25.488 374.920,25.250 375.800 C 23.888 380.854,24.883 386.006,27.510 387.500 C 28.567 388.101,34.800 388.186,34.800 387.600 C 34.800 387.380,35.001 387.200,35.246 387.200 C 35.828 387.200,87.200 335.828,87.200 335.246 C 87.200 335.001,87.380 334.800,87.600 334.800 C 88.186 334.800,88.101 328.567,87.500 327.510 C 86.083 325.019,85.284 324.800,77.605 324.800 L 70.800 324.800 70.800 322.280 C 70.800 320.894,70.966 319.589,71.169 319.380 C 71.372 319.171,71.635 317.740,71.755 316.200 C 71.874 314.660,72.158 311.915,72.386 310.100 C 72.987 305.314,73.529 301.021,73.966 297.600 C 74.875 290.490,75.145 287.109,75.172 282.513 L 75.200 277.627 73.787 276.213 C 72.254 274.680,66.569 274.128,64.625 275.324 M60.116 300.442 C 59.874 303.198,57.365 323.150,56.772 327.033 C 55.696 334.074,57.927 337.576,63.500 337.593 C 64.655 337.597,65.600 337.736,65.600 337.903 C 65.600 338.069,60.560 343.243,54.400 349.400 C 46.665 357.131,43.200 360.347,43.200 359.795 C 43.200 359.355,44.730 352.882,46.600 345.412 C 50.369 330.355,50.344 330.521,49.153 328.402 C 47.664 325.752,46.097 325.200,40.069 325.200 C 37.197 325.200,34.750 325.042,34.630 324.849 C 34.364 324.419,59.239 299.260,59.800 299.391 C 60.020 299.442,60.162 299.915,60.116 300.442 M358.617 337.724 C 357.334 338.504,356.800 339.106,356.800 339.771 C 356.800 340.117,356.620 340.400,356.400 340.400 C 356.147 340.400,356.000 343.267,356.000 348.200 L 356.000 356.000 348.200 356.000 C 343.267 356.000,340.400 356.147,340.400 356.400 C 340.400 356.620,340.117 356.800,339.771 356.800 C 339.080 356.800,338.463 357.369,337.700 358.710 C 337.099 359.767,337.014 366.000,337.600 366.000 C 337.820 366.000,338.000 366.283,338.000 366.629 C 338.000 367.437,338.963 368.400,339.771 368.400 C 340.117 368.400,340.400 368.580,340.400 368.800 C 340.400 369.053,343.267 369.200,348.200 369.200 L 356.000 369.200 356.000 377.000 C 356.000 381.933,356.147 384.800,356.400 384.800 C 356.620 384.800,356.800 385.061,356.800 385.380 C 356.800 386.885,359.327 388.000,362.738 388.000 C 364.532 388.000,366.000 387.863,366.000 387.695 C 366.000 387.527,366.405 387.212,366.900 386.995 C 367.395 386.778,367.978 386.195,368.195 385.700 C 368.412 385.205,368.727 384.800,368.895 384.800 C 369.063 384.800,369.200 381.290,369.200 377.000 L 369.200 369.200 377.000 369.200 C 381.290 369.200,384.800 369.063,384.800 368.895 C 384.800 368.727,385.205 368.412,385.700 368.195 C 386.195 367.978,386.778 367.395,386.995 366.900 C 387.212 366.405,387.527 366.000,387.695 366.000 C 387.863 366.000,388.000 364.532,388.000 362.738 C 388.000 359.327,386.885 356.800,385.380 356.800 C 385.061 356.800,384.800 356.620,384.800 356.400 C 384.800 356.147,381.933 356.000,377.000 356.000 L 369.200 356.000 369.200 348.200 C 369.200 343.267,369.053 340.400,368.800 340.400 C 368.580 340.400,368.400 340.117,368.400 339.771 C 368.400 339.426,368.143 338.886,367.829 338.571 C 367.514 338.257,366.974 338.000,366.629 338.000 C 366.283 338.000,366.000 337.820,366.000 337.600 C 366.000 337.032,359.577 337.139,358.617 337.724 M239.600 369.600 C 239.600 369.820,238.880 370.000,238.000 370.000 C 237.120 370.000,236.400 370.180,236.400 370.400 C 236.400 370.620,235.860 370.800,235.200 370.800 C 234.540 370.800,234.000 370.937,234.000 371.105 C 234.000 371.273,233.595 371.588,233.100 371.805 C 232.605 372.022,232.022 372.605,231.805 373.100 C 231.588 373.595,231.273 374.000,231.105 374.000 C 230.937 374.000,230.800 375.530,230.800 377.400 C 230.800 379.270,230.937 380.800,231.105 380.800 C 231.273 380.800,231.588 381.205,231.805 381.700 C 232.022 382.195,232.605 382.778,233.100 382.995 C 233.595 383.212,234.000 383.527,234.000 383.695 C 234.000 384.155,241.914 384.063,242.200 383.600 C 242.336 383.380,243.157 383.200,244.024 383.200 C 244.891 383.200,245.600 383.020,245.600 382.800 C 245.600 382.580,245.872 382.400,246.205 382.400 C 247.494 382.400,249.600 380.805,249.600 379.829 C 249.600 379.483,249.780 379.200,250.000 379.200 C 250.234 379.200,250.400 377.852,250.400 375.956 L 250.400 372.712 248.619 370.956 L 246.838 369.200 243.219 369.200 C 241.073 369.200,239.600 369.363,239.600 369.600 " stroke="none" fill="#040404" fill-rule="evenodd"></path><path id="path4" d="M346.998 49.300 L 334.200 62.200 347.100 49.402 C 354.195 42.364,360.000 36.559,360.000 36.502 C 360.000 36.220,358.891 37.311,346.998 49.300 M359.293 42.800 C 359.293 43.570,359.375 43.885,359.476 43.500 C 359.576 43.115,359.576 42.485,359.476 42.100 C 359.375 41.715,359.293 42.030,359.293 42.800 M358.493 49.200 C 358.493 49.970,358.575 50.285,358.676 49.900 C 358.776 49.515,358.776 48.885,358.676 48.500 C 358.575 48.115,358.493 48.430,358.493 49.200 M157.970 51.900 L 157.000 53.000 158.200 52.000 C 158.860 51.450,159.475 50.955,159.567 50.900 C 159.658 50.845,159.555 50.800,159.336 50.800 C 159.118 50.800,158.503 51.295,157.970 51.900 M240.433 50.900 C 240.525 50.955,241.140 51.450,241.800 52.000 L 243.000 53.000 242.030 51.900 C 241.497 51.295,240.882 50.800,240.664 50.800 C 240.445 50.800,240.342 50.845,240.433 50.900 M357.693 56.000 C 357.693 56.770,357.775 57.085,357.876 56.700 C 357.976 56.315,357.976 55.685,357.876 55.300 C 357.775 54.915,357.693 55.230,357.693 56.000 M243.790 84.000 C 243.790 99.730,243.839 106.165,243.900 98.300 C 243.960 90.435,243.960 77.565,243.900 69.700 C 243.839 61.835,243.790 68.270,243.790 84.000 M356.893 62.400 C 356.893 63.170,356.975 63.485,357.076 63.100 C 357.176 62.715,357.176 62.085,357.076 61.700 C 356.975 61.315,356.893 61.630,356.893 62.400 M362.100 75.087 C 362.705 75.178,363.695 75.178,364.300 75.087 C 364.905 74.995,364.410 74.920,363.200 74.920 C 361.990 74.920,361.495 74.995,362.100 75.087 M354.711 86.301 C 342.243 98.781,343.009 98.000,343.236 98.000 C 343.329 98.000,348.533 92.870,354.800 86.600 C 361.067 80.330,366.106 75.201,365.997 75.201 C 365.889 75.202,360.810 80.197,354.711 86.301 M135.000 125.552 C 130.175 127.768,129.842 133.640,134.369 136.690 L 135.718 137.600 200.000 137.600 L 264.282 137.600 265.631 136.690 C 270.108 133.673,269.844 127.971,265.116 125.557 C 262.833 124.392,137.537 124.387,135.000 125.552 M263.400 125.600 C 263.536 125.820,263.981 126.000,264.390 126.000 C 266.863 126.000,268.862 130.754,267.517 133.433 C 266.688 135.082,266.078 135.603,263.505 136.861 C 262.597 137.304,137.403 137.304,136.495 136.861 C 133.472 135.383,133.305 135.215,132.047 132.400 C 131.151 130.393,133.734 126.000,135.810 126.000 C 136.329 126.000,136.864 125.820,137.000 125.600 C 137.342 125.046,263.058 125.046,263.400 125.600 M181.471 262.663 C 180.685 263.449,181.208 270.144,182.186 271.813 C 183.929 274.787,184.007 274.800,200.213 274.800 C 218.430 274.800,218.970 274.552,218.715 266.318 L 218.600 262.600 200.171 262.496 C 190.034 262.439,181.619 262.514,181.471 262.663 M59.293 305.600 C 59.293 306.370,59.375 306.685,59.476 306.300 C 59.576 305.915,59.576 305.285,59.476 304.900 C 59.375 304.515,59.293 304.830,59.293 305.600 M58.493 311.600 C 58.493 312.370,58.575 312.685,58.676 312.300 C 58.776 311.915,58.776 311.285,58.676 310.900 C 58.575 310.515,58.493 310.830,58.493 311.600 M57.693 318.800 C 57.693 319.570,57.775 319.885,57.876 319.500 C 57.976 319.115,57.976 318.485,57.876 318.100 C 57.775 317.715,57.693 318.030,57.693 318.800 M56.893 324.800 C 56.893 325.570,56.975 325.885,57.076 325.500 C 57.176 325.115,57.176 324.485,57.076 324.100 C 56.975 323.715,56.893 324.030,56.893 324.800 M37.300 325.097 C 38.785 325.174,41.215 325.174,42.700 325.097 C 44.185 325.020,42.970 324.957,40.000 324.957 C 37.030 324.957,35.815 325.020,37.300 325.097 M58.088 335.813 C 58.686 336.443,59.247 336.877,59.335 336.779 C 59.423 336.680,58.933 336.165,58.247 335.634 L 57.000 334.669 58.088 335.813 M59.595 343.900 L 53.800 349.800 59.700 344.005 C 65.181 338.622,65.781 338.000,65.495 338.000 C 65.437 338.000,62.782 340.655,59.595 343.900 M51.600 351.800 C 50.628 352.790,49.923 353.600,50.033 353.600 C 50.143 353.600,51.028 352.790,52.000 351.800 C 52.972 350.810,53.677 350.000,53.567 350.000 C 53.457 350.000,52.572 350.810,51.600 351.800 M46.191 357.300 L 43.000 360.600 46.300 357.409 C 48.115 355.655,49.600 354.170,49.600 354.109 C 49.600 353.818,49.154 354.235,46.191 357.300 " stroke="none" fill="#5bab23" fill-rule="evenodd"></path></g></svg>