<?xml version="1.0" encoding="UTF-8" standalone="no"?><!-- Generator: Gravit.io --><svg xmlns="http://www.w3.org/2000/svg" xmlns:xlink="http://www.w3.org/1999/xlink" style="isolation:isolate" viewBox="0 0 595.276 510.236" width="595.276pt" height="510.236pt"><defs><clipPath id="_clipPath_noct7IwguBsZpp8JijOmLmVyU1kKpDZI"><rect width="595.276" height="510.236"/></clipPath></defs><g clip-path="url(#_clipPath_noct7IwguBsZpp8JijOmLmVyU1kKpDZI)"><g><radialGradient id="_rgradient_0" fx="0.5" fy="0.5" cx="0.5" cy="0.5" r="0.5" gradientTransform="matrix(324.113,1.695,-6.113,289.305,-69.656,145.003)" gradientUnits="userSpaceOnUse"><stop offset="26.666666666666668%" stop-opacity="1" style="stop-color:rgb(251,214,3)"/><stop offset="100%" stop-opacity="1" style="stop-color:rgb(0,0,0)"/></radialGradient><path d=" M 107.06 209.007 L 135.407 209.007 L 71.627 371.999 L 43.281 371.999 L 107.06 209.007 Z " fill="url(#_rgradient_0)" vector-effect="non-scaling-stroke" stroke-width="5" stroke="rgb(251,248,248)" stroke-linejoin="miter" stroke-linecap="square" stroke-miterlimit="3"/><radialGradient id="_rgradient_1" fx="0.5" fy="0.5" cx="0.5" cy="0.5" r="0.5" gradientTransform="matrix(552.654,8.933,11.346,477.067,8.223,-48.216)" gradientUnits="userSpaceOnUse"><stop offset="0%" stop-opacity="1" style="stop-color:rgb(251,214,3)"/><stop offset="100%" stop-opacity="1" style="stop-color:rgb(0,0,0)"/></radialGradient><path d=" M 154.868 17.271 L 154.868 74.063 L 252.039 74.063 L 368.885 371.999 L 425.578 372.298 L 287.309 17.271 L 154.868 17.271 Z " fill="url(#_rgradient_1)" vector-effect="non-scaling-stroke" stroke-width="5" stroke="rgb(244,242,242)" stroke-linejoin="miter" stroke-linecap="square" stroke-miterlimit="3"/><path d=" M 154.868 180.051 L 154.868 222.782 L 506.372 222.782 L 506.372 265.251 L 438.609 265.251 L 438.609 293.597 L 551.718 293.436 L 551.995 180.051 L 154.868 180.051 Z " fill="rgb(0,0,0)" vector-effect="non-scaling-stroke" stroke-width="5" stroke="rgb(255,255,255)" stroke-linejoin="miter" stroke-linecap="square" stroke-miterlimit="3"/></g><g clip-path="url(#_clipPath_vdJPhl3LGsnS95XdXkRPkXqosnsYIfL4)"><text transform="matrix(1,0,0,1,41.311,419.08)" style="font-family:'Rubik Mono One';font-weight:400;font-size:30px;font-style:normal;font-variant-ligatures:none;word-spacing:56.69291338582678;letter-spacing:28.34645669291339;fill:#fcd704;stroke:none;">ENGENHARIA</text></g><defs><clipPath id="_clipPath_vdJPhl3LGsnS95XdXkRPkXqosnsYIfL4"><rect x="0" y="0" width="512.654" height="37.14" transform="matrix(1,0,0,1,41.311,391.12)"/></clipPath></defs></g></svg>