<svg id="svg" version="1.1" xmlns="http://www.w3.org/2000/svg" xmlns:xlink="http://www.w3.org/1999/xlink" width="400" height="400" viewBox="0, 0, 400,400"><g id="svgg"><path id="path0" d="M102.464 12.850 C 101.274 15.948,101.200 18.265,101.200 52.573 C 101.200 71.802,101.309 87.819,101.443 88.167 C 101.801 89.100,108.999 89.100,109.357 88.167 C 109.751 87.142,109.617 17.955,109.218 16.235 C 108.447 12.912,103.410 10.387,102.464 12.850 M201.760 12.306 C 200.744 12.984,200.638 16.685,200.619 51.800 L 200.600 88.600 204.500 88.714 L 208.400 88.829 208.400 52.602 C 208.400 12.701,208.505 14.384,205.924 12.810 C 204.596 12.000,202.583 11.757,201.760 12.306 M312.000 217.809 C 305.014 218.826,299.364 220.554,294.085 223.288 C 289.336 225.748,288.808 226.053,287.845 226.900 C 287.407 227.285,286.828 227.600,286.558 227.600 C 286.288 227.600,286.007 227.735,285.933 227.900 C 285.860 228.065,284.734 229.010,283.431 230.000 C 281.118 231.757,277.210 235.498,274.400 238.643 C 272.192 241.115,269.171 245.872,267.054 250.211 C 265.984 252.405,264.949 254.513,264.754 254.895 C 264.559 255.277,264.400 255.941,264.400 256.371 C 264.400 256.801,264.220 257.264,264.000 257.400 C 263.780 257.536,263.600 258.076,263.600 258.600 C 263.600 259.124,263.440 259.652,263.244 259.773 C 263.049 259.894,262.786 260.579,262.661 261.296 C 262.536 262.013,262.221 263.590,261.962 264.800 C 261.643 266.290,261.385 276.621,261.163 296.800 C 260.833 326.738,260.650 332.278,259.969 332.980 C 259.766 333.189,259.600 334.033,259.600 334.856 C 259.600 335.679,259.420 336.464,259.200 336.600 C 258.980 336.736,258.800 337.278,258.800 337.805 C 258.800 338.331,258.598 339.266,258.350 339.881 C 258.103 340.497,257.743 341.405,257.550 341.900 C 256.208 345.349,255.502 346.847,253.853 349.742 C 249.003 358.259,242.046 364.767,232.836 369.404 C 230.418 370.621,229.541 371.015,226.281 372.344 C 222.902 373.722,219.906 372.421,217.134 368.373 C 216.552 367.524,216.362 367.464,215.639 367.900 C 214.596 368.529,203.775 368.606,203.392 367.987 C 203.134 367.569,201.600 369.194,201.600 369.885 C 201.600 370.580,198.982 372.711,197.580 373.157 C 193.613 374.420,180.906 367.880,173.720 360.877 C 167.233 354.554,161.967 345.971,159.931 338.400 C 159.724 337.630,159.376 336.370,159.158 335.600 C 158.094 331.852,157.634 324.952,157.617 312.490 L 157.600 299.579 151.500 299.690 L 145.400 299.800 145.411 315.800 C 145.419 327.377,145.565 332.463,145.941 334.200 C 147.033 339.250,147.960 342.772,148.439 343.695 C 148.638 344.077,148.800 344.741,148.800 345.171 C 148.800 345.601,148.960 346.052,149.156 346.173 C 149.351 346.294,149.636 346.889,149.787 347.496 C 151.591 354.713,161.315 367.671,169.986 374.412 C 170.968 375.175,172.127 376.115,172.562 376.500 C 172.996 376.885,173.587 377.200,173.875 377.200 C 174.164 377.200,174.400 377.380,174.400 377.600 C 174.400 377.820,174.562 378.000,174.759 378.000 C 174.957 378.000,176.262 378.685,177.659 379.523 C 187.811 385.607,196.066 387.770,209.200 387.787 C 214.968 387.794,218.525 387.624,220.000 387.271 C 221.210 386.981,223.338 386.475,224.729 386.146 C 245.356 381.268,263.160 364.905,269.961 344.575 C 273.035 335.385,272.888 337.277,273.221 302.600 C 273.389 285.047,273.695 270.438,273.920 269.200 C 275.093 262.734,277.353 256.621,280.084 252.528 C 280.698 251.608,281.200 250.663,281.200 250.428 C 281.200 250.193,281.341 250.000,281.514 250.000 C 281.686 250.000,282.150 249.454,282.544 248.787 C 288.081 239.413,302.679 231.463,316.206 230.455 C 323.047 229.945,325.600 228.101,325.600 223.667 C 325.600 218.208,321.472 216.430,312.000 217.809 " stroke="none" fill="#e6df84" fill-rule="evenodd"></path><path id="path1" d="M96.919 12.784 C 94.247 14.413,94.385 12.157,94.498 52.284 L 94.600 88.600 98.000 88.714 L 101.400 88.828 101.277 53.514 C 101.156 18.676,101.234 15.947,102.430 12.900 C 102.920 11.652,98.915 11.567,96.919 12.784 M196.567 12.388 C 193.030 13.818,193.155 12.271,193.286 53.200 L 193.400 88.600 197.000 88.714 L 200.600 88.827 200.618 51.914 C 200.636 16.702,200.743 12.985,201.760 12.306 C 202.371 11.898,197.592 11.973,196.567 12.388 M74.880 101.280 C 74.223 101.937,74.184 171.612,74.840 173.640 C 76.166 177.743,76.953 178.800,84.972 187.230 C 93.342 196.030,98.492 203.839,103.021 214.600 C 103.392 215.480,103.924 216.740,104.203 217.400 C 104.483 218.060,105.485 220.580,106.430 223.000 C 109.191 230.069,111.139 232.946,115.400 236.250 C 118.951 239.003,116.258 238.810,151.424 238.824 L 183.266 238.837 185.133 237.745 C 189.338 235.284,193.347 230.489,195.182 225.727 C 196.378 222.620,196.825 221.535,197.247 220.705 C 197.441 220.323,197.600 219.826,197.600 219.601 C 197.600 219.376,197.978 218.338,198.440 217.296 C 198.902 216.253,199.420 215.040,199.591 214.600 C 203.175 205.396,209.142 196.470,218.038 187.006 C 219.489 185.463,221.438 183.390,222.369 182.400 C 224.407 180.233,226.809 176.719,227.563 174.800 C 227.966 173.776,228.179 170.126,228.357 161.200 C 228.646 146.665,228.851 146.086,234.000 145.222 L 235.400 144.987 235.509 137.540 L 235.617 130.093 233.792 129.820 C 228.968 129.096,228.405 127.352,228.402 113.129 C 228.400 103.599,228.312 101.970,227.771 101.429 C 226.940 100.597,75.710 100.450,74.880 101.280 M160.869 130.821 C 166.772 131.989,167.141 132.080,171.400 133.426 C 184.955 137.710,198.645 148.782,197.138 154.241 C 195.641 159.662,190.798 160.211,185.550 155.555 C 165.347 137.632,136.178 137.883,116.400 156.151 C 113.515 158.815,111.207 159.445,108.828 158.214 C 97.257 152.231,117.239 135.467,141.400 130.889 C 144.191 130.360,158.290 130.311,160.869 130.821 M159.400 157.914 C 160.060 158.130,161.410 158.540,162.400 158.825 C 163.390 159.111,164.380 159.462,164.600 159.605 C 164.820 159.749,165.630 160.109,166.400 160.406 C 175.105 163.765,180.441 171.189,177.154 175.367 C 174.460 178.792,170.824 178.463,166.093 174.366 C 157.885 167.256,141.954 167.916,134.948 175.657 C 130.711 180.339,123.390 176.507,124.569 170.224 C 125.409 165.749,136.439 159.168,146.000 157.438 C 147.705 157.129,158.134 157.500,159.400 157.914 M154.906 186.087 C 158.368 188.516,157.858 194.205,153.999 196.200 C 149.242 198.661,143.710 193.655,145.765 188.749 C 147.277 185.140,151.715 183.848,154.906 186.087 M122.200 251.283 C 120.665 252.164,120.426 252.906,120.413 256.830 C 120.401 260.326,120.481 260.737,121.326 261.530 L 122.252 262.400 151.464 262.400 C 185.751 262.400,182.000 263.100,182.000 256.698 C 182.000 250.134,185.443 250.798,151.446 250.812 C 130.803 250.821,122.781 250.950,122.200 251.283 M129.824 275.123 C 128.641 278.853,132.687 285.000,137.515 286.808 C 140.696 287.999,161.888 288.011,165.137 286.823 C 169.670 285.166,172.988 280.658,172.723 276.515 L 172.600 274.600 151.328 274.497 C 131.038 274.398,130.045 274.427,129.824 275.123 " stroke="none" fill="#24a8fa" fill-rule="evenodd"></path><path id="path2" d="M93.100 0.273 C 92.495 0.372,92.000 0.621,92.000 0.827 C 92.000 1.032,91.680 1.200,91.288 1.200 C 90.897 1.200,90.317 1.560,90.000 2.000 C 89.683 2.440,89.175 2.800,88.872 2.800 C 88.198 2.800,84.800 6.330,84.800 7.030 C 84.800 7.307,84.665 7.593,84.500 7.667 C 84.009 7.885,82.400 11.216,82.400 12.014 C 82.400 12.420,82.220 12.864,82.000 13.000 C 81.738 13.162,81.600 26.137,81.600 50.624 L 81.600 88.000 77.400 88.000 C 74.867 88.000,73.200 88.159,73.200 88.400 C 73.200 88.620,72.480 88.800,71.600 88.800 C 70.720 88.800,70.000 88.980,70.000 89.200 C 70.000 89.420,69.706 89.600,69.347 89.600 C 68.988 89.600,68.403 89.916,68.047 90.303 C 67.691 90.689,66.905 91.260,66.300 91.570 C 65.695 91.881,65.200 92.309,65.200 92.521 C 65.200 92.733,64.885 93.199,64.500 93.557 C 63.599 94.396,62.800 95.823,62.800 96.595 C 62.800 96.928,62.620 97.200,62.400 97.200 C 62.180 97.200,62.000 97.819,62.000 98.576 C 62.000 99.333,61.820 100.064,61.600 100.200 C 61.338 100.362,61.200 112.863,61.200 136.400 C 61.200 159.937,61.338 172.438,61.600 172.600 C 61.820 172.736,62.000 173.737,62.000 174.824 C 62.000 175.911,62.180 176.800,62.400 176.800 C 62.620 176.800,62.800 177.329,62.800 177.976 C 62.800 178.623,62.980 179.264,63.200 179.400 C 63.420 179.536,63.600 180.087,63.600 180.624 C 63.600 181.161,63.780 181.600,64.000 181.600 C 64.220 181.600,64.400 181.960,64.400 182.400 C 64.400 182.840,64.580 183.200,64.800 183.200 C 65.020 183.200,65.200 183.560,65.200 184.000 C 65.200 184.440,65.350 184.800,65.532 184.800 C 65.715 184.800,66.120 185.295,66.432 185.900 C 66.745 186.505,67.675 187.661,68.500 188.469 C 69.325 189.276,70.000 190.044,70.000 190.175 C 70.000 190.306,71.305 191.745,72.900 193.373 C 77.581 198.152,80.000 200.807,80.000 201.167 C 80.000 201.352,80.675 202.205,81.500 203.062 C 82.325 203.920,83.255 205.111,83.568 205.711 C 83.880 206.310,84.285 206.800,84.468 206.800 C 84.650 206.800,84.800 207.030,84.800 207.312 C 84.800 207.593,85.160 208.083,85.600 208.400 C 86.040 208.717,86.400 209.297,86.400 209.688 C 86.400 210.080,86.580 210.400,86.800 210.400 C 87.020 210.400,87.200 210.760,87.200 211.200 C 87.200 211.640,87.380 212.000,87.600 212.000 C 87.820 212.000,88.000 212.360,88.000 212.800 C 88.000 213.240,88.180 213.600,88.400 213.600 C 88.620 213.600,88.800 213.960,88.800 214.400 C 88.800 214.840,88.980 215.200,89.200 215.200 C 89.420 215.200,89.600 215.560,89.600 216.000 C 89.600 216.440,89.780 216.800,90.000 216.800 C 90.220 216.800,90.400 217.160,90.400 217.600 C 90.400 218.040,90.535 218.400,90.700 218.400 C 90.865 218.400,91.352 219.525,91.781 220.900 C 92.211 222.275,92.685 223.670,92.835 224.000 C 92.984 224.330,93.329 225.140,93.600 225.800 C 93.871 226.460,94.252 227.313,94.447 227.695 C 94.641 228.077,94.800 228.752,94.800 229.195 C 94.800 229.638,94.980 230.000,95.200 230.000 C 95.420 230.000,95.600 230.272,95.600 230.605 C 95.600 230.938,95.760 231.523,95.956 231.905 C 96.152 232.287,96.720 233.455,97.219 234.500 C 97.718 235.545,98.277 236.400,98.463 236.400 C 98.648 236.400,98.800 236.720,98.800 237.112 C 98.800 237.503,99.160 238.083,99.600 238.400 C 100.040 238.717,100.400 239.133,100.400 239.324 C 100.400 239.900,107.160 246.400,107.759 246.400 C 108.065 246.400,108.395 246.625,108.494 246.900 C 108.794 247.739,108.331 252.800,107.953 252.800 C 107.759 252.800,107.600 254.510,107.600 256.600 C 107.600 258.867,107.761 260.400,108.000 260.400 C 108.220 260.400,108.400 261.400,108.400 262.622 C 108.400 266.418,111.360 270.975,115.200 273.092 C 116.450 273.781,116.613 274.064,116.722 275.732 C 116.789 276.759,117.014 277.600,117.222 277.600 C 117.430 277.600,117.600 278.759,117.600 280.176 C 117.600 281.593,117.780 282.864,118.000 283.000 C 118.220 283.136,118.400 283.676,118.400 284.200 C 118.400 284.724,118.580 285.264,118.800 285.400 C 119.020 285.536,119.200 285.997,119.200 286.424 C 119.200 286.851,119.380 287.200,119.600 287.200 C 119.820 287.200,120.000 287.436,120.000 287.725 C 120.000 288.013,120.360 288.636,120.800 289.108 C 121.240 289.580,121.600 290.067,121.600 290.191 C 121.600 290.542,126.747 295.600,127.104 295.600 C 127.280 295.600,127.683 295.960,128.000 296.400 C 128.317 296.840,128.897 297.200,129.288 297.200 C 129.680 297.200,130.000 297.380,130.000 297.600 C 130.000 297.820,130.283 298.000,130.629 298.000 C 132.378 298.000,132.400 298.227,132.400 316.348 C 132.400 327.386,132.543 333.641,132.800 333.800 C 133.020 333.936,133.200 335.016,133.200 336.200 C 133.200 337.384,133.380 338.464,133.600 338.600 C 133.820 338.736,134.000 339.647,134.000 340.624 C 134.000 341.601,134.180 342.400,134.400 342.400 C 134.620 342.400,134.800 343.019,134.800 343.776 C 134.800 344.533,134.980 345.264,135.200 345.400 C 135.420 345.536,135.600 346.177,135.600 346.824 C 135.600 347.471,135.780 348.000,136.000 348.000 C 136.220 348.000,136.400 348.540,136.400 349.200 C 136.400 349.860,136.580 350.400,136.800 350.400 C 137.020 350.400,137.200 350.749,137.200 351.176 C 137.200 351.603,137.380 352.064,137.600 352.200 C 137.820 352.336,138.000 352.887,138.000 353.424 C 138.000 353.961,138.180 354.400,138.400 354.400 C 138.620 354.400,138.800 354.760,138.800 355.200 C 138.800 355.640,138.980 356.000,139.200 356.000 C 139.420 356.000,139.600 356.360,139.600 356.800 C 139.600 357.240,139.780 357.600,140.000 357.600 C 140.220 357.600,140.400 357.870,140.400 358.200 C 140.400 358.530,140.580 358.800,140.800 358.800 C 141.020 358.800,141.200 359.017,141.200 359.282 C 141.200 360.041,143.304 364.400,143.670 364.400 C 143.852 364.400,144.000 364.720,144.000 365.112 C 144.000 365.503,144.360 366.083,144.800 366.400 C 145.240 366.717,145.600 367.257,145.600 367.600 C 145.600 367.943,145.960 368.483,146.400 368.800 C 146.840 369.117,147.200 369.585,147.200 369.840 C 147.200 370.095,147.920 371.045,148.800 371.952 C 149.680 372.859,150.400 373.693,150.400 373.805 C 150.400 374.072,158.728 382.400,158.995 382.400 C 159.107 382.400,159.941 383.120,160.848 384.000 C 161.755 384.880,162.663 385.600,162.866 385.600 C 163.070 385.600,163.672 386.036,164.205 386.569 C 164.738 387.102,165.540 387.654,165.987 387.796 C 166.434 387.938,166.800 388.222,166.800 388.427 C 166.800 388.632,167.078 388.800,167.417 388.800 C 167.756 388.800,168.420 389.160,168.892 389.600 C 169.364 390.040,169.987 390.400,170.275 390.400 C 170.564 390.400,170.800 390.560,170.800 390.755 C 170.800 390.951,171.398 391.223,172.130 391.360 C 172.861 391.498,173.844 391.968,174.313 392.405 C 174.783 392.842,175.534 393.200,175.983 393.200 C 176.432 393.200,176.800 393.380,176.800 393.600 C 176.800 393.820,177.160 394.000,177.600 394.000 C 178.040 394.000,178.400 394.180,178.400 394.400 C 178.400 394.620,178.749 394.800,179.176 394.800 C 179.603 394.800,180.064 394.980,180.200 395.200 C 180.336 395.420,180.887 395.600,181.424 395.600 C 181.961 395.600,182.400 395.780,182.400 396.000 C 182.400 396.220,182.940 396.400,183.600 396.400 C 184.260 396.400,184.800 396.580,184.800 396.800 C 184.800 397.020,185.340 397.200,186.000 397.200 C 186.660 397.200,187.200 397.380,187.200 397.600 C 187.200 397.820,187.920 398.000,188.800 398.000 C 189.680 398.000,190.400 398.180,190.400 398.400 C 190.400 398.620,190.994 398.800,191.720 398.800 C 192.446 398.800,193.265 399.025,193.540 399.300 C 193.923 399.683,197.663 399.800,209.487 399.800 C 221.488 399.800,224.971 399.688,225.100 399.300 C 225.196 399.013,225.936 398.800,226.833 398.800 C 227.695 398.800,228.400 398.620,228.400 398.400 C 228.400 398.180,229.019 398.000,229.776 398.000 C 230.533 398.000,231.264 397.820,231.400 397.600 C 231.536 397.380,232.177 397.200,232.824 397.200 C 233.471 397.200,234.000 397.020,234.000 396.800 C 234.000 396.580,234.439 396.400,234.976 396.400 C 235.513 396.400,236.064 396.220,236.200 396.000 C 236.336 395.780,236.797 395.600,237.224 395.600 C 237.651 395.600,238.000 395.420,238.000 395.200 C 238.000 394.980,238.450 394.800,239.000 394.800 C 239.550 394.800,240.000 394.620,240.000 394.400 C 240.000 394.180,240.360 394.000,240.800 394.000 C 241.240 394.000,241.600 393.820,241.600 393.600 C 241.600 393.380,241.960 393.200,242.400 393.200 C 242.840 393.200,243.200 393.020,243.200 392.800 C 243.200 392.580,243.560 392.400,244.000 392.400 C 244.440 392.400,244.800 392.220,244.800 392.000 C 244.800 391.780,245.079 391.600,245.420 391.600 C 246.041 391.600,248.424 390.503,248.800 390.044 C 248.984 389.820,249.662 389.411,251.796 388.238 C 252.233 387.997,252.884 387.485,253.243 387.100 C 253.601 386.715,254.071 386.400,254.288 386.400 C 254.504 386.400,255.246 385.860,255.937 385.200 C 256.628 384.540,257.279 384.000,257.385 384.000 C 257.630 384.000,269.191 372.445,270.006 371.387 C 270.339 370.954,271.050 369.970,271.586 369.200 C 272.123 368.430,272.674 367.710,272.812 367.600 C 272.950 367.490,273.589 366.410,274.232 365.200 C 274.874 363.990,275.535 362.940,275.700 362.867 C 275.865 362.793,276.000 362.388,276.000 361.967 C 276.000 361.545,276.180 361.200,276.400 361.200 C 276.620 361.200,276.800 360.840,276.800 360.400 C 276.800 359.960,276.980 359.600,277.200 359.600 C 277.420 359.600,277.600 359.330,277.600 359.000 C 277.600 358.670,277.780 358.400,278.000 358.400 C 278.220 358.400,278.400 358.040,278.400 357.600 C 278.400 357.160,278.580 356.800,278.800 356.800 C 279.020 356.800,279.200 356.440,279.200 356.000 C 279.200 355.560,279.380 355.200,279.600 355.200 C 279.820 355.200,280.000 354.851,280.000 354.424 C 280.000 353.997,280.180 353.536,280.400 353.400 C 280.620 353.264,280.800 352.713,280.800 352.176 C 280.800 351.639,280.980 351.200,281.200 351.200 C 281.420 351.200,281.600 350.660,281.600 350.000 C 281.600 349.340,281.780 348.800,282.000 348.800 C 282.220 348.800,282.400 348.260,282.400 347.600 C 282.400 346.940,282.580 346.400,282.800 346.400 C 283.020 346.400,283.200 345.860,283.200 345.200 C 283.200 344.540,283.380 344.000,283.600 344.000 C 283.820 344.000,284.000 343.190,284.000 342.200 C 284.000 341.210,284.180 340.400,284.400 340.400 C 284.620 340.400,284.800 339.500,284.800 338.400 C 284.800 337.300,284.980 336.400,285.200 336.400 C 285.437 336.400,285.600 334.941,285.600 332.824 C 285.600 330.857,285.780 329.136,286.000 329.000 C 286.261 328.839,286.400 318.604,286.400 299.600 C 286.400 280.596,286.539 270.361,286.800 270.200 C 287.020 270.064,287.200 269.243,287.200 268.376 C 287.200 267.509,287.380 266.800,287.600 266.800 C 287.820 266.800,288.000 266.361,288.000 265.824 C 288.000 265.287,288.180 264.736,288.400 264.600 C 288.620 264.464,288.800 264.003,288.800 263.576 C 288.800 263.149,288.980 262.800,289.200 262.800 C 289.420 262.800,289.600 262.528,289.600 262.195 C 289.600 261.594,290.373 259.984,290.846 259.600 C 290.981 259.490,291.219 258.995,291.373 258.500 C 291.528 258.005,291.822 257.600,292.027 257.600 C 292.232 257.600,292.400 257.330,292.400 257.000 C 292.400 256.670,292.580 256.400,292.800 256.400 C 293.020 256.400,293.200 256.208,293.200 255.973 C 293.200 255.395,299.159 249.600,299.753 249.600 C 300.012 249.600,300.483 249.240,300.800 248.800 C 301.117 248.360,301.614 248.000,301.905 248.000 C 302.196 248.000,302.820 247.640,303.292 247.200 C 303.764 246.760,304.477 246.400,304.875 246.400 C 305.274 246.400,305.600 246.220,305.600 246.000 C 305.600 245.780,305.960 245.600,306.400 245.600 C 306.840 245.600,307.200 245.420,307.200 245.200 C 307.200 244.980,307.549 244.800,307.976 244.800 C 308.403 244.800,308.864 244.620,309.000 244.400 C 309.136 244.180,309.867 244.000,310.624 244.000 C 311.381 244.000,312.000 243.820,312.000 243.600 C 312.000 243.380,312.979 243.200,314.176 243.200 C 315.373 243.200,316.464 243.020,316.600 242.800 C 316.736 242.579,318.530 242.400,320.600 242.400 C 322.664 242.400,324.451 242.241,324.571 242.046 C 324.692 241.852,325.602 241.571,326.595 241.422 C 327.588 241.273,328.400 240.982,328.400 240.775 C 328.400 240.569,328.625 240.400,328.900 240.400 C 329.630 240.399,333.981 236.851,333.993 236.247 C 333.997 236.053,334.315 235.603,334.700 235.247 C 335.607 234.409,337.200 231.477,337.200 230.646 C 337.200 230.290,337.362 230.000,337.560 230.000 C 338.250 230.000,339.066 221.706,338.438 221.078 C 338.197 220.837,338.000 219.956,338.000 219.120 C 338.000 218.284,337.820 217.600,337.600 217.600 C 337.380 217.600,337.200 217.060,337.200 216.400 C 337.200 215.740,337.020 215.200,336.800 215.200 C 336.580 215.200,336.400 214.964,336.400 214.675 C 336.400 214.387,336.040 213.764,335.600 213.292 C 335.160 212.820,334.800 212.275,334.800 212.082 C 334.800 211.539,331.315 208.400,330.712 208.400 C 330.417 208.400,329.917 208.040,329.600 207.600 C 329.283 207.160,328.703 206.800,328.312 206.800 C 327.920 206.800,327.600 206.620,327.600 206.400 C 327.600 206.180,327.060 206.000,326.400 206.000 C 325.740 206.000,325.200 205.820,325.200 205.600 C 325.200 205.380,324.300 205.200,323.200 205.200 C 322.100 205.200,321.200 205.020,321.200 204.800 C 321.200 204.580,320.210 204.400,319.000 204.400 C 317.790 204.400,316.800 204.580,316.800 204.800 C 316.800 205.043,315.000 205.200,312.200 205.200 C 309.400 205.200,307.600 205.357,307.600 205.600 C 307.600 205.820,306.700 206.000,305.600 206.000 C 304.500 206.000,303.600 206.180,303.600 206.400 C 303.600 206.620,302.880 206.800,302.000 206.800 C 301.120 206.800,300.400 206.980,300.400 207.200 C 300.400 207.420,299.770 207.600,299.000 207.600 C 298.230 207.600,297.600 207.744,297.600 207.921 C 297.600 208.098,296.745 208.433,295.700 208.666 C 293.379 209.183,289.849 210.490,289.667 210.900 C 289.593 211.065,289.188 211.200,288.767 211.200 C 288.345 211.200,288.000 211.380,288.000 211.600 C 288.000 211.820,287.640 212.000,287.200 212.000 C 286.760 212.000,286.400 212.180,286.400 212.400 C 286.400 212.620,286.040 212.800,285.600 212.800 C 285.160 212.800,284.800 212.980,284.800 213.200 C 284.800 213.420,284.564 213.600,284.275 213.600 C 283.987 213.600,283.364 213.960,282.892 214.400 C 282.420 214.840,281.756 215.200,281.417 215.200 C 281.078 215.200,280.800 215.350,280.800 215.532 C 280.800 215.715,280.305 216.119,279.700 216.430 C 279.095 216.740,278.309 217.311,277.953 217.697 C 277.597 218.084,277.118 218.400,276.889 218.400 C 276.659 218.400,276.017 218.940,275.461 219.600 C 274.906 220.260,274.256 220.800,274.017 220.800 C 273.778 220.800,272.617 221.745,271.437 222.900 C 270.257 224.055,268.407 225.810,267.326 226.800 C 266.244 227.790,264.921 229.230,264.384 230.000 C 263.848 230.770,262.912 231.922,262.304 232.559 C 261.697 233.197,261.200 233.962,261.200 234.259 C 261.200 234.557,261.050 234.800,260.868 234.800 C 260.685 234.800,260.280 235.295,259.968 235.900 C 259.655 236.505,259.175 237.238,258.900 237.529 C 258.625 237.819,258.400 238.404,258.400 238.829 C 258.400 239.253,258.220 239.600,258.000 239.600 C 257.780 239.600,257.600 239.920,257.600 240.312 C 257.600 240.703,257.240 241.283,256.800 241.600 C 256.360 241.917,256.000 242.497,256.000 242.888 C 256.000 243.280,255.820 243.600,255.600 243.600 C 255.380 243.600,255.200 243.960,255.200 244.400 C 255.200 244.840,255.020 245.200,254.800 245.200 C 254.580 245.200,254.400 245.650,254.400 246.200 C 254.400 246.750,254.220 247.200,254.000 247.200 C 253.780 247.200,253.600 247.560,253.600 248.000 C 253.600 248.440,253.420 248.800,253.200 248.800 C 252.980 248.800,252.800 249.162,252.800 249.605 C 252.800 250.048,252.592 250.813,252.338 251.305 C 251.328 253.259,251.200 253.625,251.200 254.571 C 251.200 255.111,251.020 255.664,250.800 255.800 C 250.580 255.936,250.400 256.577,250.400 257.224 C 250.400 257.871,250.220 258.400,250.000 258.400 C 249.780 258.400,249.600 259.199,249.600 260.176 C 249.600 261.153,249.420 262.064,249.200 262.200 C 248.980 262.336,248.800 263.416,248.800 264.600 C 248.800 265.784,248.620 266.864,248.400 267.000 C 248.139 267.161,248.000 277.730,248.000 297.400 C 248.000 317.070,247.861 327.639,247.600 327.800 C 247.380 327.936,247.200 329.027,247.200 330.224 C 247.200 331.421,247.020 332.400,246.800 332.400 C 246.580 332.400,246.400 332.929,246.400 333.576 C 246.400 334.223,246.220 334.864,246.000 335.000 C 245.780 335.136,245.600 335.687,245.600 336.224 C 245.600 336.761,245.420 337.200,245.200 337.200 C 244.980 337.200,244.800 337.740,244.800 338.400 C 244.800 339.060,244.620 339.600,244.400 339.600 C 244.180 339.600,244.000 339.960,244.000 340.400 C 244.000 340.840,243.865 341.202,243.700 341.205 C 243.535 341.207,243.041 341.972,242.601 342.905 C 242.162 343.837,241.487 344.949,241.101 345.375 C 240.716 345.802,240.400 346.299,240.400 346.480 C 240.400 347.025,232.050 355.200,231.493 355.200 C 231.209 355.200,230.717 355.560,230.400 356.000 C 230.083 356.440,229.503 356.800,229.112 356.800 C 228.720 356.800,228.400 356.980,228.400 357.200 C 228.400 357.420,228.130 357.600,227.800 357.600 C 227.470 357.600,227.200 357.736,227.200 357.902 C 227.200 358.193,225.169 359.010,223.300 359.471 C 222.805 359.593,222.400 359.852,222.400 360.047 C 222.400 360.241,221.985 360.400,221.478 360.400 C 220.396 360.400,217.600 362.818,217.600 363.754 C 217.600 364.109,217.420 364.400,217.200 364.400 C 216.980 364.400,216.800 365.120,216.800 366.000 C 216.800 366.880,216.978 367.600,217.195 367.600 C 217.412 367.600,218.049 368.327,218.609 369.214 C 220.291 371.879,223.359 373.139,225.505 372.047 C 225.887 371.852,226.650 371.521,227.200 371.309 C 237.283 367.439,246.311 360.129,252.034 351.200 C 253.594 348.767,256.800 342.332,256.800 341.634 C 256.800 341.389,256.958 340.877,257.151 340.495 C 257.720 339.367,258.400 337.004,258.400 336.152 C 258.400 335.716,258.563 335.189,258.761 334.980 C 259.535 334.166,259.698 329.573,259.994 300.200 C 260.285 271.399,260.411 268.389,261.546 263.200 C 264.664 248.941,273.720 235.404,285.328 227.651 C 286.468 226.890,287.490 226.162,287.600 226.033 C 287.710 225.904,288.340 225.529,289.000 225.200 C 289.660 224.871,290.290 224.501,290.400 224.378 C 294.133 220.212,317.877 215.082,322.372 217.471 C 325.363 219.061,327.647 225.444,325.696 226.761 C 325.501 226.892,325.225 227.316,325.083 227.701 C 324.483 229.326,321.229 230.800,318.222 230.807 C 306.985 230.837,294.253 236.571,286.265 245.200 C 284.009 247.636,279.200 254.405,279.200 255.144 C 279.200 255.350,278.660 256.545,278.000 257.800 C 277.340 259.055,276.800 260.335,276.800 260.646 C 276.800 260.957,276.638 261.523,276.439 261.905 C 276.240 262.287,275.896 263.320,275.673 264.200 C 275.450 265.080,275.050 266.520,274.784 267.400 C 274.434 268.559,274.228 277.815,274.035 301.000 C 273.837 324.902,273.647 333.221,273.285 333.874 C 273.018 334.354,272.800 335.241,272.800 335.845 C 272.800 336.449,272.632 337.496,272.427 338.172 C 272.222 338.847,271.838 340.210,271.574 341.200 C 269.766 347.968,264.320 359.324,261.599 362.000 C 261.487 362.110,260.874 362.920,260.236 363.800 C 258.320 366.446,250.332 374.146,247.576 376.003 C 246.159 376.958,244.910 377.868,244.800 378.024 C 243.688 379.601,232.156 384.793,226.185 386.404 C 219.561 388.191,205.876 389.019,199.800 388.000 C 192.376 386.755,185.432 384.521,179.784 381.560 C 178.033 380.642,176.196 379.691,175.703 379.446 C 175.210 379.201,174.805 378.865,174.803 378.700 C 174.801 378.535,174.622 378.400,174.403 378.400 C 174.185 378.400,173.150 377.754,172.103 376.965 C 171.057 376.176,169.666 375.141,169.013 374.665 C 159.538 367.758,150.076 353.556,146.720 341.200 C 144.953 334.694,144.715 331.875,144.538 315.300 L 144.366 299.200 151.175 299.200 C 157.914 299.200,157.987 299.209,158.176 300.100 C 158.282 300.595,158.425 308.061,158.495 316.691 C 158.590 328.379,158.747 332.507,159.111 332.871 C 159.380 333.140,159.600 334.033,159.600 334.856 C 159.600 335.679,159.780 336.464,160.000 336.600 C 160.220 336.736,160.400 337.289,160.400 337.829 C 160.400 338.775,160.528 339.141,161.538 341.095 C 161.792 341.587,162.000 342.237,162.000 342.539 C 162.000 345.537,170.354 357.236,176.200 362.426 C 179.933 365.739,190.068 371.600,192.066 371.600 C 192.382 371.600,192.833 371.793,193.070 372.030 C 194.664 373.624,199.446 372.324,200.791 369.931 C 201.282 369.058,201.935 368.247,202.242 368.129 C 202.828 367.904,203.069 364.400,202.498 364.400 C 202.331 364.400,201.971 363.893,201.697 363.274 C 201.183 362.114,199.626 361.189,196.418 360.141 C 195.418 359.814,194.033 359.288,193.340 358.973 C 192.646 358.658,191.881 358.400,191.640 358.400 C 191.398 358.400,191.200 358.220,191.200 358.000 C 191.200 357.780,190.880 357.600,190.488 357.600 C 190.097 357.600,189.517 357.240,189.200 356.800 C 188.883 356.360,188.391 356.000,188.108 356.000 C 187.825 356.000,187.028 355.460,186.337 354.800 C 185.646 354.140,184.914 353.600,184.710 353.600 C 184.241 353.600,179.200 348.431,179.200 347.950 C 179.200 347.753,178.660 347.028,178.000 346.337 C 177.340 345.646,176.800 344.838,176.800 344.541 C 176.800 344.243,176.620 344.000,176.400 344.000 C 176.180 344.000,176.000 343.807,176.000 343.571 C 176.000 343.336,175.730 342.873,175.400 342.543 C 175.070 342.213,174.800 341.596,174.800 341.171 C 174.800 340.747,174.653 340.400,174.472 340.400 C 174.292 340.400,173.900 339.500,173.600 338.400 C 173.300 337.300,172.908 336.400,172.728 336.400 C 172.547 336.400,172.400 335.860,172.400 335.200 C 172.400 334.540,172.220 334.000,172.000 334.000 C 171.780 334.000,171.600 333.291,171.600 332.424 C 171.600 331.557,171.420 330.736,171.200 330.600 C 170.301 330.044,170.694 298.000,171.600 298.000 C 172.040 298.000,172.400 297.820,172.400 297.600 C 172.400 297.380,172.760 297.200,173.200 297.200 C 173.640 297.200,174.000 297.020,174.000 296.800 C 174.000 296.580,174.198 296.400,174.440 296.400 C 174.681 296.400,175.356 295.892,175.940 295.271 C 176.523 294.650,177.495 293.819,178.100 293.425 C 178.705 293.031,179.200 292.471,179.200 292.181 C 179.200 291.891,179.531 291.549,179.936 291.420 C 180.341 291.292,180.925 290.695,181.235 290.093 C 181.545 289.492,181.891 288.910,182.005 288.800 C 182.118 288.690,182.633 287.700,183.149 286.600 C 183.665 285.500,184.248 284.287,184.444 283.905 C 184.640 283.523,184.800 282.589,184.800 281.829 C 184.800 281.069,184.980 280.336,185.200 280.200 C 185.420 280.064,185.600 278.628,185.600 277.010 C 185.600 274.125,185.624 274.057,186.800 273.536 C 187.460 273.244,188.000 272.869,188.000 272.702 C 188.000 272.536,188.235 272.400,188.522 272.400 C 189.169 272.400,191.600 269.937,191.600 269.281 C 191.600 269.016,191.780 268.800,192.000 268.800 C 192.220 268.800,192.400 268.530,192.400 268.200 C 192.400 267.870,192.580 267.600,192.800 267.600 C 193.020 267.600,193.200 267.240,193.200 266.800 C 193.200 266.360,193.380 266.000,193.600 266.000 C 193.820 266.000,194.000 265.280,194.000 264.400 C 194.000 263.520,194.180 262.800,194.400 262.800 C 194.649 262.800,194.800 260.467,194.800 256.600 C 194.800 252.733,194.649 250.400,194.400 250.400 C 194.180 250.400,194.000 249.785,194.000 249.033 C 194.000 248.282,193.775 247.576,193.500 247.465 C 193.204 247.345,193.288 247.250,193.706 247.232 C 194.314 247.204,195.999 245.697,201.700 240.083 C 202.304 239.487,202.799 238.857,202.800 238.683 C 202.800 238.509,203.160 237.980,203.600 237.508 C 204.040 237.036,204.400 236.413,204.400 236.125 C 204.400 235.836,204.580 235.600,204.800 235.600 C 205.020 235.600,205.200 235.240,205.200 234.800 C 205.200 234.360,205.380 234.000,205.600 234.000 C 205.820 234.000,206.000 233.640,206.000 233.200 C 206.000 232.760,206.180 232.400,206.400 232.400 C 206.620 232.400,206.800 232.051,206.800 231.624 C 206.800 231.197,206.980 230.736,207.200 230.600 C 207.420 230.464,207.600 229.913,207.600 229.376 C 207.600 228.839,207.764 228.400,207.965 228.400 C 208.166 228.400,208.458 227.642,208.614 226.715 C 208.771 225.789,209.057 224.709,209.249 224.315 C 209.442 223.922,209.780 223.242,210.000 222.805 C 210.220 222.368,210.400 221.738,210.400 221.405 C 210.400 221.072,210.580 220.800,210.800 220.800 C 211.020 220.800,211.200 220.451,211.200 220.024 C 211.200 219.597,211.380 219.136,211.600 219.000 C 211.820 218.864,212.000 218.313,212.000 217.776 C 212.000 217.239,212.180 216.800,212.400 216.800 C 212.620 216.800,212.800 216.440,212.800 216.000 C 212.800 215.560,212.980 215.200,213.200 215.200 C 213.420 215.200,213.600 214.840,213.600 214.400 C 213.600 213.960,213.780 213.600,214.000 213.600 C 214.220 213.600,214.400 213.280,214.400 212.888 C 214.400 212.497,214.760 211.917,215.200 211.600 C 215.640 211.283,216.000 210.703,216.000 210.312 C 216.000 209.920,216.180 209.600,216.400 209.600 C 216.620 209.600,216.800 209.330,216.800 209.000 C 216.800 208.670,216.980 208.400,217.200 208.400 C 217.420 208.400,217.600 208.130,217.600 207.800 C 217.600 207.470,217.780 207.200,218.000 207.200 C 218.220 207.200,218.400 207.010,218.400 206.778 C 218.400 206.546,218.939 205.781,219.598 205.078 C 220.257 204.375,220.797 203.671,220.798 203.513 C 220.799 203.356,221.334 202.636,221.986 201.913 C 224.176 199.488,225.199 198.202,225.200 197.875 C 225.200 197.696,227.360 195.434,230.000 192.848 C 232.640 190.263,234.800 187.974,234.800 187.762 C 234.800 187.550,235.160 187.117,235.600 186.800 C 236.040 186.483,236.400 185.903,236.400 185.512 C 236.400 185.120,236.547 184.800,236.726 184.800 C 237.192 184.800,238.800 181.669,238.800 180.762 C 238.800 180.343,238.936 180.000,239.103 180.000 C 239.526 180.000,240.400 177.055,240.400 175.630 C 240.400 174.979,240.580 174.336,240.800 174.200 C 241.409 173.824,241.333 149.947,240.718 148.519 C 239.647 146.032,236.211 143.888,235.400 145.200 C 235.264 145.420,234.758 145.601,234.276 145.601 C 233.200 145.603,230.842 146.972,229.909 148.137 C 229.293 148.906,229.217 150.170,229.209 159.694 C 229.201 169.730,228.933 172.964,227.953 174.895 C 227.759 175.277,227.600 175.781,227.600 176.017 C 227.600 176.635,224.701 180.761,223.116 182.400 C 221.831 183.727,218.217 187.645,214.629 191.600 C 213.731 192.590,212.505 194.059,211.904 194.865 C 211.304 195.671,210.554 196.589,210.239 196.904 C 207.403 199.740,201.942 210.038,198.417 219.200 C 195.808 225.980,195.817 225.956,195.166 227.400 C 193.169 231.826,187.057 238.052,183.432 239.352 C 182.696 239.616,153.887 239.638,130.136 239.394 L 118.871 239.278 116.395 237.596 C 111.654 234.377,108.827 230.683,106.296 224.400 C 105.444 222.285,105.082 221.372,104.792 220.600 C 102.394 214.232,97.811 204.362,97.114 204.067 C 96.941 203.993,96.800 203.761,96.800 203.551 C 96.800 203.194,92.148 196.037,91.631 195.600 C 91.501 195.490,90.407 194.230,89.200 192.800 C 87.993 191.370,85.223 188.361,83.045 186.113 C 78.647 181.574,76.320 178.651,75.358 176.459 C 75.006 175.656,74.512 174.568,74.259 174.040 C 73.382 172.206,73.628 101.801,74.514 100.914 C 75.216 100.212,223.860 99.509,226.689 100.194 C 229.159 100.793,229.200 101.020,229.200 114.062 L 229.200 125.972 230.369 127.303 C 231.529 128.625,234.796 130.000,236.775 130.000 C 237.710 130.000,239.918 128.063,240.735 126.526 C 241.337 125.395,241.398 99.370,240.800 99.000 C 240.580 98.864,240.400 98.420,240.400 98.014 C 240.400 96.083,236.054 90.400,234.576 90.400 C 234.259 90.400,234.000 90.220,234.000 90.000 C 234.000 89.780,233.640 89.600,233.200 89.600 C 232.760 89.600,232.400 89.420,232.400 89.200 C 232.400 88.980,231.860 88.800,231.200 88.800 C 230.540 88.800,230.000 88.620,230.000 88.400 C 230.000 88.157,228.200 88.000,225.400 88.000 L 220.800 88.000 220.800 50.224 C 220.800 25.471,220.662 12.362,220.400 12.200 C 220.180 12.064,220.000 11.639,220.000 11.256 C 220.000 10.381,219.101 8.407,218.700 8.403 C 218.535 8.401,218.400 8.151,218.400 7.846 C 218.400 7.070,213.397 2.000,212.631 2.000 C 212.284 2.000,212.000 1.820,212.000 1.600 C 212.000 1.380,211.655 1.200,211.233 1.200 C 210.812 1.200,210.392 0.975,210.300 0.700 C 210.058 -0.024,191.541 -0.024,191.300 0.700 C 191.208 0.975,190.788 1.200,190.367 1.200 C 189.945 1.200,189.600 1.380,189.600 1.600 C 189.600 1.820,189.354 2.000,189.054 2.000 C 188.338 2.000,184.361 5.888,183.632 7.300 C 183.320 7.905,182.915 8.400,182.732 8.400 C 182.550 8.400,182.400 8.760,182.400 9.200 C 182.400 9.640,182.220 10.000,182.000 10.000 C 181.780 10.000,181.600 10.439,181.600 10.976 C 181.600 11.513,181.420 12.064,181.200 12.200 C 180.938 12.362,180.800 25.471,180.800 50.224 L 180.800 88.000 151.600 88.000 L 122.400 88.000 122.400 51.824 C 122.400 28.137,122.262 15.562,122.000 15.400 C 121.780 15.264,121.600 14.364,121.600 13.400 C 121.600 12.436,121.420 11.536,121.200 11.400 C 120.980 11.264,120.800 10.837,120.800 10.452 C 120.800 10.066,120.440 9.364,120.000 8.892 C 119.560 8.420,119.200 7.843,119.200 7.609 C 119.200 6.949,114.089 2.000,113.407 2.000 C 113.073 2.000,112.800 1.820,112.800 1.600 C 112.800 1.380,112.455 1.200,112.033 1.200 C 111.612 1.200,111.192 0.975,111.100 0.700 C 110.934 0.201,95.735 -0.160,93.100 0.273 M106.400 12.000 C 106.400 12.220,106.661 12.400,106.980 12.400 C 107.298 12.400,108.018 13.002,108.580 13.738 L 109.600 15.076 109.600 52.146 L 109.600 89.217 101.700 89.108 L 93.800 89.000 93.698 52.808 C 93.611 21.887,93.680 16.439,94.175 15.396 C 94.874 13.922,95.919 12.696,97.000 12.080 C 98.006 11.507,106.400 11.435,106.400 12.000 M207.011 13.389 L 208.800 15.179 208.800 52.198 L 208.800 89.217 200.900 89.108 L 193.000 89.000 192.898 52.608 C 192.785 12.442,192.648 14.724,195.308 12.627 C 196.510 11.680,196.900 11.609,200.911 11.604 L 205.221 11.600 207.011 13.389 M143.000 131.237 C 135.027 132.625,129.032 134.525,123.126 137.536 C 119.131 139.573,115.067 142.013,114.400 142.776 C 114.290 142.902,113.507 143.521,112.661 144.153 C 110.000 146.137,106.555 149.746,106.010 151.121 C 104.250 155.556,111.358 160.719,114.400 157.215 C 116.655 154.618,123.421 149.685,127.600 147.590 C 130.778 145.998,131.794 145.540,133.800 144.796 C 134.240 144.633,135.103 144.297,135.719 144.050 C 136.334 143.802,137.243 143.600,137.739 143.600 C 138.234 143.600,138.811 143.438,139.020 143.241 C 140.734 141.622,162.066 141.622,163.780 143.241 C 163.989 143.438,164.653 143.600,165.256 143.600 C 165.859 143.600,166.464 143.780,166.600 144.000 C 166.736 144.220,167.199 144.400,167.629 144.400 C 168.059 144.400,168.723 144.559,169.105 144.753 C 169.487 144.948,170.295 145.308,170.900 145.553 C 176.179 147.697,182.200 151.611,186.938 155.981 C 190.473 159.240,194.293 158.887,196.241 155.121 C 197.564 152.563,196.720 150.169,193.460 147.228 C 192.589 146.443,191.342 145.302,190.689 144.694 C 190.036 144.085,188.984 143.281,188.351 142.907 C 187.718 142.533,187.200 142.086,187.200 141.914 C 187.200 141.741,187.010 141.600,186.778 141.600 C 186.546 141.600,185.331 140.918,184.078 140.084 C 181.361 138.276,177.737 136.472,173.488 134.813 C 169.382 133.211,166.078 132.363,160.200 131.402 C 156.275 130.761,146.287 130.666,143.000 131.237 M147.200 158.043 C 143.111 158.459,141.234 158.821,140.973 159.244 C 140.852 159.440,140.324 159.600,139.800 159.600 C 139.276 159.600,138.736 159.780,138.600 160.000 C 138.464 160.220,138.003 160.400,137.576 160.400 C 137.149 160.400,136.800 160.580,136.800 160.800 C 136.800 161.020,136.485 161.204,136.100 161.209 C 135.715 161.214,134.950 161.570,134.400 162.000 C 133.850 162.430,133.209 162.786,132.975 162.791 C 132.742 162.796,132.202 163.115,131.775 163.500 C 131.348 163.885,130.362 164.676,129.582 165.257 C 124.876 168.769,123.610 172.444,126.141 175.241 C 128.731 178.103,132.006 177.903,135.265 174.684 C 140.626 169.390,152.243 167.022,159.041 169.837 C 163.441 171.659,166.418 173.481,168.404 175.566 C 172.190 179.539,179.567 175.329,177.594 170.321 C 176.317 167.078,165.999 159.600,162.802 159.600 C 162.387 159.600,161.936 159.420,161.800 159.200 C 161.664 158.980,161.102 158.800,160.550 158.800 C 159.999 158.800,159.244 158.645,158.874 158.455 C 157.881 157.946,150.656 157.691,147.200 158.043 M149.000 185.982 C 146.470 187.028,145.297 190.598,146.589 193.320 C 148.387 197.110,153.885 197.278,155.949 193.605 C 158.566 188.949,153.983 183.921,149.000 185.982 M181.478 251.365 C 183.067 252.732,183.221 260.557,181.689 262.089 L 180.778 263.000 151.354 263.000 L 121.931 263.000 120.965 261.878 C 119.326 259.971,119.506 252.887,121.231 251.436 L 122.461 250.400 151.408 250.400 L 180.355 250.400 181.478 251.365 M172.967 274.243 C 174.225 274.725,173.191 279.697,171.183 282.827 C 168.186 287.496,165.568 288.117,149.621 287.935 L 137.800 287.800 135.658 286.613 C 131.428 284.270,128.486 278.618,129.492 274.769 C 129.693 274.000,171.030 273.500,172.967 274.243 " stroke="none" fill="#1c1c1c" fill-rule="evenodd"></path><path id="path3" d="M97.000 12.080 C 95.919 12.696,94.874 13.922,94.175 15.396 C 93.680 16.439,93.611 21.887,93.698 52.808 L 93.800 89.000 101.700 89.108 C 109.036 89.209,109.600 89.166,109.594 88.508 C 109.589 87.994,109.499 87.939,109.264 88.310 C 109.018 88.698,107.239 88.793,101.771 88.710 L 94.600 88.600 94.498 52.284 C 94.385 12.158,94.246 14.435,96.919 12.764 C 98.022 12.075,98.765 11.981,102.262 12.082 C 104.497 12.147,106.241 12.065,106.139 11.900 C 105.840 11.419,97.885 11.576,97.000 12.080 M195.308 12.627 C 192.648 14.724,192.785 12.442,192.898 52.608 L 193.000 89.000 200.800 89.000 L 208.600 89.000 208.704 52.600 C 208.810 15.752,208.776 14.742,207.388 13.590 C 207.091 13.343,207.196 13.808,207.631 14.662 C 208.373 16.116,208.400 17.455,208.400 52.493 L 208.400 88.818 200.900 88.709 L 193.400 88.600 193.283 53.000 C 193.158 14.936,193.136 15.378,195.217 13.383 C 196.514 12.140,203.607 11.584,205.800 12.554 L 206.600 12.908 205.800 12.267 C 204.333 11.091,196.934 11.346,195.308 12.627 M107.579 13.378 C 108.720 14.592,108.974 14.673,108.425 13.647 C 108.204 13.233,107.706 12.773,107.321 12.625 C 106.798 12.424,106.863 12.616,107.579 13.378 M109.152 16.087 C 109.337 17.198,109.393 17.255,109.519 16.454 C 109.601 15.933,109.503 15.343,109.301 15.141 C 109.079 14.919,109.021 15.293,109.152 16.087 M75.225 100.506 C 74.648 100.798,74.109 101.547,73.903 102.341 C 73.352 104.470,73.699 173.227,74.266 174.200 C 74.523 174.640,75.018 175.656,75.366 176.459 C 76.312 178.641,78.635 181.561,83.045 186.113 C 85.223 188.361,87.993 191.370,89.200 192.800 C 90.407 194.230,91.501 195.490,91.631 195.600 C 92.148 196.037,96.800 203.194,96.800 203.551 C 96.800 203.761,96.941 203.993,97.114 204.067 C 97.811 204.362,102.394 214.232,104.792 220.600 C 104.957 221.040,105.321 221.940,105.600 222.600 C 105.879 223.260,106.240 224.160,106.403 224.600 C 108.469 230.189,111.728 234.427,116.395 237.596 L 118.871 239.278 130.136 239.394 C 153.887 239.638,182.696 239.616,183.432 239.352 C 184.805 238.860,188.960 235.734,190.619 233.945 C 193.945 230.360,194.595 229.132,198.417 219.200 C 201.942 210.038,207.403 199.740,210.239 196.904 C 210.554 196.589,211.304 195.671,211.904 194.865 C 212.505 194.059,213.731 192.590,214.629 191.600 C 218.217 187.645,221.831 183.727,223.116 182.400 C 224.701 180.761,227.600 176.635,227.600 176.017 C 227.600 175.781,227.759 175.277,227.953 174.895 C 228.933 172.964,229.201 169.730,229.209 159.694 C 229.217 150.170,229.293 148.906,229.909 148.137 C 230.842 146.972,233.200 145.603,234.276 145.601 C 234.758 145.601,235.249 145.445,235.366 145.256 C 235.680 144.747,232.794 145.364,231.359 146.112 C 228.662 147.519,228.626 147.701,228.357 161.200 C 228.179 170.126,227.966 173.776,227.563 174.800 C 226.809 176.719,224.407 180.233,222.369 182.400 C 221.438 183.390,219.489 185.463,218.038 187.006 C 209.142 196.470,203.175 205.396,199.591 214.600 C 199.420 215.040,198.902 216.253,198.440 217.296 C 197.978 218.338,197.600 219.376,197.600 219.601 C 197.600 219.826,197.441 220.323,197.247 220.705 C 196.825 221.535,196.378 222.620,195.182 225.727 C 193.347 230.489,189.338 235.284,185.133 237.745 L 183.266 238.837 151.424 238.824 C 116.258 238.810,118.951 239.003,115.400 236.250 C 111.139 232.946,109.191 230.069,106.430 223.000 C 105.485 220.580,104.462 218.015,104.156 217.300 C 103.850 216.585,103.318 215.325,102.974 214.500 C 98.589 203.993,93.310 195.996,84.972 187.230 C 76.953 178.800,76.166 177.743,74.840 173.640 C 74.184 171.612,74.223 101.937,74.880 101.280 C 75.486 100.674,226.640 100.585,227.600 101.191 C 228.104 101.509,228.232 103.510,228.400 113.756 C 228.635 128.082,228.982 129.112,233.800 129.780 L 235.400 130.002 233.452 129.284 C 232.380 128.889,230.985 127.986,230.352 127.277 L 229.200 125.987 229.187 114.094 C 229.174 101.599,229.152 101.438,227.326 100.465 C 226.019 99.769,76.600 99.809,75.225 100.506 M141.400 130.889 C 123.096 134.357,104.005 146.506,105.376 153.814 C 106.369 159.106,111.926 160.284,116.400 156.151 C 136.178 137.883,165.347 137.632,185.550 155.555 C 190.798 160.211,195.641 159.662,197.138 154.241 C 198.645 148.782,184.955 137.710,171.400 133.426 C 167.141 132.080,166.772 131.989,160.869 130.821 C 158.290 130.311,144.191 130.360,141.400 130.889 M160.200 131.402 C 166.078 132.363,169.382 133.211,173.488 134.813 C 177.737 136.472,181.361 138.276,184.078 140.084 C 185.331 140.918,186.546 141.600,186.778 141.600 C 187.010 141.600,187.200 141.741,187.200 141.914 C 187.200 142.086,187.718 142.533,188.351 142.907 C 188.984 143.281,190.036 144.085,190.689 144.694 C 191.342 145.302,192.589 146.443,193.460 147.228 C 196.720 150.169,197.564 152.563,196.241 155.121 C 194.293 158.887,190.473 159.240,186.938 155.981 C 182.200 151.611,176.179 147.697,170.900 145.553 C 170.295 145.308,169.487 144.948,169.105 144.753 C 168.723 144.559,168.059 144.400,167.629 144.400 C 167.199 144.400,166.736 144.220,166.600 144.000 C 166.464 143.780,165.859 143.600,165.256 143.600 C 164.653 143.600,163.989 143.438,163.780 143.241 C 162.066 141.622,140.734 141.622,139.020 143.241 C 138.811 143.438,138.234 143.600,137.739 143.600 C 137.243 143.600,136.334 143.802,135.719 144.050 C 135.103 144.297,134.240 144.633,133.800 144.796 C 127.578 147.104,122.603 150.067,117.400 154.564 C 115.860 155.896,114.510 157.088,114.400 157.215 C 111.358 160.719,104.250 155.556,106.010 151.121 C 106.555 149.746,110.000 146.137,112.661 144.153 C 113.507 143.521,114.290 142.902,114.400 142.776 C 115.067 142.013,119.131 139.573,123.126 137.536 C 129.032 134.525,135.027 132.625,143.000 131.237 C 146.287 130.666,156.275 130.761,160.200 131.402 M146.000 157.438 C 136.439 159.168,125.409 165.749,124.569 170.224 C 123.390 176.507,130.711 180.339,134.948 175.657 C 141.954 167.916,157.885 167.256,166.093 174.366 C 170.824 178.463,174.460 178.792,177.154 175.367 C 180.441 171.189,175.105 163.765,166.400 160.406 C 165.630 160.109,164.820 159.749,164.600 159.605 C 164.380 159.462,163.390 159.111,162.400 158.825 C 161.410 158.540,160.060 158.130,159.400 157.914 C 158.134 157.500,147.705 157.129,146.000 157.438 M158.874 158.455 C 159.244 158.645,159.999 158.800,160.550 158.800 C 161.102 158.800,161.664 158.980,161.800 159.200 C 161.936 159.420,162.387 159.600,162.802 159.600 C 165.999 159.600,176.317 167.078,177.594 170.321 C 179.567 175.329,172.190 179.539,168.404 175.566 C 166.418 173.481,163.441 171.659,159.041 169.837 C 152.243 167.022,140.626 169.390,135.265 174.684 C 132.006 177.903,128.731 178.103,126.141 175.241 C 123.610 172.444,124.876 168.769,129.582 165.257 C 130.362 164.676,131.348 163.885,131.775 163.500 C 132.202 163.115,132.742 162.796,132.975 162.791 C 133.209 162.786,133.850 162.430,134.400 162.000 C 134.950 161.570,135.715 161.214,136.100 161.209 C 136.485 161.204,136.800 161.020,136.800 160.800 C 136.800 160.580,137.149 160.400,137.576 160.400 C 138.003 160.400,138.464 160.220,138.600 160.000 C 138.736 159.780,139.276 159.600,139.800 159.600 C 140.324 159.600,140.852 159.440,140.973 159.244 C 141.740 158.002,156.703 157.342,158.874 158.455 M149.674 185.197 C 145.961 186.073,144.200 190.423,146.186 193.813 C 149.214 198.980,157.200 196.971,157.200 191.042 C 157.200 186.823,153.841 184.214,149.674 185.197 M153.988 186.112 C 156.579 187.423,157.483 190.877,155.949 193.605 C 153.070 198.727,145.442 196.025,146.108 190.118 C 146.515 186.505,150.631 184.413,153.988 186.112 M121.231 251.436 C 119.506 252.887,119.326 259.971,120.965 261.878 L 121.931 263.000 151.354 263.000 L 180.778 263.000 181.689 262.089 C 183.221 260.557,183.067 252.732,181.478 251.365 L 180.355 250.400 151.408 250.400 L 122.461 250.400 121.231 251.436 M180.946 251.629 C 181.966 252.431,182.000 252.594,182.000 256.698 C 182.000 263.100,185.751 262.400,151.464 262.400 L 122.252 262.400 121.326 261.530 C 120.253 260.522,119.941 253.625,120.913 252.371 C 122.104 250.833,122.268 250.825,151.446 250.812 C 179.628 250.800,179.902 250.808,180.946 251.629 M129.424 275.047 C 129.279 275.623,129.238 276.172,129.332 276.266 C 129.427 276.360,129.619 275.977,129.760 275.415 L 130.017 274.393 151.308 274.496 L 172.600 274.600 172.800 276.600 C 173.010 278.704,173.582 277.943,173.595 275.543 C 173.603 273.973,173.995 274.000,151.011 274.000 L 129.687 274.000 129.424 275.047 M129.644 278.088 C 129.536 281.752,134.964 287.634,138.400 287.575 C 139.141 287.563,138.882 287.359,137.400 286.788 C 133.598 285.323,130.764 282.075,130.030 278.341 L 129.688 276.600 129.644 278.088 M171.888 280.528 C 171.012 282.666,168.128 285.702,166.334 286.375 C 163.714 287.357,163.296 287.636,164.800 287.400 C 167.936 286.908,173.201 281.612,172.734 279.420 C 172.658 279.063,172.292 279.542,171.888 280.528 M145.724 287.899 C 148.983 287.967,154.203 287.966,157.324 287.899 C 160.446 287.831,157.780 287.776,151.400 287.777 C 145.020 287.777,142.466 287.832,145.724 287.899 " stroke="none" fill="#1f4f6c" fill-rule="evenodd"></path><path id="path4" d="M312.400 217.069 C 304.103 218.400,292.219 222.348,290.400 224.378 C 290.290 224.501,289.660 224.871,289.000 225.200 C 288.340 225.529,287.710 225.904,287.600 226.033 C 287.490 226.162,286.468 226.890,285.328 227.651 C 273.720 235.404,264.664 248.941,261.546 263.200 C 260.411 268.389,260.285 271.399,259.994 300.200 C 259.698 329.573,259.535 334.166,258.761 334.980 C 258.563 335.189,258.400 335.716,258.400 336.152 C 258.400 337.004,257.720 339.367,257.151 340.495 C 256.958 340.877,256.800 341.389,256.800 341.634 C 256.800 342.332,253.594 348.767,252.034 351.200 C 246.311 360.129,237.283 367.439,227.200 371.309 C 226.650 371.521,225.887 371.852,225.505 372.047 C 223.359 373.139,220.291 371.879,218.609 369.214 C 217.359 367.235,216.501 367.048,217.657 369.007 C 219.639 372.366,223.019 373.674,226.281 372.344 C 229.541 371.015,230.418 370.621,232.836 369.404 C 244.636 363.463,253.046 354.090,257.604 341.800 C 257.767 341.360,258.103 340.497,258.350 339.881 C 258.598 339.266,258.800 338.331,258.800 337.805 C 258.800 337.278,258.980 336.736,259.200 336.600 C 259.420 336.464,259.600 335.679,259.600 334.856 C 259.600 334.033,259.766 333.189,259.969 332.980 C 260.650 332.278,260.833 326.738,261.163 296.800 C 261.385 276.621,261.643 266.290,261.962 264.800 C 262.221 263.590,262.536 262.013,262.661 261.296 C 262.786 260.579,263.049 259.894,263.244 259.773 C 263.440 259.652,263.600 259.124,263.600 258.600 C 263.600 258.076,263.780 257.536,264.000 257.400 C 264.220 257.264,264.400 256.801,264.400 256.371 C 264.400 255.941,264.559 255.277,264.754 254.895 C 264.949 254.513,265.984 252.405,267.054 250.211 C 269.171 245.872,272.192 241.115,274.400 238.643 C 277.210 235.498,281.118 231.757,283.431 230.000 C 284.734 229.010,285.860 228.065,285.933 227.900 C 286.007 227.735,286.288 227.600,286.558 227.600 C 286.828 227.600,287.407 227.285,287.845 226.900 C 288.808 226.053,289.336 225.748,294.085 223.288 C 297.423 221.559,303.819 219.252,307.000 218.629 C 320.311 216.022,325.600 217.454,325.600 223.667 C 325.600 228.101,323.047 229.945,316.206 230.455 C 302.679 231.463,288.081 239.413,282.544 248.787 C 282.150 249.454,281.686 250.000,281.514 250.000 C 281.341 250.000,281.200 250.193,281.200 250.428 C 281.200 250.663,280.698 251.608,280.084 252.528 C 277.353 256.621,275.093 262.734,273.920 269.200 C 273.695 270.438,273.389 285.047,273.221 302.600 C 272.888 337.277,273.035 335.385,269.961 344.575 C 263.160 364.905,245.358 381.266,224.729 386.146 C 218.502 387.620,218.839 387.512,220.302 387.559 C 224.640 387.696,243.025 380.540,244.800 378.024 C 244.910 377.868,246.159 376.958,247.576 376.003 C 250.332 374.146,258.320 366.446,260.236 363.800 C 260.874 362.920,261.487 362.110,261.599 362.000 C 264.320 359.324,269.766 347.968,271.574 341.200 C 271.838 340.210,272.222 338.847,272.427 338.172 C 272.632 337.496,272.800 336.449,272.800 335.845 C 272.800 335.241,273.018 334.354,273.285 333.874 C 273.647 333.221,273.837 324.902,274.035 301.000 C 274.228 277.815,274.434 268.559,274.784 267.400 C 275.050 266.520,275.450 265.080,275.673 264.200 C 275.896 263.320,276.240 262.287,276.439 261.905 C 276.638 261.523,276.800 260.957,276.800 260.646 C 276.800 260.335,277.340 259.055,278.000 257.800 C 278.660 256.545,279.200 255.350,279.200 255.144 C 279.200 254.405,284.009 247.636,286.265 245.200 C 294.253 236.571,306.985 230.837,318.222 230.807 C 321.229 230.800,324.483 229.326,325.083 227.701 C 325.225 227.316,325.501 226.892,325.696 226.761 C 325.891 226.629,326.050 225.299,326.050 223.805 C 326.050 218.046,321.208 215.657,312.400 217.069 M144.538 315.300 C 144.715 331.875,144.953 334.694,146.720 341.200 C 150.076 353.556,159.538 367.758,169.013 374.665 C 169.666 375.141,171.057 376.176,172.103 376.965 C 173.150 377.754,174.185 378.400,174.403 378.400 C 174.622 378.400,174.801 378.535,174.803 378.700 C 174.805 378.865,175.210 379.201,175.703 379.446 C 176.196 379.691,178.033 380.642,179.784 381.560 C 185.281 384.442,191.778 386.558,199.424 387.957 C 202.022 388.432,216.946 388.524,218.085 388.072 C 218.462 387.922,214.682 387.797,209.685 387.793 C 200.097 387.785,196.685 387.331,189.904 385.156 C 186.060 383.924,181.508 381.830,177.659 379.523 C 176.262 378.685,174.957 378.000,174.759 378.000 C 174.562 378.000,174.400 377.820,174.400 377.600 C 174.400 377.380,174.164 377.200,173.875 377.200 C 173.587 377.200,172.996 376.885,172.562 376.500 C 172.127 376.115,170.968 375.175,169.986 374.412 C 161.315 367.671,151.591 354.713,149.787 347.496 C 149.636 346.889,149.351 346.294,149.156 346.173 C 148.960 346.052,148.800 345.601,148.800 345.171 C 148.800 344.741,148.638 344.077,148.439 343.695 C 148.102 343.046,147.739 341.785,146.830 338.100 C 145.493 332.683,145.421 331.557,145.411 315.800 L 145.400 299.800 151.500 299.690 L 157.600 299.579 157.617 312.490 C 157.634 325.031,158.090 331.807,159.180 335.700 C 159.411 336.525,159.759 337.785,159.954 338.500 C 163.296 350.776,173.764 363.455,185.400 369.320 C 192.002 372.647,195.611 373.784,197.580 373.157 C 199.013 372.701,201.600 370.575,201.600 369.853 C 201.600 369.639,201.898 369.134,202.262 368.731 C 202.673 368.277,202.745 368.000,202.452 368.000 C 202.193 368.000,201.497 368.800,200.907 369.777 C 199.357 372.343,194.717 373.677,193.070 372.030 C 192.833 371.793,192.382 371.600,192.066 371.600 C 190.068 371.600,179.933 365.739,176.200 362.426 C 170.354 357.236,162.000 345.537,162.000 342.539 C 162.000 342.237,161.820 341.632,161.600 341.195 C 161.380 340.758,161.020 340.042,160.800 339.605 C 160.580 339.168,160.400 338.369,160.400 337.829 C 160.400 337.289,160.220 336.736,160.000 336.600 C 159.780 336.464,159.600 335.679,159.600 334.856 C 159.600 334.033,159.380 333.140,159.111 332.871 C 158.747 332.507,158.590 328.379,158.495 316.691 C 158.425 308.061,158.282 300.595,158.176 300.100 C 157.987 299.209,157.914 299.200,151.175 299.200 L 144.366 299.200 144.538 315.300 " stroke="none" fill="#695e2c" fill-rule="evenodd"></path></g></svg>